<?xml version="1.0" encoding="UTF-8" standalone="no"?>
<!-- Created with Inkscape (http://www.inkscape.org/) -->

<svg
   xmlns:dc="http://purl.org/dc/elements/1.1/"
   xmlns:cc="http://creativecommons.org/ns#"
   xmlns:rdf="http://www.w3.org/1999/02/22-rdf-syntax-ns#"
   xmlns:svg="http://www.w3.org/2000/svg"
   xmlns="http://www.w3.org/2000/svg"
   xmlns:sodipodi="http://sodipodi.sourceforge.net/DTD/sodipodi-0.dtd"
   xmlns:inkscape="http://www.inkscape.org/namespaces/inkscape"
   width="160.58784"
   height="219.91579"
   viewBox="0 0 42.488866 58.186054"
   version="1.1"
   id="svg5338"
   inkscape:version="0.92.5 (2060ec1f9f, 2020-04-08)"
   sodipodi:docname="alarm.svg">
  <defs
     id="defs5332" />
  <sodipodi:namedview
     id="base"
     pagecolor="#ffffff"
     bordercolor="#666666"
     borderopacity="1.0"
     inkscape:pageopacity="0.0"
     inkscape:pageshadow="2"
     inkscape:zoom="0.35"
     inkscape:cx="-622.46297"
     inkscape:cy="-195.7564"
     inkscape:document-units="mm"
     inkscape:current-layer="layer1"
     showgrid="false"
     units="px"
     fit-margin-right="-0.2"
     fit-margin-top="0"
     fit-margin-left="0"
     fit-margin-bottom="0"
     inkscape:window-width="1920"
     inkscape:window-height="1080"
     inkscape:window-x="1920"
     inkscape:window-y="0"
     inkscape:window-maximized="0" />
  <metadata
     id="metadata5335">
    <rdf:RDF>
      <cc:Work
         rdf:about="">
        <dc:format>image/svg+xml</dc:format>
        <dc:type
           rdf:resource="http://purl.org/dc/dcmitype/StillImage" />
        <dc:title></dc:title>
      </cc:Work>
    </rdf:RDF>
  </metadata>
  <g
     inkscape:label="Layer 1"
     inkscape:groupmode="layer"
     id="layer1"
     transform="translate(-69.443328,-46.412915)">
    <path
       style="stroke-width:0.03527778"
       inkscape:connector-curvature="0"
       d="m 102.72276,47.147083 c -2.08139,1.12889 -3.069166,1.97556 -4.127496,3.56306 -1.23472,1.83444 -1.23472,2.8575 -0.0353,3.81 0.81139,0.635 0.88194,0.84667 0.59972,1.69333 l -0.35278,0.9525 -4.02166,-0.0353 h -4.05695 l -0.10583,-2.46945 -0.10583,-2.50472 1.48166,-0.56445 c 1.44639,-0.56444 1.44639,-0.59972 1.19945,-1.905 -0.10584,-0.74083 -0.35278,-1.44638 -0.45861,-1.5875 -0.14111,-0.14111 -1.48167,-0.14111 -2.99861,0.0353 -2.92806,0.28222 -3.42195,0.56445 -3.42195,2.15195 0,1.27 0.38806,1.69333 1.5875,1.83444 l 1.05833,0.10583 -0.0706,2.43417 c -0.0706,2.78695 -0.10583,2.8575 -3.06916,3.21028 -1.12889,0.14111 -2.64584,0.45861 -3.38667,0.70555 -0.74083,0.24695 -1.44639,0.38806 -1.55222,0.28223 -0.52917,-0.52917 -0.14111,-1.55223 0.77611,-2.01084 0.56444,-0.28222 1.19944,-0.74083 1.44639,-1.02305 0.635,-0.81139 -0.17639,-1.12889 -0.91722,-0.38806 -2.04611,2.04611 -8.29028,3.63361 -9.77194,2.50472 -0.67028,-0.49388 -0.67028,-0.67027 -0.24695,-3.10444 0.24695,-1.44639 0.70556,-3.13972 1.02306,-3.81 0.70555,-1.51694 2.32833,-2.50472 4.1275,-2.50472 2.68111,0 2.92805,0.21166 3.73944,2.8575 0.70556,2.32833 1.16417,3.10444 1.62278,2.64583 0.3175,-0.3175 -0.9525,-4.72722 -1.62278,-5.53861 -0.635,-0.77611 -3.84528,-1.30528 -5.46805,-0.88194 -1.51695,0.38805 -3.28084,2.2225 -3.88056,4.02166 -0.74083,2.32834 -1.02306,5.53861 -0.59972,6.35 0.74083,1.37584 3.56305,1.83445 5.75028,0.9525 0.45861,-0.17639 0.70555,0 0.98777,0.70556 0.45861,1.23472 0.0353,1.76389 -2.29305,2.78694 -4.48028,2.01084 -6.45584,7.33778 -6.06778,16.58056 0.14111,3.73944 0.35278,5.15055 1.12889,7.44361 1.16417,3.4925 2.11667,4.79778 4.79778,6.45583 1.12889,0.70556 2.08139,1.48167 2.08139,1.65806 0,0.35278 -0.49389,1.16417 -2.96334,4.79778 -0.56444,0.846657 -1.23472,1.340547 -1.94028,1.481657 -1.41111,0.28223 -1.94027,1.30528 -1.23472,2.29306 0.635,0.91722 1.79917,0.98778 2.89278,0.21167 0.635,-0.42334 0.77611,-0.77611 0.59972,-1.51695 -0.17639,-0.77611 0.14111,-1.41111 1.48167,-3.316107 0.91722,-1.27 1.86972,-2.57528 2.04611,-2.8575 0.3175,-0.49389 0.56444,-0.45861 2.18722,0.3175 0.98778,0.49389 3.70417,1.30528 5.99723,1.79917 3.52777,0.77611 4.65666,0.88194 7.51416,0.70555 3.4925,-0.24694 4.7625,-0.52916 7.373056,-1.69333 0.84666,-0.35278 1.55222,-0.635 1.5875,-0.56445 0.0706,0.0706 0.67028,1.34056 1.37583,2.8575 0.84667,1.799167 1.23472,3.069167 1.09361,3.598337 -0.10583,0.49389 0.0353,0.98778 0.38806,1.37583 1.12889,1.12889 4.05694,0.38806 4.05694,-1.05833 0,-0.84667 -0.59972,-1.19945 -2.15194,-1.19945 -0.81139,0 -1.05834,-0.17639 -1.23472,-0.98777 -0.14112,-0.52917 -0.70556,-1.869727 -1.30528,-2.998617 l -1.05834,-2.01083 2.15195,-2.15194 c 3.56305,-3.4925 5.00944,-7.33778 5.53861,-14.605 0.28222,-3.56306 -0.0706,-5.89139 -1.44639,-9.98361 -1.72861,-5.18584 -3.35139,-7.54945 -7.02028,-10.16001 -1.23472,-0.84666 -0.9525,-1.55222 0.635,-1.55222 0.635,0 1.97556,-0.49389 2.99861,-1.05833 1.76389,-1.02306 2.15195,-1.51695 1.55223,-1.905 -0.17639,-0.10583 -0.17639,-1.23472 0,-2.50472 0.35277,-2.64584 -0.0706,-4.55084 -1.12889,-5.11528 -1.09361,-0.59972 -3.28084,-0.38806 -4.7625,0.38805 z m 4.58611,1.16417 c 0.45861,0.67028 0.49389,1.41111 0.3175,3.73945 -0.21167,2.57527 -0.35278,2.92805 -1.16417,3.45722 -0.49389,0.35278 -1.5875,0.59972 -2.50472,0.59972 -1.34056,0 -1.905,-0.24694 -3.42194,-1.41111 -1.023056,-0.77611 -1.834446,-1.5875 -1.869726,-1.79917 0,-0.17639 0.45861,-1.09361 1.02306,-2.01083 1.904996,-2.92806 6.385276,-4.48028 7.619996,-2.57528 z m -15.416386,1.51695 c -0.0706,0.45861 -0.59972,0.70555 -1.86972,0.88194 -1.905,0.28222 -2.64584,0.17639 -2.64584,-0.42333 0,-0.56445 1.37584,-1.02306 3.10445,-1.02306 1.27,-0.0353 1.51694,0.0706 1.41111,0.56445 z m 9.560276,6.77333 c 0.67028,0.42333 0.21166,1.44639 -0.635,1.44639 -0.917216,0 -1.269996,-0.59972 -0.74084,-1.23472 0.49389,-0.59973 0.70556,-0.635 1.37584,-0.21167 z m -21.731106,2.15194 c 0.21166,0.84667 -0.42334,1.34056 -0.84667,0.67028 -0.45861,-0.74083 -0.38806,-1.37583 0.17639,-1.37583 0.24694,0 0.56444,0.3175 0.67028,0.70555 z m 17.53305,-0.21166 c 6.385276,0.56444 9.948336,3.81 12.276666,11.14778 1.19944,3.73944 1.44639,5.85611 1.12889,9.87777 -0.42334,5.08 -0.635,6.17361 -1.79917,8.74889 -1.83444,4.09222 -4.58611,6.49111 -9.207496,8.04334 -2.54,0.84666 -3.45722,0.9525 -6.80861,0.9525 -5.99722,-0.0706 -12.10028,-1.905 -16.01611,-4.83306 -0.67028,-0.49389 -1.37584,-0.91722 -1.55222,-0.91722 -0.49389,0 -1.94028,-1.72861 -2.71639,-3.21028 -2.82223,-5.36222 -2.8575,-16.86278 -0.10584,-21.94278 1.09361,-1.97555 2.89278,-3.52778 3.73945,-3.21028 0.35278,0.10584 1.23472,-0.35277 2.32833,-1.19944 0.98778,-0.81139 2.64583,-1.72861 3.63361,-2.11667 2.50472,-0.91722 9.70139,-1.86972 12.10028,-1.62278 0.38806,0.0706 1.72861,0.17639 2.99861,0.28223 z"
       id="path1958" />
    <path
       style="stroke-width:0.03527778"
       inkscape:connector-curvature="0"
       d="m 90.551924,62.140143 c -2.50472,0.38806 -4.90361,0.98778 -6.06777,1.5875 -0.74084,0.38806 -1.76389,0.67028 -2.32834,0.67028 -1.12889,0 -3.63361,1.51694 -5.08,3.03389 -1.41111,1.51694 -3.56305,6.35 -3.73944,8.46666 -0.28222,3.13973 0.45861,6.38528 2.2225,9.91306 1.97555,3.84528 3.81,5.82083 6.84389,7.26722 1.94027,0.91722 2.78694,1.09361 5.89139,1.23472 2.96333,0.14112 4.02166,0.0353 6.0325,-0.56444 4.72722,-1.44639 9.242766,-5.00944 10.794996,-8.53722 0.91722,-2.01084 1.19944,-6.59695 0.635,-9.63084 -0.24695,-1.19944 -1.05834,-3.45722 -1.79917,-5.00944 -2.36361,-4.83306 -5.714996,-7.58472 -10.124716,-8.29028 -1.12889,-0.21167 -2.11667,-0.3175 -2.2225,-0.3175 -0.10584,0.0353 -0.56445,0.10583 -1.05834,0.17639 z m 5.36223,1.76389 c 3.10444,0.98778 6.349996,4.58611 7.937496,8.92528 1.30527,3.42194 1.51694,8.64305 0.49389,11.35944 -2.43417,6.45584 -11.782776,10.65389 -19.261666,8.64306 -4.16278,-1.09361 -6.13834,-2.82222 -8.53722,-7.44361 -2.71639,-5.29167 -2.89278,-9.48973 -0.56445,-14.14639 1.05833,-2.11667 1.83445,-3.13972 3.28083,-4.30389 1.83445,-1.51695 1.94028,-1.55222 3.95112,-1.41111 1.79916,0.14111 2.04611,0.0705 1.86972,-0.45861 -0.17639,-0.49389 0.24694,-0.70556 2.18722,-1.16417 4.05695,-0.9525 5.57389,-0.9525 8.64306,0 z"
       id="path1960" />
    <path
       style="stroke-width:0.03527778"
       inkscape:connector-curvature="0"
       d="m 87.588594,67.996253 c -0.52917,3.88056 -0.84667,10.68917 -0.56444,11.04195 0.17639,0.21166 0.88194,0.3175 1.51694,0.24694 0.91722,-0.10583 1.19945,-0.28222 1.05833,-0.70556 -0.10583,-0.52916 2.39889,-2.96333 6.24417,-5.99722 1.02306,-0.84666 0.74083,-1.41111 -0.42333,-0.88194 -0.45861,0.21167 -2.11667,1.51694 -3.66889,2.89278 -1.5875,1.37583 -3.06917,2.50472 -3.31611,2.50472 -0.35278,0 -0.42334,-0.98778 -0.21167,-4.51556 0.10583,-2.46944 0.3175,-4.83305 0.42333,-5.29166 0.17639,-0.56445 0.0706,-0.77611 -0.3175,-0.77611 -0.38805,0 -0.635,0.45861 -0.74083,1.48166 z"
       id="path1962" />
    <path
       style="stroke-width:0.03527778"
       inkscape:connector-curvature="0"
       d="m 96.302204,78.614863 c 0.17639,0.59972 2.25778,0.67028 2.46945,0.0705 0.17639,-0.35277 -0.14111,-0.49388 -1.19945,-0.45861 -0.88194,0 -1.34055,0.17639 -1.27,0.38806 z"
       id="path1964" />
    <path
       style="stroke-width:0.03527778"
       inkscape:connector-curvature="0"
       d="m 99.547764,78.509033 c -0.28222,0.42333 0.705546,0.84667 1.234716,0.52917 0.21167,-0.10584 0.28222,-0.38806 0.17639,-0.56445 -0.28222,-0.42333 -1.128886,-0.42333 -1.411106,0.0353 z"
       id="path1966" />
    <path
       style="stroke-width:0.03527778"
       inkscape:connector-curvature="0"
       d="m 90.622484,78.932363 c 0.10583,0.24695 0.45861,0.52917 0.77611,0.56445 0.42333,0.10583 0.59972,-0.0353 0.49389,-0.35278 -0.10583,-0.24695 -0.45861,-0.52917 -0.77611,-0.56445 -0.42333,-0.10583 -0.59972,0.0353 -0.49389,0.35278 z"
       id="path1968" />
    <path
       style="stroke-width:0.03527778"
       inkscape:connector-curvature="0"
       d="m 92.386374,78.932363 c 0.21167,0.635 0.98778,0.74084 0.98778,0.14111 0,-0.3175 -0.24695,-0.56444 -0.56445,-0.56444 -0.3175,0 -0.49389,0.17639 -0.42333,0.42333 z"
       id="path1970" />
    <path
       style="stroke-width:0.03527778"
       inkscape:connector-curvature="0"
       d="m 94.079704,78.861813 c 0,0.17639 0.3175,0.35277 0.70556,0.35277 0.38805,0 0.70555,-0.17638 0.70555,-0.35277 0,-0.21167 -0.3175,-0.35278 -0.70555,-0.35278 -0.38806,0 -0.70556,0.14111 -0.70556,0.35278 z"
       id="path1972" />
  </g>
</svg>
