<?xml version="1.0" encoding="UTF-8" standalone="no"?>
<!-- Created with Inkscape (http://www.inkscape.org/) -->

<svg
   xmlns:dc="http://purl.org/dc/elements/1.1/"
   xmlns:cc="http://creativecommons.org/ns#"
   xmlns:rdf="http://www.w3.org/1999/02/22-rdf-syntax-ns#"
   xmlns:svg="http://www.w3.org/2000/svg"
   xmlns="http://www.w3.org/2000/svg"
   xmlns:sodipodi="http://sodipodi.sourceforge.net/DTD/sodipodi-0.dtd"
   xmlns:inkscape="http://www.inkscape.org/namespaces/inkscape"
   width="749.91199mm"
   height="78.684265mm"
   viewBox="0 0 599.9296 62.94741"
   version="1.1"
   id="svg6868"
   inkscape:version="0.92.5 (2060ec1f9f, 2020-04-08)"
   sodipodi:docname="buffer_flush.svg">
  <defs
     id="defs6862" />
  <sodipodi:namedview
     id="base"
     pagecolor="#ffffff"
     bordercolor="#666666"
     borderopacity="1.0"
     inkscape:pageopacity="0.0"
     inkscape:pageshadow="2"
     inkscape:zoom="0.35"
     inkscape:cx="668.70248"
     inkscape:cy="297.02408"
     inkscape:document-units="mm"
     inkscape:current-layer="layer1"
     showgrid="false"
     scale-x="0.8"
     fit-margin-top="0"
     fit-margin-left="0"
     fit-margin-right="0"
     fit-margin-bottom="0"
     inkscape:window-width="1920"
     inkscape:window-height="1080"
     inkscape:window-x="0"
     inkscape:window-y="0"
     inkscape:window-maximized="0" />
  <metadata
     id="metadata6865">
    <rdf:RDF>
      <cc:Work
         rdf:about="">
        <dc:format>image/svg+xml</dc:format>
        <dc:type
           rdf:resource="http://purl.org/dc/dcmitype/StillImage" />
        <dc:title></dc:title>
      </cc:Work>
    </rdf:RDF>
  </metadata>
  <g
     inkscape:label="Layer 1"
     inkscape:groupmode="layer"
     id="layer1"
     transform="translate(223.78964,-118.98935)">
    <path
       style="fill:#000000;stroke:none;stroke-width:0.03527778"
       d="m 375.70692,168.17843 c -0.67026,0 -3.66889,3.10445 -3.70416,3.81 0,0.81139 1.0936,0.42333 2.46943,-0.88194 1.55223,-1.55223 2.15197,-2.92806 1.23473,-2.92806 z"
       id="path3107"
       inkscape:connector-curvature="0" />
    <path
       style="fill:#000000;stroke:none;stroke-width:0.03527778"
       d="m 375.00136,143.83676 c -0.84667,-0.70555 -1.5875,-0.14111 -1.5875,1.19945 0,1.30527 0.52917,1.72861 1.51696,1.19944 0.74084,-0.38805 0.7761,-1.79917 0.0705,-2.39889 z"
       id="path3109"
       inkscape:connector-curvature="0" />
    <path
       style="fill:#000000;stroke:none;stroke-width:0.03527778"
       d="m 364.02999,151.42148 c -0.0706,-0.38805 -0.42333,-1.79916 -0.70557,-3.175 -1.37583,-5.99722 -6.42056,-14.81666 -8.85473,-15.52222 -0.74083,-0.21167 -0.7761,-0.10583 -0.70553,1.5875 0.0705,1.65806 0.1411,1.76389 0.81137,1.62278 0.635,-0.17639 1.02306,0.17639 2.2225,2.04611 3.24556,4.93889 5.18583,11.18306 5.57389,17.67417 0.24694,4.40972 -0.1411,7.3025 -1.55223,11.43 -1.79916,5.43278 -3.88053,8.78417 -6.84387,11.18306 -2.2225,1.76388 -2.50473,2.25777 -1.37583,2.25777 3.175,0 7.72583,-6.20889 10.4775,-14.32278 0.84667,-2.50472 0.9525,-3.38666 1.02304,-8.43138 0.0706,-3.10445 0.0353,-5.96195 -0.0705,-6.35001 z"
       id="path3129"
       inkscape:connector-curvature="0" />
    <path
       style="fill:#000000;stroke:none;stroke-width:0.03527778"
       d="m 346.92026,160.06454 c -0.28223,-3.13972 -1.37584,-8.64306 -2.0461,-10.30111 -0.21167,-0.56445 -0.88197,-1.30528 -1.51697,-1.69333 -1.0936,-0.67028 -1.76387,-0.70556 -11.5711,-0.70556 -5.715,0.0353 -13.89943,0.17639 -18.16806,0.35278 -16.12194,0.67028 -28.53971,0.84666 -29.38637,0.38805 -0.635,-0.35277 -0.91724,-0.35277 -1.34057,0 -0.56443,0.45861 -15.24,0.28223 -29.95083,-0.35277 -4.05696,-0.17639 -7.62,-0.21167 -7.90223,-0.0353 -0.635,0.35277 -0.8114,8.5725 -0.3175,13.93472 0.17639,1.94028 0.35277,3.88055 0.38806,4.30389 0.10583,1.23472 0.59971,1.44639 3.59833,1.62277 2.75167,0.17639 13.15861,0.9525 21.51944,1.65806 2.32833,0.21167 8.53723,0.59972 13.75833,0.88195 5.2564,0.28222 11.04197,0.67027 12.8764,0.88194 8.4314,0.84667 24.4475,1.65806 39.1936,1.97556 l 10.795,0.24694 0.21167,-1.16417 c 0.3175,-1.48166 0.24696,-8.11389 -0.1411,-11.99444 z m -1.34057,10.68917 -0.21166,1.02305 -5.99721,-0.0353 c -3.28083,-0.0353 -7.83166,-0.14111 -10.05416,-0.24694 -18.415,-0.74083 -30.37417,-1.48167 -31.64417,-1.94028 -0.59973,-0.21167 -0.8114,-0.56444 -0.8114,-1.37583 0,-0.59973 -0.1764,-1.44639 -0.42333,-1.86973 -0.4586,-0.84666 -2.50473,-16.15722 -2.18723,-16.43944 0.10583,-0.10583 2.68113,-0.28222 5.67973,-0.3175 l 5.46806,-0.14111 -0.24696,5.25639 c -0.24694,5.46805 0.1764,9.59555 1.4464,13.26444 0.74083,2.18723 1.7639,2.2225 1.65806,0.0705 -0.0353,-0.17638 -0.3175,-1.62277 -0.67029,-3.175 -0.49387,-2.18722 -0.635,-4.09222 -0.59971,-8.53722 0.0353,-3.13972 0.21167,-5.99722 0.42334,-6.38528 0.3175,-0.635 1.02303,-0.70555 11.21833,-0.98777 13.89943,-0.38806 23.67137,-0.28223 24.37693,0.28222 0.67027,0.56444 1.09361,1.72861 1.72861,4.86833 0.88196,4.48028 1.41113,14.25222 0.84666,16.68639 z m -54.4336,-1.69333 c -2.18723,-0.14112 -4.5861,-0.35278 -5.32693,-0.49389 l -1.34057,-0.21167 -0.10583,-8.81945 c -0.0353,-4.83305 0,-9.03111 0.0706,-9.24277 0.10584,-0.3175 1.23471,-0.45862 3.98637,-0.45862 h 3.81 l 0.1764,1.16417 c 0.10583,0.59972 0.59973,4.09222 1.1289,7.72584 0.49387,3.63361 1.02304,7.05555 1.19943,7.58472 0.1764,0.56444 0.3175,1.44639 0.3175,1.97555 l 0.0353,1.02306 z m -8.3961,-2.43417 v 1.905 l -3.06917,-0.21167 c -1.72863,-0.14111 -3.21029,-0.42333 -3.3514,-0.635 -0.1411,-0.21167 -0.28223,-1.19944 -0.28223,-2.15194 0,-0.98778 -0.17637,-1.97556 -0.35277,-2.15195 -0.24696,-0.24694 -0.3175,-2.78694 -0.28223,-6.87917 l 0.10584,-6.49111 h 3.52779 3.52777 l 0.21167,6.35 c 0.10583,3.4925 0.1411,6.80862 0.0706,7.37306 -0.0706,0.56444 -0.10583,1.86972 -0.10583,2.89278 z m -11.71223,1.05833 c -2.01084,-0.14111 -3.9864,-0.35278 -4.40973,-0.45861 l -0.8114,-0.17639 v -8.60778 -8.64305 l 3.81,0.10583 3.77473,0.10583 0.24694,6.52639 c 0.10583,3.59834 0.38806,6.91445 0.56446,7.40834 0.21166,0.49389 0.38804,1.5875 0.38804,2.43416 l 0.0353,1.55223 z m -7.3025,-0.88194 c -0.10584,0.14111 -1.7639,0.17639 -3.6689,0.0706 -2.7164,-0.17639 -3.52777,-0.3175 -3.70417,-0.74084 -0.10583,-0.3175 0.0706,-2.8575 0.42334,-5.67972 0.74083,-6.13833 0.84666,-8.29028 0.4586,-9.80722 l -0.3175,-1.16417 h 2.64583 c 4.23334,0 4.23334,0 4.4803,7.44361 0.24693,6.06778 0.10583,9.45445 -0.3175,9.87778 z m -8.50196,-6.38528 c -0.17638,1.27 -0.35277,3.10444 -0.35277,4.1275 v 1.79917 l -4.1275,-0.17639 c -2.29307,-0.0706 -4.33917,-0.21167 -4.55084,-0.28223 -0.24693,-0.0705 -0.28223,-0.74083 -0.10583,-2.08138 0.1411,-1.09362 0.1764,-2.29306 0.0706,-2.68112 -0.10583,-0.38805 -0.0706,-3.35138 0.0705,-6.56166 l 0.24696,-5.82084 1.48167,0.17639 c 0.7761,0.10584 2.82221,0.28222 4.51554,0.42334 l 3.06917,0.21166 0.14112,1.09361 c 0.21167,1.41111 -0.0706,6.77334 -0.45862,9.77195 z"
       id="path3131"
       inkscape:connector-curvature="0" />
    <path
       style="fill:#000000;stroke:none;stroke-width:0.03527778"
       d="m 323.84859,163.59232 c -0.56443,-0.49389 -1.23473,-0.21167 -1.23473,0.56444 0,0.28223 0.3528,0.49389 0.88196,0.49389 0.98777,0 1.12887,-0.42333 0.35277,-1.05833 z"
       id="path3133"
       inkscape:connector-curvature="0" />
    <path
       style="fill:#000000;stroke:none;stroke-width:0.03527778"
       d="m 318.38053,162.88676 c -0.38804,0 -0.70554,0.24695 -0.70554,0.52917 0,0.28222 0.3175,0.52917 0.70554,0.52917 0.38806,0 0.70556,-0.24695 0.70556,-0.52917 0,-0.28222 -0.3175,-0.52917 -0.70556,-0.52917 z"
       id="path3135"
       inkscape:connector-curvature="0" />
    <path
       style="fill:#000000;stroke:none;stroke-width:0.03527778"
       d="m 312.73609,161.82843 c -0.4586,0 -0.70556,0.24694 -0.70556,0.70556 0,0.45861 0.24696,0.70555 0.70556,0.70555 0.4586,0 0.70557,-0.24694 0.70557,-0.70555 0,-0.45862 -0.24697,-0.70556 -0.70557,-0.70556 z"
       id="path3137"
       inkscape:connector-curvature="0" />
    <path
       style="fill:#000000;stroke:none;stroke-width:0.03527778"
       d="m 343.35719,138.61565 c -0.56443,-0.45861 -5.2211,-2.54 -5.64443,-2.54 -0.1764,0 -0.28223,0.35278 -0.21167,0.81139 0.0706,0.52917 0.635,1.02306 1.94027,1.65806 1.02306,0.49388 1.83446,1.05833 1.7639,1.23472 -0.0706,0.21166 -0.9525,0.77611 -2.01084,1.30527 -2.89276,1.51695 -4.02166,2.75167 -2.46943,2.75167 0.81137,0 4.55083,-1.79916 6.06777,-2.92805 1.05833,-0.77611 1.27,-1.69334 0.56443,-2.29306 z"
       id="path3139"
       inkscape:connector-curvature="0" />
    <path
       style="fill:#000000;stroke:none;stroke-width:0.03527778"
       d="m 337.92442,138.72148 c -0.17639,-0.45861 -43.70916,-0.35277 -46.39026,0.10584 -1.05834,0.17639 -3.24557,0.35278 -4.90363,0.38805 -1.65804,0.0353 -5.46804,0.21167 -8.46667,0.42334 -8.32556,0.56444 -28.50444,0.49389 -29.10417,-0.0706 -0.10583,-0.14111 0.42334,-0.49389 1.23473,-0.81139 1.55221,-0.59972 1.86971,-1.27 0.635,-1.27 -1.02306,0 -4.65666,1.12889 -6.35,1.94028 -0.98779,0.49389 -1.34056,0.88194 -1.34056,1.51694 0,0.59973 0.1411,0.81139 0.52917,0.635 0.35277,-0.10583 0.70556,0.17639 1.05833,0.81139 0.70556,1.41111 2.18723,2.50473 3.38667,2.50473 1.4111,0 1.27,-0.52917 -0.38807,-1.5875 -0.7761,-0.49389 -1.4111,-1.16417 -1.4111,-1.44639 0,-0.52917 1.0936,-0.56445 12.27667,-0.3175 7.97277,0.14111 14.00527,0.10583 17.35666,-0.14112 11.07723,-0.84666 20.3553,-1.12888 38.4528,-1.09361 21.06083,0 23.9536,-0.17638 23.42443,-1.5875 z"
       id="path3141"
       inkscape:connector-curvature="0" />
    <path
       style="fill:#000000;stroke:none;stroke-width:0.03527778"
       d="m 220.41413,170.15399 c -0.56444,-0.56445 -1.44637,-0.0353 -2.64583,1.65805 -1.41111,1.94028 -1.65804,2.71639 -0.84667,2.71639 1.05833,0 4.05696,-3.77472 3.4925,-4.37444 z"
       id="path3173"
       inkscape:connector-curvature="0" />
    <path
       style="fill:#000000;stroke:none;stroke-width:0.03527778"
       d="m 208.34913,149.58704 c -0.67027,-2.50472 -1.05833,-3.06917 -1.905,-2.71639 -1.4111,0.52917 0.14113,5.11528 1.79917,5.36222 0.42333,0.0706 0.74083,0 0.74083,-0.17639 -0.0353,-0.14111 -0.3175,-1.27 -0.635,-2.46944 z"
       id="path3177"
       inkscape:connector-curvature="0" />
    <path
       style="fill:#000000;stroke:none;stroke-width:0.03527778"
       d="m 203.19859,150.64537 c -0.635,-1.37583 -1.02306,-1.86972 -1.5875,-1.86972 -1.09363,0 -1.19946,0.81139 -0.35279,2.54 0.9525,1.83445 1.72862,2.75167 2.36362,2.75167 0.67027,0 0.52917,-1.34056 -0.42333,-3.42195 z"
       id="path3179"
       inkscape:connector-curvature="0" />
    <path
       style="fill:#000000;stroke:none;stroke-width:0.03527778"
       d="m 194.37913,163.38065 c -0.81137,-0.3175 -1.65804,0.14111 -1.51694,0.81139 0.0706,0.38806 0.4939,0.67028 1.09361,0.74083 0.77612,0.10584 0.9525,-0.0353 0.9525,-0.635 0,-0.38805 -0.24694,-0.81138 -0.52917,-0.91722 z"
       id="path3181"
       inkscape:connector-curvature="0" />
    <path
       style="fill:#000000;stroke:none;stroke-width:0.03527778"
       d="m 189.47553,163.73343 c -0.74084,-0.28222 -1.62277,0.45861 -1.37584,1.12889 0.28223,0.70555 1.65807,0.45861 1.79917,-0.3175 0.0706,-0.3175 -0.1411,-0.70556 -0.42333,-0.81139 z"
       id="path3183"
       inkscape:connector-curvature="0" />
    <path
       style="fill:#000000;stroke:none;stroke-width:0.03527778"
       d="m 186.61803,163.38065 c -0.3175,-0.14111 -0.74084,-0.0706 -0.9525,0.14111 -0.52917,0.52917 -0.0353,1.55223 0.67027,1.41111 0.81139,-0.14111 1.02306,-1.27 0.28223,-1.55222 z"
       id="path3185"
       inkscape:connector-curvature="0" />
    <path
       style="fill:#000000;stroke:none;stroke-width:0.03527778"
       d="m 181.67914,163.87454 c -0.10584,-0.10583 -0.35278,-1.69333 -0.52917,-3.4925 -0.21167,-1.83444 -0.52917,-4.55083 -0.74083,-6.06778 -0.88195,-6.06778 -3.03389,-5.15055 -5.46806,2.32834 -1.37583,4.33916 -1.79917,5.36222 -2.71639,6.70277 -0.52916,0.77612 -0.56444,1.09362 -0.24694,1.48167 0.635,0.77611 1.5875,0.10583 2.71639,-2.04611 0.9525,-1.76389 1.05833,-1.83444 2.75166,-2.01083 l 1.76389,-0.17639 0.52917,2.11666 c 0.42333,1.65806 0.67028,2.11667 1.19944,2.11667 0.67028,0 1.12889,-0.56444 0.74084,-0.9525 z m -4.26861,-4.65667 c -1.37584,-0.28222 -1.37584,-0.3175 -0.635,-2.89277 0.88194,-3.06917 1.48166,-2.8575 2.08139,0.74083 0.21166,1.16417 0.21166,2.18722 0.0705,2.25778 -0.14111,0.0353 -0.84667,0 -1.51694,-0.10584 z"
       id="path3187"
       inkscape:connector-curvature="0" />
    <path
       style="fill:#000000;stroke:none;stroke-width:0.03527778"
       d="m 167.99136,153.74982 c -0.9525,-0.77611 -3.06917,-1.44639 -4.62139,-1.44639 -1.23472,0 -1.5875,0.14111 -1.72861,0.70555 -0.21167,0.88195 -0.10583,0.9525 2.11667,1.27 2.82222,0.35278 2.96333,0.59973 1.37583,2.2225 -1.55222,1.58751 -1.5875,2.78695 -0.0353,3.49251 1.09361,0.49388 1.12889,1.48166 0.10583,2.43416 -1.19944,1.05834 -2.2225,1.51695 -3.45722,1.51695 -0.9525,0 -1.09361,0.10583 -0.98778,0.81139 0.21167,1.55222 3.28084,1.12888 5.3975,-0.70556 2.08139,-1.83444 2.50473,-3.84528 1.05834,-4.97417 -1.12889,-0.88194 -1.09361,-1.12889 0.17639,-2.36361 1.12889,-1.05833 1.37583,-2.29305 0.59972,-2.96333 z"
       id="path3189"
       inkscape:connector-curvature="0" />
    <path
       style="fill:#000000;stroke:none;stroke-width:0.03527778"
       d="m 156.98469,152.05648 c -0.67028,-0.24694 -3.77472,0.14112 -5.36222,0.635 -1.34056,0.42334 -2.50472,2.46945 -3.28083,5.71501 -0.59973,2.50472 -0.3175,2.8575 2.11666,2.75166 2.18722,-0.10583 2.36361,0.59972 0.49389,1.76389 -1.05833,0.635 -1.41111,0.70556 -1.94028,0.38806 -0.9525,-0.59973 -1.37583,-0.52917 -1.37583,0.21166 0,0.9525 0.70556,1.48167 2.04611,1.48167 1.34056,0 3.42195,-1.12889 3.95111,-2.11667 0.9525,-1.76389 -0.0705,-3.52777 -2.04611,-3.52777 -1.41111,0 -1.41111,-0.35278 -0.14111,-2.82223 0.98778,-1.86972 1.05833,-1.94028 3.06917,-2.39889 2.75166,-0.59972 3.84527,-1.51694 2.46944,-2.08139 z"
       id="path3215"
       inkscape:connector-curvature="0" />
    <path
       style="fill:#000000;stroke:none;stroke-width:0.03527778"
       d="m 142.27386,150.53954 c -0.24695,0 -1.37584,1.19944 -2.54,2.64583 -1.12889,1.44639 -2.25778,2.64584 -2.50473,2.64584 -0.24694,0 -0.635,-0.49389 -0.88194,-1.05834 -0.74083,-1.76389 -1.72861,-2.82222 -2.68111,-2.82222 -0.67028,0 -0.84667,0.17639 -0.84667,0.84667 0,0.49389 0.17639,0.98778 0.35278,1.09361 0.49389,0.28222 2.46944,3.77472 2.46944,4.30389 0,0.24694 -0.67027,1.27 -1.51694,2.29305 -2.04611,2.54 -2.8575,3.98639 -2.61056,4.65667 0.38806,0.98778 0.84667,0.635 2.96334,-2.08139 1.09361,-1.44639 2.11666,-2.64583 2.2225,-2.64583 0.10583,0 0.49389,0.52917 0.88194,1.12889 1.05834,1.83444 3.38667,4.16278 4.09222,4.16278 0.81139,0 0.88195,-0.81139 0.10584,-1.44639 -0.81139,-0.67028 -2.57528,-3.28084 -3.13972,-4.72723 -0.52917,-1.19944 -0.52917,-1.19944 1.76388,-4.55083 2.25778,-3.28083 2.71639,-4.445 1.86973,-4.445 z"
       id="path3217"
       inkscape:connector-curvature="0" />
    <path
       style="fill:#000000;stroke:none;stroke-width:0.03527778"
       d="m 128.05691,143.90732 c -0.84666,0.14111 -2.25778,2.96333 -2.29305,4.445 0,1.83444 0.98777,1.30528 1.79916,-0.98778 1.16417,-3.13972 1.19945,-3.63361 0.49389,-3.45722 z"
       id="path3219"
       inkscape:connector-curvature="0" />
    <path
       style="fill:#000000;stroke:none;stroke-width:0.03527778"
       d="m 125.76386,143.3076 c -0.67028,-0.42334 -1.72862,0.56444 -2.75167,2.64583 -1.05833,2.11667 -1.16417,3.52778 -0.21167,3.52778 0.28222,0 0.70556,-0.52917 0.98778,-1.19945 0.28222,-0.67028 0.91722,-1.83444 1.41111,-2.57528 0.98778,-1.41111 1.12889,-2.04611 0.56445,-2.39888 z"
       id="path3221"
       inkscape:connector-curvature="0" />
    <path
       style="fill:#000000;stroke:none;stroke-width:0.03527778"
       d="m 115.00413,131.13676 c -0.28222,-0.24694 -0.74083,-0.35278 -1.02305,-0.24694 -1.37584,0.52916 -7.37306,10.08944 -8.99584,14.35805 -2.39889,6.17361 -3.42194,15.45167 -2.32833,20.81389 1.65806,8.18445 6.6675,15.875 10.33639,15.875 1.69333,0 1.41111,-0.91722 -0.635,-1.94027 -1.83444,-0.9525 -3.31611,-2.61056 -4.79778,-5.53861 -3.24555,-6.38528 -4.02167,-12.48834 -2.61055,-20.77862 1.34055,-7.97278 3.66889,-12.91166 9.45444,-19.86139 1.27,-1.55222 1.37583,-2.04611 0.59972,-2.68111 z"
       id="path3223"
       inkscape:connector-curvature="0" />
    <path
       style="fill:#000000;stroke:none;stroke-width:0.03527778"
       d="m 85.758849,173.96399 c -0.49389,-0.10584 -1.37583,-0.77611 -1.97555,-1.41111 -1.41111,-1.62278 -1.48167,-2.99862 -0.35278,-7.72584 1.09361,-4.58611 1.37583,-7.51417 0.77611,-8.00806 -0.81139,-0.70555 -1.27,0.3175 -2.32833,5.43278 -1.37584,6.6675 -1.48167,7.02028 -2.71639,8.50195 -1.44639,1.76389 -2.64583,2.25778 -3.56306,1.41111 -1.37583,-1.23472 0.21167,-4.79778 2.54,-5.75028 0.81139,-0.3175 1.05834,-0.635 0.98778,-1.19944 -0.10583,-0.635 -0.35278,-0.74084 -1.65805,-0.74084 -1.55223,0 -1.5875,0.0353 -2.75167,2.11667 -1.51695,2.78695 -1.62278,5.25639 -0.24695,6.84389 1.34056,1.62278 3.175,1.55222 5.11528,-0.21167 0.81139,-0.74083 1.51695,-1.12889 1.65806,-0.9525 1.83444,2.68111 3.95111,3.70417 5.00944,2.43417 0.35278,-0.42333 0.24695,-0.52917 -0.49389,-0.74083 z"
       id="path3225"
       inkscape:connector-curvature="0" />
    <path
       style="fill:#000000;stroke:none;stroke-width:0.03527778"
       d="m 70.024959,170.11871 c -0.17638,-0.10583 -0.35277,-0.88195 -0.35277,-1.72861 0,-2.11667 -0.98778,-2.99861 -2.57528,-2.36361 -0.635,0.24694 -1.5875,0.56444 -2.15195,0.70555 -0.70555,0.14111 -1.12888,0.52917 -1.27,1.09361 -0.14111,0.49389 -0.59972,1.55223 -1.02305,2.39889 -0.84667,1.65806 -0.70556,2.99861 0.24694,2.82222 0.3175,-0.0705 1.09361,-0.81138 1.72861,-1.69333 2.8575,-3.95111 3.28084,-4.19806 3.28084,-1.97555 0,0.67027 0.28222,1.55222 0.67028,2.01083 0.56444,0.70555 0.74083,0.74083 1.23472,0.35278 0.635,-0.52917 0.74083,-1.30528 0.21166,-1.62278 z"
       id="path3227"
       inkscape:connector-curvature="0" />
    <path
       style="fill:#000000;stroke:none;stroke-width:0.03527778"
       d="m 60.782189,164.01565 c -2.82223,-1.44639 -5.18584,-1.02305 -7.44361,1.27 -1.12889,1.16417 -1.37584,1.65806 -1.41112,2.99861 -0.0705,1.34056 0.10584,1.79917 0.9525,2.68112 1.19945,1.23472 3.03389,1.97555 4.30389,1.65805 1.23473,-0.3175 1.05834,-0.74083 -0.67027,-1.41111 -0.84667,-0.3175 -1.905,-0.98778 -2.36362,-1.44639 -0.70555,-0.74083 -0.77611,-0.98778 -0.42333,-1.76389 0.35278,-0.74083 0.52917,-0.84667 1.09361,-0.52917 0.9525,0.49389 4.62139,0.42334 5.67972,-0.10583 1.27,-0.635 1.44639,-2.75167 0.28223,-3.35139 z m -3.45723,1.97556 c -0.49388,-0.0705 -0.88194,-0.24695 -0.88194,-0.45861 0,-0.42334 2.11667,-0.67028 2.92806,-0.35278 0.49388,0.21167 0.45861,0.3175 -0.28223,0.56444 -0.45861,0.21167 -1.27,0.3175 -1.76389,0.24695 z"
       id="path3229"
       inkscape:connector-curvature="0" />
    <path
       style="fill:#000000;stroke:none;stroke-width:0.03527778"
       d="m 50.904409,160.27621 c -1.09361,-0.77611 -2.8575,-0.70556 -4.51556,0.14111 -3.98639,2.04611 -3.66889,4.69194 0.81139,6.63222 2.01084,0.88195 2.15195,1.65806 0.49389,3.45722 -0.88194,0.9525 -1.48167,1.27 -2.71639,1.41112 -2.50472,0.3175 -2.68111,0.38805 -1.94028,1.19944 1.86973,2.08139 6.77334,-0.45861 7.44362,-3.81 0.3175,-1.5875 -0.52917,-2.68111 -3.06917,-3.95111 -2.43417,-1.23472 -2.57528,-1.79917 -0.67028,-3.10445 1.02306,-0.70555 1.55222,-0.81139 3.10445,-0.70555 2.04611,0.17639 2.43416,-0.3175 1.05833,-1.27 z"
       id="path3231"
       inkscape:connector-curvature="0" />
    <path
       style="fill:#000000;stroke:none;stroke-width:0.03527778"
       d="m 34.147459,168.42537 c -0.10583,-0.14111 -0.59972,-0.24694 -1.05833,-0.24694 -0.56444,0 -0.81139,0.21167 -0.81139,0.70556 0,0.38805 0.10584,0.70555 0.28222,0.70555 0.14112,0 0.59973,0.10584 1.05834,0.21167 0.59972,0.17639 0.77611,0.0705 0.77611,-0.45861 0,-0.38806 -0.10583,-0.81139 -0.24695,-0.91723 z"
       id="path3233"
       inkscape:connector-curvature="0" />
    <path
       style="fill:#000000;stroke:none;stroke-width:0.03527778"
       d="m 26.633299,160.94649 c -0.38806,-0.10584 -1.55222,-0.0706 -2.57528,0.14111 -2.36361,0.45861 -4.62139,0.59972 -4.79778,0.28222 -0.28222,-0.52917 0.77611,-7.16139 1.27,-7.9375 0.56445,-0.91722 0.35278,-1.48167 -0.59972,-1.48167 -1.16417,0 -1.622781,0.91722 -2.081391,4.1275 -0.599723,4.30389 -0.705556,4.69195 -1.44639,4.69195 -0.987777,0 -1.199443,0.635 -0.564443,1.5875 0.352777,0.52916 0.564443,1.62277 0.564443,2.99861 0,2.54 0.599723,4.19805 1.94028,5.22111 1.587501,1.27 4.762501,0.77611 5.044721,-0.77611 0.14111,-0.56445 -0.0353,-0.59972 -1.5875,-0.42333 -1.19944,0.14111 -1.86972,0.0705 -2.32833,-0.28223 -0.811391,-0.635 -1.234725,-2.43416 -0.952504,-4.09222 0.176394,-1.23472 0.176394,-1.23472 2.398894,-1.48167 4.05694,-0.45861 7.51416,-2.01083 5.715,-2.57527 z"
       id="path3235"
       inkscape:connector-curvature="0" />
    <path
       style="fill:#000000;stroke:none;stroke-width:0.03527778"
       d="m 13.686351,169.73065 c -0.352779,0.10584 -1.552223,0.28223 -2.645833,0.42334 -2.3988903,0.24694 -3.8100003,-0.38806 -3.8100003,-1.76389 0,-0.70556 0.211666,-0.84667 1.41111,-1.02306 2.2577773,-0.28222 4.6919443,-1.65805 5.1152773,-2.8575 0.282223,-0.84667 0.211667,-1.09361 -0.493887,-1.65805 -0.98778,-0.81139 -2.504723,-0.84667 -3.8805573,-0.17639 -1.5875,0.84666 -3.845277,3.56305 -4.092223,4.93889 l -0.246943,1.27 -1.693334,-0.91723 c -2.61055599,-1.41111 -4.23333299,-2.89277 -4.23333299,-3.84527 0,-0.84667 1.199444,-1.905 4.40972299,-3.81 2.928054,-1.72862 0.917221,-2.32834 -2.187223,-0.635 -1.02305599,0.56444 -1.94027999,0.91722 -2.04611299,0.74083 -0.105833,-0.14111 0,-1.16417 0.211667,-2.25778 0.17639,-1.09361 0.3175,-2.75167 0.246946,-3.66889 -0.105833,-1.51694 -0.17639,-1.65805 -0.98778001,-1.65805 -0.881943,0 -0.881943,0.0706 -1.305276,4.05694 -0.246944,2.2225 -0.599724,4.86833 -0.81139,5.82083 -0.211667,0.98778 -0.564444,3.06917 -0.77611,4.69195 -0.458611,3.10444 -0.246944,4.02167 0.917223,4.23333 0.45861,0.10584 0.564443,-0.24694 0.564443,-2.2225 0,-2.75166 0.45861,-3.13972 2.18722301,-1.83444 1.79916699,1.34055 4.02166699,2.36361 5.15055699,2.36361 0.564443,0 1.27,0.24694 1.516943,0.59972 0.635,0.74084 2.504723,1.51695 3.66889,1.51695 1.3405543,0 4.4097213,-1.41111 4.4097213,-2.01084 0,-0.3175 -0.246944,-0.42333 -0.599721,-0.3175 z m -3.139723,-4.72722 c -0.6702773,0.24694 -1.3052773,0.35278 -1.4111103,0.28222 -0.246946,-0.24694 0.9877773,-1.23472 1.9050003,-1.48166 1.375833,-0.42334 0.91722,0.74083 -0.49389,1.19944 z"
       id="path3237"
       inkscape:connector-curvature="0" />
    <path
       style="fill:#000000;stroke:none;stroke-width:0.03527778"
       d="m -10.302539,162.42815 c -0.740833,-0.77611 -3.175,0.3175 -5.468056,2.50472 l -1.30528,1.23473 -0.246943,-1.34056 c -0.14111,-0.84667 -0.740834,-1.86972 -1.72861,-2.8575 -1.199447,-1.27 -1.693334,-1.55222 -2.71639,-1.55222 -1.375834,0 -3.63361,1.41111 -4.62139,2.96333 -0.77611,1.19945 -1.164167,1.16417 -1.41111,-0.10583 -0.246944,-1.23472 -0.670277,-1.65806 -3.915834,-4.05695 -2.786946,-2.08139 -3.210279,-2.50472 -3.4925,-3.66889 -0.352779,-1.51694 3.280834,-4.65666 5.3975,-4.65666 0.881944,0 0.846667,-0.9525 -0.03528,-1.51695 -0.9525,-0.59972 -3.774724,0.70556 -5.679724,2.61056 -1.446389,1.44639 -1.693333,1.905 -1.693333,3.03389 0,0.74083 0.282221,1.76389 0.635,2.25778 0.740833,1.16416 2.963333,2.99861 5.150557,4.26861 1.340553,0.81139 1.622776,1.16416 1.622776,1.97555 0,1.37584 -1.128889,2.71639 -3.633612,4.33917 -2.081388,1.34056 -4.162777,1.79917 -4.656667,1.02306 -0.352777,-0.59973 -1.234721,-0.38806 -1.234721,0.28222 0.07055,3.06917 5.362221,2.15194 9.278057,-1.62278 0.91722,-0.88194 1.693333,-1.48167 1.693333,-1.30528 0.03528,0.21167 0.07055,0.52917 0.14111,0.70556 0.03528,0.21166 0.105834,0.70555 0.105834,1.12889 0.03528,0.45861 0.564443,1.05833 1.27,1.48166 1.72861,1.05834 3.880556,0.98778 6.385277,-0.28222 2.187223,-1.09361 2.645833,-1.12889 2.645833,-0.0353 0,0.35278 0.35278,1.09362 0.81139,1.62278 1.164166,1.34056 4.198056,1.62278 5.644446,0.49389 0.529167,-0.42333 0.881944,-0.91722 0.77611,-1.05833 -0.105833,-0.17639 -1.199443,-0.24695 -2.39889,-0.10584 -2.469443,0.21167 -3.31611,-0.28222 -2.892776,-1.69333 0.388056,-1.12889 2.504723,-3.35139 4.26861,-4.37444 1.516946,-0.88195 1.7991657,-1.23473 1.305279,-1.69334 z m -9.172223,4.09222 c -0.670279,1.16417 -5.644446,2.25778 -6.491113,1.41112 -0.881943,-0.88195 1.164167,-4.16278 3.280834,-5.25639 0.987779,-0.52917 1.128889,-0.52917 1.411113,0 0.176387,0.3175 0.635,0.56444 0.987776,0.56444 1.164167,0 1.622777,1.83445 0.81139,3.28083 z"
       id="path3245"
       inkscape:connector-curvature="0" />
    <path
       style="fill:#000000;stroke:none;stroke-width:0.03527778"
       d="m -45.827264,164.2626 c -0.846667,-1.48167 -2.081388,-2.08139 -4.268611,-2.08139 -2.257779,0 -2.328333,-0.17639 -1.411113,-3.28084 0.282224,-1.02305 0.564447,-3.10444 0.599724,-4.65666 0.105833,-2.57528 0.03528,-2.82223 -0.564444,-2.82223 -0.917223,0 -1.12889,0.56445 -1.62278,4.23334 -0.211666,1.72861 -0.705553,4.51555 -1.09361,6.17361 -0.388056,1.65806 -0.811389,4.1275 -0.917222,5.46806 -0.141111,2.18722 -0.07056,2.61055 0.670279,3.70416 1.27,1.83445 2.610553,2.08139 4.90361,0.84667 3.175,-1.72861 4.93889,-5.36222 3.704167,-7.58472 z m -2.187221,3.84527 c -0.599723,0.91723 -2.822223,2.43417 -3.845279,2.61056 -1.093611,0.17639 -1.552224,-1.27 -1.27,-4.05694 0.282223,-2.75167 0.564443,-3.06917 2.8575,-3.06917 2.928056,0.0353 3.915833,1.94028 2.257779,4.51555 z"
       id="path3259"
       inkscape:connector-curvature="0" />
    <path
       style="fill:#000000;stroke:none;stroke-width:0.03527778"
       d="m -57.539487,162.39287 c -0.917222,-0.91722 -3.280833,-0.70555 -5.115278,0.45862 -2.046111,1.34055 -2.928055,2.36361 -3.457222,4.16277 -0.493889,1.76389 0.07056,3.52778 1.411111,4.48028 1.023056,0.70556 3.457223,0.74084 5.080001,0.0705 2.046111,-0.88194 1.552222,-1.34055 -1.164167,-1.05833 -2.822223,0.24695 -3.598334,-0.21167 -3.598334,-2.18722 0,-1.12889 0.07056,-1.19945 1.164167,-1.19945 1.446389,0 4.021667,-1.16416 5.291667,-2.36361 1.093611,-1.09361 1.199444,-1.5875 0.388055,-2.36361 z m -2.963333,2.08139 c -1.199444,0.59973 -1.763889,0.67028 -1.763889,0.17639 0,-0.35278 1.834445,-1.41111 2.469445,-1.41111 0.705555,0 0.3175,0.70556 -0.705556,1.23472 z"
       id="path3263"
       inkscape:connector-curvature="0" />
    <path
       style="fill:#000000;stroke:none;stroke-width:0.03527778"
       d="m -67.911154,151.77426 c -0.635,-0.38805 -1.693333,0.17639 -2.046111,1.16417 -0.176389,0.52917 -0.599722,2.8575 -0.9525,5.18583 -0.3175,2.32834 -0.811389,5.43278 -1.058334,6.87917 -0.282222,1.44639 -0.599722,3.31611 -0.705555,4.1275 -0.282223,1.905 -0.705556,2.18722 -1.622778,1.02306 -0.388056,-0.49389 -1.023056,-0.91723 -1.411111,-0.91723 -1.27,0 -2.081389,-2.75166 -2.928056,-10.12472 -0.282222,-2.39889 -0.599722,-4.48028 -0.740833,-4.69194 -0.105834,-0.17639 -0.599723,-0.35278 -1.093612,-0.35278 -0.987777,0 -1.058333,0.42333 -0.493888,4.33917 1.199444,8.14916 3.069166,13.29972 4.903611,13.29972 0.3175,0 1.023055,0.56444 1.622778,1.23472 1.093611,1.27 2.8575,1.72861 3.175,0.81139 0.07056,-0.24694 0.564445,-3.31611 1.023056,-6.80861 1.340555,-9.45445 2.046111,-13.58195 2.398889,-13.79361 0.388055,-0.24695 0.352778,-1.12889 -0.07056,-1.37584 z"
       id="path3271"
       inkscape:connector-curvature="0" />
    <path
       style="fill:#000000;stroke:none;stroke-width:0.03527778"
       d="m -97.33389,159.35138 c -1.09361,-0.9525 -2.08139,-1.30527 -4.19806,-1.55222 -1.16416,-0.14111 -2.68111,-0.45861 -3.45722,-0.74083 -0.74083,-0.24695 -1.76389,-0.45861 -2.2225,-0.45861 h -0.88194 l 0.10583,3.24555 0.14111,3.24556 -1.05833,0.24694 c -2.68111,0.635 -10.37167,2.01084 -18.69723,3.31612 -10.44222,1.69333 -21.94278,1.48166 -31.04444,-0.49389 -0.77611,-0.17639 -2.25778,-0.49389 -3.28084,-0.70556 -2.46944,-0.49389 -6.73805,-1.97555 -9.8425,-3.38667 -5.15055,-2.36361 -8.29028,-5.18583 -10.72444,-9.63083 -1.12889,-2.08139 -2.01084,-2.8575 -2.78695,-2.36361 -0.17639,0.10583 -0.35277,0.42333 -0.35277,0.67028 0,1.02305 3.13972,5.46805 5.67972,8.00805 2.2225,2.29306 3.21028,2.99861 6.35,4.48028 6.87917,3.35139 13.44083,4.93889 24.62389,6.06778 6.59694,0.635 14.2875,0.28222 22.61306,-1.05833 1.27,-0.21167 2.92805,-0.45862 3.70416,-0.56445 0.77611,-0.10583 2.61056,-0.42333 4.05695,-0.74083 1.44639,-0.28222 3.35139,-0.67028 4.23333,-0.81139 0.88195,-0.17639 2.61056,-0.635 3.88056,-1.02306 1.27,-0.38805 2.39889,-0.74083 2.57528,-0.74083 0.14111,0 0.24694,0.70556 0.24694,1.5875 0,1.41111 -0.10583,1.5875 -0.91722,1.79917 -1.19945,0.3175 -0.98778,1.34055 0.3175,1.48166 1.48166,0.17639 5.18583,-2.18722 8.64305,-5.46805 1.5875,-1.51695 2.89278,-2.99861 2.89278,-3.31611 0,-0.3175 -0.28222,-0.81139 -0.59972,-1.09362 z m -4.86833,4.30389 c -1.5875,1.34056 -3.06917,2.46945 -3.24556,2.46945 -0.35278,0 -0.81139,-3.21028 -0.81139,-5.67972 0,-1.62278 0.0706,-1.62278 4.40972,-0.84667 1.55223,0.28222 2.8575,0.49389 2.89278,0.52917 0.45861,0.0706 -0.84667,1.48166 -3.24555,3.52777 z"
       id="path3333"
       inkscape:connector-curvature="0" />
    <path
       style="fill:#000000;stroke:none;stroke-width:0.03527778"
       d="m -138.71473,128.02472 c -2.08139,0 -5.11527,2.2225 -6.38528,4.65666 -1.62277,3.175 -0.45861,5.92667 2.54001,5.92667 2.96333,-0.0353 3.84527,-1.65805 0.98777,-1.83444 -2.08139,-0.10584 -2.68111,-0.70556 -2.29305,-2.18723 0.49389,-1.94027 2.96333,-3.98638 5.92666,-4.93888 0.3175,-0.10584 0.56445,-0.49389 0.52917,-0.88195 -0.0353,-0.59972 -0.28222,-0.74083 -1.30528,-0.74083 z"
       id="path3363"
       inkscape:connector-curvature="0" />
    <path
       style="fill:#000000;stroke:none;stroke-width:0.03527778"
       d="m -148.20445,126.61361 c -0.56444,0 -0.74083,0.21166 -0.74083,0.91722 0,1.16417 1.16416,1.05833 1.34055,-0.14111 0.10584,-0.59972 -0.0706,-0.77611 -0.59972,-0.77611 z"
       id="path3369"
       inkscape:connector-curvature="0" />
    <path
       style="fill:#000000;stroke:none;stroke-width:0.03527778"
       d="m -148.34556,130.77638 c -1.02306,-0.38805 -1.30528,0.14112 -1.30528,2.57528 0,2.54 0.38806,3.84528 1.16417,3.84528 0.59972,0 0.77611,-6.20889 0.14111,-6.42056 z"
       id="path3371"
       inkscape:connector-curvature="0" />
    <path
       style="fill:#000000;stroke:none;stroke-width:0.03527778"
       d="m -151.69695,134.7275 c -0.14111,0 -0.84667,0.38805 -1.55222,0.88194 -1.41111,0.9525 -3.28084,1.16417 -3.56306,0.42333 -0.10583,-0.28222 -0.28222,-1.37583 -0.42333,-2.43416 l -0.24695,-1.97556 1.86973,-0.98778 c 2.64583,-1.44639 2.71639,-2.08139 0.17639,-1.79916 l -2.01084,0.21166 0.24695,-2.18722 c 0.10583,-1.19944 0.52916,-3.06917 0.88194,-4.1275 0.81139,-2.36361 0.81139,-2.46944 0.0353,-2.46944 -0.9525,0 -2.18722,2.8575 -2.64583,6.24416 -0.35278,2.71639 -0.45862,2.96334 -1.27,3.175 -1.34056,0.3175 -1.44639,0.42334 -1.12889,1.27 0.14111,0.42334 0.67027,0.84667 1.09361,0.9525 0.67028,0.17639 0.91722,0.56445 1.27,2.36361 0.24694,1.19945 0.70555,2.54 1.02305,3.03389 0.635,1.02306 2.36361,1.48167 3.45723,0.91723 1.76388,-0.91723 3.84527,-3.4925 2.78694,-3.4925 z"
       id="path3373"
       inkscape:connector-curvature="0" />
    <path
       style="fill:#000000;stroke:none;stroke-width:0.03527778"
       d="m -160.51639,138.11416 -1.41112,0.21167 -0.24694,-1.55222 c -0.14111,-0.88195 -0.17639,-2.04611 -0.0706,-2.68111 0.10583,-0.70556 0,-1.12889 -0.3175,-1.27 -0.77611,-0.28223 -3.38667,0.98777 -4.55083,2.25777 -0.88195,0.91723 -1.05834,1.41111 -1.05834,2.78695 0,1.09361 0.21167,1.86972 0.59973,2.25778 0.70555,0.70555 2.36361,0.77611 3.28083,0.10583 0.49389,-0.35278 0.91722,-0.38806 1.83444,-0.10583 0.98778,0.3175 1.34056,0.24694 2.15195,-0.35278 0.52917,-0.38806 0.98778,-0.98778 1.05833,-1.30528 0.10584,-0.49389 -0.10583,-0.56444 -1.27,-0.35278 z m -4.16278,-0.0706 c -0.59973,0.635 -1.76389,0.74084 -2.08139,0.24695 -0.3175,-0.56445 1.41111,-2.29306 2.04611,-2.04611 0.74083,0.28222 0.77611,1.09361 0.0353,1.79916 z"
       id="path3375"
       inkscape:connector-curvature="0" />
    <path
       style="fill:#000000;stroke:none;stroke-width:0.03527778"
       d="m -169.58278,139.31361 c -0.24695,-0.49389 -0.56445,-1.51695 -0.67028,-2.29306 -0.3175,-1.69333 -1.09361,-2.99861 -1.79917,-2.99861 -0.28222,0 -0.84667,0.49389 -1.30528,1.05833 -0.42333,0.59973 -0.88194,1.05834 -1.05833,1.05834 -0.14111,0 -0.49389,-0.45861 -0.81139,-1.05834 -0.59972,-1.16416 -1.27,-1.34055 -1.94028,-0.52916 -0.28222,0.35277 -0.74083,0.45861 -1.30527,0.3175 -1.23473,-0.3175 -1.51695,0.28222 -1.51695,3.21027 0,3.28084 0.24694,4.05695 1.23472,4.05695 0.635,0 0.91723,-0.38806 1.48167,-1.83445 0.77611,-2.01083 1.44639,-2.54 1.76389,-1.37583 0.28222,1.09361 1.41111,0.91722 2.04611,-0.28222 0.81139,-1.62278 1.12889,-1.5875 1.86972,0.0706 0.77611,1.76389 1.23472,2.18722 1.97556,1.76389 0.42333,-0.24695 0.42333,-0.42334 0.0353,-1.16417 z"
       id="path3377"
       inkscape:connector-curvature="0" />
    <path
       style="fill:#000000;stroke:none;stroke-width:0.03527778"
       d="m -182.81195,135.43305 c -2.08139,-2.08139 -3.84528,-1.76389 -5.08,0.88195 -0.77611,1.62277 -0.45861,3.42194 0.91722,4.97416 1.05833,1.19945 2.46944,1.55222 3.98639,0.98778 0.88194,-0.35278 1.5875,-2.04611 1.5875,-3.84528 0,-1.37583 -0.17639,-1.76389 -1.41111,-2.99861 z m -0.42334,4.86833 c -0.59972,0.59973 -1.905,0.52917 -2.54,-0.14111 -0.67027,-0.635 -0.74083,-2.99861 -0.14111,-3.59833 0.24695,-0.24694 0.84667,-0.42333 1.34056,-0.42333 1.30528,0 1.76389,0.635 1.76389,2.29305 0,0.81139 -0.17639,1.62278 -0.42334,1.86972 z"
       id="path3379"
       inkscape:connector-curvature="0" />
    <path
       style="fill:#000000;stroke:none;stroke-width:0.03527778"
       d="m -189.97334,140.72472 c -0.28222,0 -0.84667,0.38805 -1.30528,0.88194 -1.69333,1.79917 -2.92805,0.59972 -2.75167,-2.64583 0.10584,-1.905 0.10584,-1.905 1.86973,-2.78695 0.9525,-0.49388 1.79916,-1.19944 1.86972,-1.51694 0.10583,-0.52917 -0.14111,-0.635 -1.48167,-0.635 h -1.62278 V 132.505 c 0,-0.84667 0.3175,-2.68112 0.67028,-4.09223 0.56445,-2.15194 0.59972,-2.57527 0.17639,-2.75166 -0.28222,-0.10584 -0.70555,-0.10584 -0.98778,0 -0.70555,0.28222 -1.51694,3.13972 -1.79916,6.17361 -0.21167,2.11666 -0.38806,2.64583 -1.09361,3.21028 -1.02306,0.81138 -1.09361,1.48166 -0.14112,2.08138 0.56445,0.35278 0.70556,0.81139 0.70556,2.29306 0,1.27 0.24694,2.25778 0.81139,3.24556 0.77611,1.30527 0.91722,1.41111 2.36361,1.37583 1.19944,-0.0353 1.69333,-0.24695 2.36361,-0.98778 0.88195,-1.05833 1.09361,-2.32833 0.35278,-2.32833 z"
       id="path3381"
       inkscape:connector-curvature="0" />
    <path
       style="fill:#000000;stroke:none;stroke-width:0.03527778"
       d="m -200.87417,138.855 c -0.17639,-0.70556 -0.635,-1.48167 -0.98778,-1.65806 -0.84667,-0.45861 -1.23472,0.10583 -0.70556,1.02306 0.17639,0.38805 0.35278,1.55222 0.35278,2.61055 0,2.8575 -1.83444,4.90361 -2.82222,3.10445 -0.45861,-0.91723 -0.45861,-3.31612 0.0353,-5.00945 0.81139,-2.64583 -0.52917,-3.13972 -1.79917,-0.635 -1.41111,2.75167 -0.42333,6.91445 1.86972,8.00806 2.68112,1.30527 5.18584,-3.28084 4.05695,-7.44361 z"
       id="path3383"
       inkscape:connector-curvature="0" />
    <path
       style="fill:#000000;stroke:none;stroke-width:0.03527778"
       d="m -210.50501,143.01777 c -0.35278,-0.91722 -1.27,-8.43139 -1.79916,-14.605 -0.59973,-7.33778 -1.02306,-9.27805 -1.97556,-9.41916 -1.02306,-0.14112 -3.66889,3.24555 -5.57389,7.09083 -2.08139,4.30389 -2.64583,5.89139 -3.31611,9.91306 -0.67028,3.95111 -0.84667,14.81666 -0.28222,15.38111 0.84666,0.84666 1.09361,-0.35278 1.19944,-5.53861 l 0.10583,-5.25639 1.41112,-0.81139 c 0.77611,-0.45861 2.46944,-1.16417 3.81,-1.55222 2.50472,-0.77612 3.13972,-1.27 2.32833,-1.76389 -0.74083,-0.45861 -2.82222,-0.38806 -4.7625,0.21166 -0.9525,0.28223 -1.905,0.52917 -2.11667,0.52917 -0.88194,0 0.77611,-5.99722 2.75167,-10.05417 1.34056,-2.75166 3.175,-5.46805 3.70417,-5.46805 0.42333,0 0.49389,0.35277 1.16416,6.87916 0.35278,3.66889 0.98778,8.50195 1.905,14.81667 0.3175,2.18722 0.56445,2.8575 1.02306,2.92806 0.49389,0.10583 0.59972,-0.14111 0.56444,-1.41111 0,-0.84667 -0.0706,-1.65806 -0.14111,-1.86973 z"
       id="path3385"
       inkscape:connector-curvature="0" />
  </g>
</svg>
