<?xml version="1.0" encoding="UTF-8" standalone="no"?>
<!-- Created with Inkscape (http://www.inkscape.org/) -->

<svg
   xmlns:dc="http://purl.org/dc/elements/1.1/"
   xmlns:cc="http://creativecommons.org/ns#"
   xmlns:rdf="http://www.w3.org/1999/02/22-rdf-syntax-ns#"
   xmlns:svg="http://www.w3.org/2000/svg"
   xmlns="http://www.w3.org/2000/svg"
   xmlns:sodipodi="http://sodipodi.sourceforge.net/DTD/sodipodi-0.dtd"
   xmlns:inkscape="http://www.inkscape.org/namespaces/inkscape"
   width="395.14508mm"
   height="108.47897mm"
   viewBox="0 0 395.14509 108.47896"
   version="1.1"
   id="svg5301"
   inkscape:version="0.92.5 (2060ec1f9f, 2020-04-08)"
   sodipodi:docname="buffer_full.svg">
  <defs
     id="defs5295" />
  <sodipodi:namedview
     id="base"
     pagecolor="#ffffff"
     bordercolor="#666666"
     borderopacity="1.0"
     inkscape:pageopacity="0.0"
     inkscape:pageshadow="2"
     inkscape:zoom="0.7"
     inkscape:cx="731.63815"
     inkscape:cy="-20.134023"
     inkscape:document-units="mm"
     inkscape:current-layer="layer1"
     showgrid="false"
     fit-margin-bottom="-0.1"
     fit-margin-top="0"
     fit-margin-left="0"
     fit-margin-right="0"
     inkscape:window-width="1920"
     inkscape:window-height="1080"
     inkscape:window-x="0"
     inkscape:window-y="0"
     inkscape:window-maximized="0" />
  <metadata
     id="metadata5298">
    <rdf:RDF>
      <cc:Work
         rdf:about="">
        <dc:format>image/svg+xml</dc:format>
        <dc:type
           rdf:resource="http://purl.org/dc/dcmitype/StillImage" />
        <dc:title></dc:title>
      </cc:Work>
    </rdf:RDF>
  </metadata>
  <g
     inkscape:label="Layer 1"
     inkscape:groupmode="layer"
     id="layer1"
     transform="translate(147.24277,-59.785926)">
    <path
       style="fill:#000000;stroke:none;stroke-width:0.03527778"
       d="m 226.71987,78.325387 c -0.3528,0 -1.1289,-0.246943 -1.65807,-0.529166 -1.37583,-0.705557 -5.92666,-0.705557 -18.48556,0.07056 -8.96056,0.529167 -11.99444,0.529167 -28.22223,0.176387 -9.9836,-0.246943 -26.42304,-0.423333 -36.5125,-0.388054 -16.29833,0 -36.58305,-0.458613 -39.51111,-0.917223 -0.56444,-0.105833 -6.491109,-0.3175 -13.088049,-0.529166 -12.41778,-0.388057 -45.22612,-0.03528 -62.75917,0.670276 -4.65667,0.211667 -13.05278,0.458613 -18.6972196,0.564447 -5.60917,0.105833 -12.84111,0.423333 -16.05139,0.705553 -10.1600004,0.9525 -13.8641704,1.234724 -17.2861104,1.234724 -3.21028,0 -9.31334,0.917223 -11.35945,1.72861 l -0.98778,0.352779 0.14111,25.153056 c 0.10584,13.82889 0.24695,25.43528 0.38806,25.78806 0.14111,0.3175 0.45861,0.59972 0.74083,0.59972 0.24695,0 0.635,0.35278 0.88195,0.74083 0.45861,0.88195 -0.88195,0.88195 24.48278,-0.0706 6.3500004,-0.21166 15.9455504,-0.3175 22.93055,-0.17639 35.84222,0.635 46.63723,0.67028 64.06445,0.0353 18.02694,-0.635 35.101389,-0.59972 58.349449,0.14111 29.17473,0.9525 52.2111,1.41111 84.84306,1.5875 7.4789,0.0353 7.4789,0.0353 7.33777,-7.90222 -0.17637,-8.67833 0.10583,-22.57778 0.59973,-33.090555 0.70557,-14.64028 0.70557,-15.945557 -0.1411,-15.945558 z m -1.6228,10.759723 c -0.1411,0.670277 -0.49387,0.705554 -6.42056,0.811387 -3.45721,0.07056 -7.7611,0 -9.56027,-0.14111 l -3.28083,-0.211666 0.10583,-4.691944 0.10583,-4.691946 3.175,-0.211667 c 7.51417,-0.493887 12.5589,-0.635 14.3228,-0.423333 l 1.905,0.246946 -0.10583,4.303887 c -0.0353,2.363613 -0.14113,4.62139 -0.24697,5.009446 z m -0.84666,19.19111 c -0.10584,6.31472 -0.10584,12.48834 0.0353,13.75834 0.1411,1.27 0.24694,4.26861 0.24694,6.59694 0.0353,4.16278 0,4.30389 -0.74084,4.55083 -1.23473,0.38806 -2.92806,0.42334 -6.80862,0.10584 -1.94027,-0.14111 -5.04471,-0.35278 -6.87917,-0.49389 -1.83444,-0.14111 -3.42194,-0.28222 -3.52777,-0.38806 -0.3175,-0.3175 -0.38806,-39.087776 -0.0706,-39.581666 0.28223,-0.388054 1.16416,-0.388054 5.25639,-0.03528 3.6689,0.3175 5.92667,0.3175 8.7489,0.03528 2.0814,-0.211667 3.91583,-0.282221 4.09223,-0.176387 0.21167,0.105833 0.24694,1.09361 0.1411,2.18722 -0.1411,1.12889 -0.35276,7.161393 -0.49389,13.440833 z m -19.79084,14.85195 c 0.0706,2.43416 0.14111,5.50333 0.1764,6.84389 v 2.46944 l -20.28473,-0.0705 c -20.0025,-0.0706 -35.7364,-0.38806 -58.20833,-1.16417 -6.31473,-0.21166 -20.42584,-0.35278 -31.397229,-0.28222 l -19.93194,0.14111 -0.0706,-14.21694 c 0,-7.83167 -0.21167,-17.356672 -0.45861,-21.166672 -0.56444,-9.313333 -0.59972,-16.545277 -0.0706,-17.074444 0.3175,-0.3175 4.02167,-0.282223 14.78139,0.03528 16.898059,0.49389 21.413619,0.705557 22.860009,0.917223 1.30527,0.211667 71.15527,1.058334 83.185,0.987777 8.67833,-0.03528 8.7136,0 8.7136,0.740834 0.0353,5.997223 0.38806,12.946946 0.67029,13.793612 0.24694,0.705554 0.28221,4.93889 0.10584,12.34722 -0.14113,6.20889 -0.1764,13.26445 -0.0706,15.69861 z m -131.550829,7.97278 c -0.28223,0.3175 -6.6675,0.49388 -18.16806,0.52916 l -14.07583,0.0353 -0.0706,-19.86139 c 0,-10.93611 -0.10583,-20.14361 -0.21167,-20.425833 -0.10583,-0.388054 0.10584,-0.529167 0.74084,-0.493887 5.715,0.28222 30.48,0.846667 30.97389,0.705556 0.56444,-0.176389 0.59972,0.3175 0.59972,7.3025 0,4.092224 0.10583,9.948334 0.21167,12.946944 0.14111,4.40972 0.14111,19.08528 0,19.26167 z m -2.8575,-41.69834 c -1.05834,-0.03528 -8.32556,-0.176389 -16.08667,-0.3175 l -14.14639,-0.282223 -0.24695,-2.116666 c -0.10583,-1.164167 -0.21166,-3.280834 -0.21166,-4.727224 0,-2.36361 0.0705,-2.610553 0.81139,-2.892776 0.42333,-0.141111 7.76111,-0.388057 16.29833,-0.529167 l 15.5575,-0.246944 -0.0353,5.573887 v 5.57389 z m -31.53834,39.89917 -0.0705,2.11667 -7.05556,-0.0353 c -3.84528,0 -8.78417,-0.0353 -10.97139,-0.0705 l -3.95111,-0.0706 v -3.59834 c 0,-2.01083 -0.21167,-5.99722 -0.42333,-8.92528 -0.24695,-2.89277 -0.49389,-10.40694 -0.56445,-16.65111 l -0.14111,-11.324167 3.77472,-0.246943 c 4.58611,-0.3175 18.52084,0.105833 19.01473,0.564443 0.635,0.635003 0.91722,25.858617 0.38805,38.241117 z m -12.17083,-40.463616 -11.25361,-0.03528 -0.21167,-2.328333 c -0.10583,-1.27 -0.24694,-3.31611 -0.28222,-4.550833 l -0.10584,-2.2225 3.70417,-0.105834 c 2.04611,-0.07056 7.23195,-0.246943 11.57111,-0.388056 l 7.83167,-0.282221 v 4.974167 4.974167 z m -11.99445,41.804166 c -0.21166,0.21167 -5.0094396,0.35278 -12.3119396,0.38806 l -11.95917,0.0706 -0.4233304,-13.40556 c -0.24695,-7.40833 -0.52917,-13.72305 -0.59972,-14.07583 -0.21167,-1.19945 -0.24695,-11.183056 -0.0353,-11.394723 0.10583,-0.141112 1.2347204,-0.282223 2.4341704,-0.352779 1.23472,-0.07055 5.715,-0.282221 9.98361,-0.49389 4.26861,-0.211667 8.5724996,-0.45861 9.5602696,-0.564443 1.30528,-0.141111 1.905,-0.07056 2.11667,0.246943 0.14111,0.282223 0.3175,4.691946 0.35278,9.842502 0.0353,8.46667 0.42333,15.69861 1.19944,22.93056 0.35278,3.06916 0.21167,6.27944 -0.3175,6.80861 z m -3.91583,-41.310276 c -1.8697196,0.17639 -10.83027957,0.670277 -20.1083296,1.09361 l -1.5875004,0.07056 -0.10584,-4.833057 -0.10583,-4.797777 1.6933304,-0.211666 c 3.38667,-0.458611 12.065,-0.917224 17.21556,-0.917224 h 5.2916696 v 4.691947 4.656666 z m -24.16528,41.980556 c -2.54,0.35278 -17.56833,0.84667 -19.89667,0.635 l -1.97555,-0.17639 -0.0706,-19.43805 -0.10583,-19.473337 0.81139,-0.176389 c 1.30528,-0.3175 20.84917,-0.423334 21.34306,-0.141111 0.28222,0.211667 0.42333,1.234721 0.42333,3.175 0,3.033888 0.56444,18.379727 1.02305,27.058057 0.14112,2.82222 0.24695,5.82083 0.24695,6.70278 l -0.0353,1.5875 z m -2.08139,-40.534166 c -1.37583,0.14111 -6.35,0.211666 -11.1125,0.176387 l -8.67833,-0.105834 -0.10584,-3.95111 -0.10583,-3.95111 1.34056,-0.211667 c 0.74083,-0.105833 1.905,-0.352779 2.61055,-0.529166 0.70556,-0.211667 2.68111,-0.35278 4.40973,-0.35278 1.72861,0 5.50333,-0.176387 8.36083,-0.352777 2.89278,-0.211666 5.3975,-0.282223 5.57389,-0.14111 0.21167,0.105833 0.28222,2.04611 0.24694,4.656667 l -0.10583,4.480277 z"
       id="path3191"
       inkscape:connector-curvature="0" />
    <path
       style="fill:#000000;stroke:none;stroke-width:0.03527778"
       d="m 122.79151,120.65872 c -0.28221,0 -0.52917,0.3175 -0.52917,0.70556 0,0.38805 0.24696,0.70555 0.52917,0.70555 0.28223,0 0.52917,-0.3175 0.52917,-0.70555 0,-0.38806 -0.24694,-0.70556 -0.52917,-0.70556 z"
       id="path3193"
       inkscape:connector-curvature="0" />
    <path
       style="fill:#000000;stroke:none;stroke-width:0.03527778"
       d="m 116.44152,120.79983 c -0.74084,-0.3175 -1.5875,0.10584 -1.5875,0.74084 0,0.70555 1.62277,0.70555 1.905,0 0.10583,-0.3175 -0.0353,-0.635 -0.3175,-0.74084 z"
       id="path3195"
       inkscape:connector-curvature="0" />
    <path
       style="fill:#000000;stroke:none;stroke-width:0.03527778"
       d="m 110.12679,120.65872 c -1.02305,0 -1.51694,0.59972 -0.9525,1.16417 0.28223,0.28222 0.56445,0.3175 0.98778,0.0353 0.9525,-0.59972 0.9525,-1.19944 -0.0353,-1.19944 z"
       id="path3197"
       inkscape:connector-curvature="0" />
    <path
       style="fill:#000000;stroke:none;stroke-width:0.03527778"
       d="m 101.58957,120.55289 c -0.35278,-0.3175 -1.19944,0.14111 -1.19944,0.67028 0,0.28222 0.3175,0.49389 0.70555,0.49389 0.67028,0 0.9525,-0.67028 0.49389,-1.16417 z"
       id="path3199"
       inkscape:connector-curvature="0" />
    <path
       style="fill:#000000;stroke:none;stroke-width:0.03527778"
       d="m 95.027901,120.3765 c -0.42333,0.0706 -0.81138,0.35278 -0.81138,0.635 0,0.77611 1.37583,0.67028 1.51694,-0.10583 0.10583,-0.52917 -0.0353,-0.635 -0.70556,-0.52917 z"
       id="path3201"
       inkscape:connector-curvature="0" />
    <path
       style="fill:#000000;stroke:none;stroke-width:0.03527778"
       d="m 88.924851,119.7415 c -0.74084,-0.28222 -1.65806,0.10583 -1.51695,0.67028 0.10584,0.21166 0.49389,0.45861 0.88195,0.52916 0.84667,0.14112 1.41111,-0.91722 0.635,-1.19944 z"
       id="path3203"
       inkscape:connector-curvature="0" />
    <path
       style="fill:#000000;stroke:none;stroke-width:0.03527778"
       d="m -14.333209,129.44289 c -0.84667,-0.28222 -2.04611,-0.24694 -2.04611,0.0353 0,0.17639 0.49389,0.35278 1.05833,0.35278 0.59972,0 1.05834,-0.0706 1.05834,-0.17639 0,-0.10583 -0.0353,-0.17639 -0.0706,-0.21167 z"
       id="path3205"
       inkscape:connector-curvature="0" />
    <path
       style="fill:#000000;stroke:none;stroke-width:0.03527778"
       d="m -19.589599,114.59094 c -0.24694,-0.42333 -0.77611,-0.635 -1.72861,-0.635 -1.30528,0 -1.41111,0.0706 -1.76389,1.34056 -0.24694,0.70556 -0.35278,1.86972 -0.28222,2.54 0.10583,1.09361 0.24694,1.23472 1.19944,1.34056 1.62278,0.17638 2.96334,-1.05834 2.96334,-2.68112 0,-0.70555 -0.17639,-1.5875 -0.38806,-1.905 z m -1.41111,2.36362 c -0.21167,0.14111 -0.45861,0.17638 -0.56445,0.0705 -0.24694,-0.28222 0.24695,-1.65806 0.635,-1.65806 0.45862,0 0.38806,1.30528 -0.0706,1.5875 z"
       id="path3207"
       inkscape:connector-curvature="0" />
    <path
       style="fill:#000000;stroke:none;stroke-width:0.03527778"
       d="m -24.775429,113.60317 c -0.14111,0 -0.81139,0.38805 -1.48167,0.88194 -1.5875,1.16417 -2.11667,0.70556 -2.11667,-1.94028 V 110.534 l 1.76389,-0.74083 c 2.25778,-0.9525 2.39889,-1.83445 0.3175,-1.83445 h -1.48166 l 0.21166,-2.29305 c 0.21167,-2.36362 0.0706,-3.35139 -0.52916,-3.35139 -0.77612,0 -1.23473,1.02305 -1.44639,3.13972 -0.17639,1.65805 -0.49389,2.50472 -1.12889,3.28083 -0.81139,0.98778 -0.84667,1.12889 -0.35278,1.69334 0.28222,0.3175 0.52917,1.23472 0.52917,2.08139 0,1.55222 0.81139,3.88055 1.51694,4.33916 0.91722,0.56445 2.50472,0.28222 3.4925,-0.67028 0.91722,-0.88194 1.37583,-2.57527 0.70556,-2.57527 z"
       id="path3209"
       inkscape:connector-curvature="0" />
    <path
       style="fill:#000000;stroke:none;stroke-width:0.03527778"
       d="m -24.634319,85.663164 c -1.16417,-0.91722 -1.19945,-0.91722 -1.37584,-0.246943 -0.14111,0.564443 -0.42333,0.705556 -1.19944,0.599723 -0.77611,-0.07056 -1.02306,-0.3175 -1.09361,-1.058334 -0.14111,-1.128889 -1.02306,-2.046113 -1.27,-1.305279 -0.38806,1.305279 -0.49389,3.316113 -0.17639,3.880556 0.24694,0.529167 0.74083,0.670277 2.01083,0.670277 0.9525,0 1.905,0.211667 2.15195,0.458613 0.38805,0.352777 0.49389,0.3175 0.635,-0.07056 0.10583,-0.246944 0.49389,-0.740834 0.84666,-1.023057 0.88195,-0.740833 0.88195,-0.811387 -0.52916,-1.905 z"
       id="path3211"
       inkscape:connector-curvature="0" />
    <path
       style="fill:#000000;stroke:none;stroke-width:0.03527778"
       d="m 226.15541,67.565664 c -0.49387,-0.282222 -1.30527,-0.811389 -1.83444,-1.128889 -0.56443,-0.3175 -1.19943,-0.881944 -1.4464,-1.234722 -0.24693,-0.352778 -0.7761,-0.635 -1.16416,-0.635 -0.4939,0 -0.67027,0.246944 -0.67027,1.023055 0,0.881945 -0.1764,1.058334 -1.3053,1.270001 -1.62277,0.3175 -14.00527,0.246944 -26.38777,-0.141112 -5.04473,-0.176388 -23.53027,-0.246944 -41.0986,-0.211666 -17.56833,0.07056 -35.4189,-0.03528 -39.68751,-0.246945 -7.09083,-0.282222 -30.479999,-0.423333 -30.762219,-0.176389 -0.0353,0.07056 0.14111,0.423334 0.38805,0.811389 0.49389,0.635 1.09361,0.670278 10.68917,0.705556 5.57389,0.03528 13.828889,0.246944 18.273889,0.458611 4.48028,0.176389 23.77722,0.352778 43.21529,0.388056 19.29693,0 40.99277,0.141111 48.15416,0.282222 9.24277,0.211667 14.04054,0.176389 16.47471,-0.105833 1.905,-0.211667 3.59836,-0.3175 3.81003,-0.176389 0.17637,0.105833 -0.52917,0.635 -1.58753,1.164166 -1.94027,0.9525 -2.46944,1.834445 -1.37583,2.257778 0.3175,0.105834 1.27,-0.141111 2.11669,-0.564444 0.88193,-0.388056 1.83443,-0.740834 2.1872,-0.740834 0.91723,0 2.8928,-1.340555 2.8928,-1.940277 0,-0.282223 -0.38807,-0.740834 -0.88196,-1.058334 z"
       id="path3213"
       inkscape:connector-curvature="0" />
    <path
       style="fill:#000000;stroke:none;stroke-width:0.03527778"
       d="m 74.319851,65.625386 c -0.38806,-0.176389 -1.5875,-0.352778 -2.64584,-0.352778 -2.50472,0 -2.54,-0.458611 -0.38805,-2.786944 1.5875,-1.693333 1.86972,-2.293056 1.23472,-2.681111 -0.42333,-0.246945 -2.96333,2.010833 -4.30389,3.845278 -0.70555,0.987777 -0.98778,1.799166 -0.98778,2.822222 0,1.658056 0.17639,1.940278 1.48167,2.786945 1.55222,0.987777 3.95111,0.670277 5.67972,-0.740834 0.81139,-0.705555 0.77611,-2.434167 -0.0705,-2.892778 z m -2.92806,2.046112 c -0.81139,-0.07056 -1.51694,-0.317501 -1.62278,-0.529167 -0.14111,-0.493889 0.9525,-0.599722 2.32834,-0.246945 1.34055,0.352778 0.84666,0.881945 -0.70556,0.776112 z"
       id="path3239"
       inkscape:connector-curvature="0" />
    <path
       style="fill:#000000;stroke:none;stroke-width:0.03527778"
       d="m 64.830121,60.368997 c -0.91722,-0.493889 -4.65666,-0.493889 -5.85611,-0.03528 -1.72861,0.635 -2.99861,3.951112 -1.86972,4.868334 0.21167,0.211667 1.02306,0.458611 1.76389,0.599722 2.57528,0.493889 1.05833,1.5875 -2.18722,1.5875 -2.2225,0 -2.8575,0.388056 -2.11667,1.305278 0.81139,0.917222 4.83306,0.458611 6.45583,-0.776111 1.34056,-1.023056 1.48167,-1.375833 0.91723,-2.786945 -0.24695,-0.670277 -0.59973,-0.917222 -1.23473,-0.917222 -1.19944,0 -2.29305,-0.599722 -2.29305,-1.234722 0,-0.705556 0.3175,-0.846667 3.52778,-1.199445 3.13972,-0.352777 4.05694,-0.776111 2.89277,-1.411111 z"
       id="path3241"
       inkscape:connector-curvature="0" />
    <path
       style="fill:#000000;stroke:none;stroke-width:0.03527778"
       d="m 50.754291,60.615942 c -0.38806,-0.3175 -1.62278,-0.635 -3.03389,-0.740834 -1.97555,-0.141111 -2.46944,-0.07056 -2.61055,0.388056 -0.3175,0.776111 0.88194,1.481667 2.57527,1.481667 0.84667,0 1.5875,0.141111 1.69334,0.282222 0.10583,0.176389 -0.84667,1.305278 -2.08139,2.54 -2.46945,2.469444 -2.82222,3.457222 -1.51695,4.374445 0.77611,0.564444 3.91584,0.776111 5.00945,0.352777 0.3175,-0.105833 0.56444,-0.529166 0.56444,-0.881944 0,-0.564445 -0.28222,-0.670278 -1.65805,-0.670278 -2.92806,0 -2.99861,-0.388056 -0.52917,-2.963333 2.25778,-2.363612 2.61056,-3.245556 1.5875,-4.162778 z"
       id="path3243"
       inkscape:connector-curvature="0" />
    <path
       style="fill:#000000;stroke:none;stroke-width:0.03527778"
       d="m 31.739571,64.14372 c -1.09361,-0.105834 -4.79778,-0.03528 -8.21972,0.105833 -3.42195,0.176389 -11.53584,0.458611 -18.0269496,0.670278 -6.49110997,0.211666 -12.7,0.529166 -13.75833,0.705555 -1.05834,0.176389 -4.7272204,0.3175 -8.1138904,0.352778 -6.80861,0.03528 -9.77195,0.3175 -14.88722,1.481667 -1.905,0.423333 -3.52778,0.670278 -3.63362,0.564444 -0.14111,-0.105833 -0.0353,-0.529166 0.21167,-0.9525 0.59972,-0.917222 0.21167,-1.305278 -0.81139,-0.846666 -1.41111,0.670277 -4.16278,3.069166 -4.16278,3.668889 0,1.234722 3.59834,3.845279 5.29167,3.845279 1.09361,0 0.84667,-0.776112 -0.59972,-2.010835 -0.74084,-0.599722 -1.23472,-1.199444 -1.09361,-1.340555 0.28222,-0.282223 5.67972,-1.375834 9.45444,-1.940278 1.27,-0.176389 4.445,-0.352778 7.05556,-0.352778 2.61055,0 7.16139,-0.246945 10.0541704,-0.564445 2.92805,-0.282222 10.37166003,-0.670277 16.58055,-0.846666 26.9169496,-0.776111 26.6347196,-0.740834 26.6347196,-1.940278 0,-0.282222 -0.70555,-0.493889 -1.97555,-0.599722 z"
       id="path3253"
       inkscape:connector-curvature="0" />
    <path
       style="fill:#000000;stroke:none;stroke-width:0.03527778"
       d="m 221.80111,160.78468 c -0.84666,0.0353 -1.905,0.14111 -2.39889,0.28222 -1.19944,0.3175 -1.34055,1.34056 -0.24694,1.83444 0.70556,0.3175 1.16417,0.24695 2.50472,-0.3175 2.11667,-0.9525 2.18723,-1.83444 0.14111,-1.79916 z"
       id="path3277"
       inkscape:connector-curvature="0" />
    <path
       style="fill:#000000;stroke:none;stroke-width:0.03527778"
       d="m 222.40084,164.27718 c -0.24695,-0.21167 -1.09362,-0.35278 -1.83445,-0.28222 -1.05833,0.0705 -1.34055,0.24694 -1.34055,0.81138 0,0.59973 0.28222,0.70556 1.62277,0.81139 1.72861,0.10584 2.50473,-0.56444 1.55223,-1.34055 z"
       id="path3279"
       inkscape:connector-curvature="0" />
    <path
       style="fill:#000000;stroke:none;stroke-width:0.03527778"
       d="m 218.37917,143.18107 c -0.77611,-1.02306 -1.48167,-2.15195 -1.62278,-2.50473 -0.21167,-0.74083 -1.72861,-1.62277 -2.2225,-1.30527 -0.59972,0.35277 -2.89278,4.48027 -2.89278,5.18583 0,0.49389 0.24695,0.67028 1.02306,0.67028 0.59972,0 1.09361,0.21166 1.23472,0.56444 0.10583,0.3175 0.21167,2.43417 0.21167,4.7625 0,4.19806 0,4.19806 0.84666,4.19806 0.77612,0 0.84667,-0.17639 1.09362,-2.61056 0.10583,-1.41111 0.17638,-3.63361 0.14111,-4.93889 -0.0353,-1.27 0,-2.39889 0.10583,-2.54 0.10583,-0.10583 0.635,0.21167 1.16417,0.70556 1.16416,1.05833 2.29305,1.19944 2.29305,0.28222 0,-0.35278 -0.635,-1.44639 -1.37583,-2.46944 z"
       id="path3283"
       inkscape:connector-curvature="0" />
    <path
       style="fill:#000000;stroke:none;stroke-width:0.03527778"
       d="m 214.56917,162.26634 c -0.0706,-0.24694 -0.45861,-0.45861 -0.84667,-0.45861 -0.59972,0 -0.67028,0.28223 -0.67028,2.78695 0,2.08139 0.14112,2.96333 0.56445,3.35139 0.28222,0.3175 0.70555,0.49389 0.88194,0.38805 0.3175,-0.21166 0.38806,-5.29166 0.0706,-6.06778 z"
       id="path3285"
       inkscape:connector-curvature="0" />
    <path
       style="fill:#000000;stroke:none;stroke-width:0.03527778"
       d="m 213.22861,157.22162 c -0.67027,-0.56444 -1.5875,-0.21166 -1.5875,0.67028 0,0.81139 0.98778,1.23472 1.62278,0.70556 0.635,-0.52917 0.635,-0.84667 -0.0353,-1.37584 z"
       id="path3287"
       inkscape:connector-curvature="0" />
    <path
       style="fill:#000000;stroke:none;stroke-width:0.03527778"
       d="m -60.123769,127.3615 c -0.35277,0 -1.27,0.38806 -1.97555,0.88195 -0.70556,0.49388 -1.41111,0.81138 -1.51695,0.70555 -0.10583,-0.10583 -0.21166,-3.24556 -0.24694,-6.985 -0.0706,-3.73944 -0.35278,-8.60778 -0.635,-10.83028 -0.3175,-2.2225 -0.56445,-5.18583 -0.56445,-6.59694 0,-2.57528 0.56445,-6.032503 1.05834,-6.56167 0.14111,-0.176389 0.74083,0.246944 1.27,0.9525 1.23472,1.51694 1.905,1.62278 1.905,0.282223 0,-2.010833 -3.03389,-5.009446 -5.04472,-5.009446 -0.56445,0 -4.48028,5.08 -4.48028,5.820833 0,0.98778 1.27,0.52917 2.43417,-0.91722 0.67027,-0.776113 1.30527,-1.305279 1.44638,-1.12889 0.17639,0.141111 0.0353,1.411111 -0.24694,2.75167 -0.56445,2.68111 -0.52917,4.86833 0.38806,15.875 0.70555,8.11389 0.74083,12.91167 0.10583,12.66472 -0.24695,-0.0705 -0.59972,-0.49389 -0.77611,-0.9525 -0.21167,-0.42333 -0.635,-0.81139 -0.9525,-0.88194 -0.49389,-0.10584 -0.635,0.10583 -0.635,0.98777 0,1.37584 0.45861,2.29306 1.86972,3.81 1.37583,1.44639 1.94028,1.41112 3.175,-0.10583 0.52917,-0.67028 1.69333,-1.62278 2.54,-2.15194 1.19944,-0.67028 1.5875,-1.12889 1.5875,-1.76389 0,-0.59972 -0.21167,-0.84667 -0.70556,-0.84667 z"
       id="path3307"
       inkscape:connector-curvature="0" />
    <path
       style="fill:#000000;stroke:none;stroke-width:0.03527778"
       d="m -61.993489,78.254831 c -0.84667,-1.023054 -1.79917,-1.869721 -2.11667,-1.869721 -0.74083,0 -4.48027,2.998611 -4.48027,3.633611 0,0.740833 1.19944,0.423333 2.46944,-0.635 0.67028,-0.599724 1.41111,-1.058334 1.62278,-1.058334 0.24694,0 1.02305,0.705557 1.76389,1.5875 0.70555,0.881944 1.51694,1.5875 1.76389,1.5875 0.91722,0 0.49389,-1.375833 -1.02306,-3.245556 z"
       id="path3309"
       inkscape:connector-curvature="0" />
    <path
       style="fill:#000000;stroke:none;stroke-width:0.03527778"
       d="m -60.935159,87.144831 c -0.28222,0 -0.635,0.529166 -0.81138,1.12889 -0.38806,1.305276 -1.94028,2.151943 -2.68112,1.41111 -0.3175,-0.3175 -0.28222,-0.564444 0.17639,-1.058334 0.49389,-0.529166 0.59973,-1.41111 0.59973,-4.621387 0,-3.598333 -0.0706,-3.951113 -0.59973,-3.845279 -0.52916,0.105833 -0.635,0.599723 -0.74083,3.457223 -0.10583,4.056943 -0.24694,4.62139 -0.9525,3.66889 -0.35278,-0.529167 -0.56444,-0.564447 -0.91722,-0.246947 -0.59972,0.599724 -0.14111,1.94028 1.05833,3.245557 1.34056,1.411113 2.71639,1.44639 3.98639,0.14111 1.09361,-1.199443 1.65806,-3.280833 0.88194,-3.280833 z"
       id="path3311"
       inkscape:connector-curvature="0" />
    <path
       style="fill:#000000;stroke:none;stroke-width:0.03527778"
       d="m -75.010989,121.92872 c -0.24694,-0.0706 -1.09361,-0.28222 -1.83444,-0.42333 -1.905,-0.42333 -1.94028,-0.98778 -0.0353,-1.48167 1.55222,-0.42333 1.79916,-0.74083 1.5875,-2.18722 -0.0706,-0.74083 -1.05834,-1.41111 -2.08139,-1.41111 -0.56445,0 -1.37584,0.56444 -2.39889,1.62278 -1.48167,1.51694 -1.5875,1.55222 -1.76389,0.84666 -0.17639,-0.70555 -0.38806,-0.77611 -1.72861,-0.59972 -1.09361,0.10583 -1.55222,0.0353 -1.55222,-0.28222 0,-0.81139 -0.88195,-1.16417 -2.46945,-0.91722 -1.55222,0.21166 -1.5875,0.24694 -2.2225,2.11666 -0.35278,1.05834 -0.56444,2.11667 -0.45861,2.39889 0.21167,0.49389 1.62278,0.67028 1.62278,0.17639 0,-0.17639 0.21166,-0.59972 0.49389,-0.9525 0.42333,-0.56444 0.56444,-0.59972 1.05833,-0.21167 0.35278,0.3175 1.02306,0.42334 1.905,0.28223 0.88194,-0.14111 1.51694,-0.0353 1.97556,0.28222 0.38805,0.28222 0.91722,0.52917 1.16416,0.52917 0.24695,0 1.12889,0.38805 1.905,0.91722 1.12889,0.70555 1.76389,0.84666 3.24556,0.77611 1.41111,-0.0706 1.86972,-0.24695 1.94028,-0.74083 0.0705,-0.3175 -0.0706,-0.67028 -0.35278,-0.74084 z"
       id="path3317"
       inkscape:connector-curvature="0" />
    <path
       style="fill:#000000;stroke:none;stroke-width:0.03527778"
       d="m -78.327099,77.690387 c -0.91722,-1.305277 -3.24556,-2.293056 -5.57389,-2.328333 -2.01083,-0.03528 -2.11667,0 -2.36361,0.9525 -0.14111,0.529167 -0.3175,3.069167 -0.38806,5.644443 l -0.10583,4.656667 1.02306,0.105833 c 2.25777,0.282224 6.13833,-2.2225 7.40833,-4.7625 0.70556,-1.446387 0.74083,-3.245553 0,-4.26861 z m -2.15194,4.26861 c -0.91723,1.340557 -3.03389,2.71639 -4.19806,2.71639 -0.49389,0 -0.56444,-0.246943 -0.35278,-1.305277 0.10584,-0.740833 0.21167,-2.398889 0.21167,-3.668889 0,-1.622777 0.14111,-2.39889 0.45861,-2.54 0.59972,-0.246944 4.16278,1.023056 4.55083,1.5875 0.49389,0.811389 0.28223,1.799166 -0.67027,3.210276 z"
       id="path3321"
       inkscape:connector-curvature="0" />
    <path
       style="fill:#000000;stroke:none;stroke-width:0.03527778"
       d="m -88.875159,75.291497 c -1.5875,-0.388053 -8.50194,0 -9.13694,0.529167 -1.09361,0.917223 -0.67028,1.44639 1.19944,1.44639 2.08139,0 2.04611,-0.246944 1.12889,5.291667 l -0.635,3.704166 -1.19944,0.105834 c -1.5875,0.14111 -2.01084,0.564443 -1.37584,1.340556 0.38806,0.493887 0.9525,0.564444 3.66889,0.388054 5.36223,-0.3175 8.53723,-2.010834 3.73945,-2.010834 -1.34056,0 -2.54,-0.105833 -2.61056,-0.246943 -0.28222,-0.529167 0.98778,-7.79639 1.48167,-8.360833 0.3175,-0.352777 1.02305,-0.564444 1.97555,-0.564444 0.84667,0 1.76389,-0.105833 2.08139,-0.211667 0.84667,-0.3175 0.67028,-1.164166 -0.3175,-1.411113 z"
       id="path3325"
       inkscape:connector-curvature="0" />
    <path
       style="fill:#000000;stroke:none;stroke-width:0.03527778"
       d="m -91.379879,114.20289 c -0.56444,-0.56445 -1.55222,-0.24695 -1.55222,0.49389 0,0.52916 0.17639,0.70555 0.77611,0.59972 0.77611,-0.10583 1.16417,-0.67028 0.77611,-1.09361 z"
       id="path3327"
       inkscape:connector-curvature="0" />
    <path
       style="fill:#000000;stroke:none;stroke-width:0.03527778"
       d="m -96.001269,110.07539 c -4.339161,0 -5.820831,0.38805 -6.032501,1.51694 -0.10583,0.45861 0.14111,0.59973 1.05834,0.59973 h 1.199441 l -0.14111,4.58611 c -0.141111,4.05694 -0.0706,4.69194 0.45861,5.29166 1.27,1.41111 2.2225,0.67028 1.55222,-1.16416 -0.52916,-1.48167 -0.10583,-8.71361 0.52917,-8.89 0.21167,-0.0706 1.48167,-0.24695 2.8575,-0.42334 1.94028,-0.21166 2.50472,-0.42333 2.57528,-0.88194 0.10583,-0.56445 -0.28223,-0.635 -4.05695,-0.635 z"
       id="path3329"
       inkscape:connector-curvature="0" />
    <path
       style="fill:#000000;stroke:none;stroke-width:0.03527778"
       d="m -92.649879,117.13094 c -0.81139,0 -1.34055,1.05834 -1.34055,2.64584 0,1.5875 0.52916,2.64583 1.34055,2.64583 0.52917,0 0.59972,-0.38805 0.59972,-2.64583 0,-2.25778 -0.0706,-2.64584 -0.59972,-2.64584 z"
       id="path3331"
       inkscape:connector-curvature="0" />
    <path
       style="fill:#000000;stroke:none;stroke-width:0.03527778"
       d="m -111.41766,80.794831 c -0.635,0 -1.69333,-0.105834 -2.32833,-0.211667 -1.02306,-0.211667 -1.09361,-0.3175 -0.91722,-1.340554 0.70555,-3.598333 0.70555,-4.092223 -0.0706,-4.092223 -0.59972,0 -0.88195,0.423334 -1.48167,2.39889 -0.42333,1.305277 -0.84667,3.563054 -0.9525,5.009444 -0.17639,2.504723 -0.14111,2.716389 0.77611,3.81 0.77611,0.9525 1.19945,1.128889 2.39889,1.128889 1.62278,-0.03528 3.06917,-0.9525 3.06917,-1.940279 0,-0.45861 -0.17639,-0.564444 -0.77611,-0.388054 -2.82223,0.811387 -3.81,0.388054 -3.81,-1.5875 0,-1.023056 0,-1.023056 2.2225,-1.023056 2.18722,0 3.06916,-0.388057 3.06916,-1.305277 0,-0.282223 -0.45861,-0.458613 -1.19944,-0.458613 z"
       id="path3339"
       inkscape:connector-curvature="0" />
    <path
       style="fill:#000000;stroke:none;stroke-width:0.03527778"
       d="m -113.28738,120.65872 c -1.55222,0 -2.96333,-0.81139 -2.39889,-1.37583 0.21167,-0.17639 0.98778,-0.38806 1.76389,-0.45861 1.94028,-0.14111 1.905,-1.05834 -0.0706,-1.44639 -1.72861,-0.3175 -1.79917,-0.56445 -0.81139,-3.06917 0.88195,-2.2225 0.88195,-2.46944 0.0353,-2.46944 -0.88194,0 -1.5875,1.16416 -2.54,4.02166 -0.91722,2.92806 -0.70555,4.40973 0.81139,5.67973 0.88195,0.74083 1.37584,0.88194 2.71639,0.81139 1.37583,-0.10584 1.62278,-0.21167 1.72861,-0.88195 0.10584,-0.74083 -0.0353,-0.81139 -1.23472,-0.81139 z"
       id="path3343"
       inkscape:connector-curvature="0" />
    <path
       style="fill:#000000;stroke:none;stroke-width:0.03527778"
       d="m -119.39044,113.25039 c -0.38805,0 -0.70555,0.24694 -0.70555,0.52917 0,0.28222 0.3175,0.52916 0.70555,0.52916 0.38806,0 0.70556,-0.24694 0.70556,-0.52916 0,-0.28223 -0.3175,-0.52917 -0.70556,-0.52917 z"
       id="path3345"
       inkscape:connector-curvature="0" />
    <path
       style="fill:#000000;stroke:none;stroke-width:0.03527778"
       d="m -119.77849,79.736497 c -0.88195,0 -0.77611,1.164167 0.14111,1.340557 0.42333,0.07056 0.59972,-0.105833 0.59972,-0.599723 0,-0.529167 -0.21166,-0.740834 -0.74083,-0.740834 z"
       id="path3347"
       inkscape:connector-curvature="0" />
    <path
       style="fill:#000000;stroke:none;stroke-width:0.03527778"
       d="m -119.67266,83.969831 c -0.52916,0 -0.77611,0.388056 -1.09361,1.552223 -0.49389,2.04611 -0.52917,1.975556 0.49389,1.975556 0.77611,0 0.88194,-0.141113 0.88194,-1.199446 0,-0.670277 0.10584,-1.446387 0.21167,-1.763887 0.14111,-0.388056 0,-0.564446 -0.49389,-0.564446 z"
       id="path3349"
       inkscape:connector-curvature="0" />
    <path
       style="fill:#000000;stroke:none;stroke-width:0.03527778"
       d="m -120.41349,118.18928 c -0.52917,0 -0.77611,0.42333 -1.09361,1.76389 -0.42334,1.83444 -0.28223,2.46944 0.56444,2.46944 0.635,0 1.19945,-1.41111 1.19945,-3.03389 0,-0.9525 -0.14111,-1.19944 -0.67028,-1.19944 z"
       id="path3351"
       inkscape:connector-curvature="0" />
    <path
       style="fill:#000000;stroke:none;stroke-width:0.03527778"
       d="m -123.02405,82.276497 c -0.45861,-0.423333 -1.16416,-0.77611 -1.5875,-0.77611 -1.09361,0 -1.27,-0.705556 -0.635,-2.610556 0.77611,-2.257777 0.74084,-4.198054 0,-4.021667 -0.3175,0.07056 -0.70555,0.35278 -0.84666,0.635 -0.77612,1.5875 -1.48167,4.62139 -1.65806,6.914446 -0.17639,2.328334 -0.10583,2.716387 0.635,3.845277 0.74083,1.09361 1.02306,1.234723 2.08139,1.164167 0.91722,-0.07056 1.41111,-0.388057 2.01083,-1.305277 1.02306,-1.516946 1.02306,-2.89278 0,-3.84528 z m -0.9525,2.786947 c -0.49389,0.881943 -1.19944,0.846666 -1.65805,-0.105834 -0.49389,-1.093613 -0.21167,-1.693333 0.77611,-1.693333 0.70555,0 1.02305,0.28222 1.19944,0.987777 0.0353,0.07056 -0.14111,0.423333 -0.3175,0.81139 z"
       id="path3353"
       inkscape:connector-curvature="0" />
    <path
       style="fill:#000000;stroke:none;stroke-width:0.03527778"
       d="m -122.70655,116.60178 c -0.28222,-0.38806 -1.09361,-0.74084 -2.01083,-0.84667 -2.01083,-0.28222 -2.11667,-0.91722 -0.67028,-4.30389 1.05833,-2.54 1.02306,-3.38667 -0.14111,-2.92805 -0.77611,0.28222 -1.48167,1.69333 -2.71639,5.3975 -1.30528,3.84527 -1.34055,5.85611 -0.14111,7.19666 0.70556,0.74084 1.23472,0.9525 2.32833,0.9525 2.78695,0 4.86834,-3.38666 3.35139,-5.46805 z m -1.83444,2.92805 c -1.05834,1.55223 -3.13972,0.70556 -2.89278,-1.19944 0.10583,-0.9525 0.52917,-1.09361 3.10444,-0.88195 0.52917,0.0353 0.42334,1.19945 -0.21166,2.08139 z"
       id="path3355"
       inkscape:connector-curvature="0" />
    <path
       style="fill:#000000;stroke:none;stroke-width:0.03527778"
       d="m -132.19627,82.241221 c -0.67028,-0.388057 -1.5875,-0.776111 -2.04611,-0.846667 -1.23472,-0.211667 -1.19945,-1.09361 0.17639,-4.1275 0.91722,-2.08139 1.09361,-2.68111 0.67027,-2.751667 -0.28222,-0.07056 -0.74083,0.07056 -1.02305,0.3175 -1.09361,0.881944 -2.61056,4.550834 -2.99861,7.16139 -0.38806,2.50472 -0.35278,2.716387 0.45861,4.162777 0.77611,1.41111 0.91722,1.516943 2.46944,1.622777 1.41111,0.105833 1.76389,-0.03528 2.54,-0.881944 0.67028,-0.740833 0.91723,-1.340556 0.91723,-2.469443 0,-1.27 -0.14111,-1.552223 -1.16417,-2.187223 z m -0.45861,3.280833 c -0.67028,0.705556 -2.04611,0.740833 -2.57528,0.07056 -0.24694,-0.282223 -0.38806,-0.9525 -0.3175,-1.516946 0.10583,-1.058333 1.02306,-1.41111 2.61056,-1.023054 0.98777,0.246944 1.16416,1.622777 0.28222,2.469444 z"
       id="path3359"
       inkscape:connector-curvature="0" />
    <path
       style="fill:#000000;stroke:none;stroke-width:0.03527778"
       d="m -131.70238,116.77817 c -0.52917,-0.24695 -0.74084,-0.81139 -0.81139,-2.04611 -0.10583,-1.37584 -0.21167,-1.65806 -0.81139,-1.65806 -0.59972,0 -0.74083,0.28222 -0.88194,1.905 -0.17639,2.01083 -0.81139,2.82222 -1.94028,2.36361 -0.49389,-0.17639 -0.56445,-0.49389 -0.35278,-1.83444 0.10583,-0.84667 0.45861,-2.39889 0.74083,-3.42195 0.74084,-2.68111 0.74084,-2.89278 0,-2.89278 -1.05833,0 -1.86972,1.79917 -2.36361,5.18584 -0.59972,4.09222 -0.24694,4.86833 2.18722,4.86833 1.44639,0 1.79917,0.14111 2.29306,0.88195 0.3175,0.49388 0.88194,0.88194 1.27,0.88194 0.59972,0 0.70556,-0.17639 0.52917,-1.02306 -0.14111,-0.67027 -0.0353,-1.16416 0.28222,-1.44638 0.74083,-0.59973 0.67028,-1.30528 -0.14111,-1.76389 z"
       id="path3361"
       inkscape:connector-curvature="0" />
    <path
       style="fill:#000000;stroke:none;stroke-width:0.03527778"
       d="m -139.04016,106.089 c -0.10583,-0.14111 -0.67028,-0.24695 -1.23472,-0.24695 -0.77611,0 -1.48167,0.45862 -2.8575,1.86973 -2.57528,2.57528 -3.88056,5.3975 -4.05695,8.60778 -0.17639,3.21027 0.0353,4.02166 1.37584,5.57388 0.84666,0.9525 1.37583,1.23473 2.32833,1.23473 2.50472,0 4.33917,-1.94028 4.33917,-4.65667 0,-1.79917 -2.32834,-3.81 -4.40973,-3.81 -1.30527,0 -1.41111,-0.74083 -0.38805,-2.78694 1.16417,-2.25778 2.75167,-4.05695 4.09222,-4.62139 1.05833,-0.42334 1.27,-0.74084 0.81139,-1.16417 z m -2.64583,14.46389 c -1.62278,1.72861 -3.38667,0.52917 -3.70417,-2.50472 -0.21167,-1.76389 0.14111,-2.11667 1.65806,-1.79917 2.57527,0.56444 3.59833,2.68111 2.04611,4.30389 z"
       id="path3365"
       inkscape:connector-curvature="0" />
    <path
       style="fill:#000000;stroke:none;stroke-width:0.03527778"
       d="m -140.59238,85.380944 c -0.21167,-0.49389 -0.3175,-2.928057 -0.24695,-5.609167 0.0706,-3.245556 0,-4.7625 -0.28222,-4.868333 -0.81139,-0.282223 -1.27,2.04611 -1.34055,6.35 -0.0353,4.691943 0.42333,6.596943 1.5875,6.596943 0.74083,0 0.84666,-1.023056 0.28222,-2.469443 z"
       id="path3367"
       inkscape:connector-curvature="0" />
    <path
       style="fill:#000000;stroke:none;stroke-width:0.02321108"
       d="m 247.56764,157.74615 c -0.77622,-0.2221 -5.11825,-0.0666 -5.50636,0.2221 -0.21831,0.13326 -0.36386,0.48863 -0.36386,0.79956 0.0243,0.28874 0.0243,1.55472 0,2.79848 -0.0243,2.55417 0.16981,2.84291 1.60098,2.44312 0.43662,-0.11105 0.97028,-0.15547 1.18859,-0.0888 0.46088,0.15547 0.5094,0.99946 0.0728,1.51029 -0.53366,0.6441 -1.96482,1.3104 -2.78956,1.3104 -0.63069,0 -0.80049,0.0888 -0.72772,0.37758 0.097,0.48862 1.14009,0.84398 1.96483,0.64409 0.3396,-0.0666 1.09157,-0.46641 1.67374,-0.8662 2.30442,-1.59913 1.91631,-4.15329 -0.60643,-4.15329 h -0.97029 l 0.16981,-1.59914 c 0.0728,-0.8662 0.26682,-1.71018 0.41237,-1.88786 0.16979,-0.15547 0.67919,-0.28874 1.16434,-0.28874 1.86779,0 3.85687,-0.8884 2.71679,-1.22155 z"
       id="path3265"
       inkscape:connector-curvature="0" />
    <path
       style="fill:#000000;stroke:none;stroke-width:0.02321108"
       d="m 238.78657,157.76836 c -1.33414,-0.24431 -2.30442,-0.15547 -2.69254,0.26652 -0.65494,0.64409 -1.64948,3.08721 -1.64948,4.02004 0,1.06609 0.24257,1.24377 1.81928,1.24377 1.55246,0 1.72226,0.48862 0.55792,1.59913 -0.6792,0.6441 -0.92177,0.75515 -1.57672,0.6441 -0.99454,-0.13327 -1.21285,0.15546 -0.6792,0.91061 0.3396,0.46641 0.53367,0.53304 1.14009,0.42199 0.94602,-0.17768 2.44997,-1.17714 2.93511,-1.9767 0.94603,-1.48808 0.12128,-2.82069 -1.72225,-2.82069 -0.89752,0 -1.0188,-0.0666 -1.0188,-0.48863 0.0243,-0.28873 0.26683,-0.95503 0.55791,-1.48808 0.46089,-0.84398 0.70346,-1.04387 1.72225,-1.35481 1.43117,-0.422 1.64949,-0.77736 0.60643,-0.97725 z"
       id="path3273"
       inkscape:connector-curvature="0" />
    <path
       style="fill:#000000;stroke:none;stroke-width:0.02321108"
       d="m 231.38816,158.98992 c -0.89751,-0.6441 -3.88114,-0.66631 -4.70588,-0.0666 -0.94603,0.71072 -0.41237,0.97724 1.55245,0.82177 2.15889,-0.15547 2.59552,0.0444 1.96483,0.93283 -0.24257,0.33315 -0.849,1.06609 -1.33414,1.62134 -1.67374,1.84345 -2.18314,2.68743 -2.18314,3.55363 0,1.13271 0.82474,1.64355 2.25591,1.44366 1.33414,-0.22211 2.35293,-0.71073 2.35293,-1.13272 0,-0.26652 -0.14553,-0.33315 -0.60642,-0.2221 -0.3396,0.0888 -1.09157,0.19989 -1.698,0.28873 -0.92177,0.11105 -1.09157,0.0666 -1.09157,-0.24431 0,-0.57747 0.43663,-1.22156 1.698,-2.57638 2.547,-2.73185 2.91085,-3.62026 1.79503,-4.41982 z"
       id="path3281"
       inkscape:connector-curvature="0" />
    <path
       style="fill:#000000;stroke:none;stroke-width:0.03527778"
       d="m 2.1586794,115.06759 c -0.14111,0 -0.81139,0.38805 -1.48167004,0.88194 -1.5875,1.16417 -2.11666996,0.70556 -2.11666996,-1.94028 v -2.01083 l 1.76388996,-0.74083 c 2.25778004,-0.9525 2.39889004,-1.83445 0.3175,-1.83445 h -1.48166 l 0.21166,-2.29305 c 0.21167,-2.36362 0.0706,-3.35139 -0.52915996,-3.35139 -0.77612,0 -1.23473,1.02305 -1.44639,3.13972 -0.17639,1.65805 -0.49389,2.50472 -1.12889,3.28083 -0.81139,0.98778 -0.84667,1.12889 -0.35278,1.69334 0.28222,0.3175 0.52917,1.23472 0.52917,2.08139 0,1.55222 0.81139,3.88055 1.51694,4.33916 0.91722,0.56445 2.50471996,0.28222 3.4925,-0.67028 0.91722,-0.88194 1.37583,-2.57527 0.70556,-2.57527 z"
       id="path3209-3"
       inkscape:connector-curvature="0" />
    <path
       style="fill:#000000;stroke:none;stroke-width:0.03527778"
       d="m 1.8730113,84.627935 c -1.16417003,-0.91722 -1.19945003,-0.91722 -1.37584003,-0.24695 -0.14111,0.56445 -0.42333,0.70556 -1.19944,0.59973 -0.77610997,-0.0706 -1.02305997,-0.3175 -1.09360997,-1.05834 -0.14111,-1.12889 -1.02306,-2.04611 -1.27,-1.30528 -0.38806,1.30528 -0.49389,3.31612 -0.17639,3.88056 0.24694,0.52917 0.74083,0.67028 2.01083,0.67028 0.95249997,0 1.90499997,0.21166 2.15194997,0.45861 0.38805003,0.35278 0.49389003,0.3175 0.63500003,-0.0706 0.10583,-0.24694 0.49389,-0.74083 0.84666,-1.02306 0.88195,-0.74083 0.88195,-0.81138 -0.52916,-1.905 z"
       id="path3211-6"
       inkscape:connector-curvature="0" />
    <path
       style="fill:#000000;stroke:none;stroke-width:0.03527778"
       d="m 27.217331,113.68683 c -0.14111,0 -0.81139,0.38805 -1.48167,0.88194 -1.5875,1.16417 -2.11667,0.70556 -2.11667,-1.94028 v -2.01083 l 1.76389,-0.74083 c 2.25778,-0.9525 2.39889,-1.83445 0.3175,-1.83445 h -1.48166 l 0.21166,-2.29305 c 0.21167,-2.36362 0.0706,-3.35139 -0.52916,-3.35139 -0.77612,0 -1.23473,1.02305 -1.44639,3.13972 -0.17639,1.65805 -0.49389,2.50472 -1.12889,3.28083 -0.81139,0.98778 -0.84667,1.12889 -0.35278,1.69334 0.28222,0.3175 0.52917,1.23472 0.52917,2.08139 0,1.55222 0.81139,3.88055 1.51694,4.33916 0.91722,0.56445 2.50472,0.28222 3.4925,-0.67028 0.91722,-0.88194 1.37583,-2.57527 0.70556,-2.57527 z"
       id="path3209-3-7"
       inkscape:connector-curvature="0" />
    <path
       style="fill:#000000;stroke:none;stroke-width:0.03527778"
       d="m 26.931661,83.247167 c -1.16417,-0.91722 -1.19945,-0.91722 -1.37584,-0.24695 -0.14111,0.56445 -0.42333,0.70556 -1.19944,0.59973 -0.77611,-0.0706 -1.02306,-0.3175 -1.09361,-1.05834 -0.14111,-1.12889 -1.02306,-2.04611 -1.27,-1.30528 -0.38806,1.30528 -0.49389,3.31612 -0.17639,3.88056 0.24694,0.52917 0.74083,0.67028 2.01083,0.67028 0.9525,0 1.905,0.21166 2.15195,0.45861 0.38805,0.35278 0.49389,0.3175 0.635,-0.0706 0.10583,-0.24694 0.49389,-0.74083 0.84666,-1.02306 0.88195,-0.74083 0.88195,-0.81138 -0.52916,-1.905 z"
       id="path3211-6-5"
       inkscape:connector-curvature="0" />
    <path
       style="fill:#000000;stroke:none;stroke-width:0.03527778"
       d="m 59.345307,113.30885 c -0.14111,0 -0.81139,0.38805 -1.48167,0.88194 -1.5875,1.16417 -2.11667,0.70556 -2.11667,-1.94028 v -2.01083 l 1.76389,-0.74083 c 2.25778,-0.9525 2.39889,-1.83445 0.3175,-1.83445 h -1.48166 l 0.21166,-2.29305 c 0.21167,-2.36362 0.0706,-3.35139 -0.52916,-3.35139 -0.77612,0 -1.23473,1.02305 -1.44639,3.13972 -0.17639,1.65805 -0.49389,2.50472 -1.12889,3.28083 -0.81139,0.98778 -0.84667,1.12889 -0.35278,1.69334 0.28222,0.3175 0.52917,1.23472 0.52917,2.08139 0,1.55222 0.81139,3.88055 1.51694,4.33916 0.91722,0.56445 2.50472,0.28222 3.4925,-0.67028 0.91722,-0.88194 1.37583,-2.57527 0.70556,-2.57527 z"
       id="path3209-3-7-3"
       inkscape:connector-curvature="0" />
    <path
       style="fill:#000000;stroke:none;stroke-width:0.03527778"
       d="m 59.059637,82.869191 c -1.16417,-0.91722 -1.19945,-0.91722 -1.37584,-0.24695 -0.14111,0.56445 -0.42333,0.70556 -1.19944,0.59973 -0.77611,-0.0706 -1.02306,-0.3175 -1.09361,-1.05834 -0.14111,-1.12889 -1.02306,-2.04611 -1.27,-1.30528 -0.38806,1.30528 -0.49389,3.31612 -0.17639,3.88056 0.24694,0.52917 0.74083,0.67028 2.01083,0.67028 0.9525,0 1.905,0.21166 2.15195,0.45861 0.38805,0.35278 0.49389,0.3175 0.635,-0.0706 0.10583,-0.24694 0.49389,-0.74083 0.84666,-1.02306 0.88195,-0.74083 0.88195,-0.81138 -0.52916,-1.905 z"
       id="path3211-6-5-5"
       inkscape:connector-curvature="0" />
  </g>
</svg>
