<?xml version="1.0" encoding="UTF-8" standalone="no"?>
<!-- Created with Inkscape (http://www.inkscape.org/) -->

<svg
   xmlns:dc="http://purl.org/dc/elements/1.1/"
   xmlns:cc="http://creativecommons.org/ns#"
   xmlns:rdf="http://www.w3.org/1999/02/22-rdf-syntax-ns#"
   xmlns:svg="http://www.w3.org/2000/svg"
   xmlns="http://www.w3.org/2000/svg"
   xmlns:sodipodi="http://sodipodi.sourceforge.net/DTD/sodipodi-0.dtd"
   xmlns:inkscape="http://www.inkscape.org/namespaces/inkscape"
   width="26.767317mm"
   height="68.322182mm"
   viewBox="0 0 26.767317 68.322182"
   version="1.1"
   id="svg7550"
   inkscape:version="0.92.5 (2060ec1f9f, 2020-04-08)"
   sodipodi:docname="flow_no_interrupts.svg">
  <defs
     id="defs7544" />
  <sodipodi:namedview
     id="base"
     pagecolor="#ffffff"
     bordercolor="#666666"
     borderopacity="1.0"
     inkscape:pageopacity="0.0"
     inkscape:pageshadow="2"
     inkscape:zoom="0.35"
     inkscape:cx="-160.8447"
     inkscape:cy="-290.88727"
     inkscape:document-units="mm"
     inkscape:current-layer="layer1"
     showgrid="false"
     fit-margin-right="0"
     fit-margin-top="0"
     fit-margin-left="0"
     fit-margin-bottom="0"
     inkscape:window-width="1920"
     inkscape:window-height="1080"
     inkscape:window-x="1920"
     inkscape:window-y="0"
     inkscape:window-maximized="0" />
  <metadata
     id="metadata7547">
    <rdf:RDF>
      <cc:Work
         rdf:about="">
        <dc:format>image/svg+xml</dc:format>
        <dc:type
           rdf:resource="http://purl.org/dc/dcmitype/StillImage" />
        <dc:title></dc:title>
      </cc:Work>
    </rdf:RDF>
  </metadata>
  <g
     inkscape:label="Layer 1"
     inkscape:groupmode="layer"
     id="layer1"
     transform="translate(-68.259207,-11.106754)">
    <path
       style="stroke-width:0.01213978"
       inkscape:connector-curvature="0"
       d="m 80.349422,11.311598 c -0.14877,0.4874 -0.33472,3.17409 -0.30993,4.58876 0,0.84405 -0.0372,1.56922 -0.0868,1.61677 -0.062,0.0476 -0.55786,0.15454 -1.10332,0.23776 -0.54546,0.0832 -1.02894,0.21398 -1.07853,0.2972 -0.18595,0.26153 -0.0992,0.43985 0.27273,0.55873 0.21075,0.0713 0.37191,0.21399 0.37191,0.32098 0.0124,0.11888 0.13637,0.42797 0.28513,0.70139 0.3719,0.66573 1.80994,2.41326 2.00829,2.41326 0.0744,0 0.23555,-0.0951 0.34712,-0.21398 0.28512,-0.2972 1.69837,-3.2692 1.69837,-3.5664 0,-0.17832 0.0744,-0.26153 0.23554,-0.26153 0.30992,0 0.4215,-0.17832 0.32232,-0.48741 -0.0868,-0.23776 -0.14876,-0.24965 -0.91737,-0.19021 -0.44629,0.0357 -1.00415,0.10699 -1.22729,0.15455 l -0.4215,0.0832 0.0248,-3.01955 c 0.0248,-3.66151 0.0372,-3.43564 -0.17355,-3.43564 -0.0992,0 -0.21075,0.0951 -0.24794,0.2021 z m 1.78515,6.85937 c 0,0.17832 -1.42564,2.62725 -1.52482,2.62725 -0.19835,0 -1.45043,-1.83076 -1.45043,-2.10418 0,-0.27342 0.0372,-0.28531 1.42564,-0.42797 1.54961,-0.14265 1.54961,-0.14265 1.54961,-0.0951 z"
       id="path7559" />
    <path
       style="stroke-width:0.01213978"
       inkscape:connector-curvature="0"
       d="m 76.617952,22.783508 c -1.69837,0.0476 -4.00419,0.10699 -5.11991,0.14266 -1.11572,0.0238 -2.05789,0.0713 -2.09508,0.11888 -0.0496,0.0357 -0.0124,0.0713 0.062,0.0713 0.0744,0 0.24794,0.11888 0.38431,0.24964 0.24793,0.26154 0.26033,0.26154 3.81824,0.15455 5.66538,-0.16643 17.71515,-0.13077 19.1408,0.0594 0.65703,0.0832 1.26448,0.20209 1.35126,0.24965 0.11157,0.0594 0.16116,1.379 0.19835,5.18316 l 0.062,5.09995 -4.68603,-0.0238 c -2.57855,-0.0119 -8.30591,-0.0476 -12.7316,-0.0594 l -8.03319,-0.0357 0.0248,-1.72376 c 0.0124,-0.95104 0.0744,-2.10417 0.14876,-2.55592 0.062,-0.46363 0.14877,-1.98529 0.18596,-3.38808 0.0372,-1.61676 0.11157,-2.61535 0.19835,-2.71046 0.16116,-0.19021 -0.0744,-0.38041 -0.49588,-0.38041 -0.26033,0 -0.26033,0.0119 -0.32232,2.93633 -0.0372,1.62866 -0.12397,3.25731 -0.18595,3.62584 -0.0744,0.38042 -0.14876,1.60488 -0.16116,2.73424 l -0.0372,2.05662 0.55786,0.10699 c 0.33472,0.0594 2.13226,0.0594 4.33891,0 2.07028,-0.0594 5.24389,-0.0713 7.05383,-0.0357 1.80995,0.0476 5.80175,0.0832 8.87618,0.0951 4.89677,0.0119 5.61579,-0.0119 5.75215,-0.16643 0.12397,-0.14265 0.14877,-1.26013 0.0992,-5.33771 -0.0868,-6.58596 0.0992,-6.08667 -2.3926,-6.38387 -1.35126,-0.16643 -11.57869,-0.21398 -15.99198,-0.0832 z m 18.03748,1.04614 c 0,0.0594 -0.062,0.11888 -0.13637,0.11888 -0.062,0 -0.0868,-0.0594 -0.0496,-0.11888 0.0372,-0.0713 0.0992,-0.11888 0.13637,-0.11888 0.0248,0 0.0496,0.0476 0.0496,0.11888 z"
       id="path7563" />
    <path
       style="stroke-width:0.01213978"
       inkscape:connector-curvature="0"
       d="m 80.498182,25.577188 c -0.24794,0.38042 -0.57026,0.9867 -0.71902,1.34334 -0.14876,0.35664 -0.3843,0.91538 -0.52067,1.24824 -0.13637,0.32098 -0.45869,1.02237 -0.71902,1.54544 -0.29752,0.57063 -0.43389,0.99859 -0.37191,1.05803 0.18596,0.17832 0.47109,-0.15454 0.94217,-1.0818 l 0.43389,-0.87972 1.00415,0.0357 1.01654,0.0357 0.16116,0.95104 c 0.0868,0.51119 0.23554,0.98671 0.32232,1.03426 0.54546,0.33286 0.52067,-0.0832 -0.29753,-3.74472 -0.19835,-0.8916 -0.3595,-1.77131 -0.3595,-1.92585 0,-0.53496 -0.4215,-0.35664 -0.89258,0.38041 z m 0.50827,0.95104 c 0.29753,1.20069 0.35951,1.50977 0.30992,1.60488 -0.0372,0.0476 -0.34711,0.0951 -0.68183,0.0951 -0.89257,0 -0.90497,-0.0713 -0.18595,-1.69998 0.11157,-0.23776 0.26034,-0.43986 0.32232,-0.43986 0.062,0 0.16116,0.2021 0.23554,0.43986 z"
       id="path7567" />
    <path
       style="stroke-width:0.01213978"
       inkscape:connector-curvature="0"
       d="m 80.560162,35.622548 c -0.0496,0.0832 -0.12397,1.02236 -0.13636,2.08039 l -0.0496,1.92586 -0.8182,0.0713 c -0.45868,0.0476 -0.92976,0.10699 -1.04134,0.13077 -0.27273,0.0713 -0.28512,0.33286 -0.0372,0.60629 0.29753,0.33286 1.26449,1.71187 1.56201,2.22305 0.14877,0.26154 0.38431,0.55874 0.53307,0.67762 0.17355,0.14265 0.22314,0.24965 0.13636,0.33286 -0.0744,0.0713 -2.33061,0.13077 -6.11166,0.15455 l -6.0001,0.0357 -0.17355,0.47552 c -0.22315,0.61817 -0.22315,1.41467 0.0248,3.63772 0.11157,1.01049 0.19835,2.66292 0.18595,3.68529 v 1.85452 l 0.45869,0.0832 c 0.24793,0.0356 3.02484,0.0713 6.16125,0.0713 3.13641,0 7.01664,0.0475 8.61584,0.11887 8.83898,0.34476 9.86792,0.36853 10.20264,0.22588 0.18595,-0.0832 0.35951,-0.22588 0.3843,-0.33287 0.11157,-0.34475 0.32232,-2.52025 0.26034,-2.61535 -0.0992,-0.16643 -0.17356,-6.63351 -0.0744,-6.97826 0.19835,-0.67762 -0.21075,-0.90349 -0.54547,-0.2972 -0.14876,0.2972 -0.17355,1.06992 -0.14876,5.19506 0.0124,3.76849 -0.0124,4.8503 -0.13636,4.89785 -0.0744,0.0238 -0.14877,-0.0356 -0.14877,-0.14265 0,-0.10699 -0.0992,-0.19021 -0.26033,-0.19021 -0.13637,0 -1.04134,-0.0595 -2.0083,-0.11888 -3.09922,-0.21398 -12.92995,-0.47552 -17.59118,-0.47552 h -4.51247 l -0.0124,-1.93775 c 0,-1.05803 -0.0744,-2.41326 -0.14877,-2.99577 -0.0868,-0.5944 -0.18595,-1.61677 -0.22314,-2.29439 l -0.0744,-1.21257 h 5.44224 c 3.00004,-0.0119 6.13646,-0.0594 6.99184,-0.11888 6.17365,-0.42797 8.92576,-0.5944 10.10347,-0.60629 0.75621,0 1.61159,-0.0476 1.92152,-0.0832 0.48347,-0.0713 0.55785,-0.11888 0.55785,-0.38041 v -0.28531 l -1.73556,0.0238 c -0.95456,0.0119 -2.49177,0.0832 -3.40914,0.14266 -5.64059,0.40419 -6.73152,0.47552 -7.15301,0.47552 h -0.45868 l 0.32231,-0.33287 c 0.17356,-0.17832 0.47109,-0.54685 0.64464,-0.83216 0.29753,-0.45174 0.99175,-1.39089 1.31407,-1.77131 0.18596,-0.21398 0.14877,-0.34475 -0.18595,-0.70139 -0.17356,-0.17832 -0.30992,-0.35664 -0.30992,-0.40419 0,-0.0476 -0.4091,-0.0594 -0.91737,-0.0238 l -0.91737,0.0476 -0.0372,-0.46363 c -0.0372,-0.26154 -0.0248,-1.08181 0.0124,-1.83075 0.0744,-1.33146 0,-1.8902 -0.23554,-1.8902 -0.062,0 -0.16116,0.0713 -0.22315,0.14266 z m 2.18186,4.82652 c -0.69423,0.8916 -1.37606,1.79509 -1.53722,2.02096 -0.24794,0.33286 -0.35951,0.27343 -0.73142,-0.42797 -0.16115,-0.30908 -0.47108,-0.76083 -0.68182,-1.02236 -0.21075,-0.24965 -0.35951,-0.4993 -0.32232,-0.54685 0.0372,-0.0476 0.59505,-0.0951 1.26448,-0.107 0.66943,-0.0119 1.22729,-0.0476 1.26448,-0.0832 0.0248,-0.0238 0.24794,-0.0476 0.48348,-0.0476 0.3967,0 0.4091,0.0119 0.26034,0.21399 z"
       id="path7571" />
    <path
       style="stroke-width:0.01213978"
       inkscape:connector-curvature="0"
       d="m 79.531222,47.070678 c -0.27273,0.28532 -0.28513,0.33287 -0.22314,1.90209 0.062,1.53354 0.19835,2.06851 0.48348,1.89018 0.062,-0.0356 0.11157,-0.77271 0.11157,-1.64053 0,-1.17693 0.0372,-1.61677 0.16116,-1.72376 0.12397,-0.0832 0.3843,-0.0951 0.90497,-0.0119 0.3967,0.0713 0.76861,0.11888 0.83059,0.11888 0.26034,0 0.0124,0.33287 -0.47108,0.61818 -0.66943,0.39231 -0.94216,0.84405 -0.66943,1.11747 0.11157,0.0951 0.45868,0.27342 0.8058,0.3923 0.33471,0.13077 0.61984,0.30909 0.64463,0.41608 0.0868,0.4042 -1.25208,1.11747 -2.10747,1.12936 -0.52067,0.0119 -0.69422,0.17833 -0.45868,0.45175 0.35951,0.40419 2.18185,-0.16643 2.83889,-0.87971 0.64463,-0.7014 0.47108,-1.22447 -0.52067,-1.61677 -0.26034,-0.10699 -0.47108,-0.23776 -0.47108,-0.2972 0,-0.0595 0.33471,-0.32097 0.74381,-0.57063 0.60745,-0.36853 0.74381,-0.51118 0.74381,-0.77271 0,-0.35665 0.0124,-0.35665 -1.27688,-0.64195 -1.23969,-0.26155 -1.72317,-0.23778 -2.07028,0.11887 z"
       id="path7617" />
    <path
       style="stroke-width:0.01213978"
       inkscape:connector-curvature="0"
       d="m 80.535372,54.952428 c -0.0868,0.19021 -0.21075,0.89159 -0.29753,1.58111 l -0.14876,1.23634 -0.44629,0.0595 c -0.23554,0.0475 -0.49587,0.10699 -0.57025,0.15454 -0.52067,0.30908 0.94216,3.29297 1.62399,3.29297 0.19835,0 0.26033,-0.0713 1.23969,-1.52166 0.64464,-0.95104 0.91737,-1.66432 0.74381,-1.93774 -0.062,-0.0951 -0.3843,-0.107 -0.99175,-0.0595 l -0.91737,0.0832 v -0.36853 c 0,-0.19021 0.0868,-0.87971 0.19835,-1.50978 0.14876,-0.93914 0.16116,-1.16502 0.0248,-1.23635 -0.24794,-0.15454 -0.30992,-0.13077 -0.45868,0.22587 z m 1.47523,3.54262 c 0,0.0356 -0.24794,0.35665 -0.55786,0.72517 -0.30992,0.35664 -0.55786,0.72517 -0.55786,0.80839 0,0.0832 -0.0744,0.17831 -0.17356,0.21397 -0.16116,0.0595 -0.63224,-0.63006 -0.94216,-1.39088 l -0.12397,-0.33288 0.52067,0.0595 c 0.29752,0.0356 0.64464,0.0238 0.781,-0.0356 0.28513,-0.11888 1.05374,-0.15455 1.05374,-0.0475 z"
       id="path7623" />
    <path
       style="stroke-width:0.01213978"
       inkscape:connector-curvature="0"
       d="m 76.617952,61.871248 c -2.92566,0.0475 -5.90092,0.13077 -6.59514,0.17831 l -1.26449,0.0951 -0.16116,0.42796 c -0.18595,0.4993 -0.21074,4.10137 -0.0496,6.81183 l 0.11158,1.73565 0.28512,-0.16643 c 0.3967,-0.26154 0.47109,-1.02237 0.24794,-2.7818 -0.19835,-1.50978 -0.27273,-4.9454 -0.0992,-5.18317 0.0496,-0.0713 0.19835,-0.16642 0.33472,-0.21398 0.58265,-0.21398 23.4921,-0.46363 23.71525,-0.26153 0.0372,0.0475 0.0124,0.52307 -0.0744,1.05803 -0.16116,1.0818 -0.19835,3.94681 -0.0744,6.69294 0.0744,1.61677 0.11157,1.7832 0.30992,1.79509 0.12397,0.0119 0.27273,-0.0475 0.32232,-0.11888 0.0496,-0.0713 0.0992,-2.11606 0.11157,-4.54122 0.0248,-2.41326 0.0496,-4.62443 0.062,-4.90974 0.0124,-0.28531 -0.0248,-0.54685 -0.0744,-0.5944 -0.11157,-0.11888 -10.58694,-0.13077 -17.10771,-0.0238 z"
       id="path7661" />
    <path
       style="stroke-width:0.01213978"
       inkscape:connector-curvature="0"
       d="m 80.708932,64.867008 c -1.05374,0.52308 -1.51242,0.89161 -1.88433,1.48601 -0.60745,0.99859 -0.24794,2.23494 0.781,2.6629 0.70663,0.3091 1.94631,0.27343 2.0083,-0.0475 0.0372,-0.16643 -0.0496,-0.2021 -0.49588,-0.2021 -1.12811,-0.0119 -1.9587,-0.66573 -1.9587,-1.54544 0,-0.52307 0.90497,-1.41467 1.99589,-1.96152 0.84299,-0.41608 1.02895,-0.6895 0.53307,-0.73705 -0.12397,-0.0119 -0.57026,0.14265 -0.97935,0.34475 z"
       id="path7663" />
    <path
       style="stroke-width:0.01213978"
       inkscape:connector-curvature="0"
       d="m 69.923632,71.096318 c -1.15291,0.0713 -1.32647,0.13078 -1.27688,0.43987 0.0372,0.23775 0.0992,0.26153 0.84299,0.24964 0.7934,-0.0238 17.47962,0.16644 21.40943,0.22588 1.97111,0.0356 2.0083,0.0356 1.9835,-0.20211 -0.0124,-0.14265 -0.13636,-0.29719 -0.27273,-0.34474 -0.13637,-0.0595 -3.53311,-0.14267 -7.5621,-0.2021 -4.01659,-0.0594 -8.90097,-0.13076 -10.84728,-0.15456 -1.94631,-0.0356 -3.86783,-0.0356 -4.27693,-0.0119 z"
       id="path7667" />
    <path
       style="stroke-width:0.01213978"
       inkscape:connector-curvature="0"
       d="m 80.659342,72.974638 c -0.0992,0.11887 -0.13637,0.66571 -0.12397,1.65241 0,0.82028 -0.0248,1.55734 -0.0744,1.62867 -0.062,0.0951 -0.24794,0.11887 -0.49588,0.0832 -0.24793,-0.0356 -0.50827,0 -0.64463,0.0951 -0.21075,0.15454 -0.21075,0.16643 0.0372,0.43986 0.13636,0.15454 0.30992,0.40419 0.3967,0.57062 0.0744,0.16642 0.3843,0.66571 0.68182,1.12935 0.63225,0.96293 0.96696,1.0937 1.28928,0.48741 0.11157,-0.20209 0.33472,-0.52307 0.49588,-0.71329 0.45868,-0.53494 0.781,-1.21256 0.781,-1.67619 v -0.41609 h -0.86778 -0.86779 v -1.5811 c 0,-1.06993 -0.0496,-1.62865 -0.14876,-1.72376 -0.19835,-0.1902 -0.28513,-0.17831 -0.45869,0.0238 z m 1.66118,3.99436 c 0.0744,0.10698 -0.90497,1.42655 -1.05373,1.42655 -0.0868,0 -0.86779,-1.16502 -0.86779,-1.29578 0,-0.107 0.30993,-0.15456 1.51242,-0.22587 0.18596,-0.0119 0.37191,0.0238 0.4091,0.0951 z"
       id="path7669" />
  </g>
</svg>
