<?xml version="1.0" encoding="UTF-8" standalone="no"?>
<!-- Created with Inkscape (http://www.inkscape.org/) -->

<svg
   xmlns:dc="http://purl.org/dc/elements/1.1/"
   xmlns:cc="http://creativecommons.org/ns#"
   xmlns:rdf="http://www.w3.org/1999/02/22-rdf-syntax-ns#"
   xmlns:svg="http://www.w3.org/2000/svg"
   xmlns="http://www.w3.org/2000/svg"
   xmlns:sodipodi="http://sodipodi.sourceforge.net/DTD/sodipodi-0.dtd"
   xmlns:inkscape="http://www.inkscape.org/namespaces/inkscape"
   width="258.05164mm"
   height="72.086975mm"
   viewBox="0 0 258.05164 72.086975"
   version="1.1"
   id="svg3982"
   inkscape:version="0.92.5 (2060ec1f9f, 2020-04-08)"
   sodipodi:docname="hw_timer.svg">
  <defs
     id="defs3976" />
  <sodipodi:namedview
     id="base"
     pagecolor="#ffffff"
     bordercolor="#666666"
     borderopacity="1.0"
     inkscape:pageopacity="0.0"
     inkscape:pageshadow="2"
     inkscape:zoom="0.35"
     inkscape:cx="-235.20064"
     inkscape:cy="-18.058376"
     inkscape:document-units="mm"
     inkscape:current-layer="layer1"
     showgrid="false"
     fit-margin-top="0"
     fit-margin-left="0"
     fit-margin-right="0"
     fit-margin-bottom="0"
     inkscape:window-width="1920"
     inkscape:window-height="1080"
     inkscape:window-x="0"
     inkscape:window-y="0"
     inkscape:window-maximized="0" />
  <metadata
     id="metadata3979">
    <rdf:RDF>
      <cc:Work
         rdf:about="">
        <dc:format>image/svg+xml</dc:format>
        <dc:type
           rdf:resource="http://purl.org/dc/dcmitype/StillImage" />
        <dc:title></dc:title>
      </cc:Work>
    </rdf:RDF>
  </metadata>
  <g
     inkscape:label="Layer 1"
     inkscape:groupmode="layer"
     id="layer1"
     transform="translate(40.579356,-71.968415)">
    <path
       style="fill:#000000;stroke:none;stroke-width:0.03527778"
       d="m 217.23855,111.05537 c -0.21167,0 -1.05834,0.38806 -1.86973,0.88195 -1.65805,0.91722 -3.77472,1.16417 -4.48027,0.45861 -0.56445,-0.56444 -0.52917,-1.79917 0.14111,-4.19806 0.635,-2.2225 0.77611,-2.36361 3.84527,-2.92805 1.72862,-0.35278 2.11667,-0.56445 2.11667,-1.12889 0,-0.56444 -0.3175,-0.70556 -1.94028,-0.84667 -1.83444,-0.17639 -1.94027,-0.21166 -1.83444,-1.05833 0.0705,-0.49389 0.35278,-1.55222 0.635,-2.398889 0.67028,-2.01083 0.635,-3.56305 -0.0706,-3.84528 -0.91722,-0.35277 -1.55222,0.67028 -2.25777,3.73945 -0.91723,3.774719 -1.09362,4.056939 -2.96334,4.762499 -2.29305,0.88194 -2.68111,2.68111 -0.635,2.68111 h 0.98778 l -0.0353,2.96333 c 0,2.68111 0.0706,3.06917 0.84667,3.88056 1.30528,1.37583 3.63361,1.27 5.89139,-0.21167 1.05833,-0.70555 1.76389,-1.48167 1.83444,-1.94028 0.0706,-0.45861 -0.0353,-0.81139 -0.21166,-0.81139 z"
       id="path3089"
       inkscape:connector-curvature="0" />
    <path
       style="fill:#000000;stroke:none;stroke-width:0.03527778"
       d="m 198.47077,91.370371 c -0.38806,-0.21166 -1.23473,-0.42333 -1.905,-0.42333 -0.67028,0 -1.34056,-0.17639 -1.44639,-0.35278 -0.14111,-0.21166 0.21166,-1.09361 0.70555,-1.97555 0.67028,-1.12889 0.84667,-1.72861 0.56445,-2.01084 -0.49389,-0.49388 -1.30528,0.21167 -2.15195,1.905 -0.38805,0.70556 -0.98777,1.37584 -1.37583,1.48167 -0.52917,0.14111 -0.70556,0.45861 -0.67028,1.34056 0,0.67027 -0.10583,1.83444 -0.24694,2.64583 -0.21167,1.30528 -0.17639,1.51694 0.70555,2.18722 1.62278,1.27 5.46806,0.81139 5.46806,-0.635 0,-0.49389 -0.28222,-0.56444 -1.94028,-0.42333 -2.2225,0.17639 -2.96333,-0.24695 -2.71639,-1.51695 0.14111,-0.84666 0.24695,-0.88194 2.92806,-0.88194 2.89278,0 3.56305,-0.42333 2.08139,-1.34056 z"
       id="path3091"
       inkscape:connector-curvature="0" />
    <path
       style="fill:#000000;stroke:none;stroke-width:0.03527778"
       d="m 196.81271,106.96315 c -0.74083,-0.3175 -2.01083,-0.84666 -2.8575,-1.19944 -0.81139,-0.38806 -1.72861,-0.59972 -2.01083,-0.49389 -1.05834,0.42333 -0.49389,1.27 1.41111,2.08139 1.05833,0.49389 1.94028,1.09361 1.94028,1.37583 0,0.28222 -1.19945,0.98778 -2.89278,1.72861 -3.06917,1.23472 -3.77472,2.11667 -1.86972,2.25778 0.70555,0.0705 2.11666,-0.45861 4.23333,-1.5875 2.68111,-1.44639 3.21028,-1.86972 3.28083,-2.64583 0.10584,-0.84667 -0.0705,-1.05834 -1.23472,-1.51695 z"
       id="path3093"
       inkscape:connector-curvature="0" />
    <path
       style="fill:#000000;stroke:none;stroke-width:0.03527778"
       d="m 179.42077,108.23315 c -6.77334,0 -12.34723,-0.14111 -12.34723,-0.3175 0,-0.14111 0.56445,-1.51694 1.27,-2.99861 1.16417,-2.57528 1.34056,-3.73944 0.52917,-3.73944 -0.21167,0 -1.09361,1.55222 -1.97556,3.45722 l -1.65805,3.4925 -12.73528,0.24694 c -7.33778,0.14111 -12.91167,0.38806 -13.08806,0.56445 -0.24694,0.24694 -0.21166,0.49389 0.0706,0.77611 0.52917,0.52917 3.84528,0.56444 15.27528,0.14111 6.49111,-0.24694 8.74889,-0.21167 8.92528,0.10583 0.14111,0.21167 -0.0706,0.91723 -0.45861,1.5875 -0.77612,1.19945 -0.98778,3.03389 -0.38806,3.03389 0.17639,0 0.88194,-1.02305 1.5875,-2.25778 1.12889,-2.04611 1.37583,-2.25777 2.64583,-2.46944 0.77611,-0.10583 6.38528,-0.21167 12.45306,-0.17639 6.0325,0 11.28889,-0.10583 11.64167,-0.21167 0.3175,-0.14111 0.59972,-0.45861 0.59972,-0.74083 0,-0.42333 -2.04611,-0.49389 -12.34722,-0.49389 z"
       id="path3095"
       inkscape:connector-curvature="0" />
    <path
       style="fill:#000000;stroke:none;stroke-width:0.03527778"
       d="m 190.53327,87.066491 c -0.28223,0 -0.52917,0.24694 -0.52917,0.52916 0,0.28222 0.24694,0.52917 0.52917,0.52917 0.28222,0 0.52916,-0.24695 0.52916,-0.52917 0,-0.28222 -0.24694,-0.52916 -0.52916,-0.52916 z"
       id="path3097"
       inkscape:connector-curvature="0" />
    <path
       style="fill:#000000;stroke:none;stroke-width:0.03527778"
       d="m 189.58077,91.793711 c -0.52917,-0.3175 -1.23473,0.56444 -1.51695,1.905 -0.17639,0.88194 -0.10583,1.16416 0.35278,1.34055 0.74083,0.28223 0.77611,0.21167 1.16417,-1.55222 0.24694,-0.9525 0.21166,-1.55222 0,-1.69333 z"
       id="path3099"
       inkscape:connector-curvature="0" />
    <path
       style="fill:#000000;stroke:none;stroke-width:0.03527778"
       d="m 186.37049,90.700101 c -0.45861,-0.635 -1.19945,-1.41111 -1.62278,-1.79917 -0.70555,-0.52917 -0.77611,-0.77611 -0.42333,-1.41111 0.52916,-0.98778 0.49389,-2.54 -0.0353,-2.54 -0.45861,0 -2.39889,3.88055 -3.52778,7.02028 -0.56444,1.62277 -0.42333,2.64583 0.56445,3.28083 0.67027,0.45861 3.03389,0.3175 4.09222,-0.24694 1.905,-0.98778 2.25778,-2.54 0.9525,-4.30389 z m -1.05833,2.64583 c -0.81139,0.67028 -2.75167,0.67028 -3.175,0 -0.3175,-0.49389 -0.24695,-0.81139 0.3175,-1.55222 1.12888,-1.55222 1.76388,-1.79917 2.57527,-1.05834 0.84667,0.77612 0.9525,2.04612 0.28223,2.61056 z"
       id="path3101"
       inkscape:connector-curvature="0" />
    <path
       style="fill:#000000;stroke:none;stroke-width:0.03527778"
       d="m 174.05854,91.476211 c -0.45861,-0.21167 -0.84666,-0.70556 -0.91722,-1.12889 -0.17639,-1.16417 -0.98778,-0.98778 -1.41111,0.24694 -0.35278,0.98778 -1.62278,1.65806 -2.50472,1.34056 -0.17639,-0.0353 0.21166,-1.23472 0.88194,-2.61056 1.27,-2.61055 1.69334,-4.55083 0.9525,-4.55083 -0.45861,0 -2.82222,4.58611 -3.59833,6.94972 -0.635,1.97556 -0.10583,2.78695 1.62278,2.36361 1.97555,-0.45861 2.18722,-0.38805 2.64583,0.56445 0.56444,1.23472 1.34056,1.12889 1.34056,-0.17639 0,-0.81139 0.21166,-1.16417 0.88194,-1.48167 1.09361,-0.49389 1.12889,-1.05833 0.10583,-1.51694 z"
       id="path3103"
       inkscape:connector-curvature="0" />
    <path
       style="fill:#000000;stroke:none;stroke-width:0.03527778"
       d="m 165.16854,88.971491 c -0.67027,-0.67028 -1.51694,-1.19945 -1.905,-1.19945 -0.38805,0 -0.77611,-0.21167 -0.88194,-0.49389 -0.24695,-0.635 1.69333,-3.38667 2.39889,-3.38667 0.28222,0 0.52916,-0.3175 0.52916,-0.70555 0,-1.12889 -1.55222,-0.91722 -2.64583,0.38805 -1.16417,1.41112 -2.57528,4.16278 -3.21028,6.35001 -0.45861,1.51694 -0.45861,1.79916 0.10584,2.96333 0.35277,0.74083 0.9525,1.34055 1.41111,1.44639 1.30527,0.35278 3.175,-0.17639 4.33916,-1.12889 1.48167,-1.27 1.44639,-2.64583 -0.14111,-4.23333 z m -1.30527,3.38666 c -0.38806,0.21167 -1.19945,0.35278 -1.83445,0.28222 -0.98778,-0.10583 -1.12889,-0.24694 -1.23472,-1.27 -0.0706,-0.635 0.0705,-1.41111 0.3175,-1.69333 1.09361,-1.30528 4.62139,0.21167 3.81,1.65806 -0.17639,0.35277 -0.67028,0.81139 -1.05833,1.02305 z"
       id="path3105"
       inkscape:connector-curvature="0" />
    <path
       style="fill:#000000;stroke:none;stroke-width:0.03527778"
       d="m 136.76993,88.477601 c -1.41111,-11.39473 -2.04611,-14.18167 -3.31611,-14.85195 -2.18722,-1.19944 -44.94389,-2.11667 -63.53528,-1.41111 l -5.60917,0.21167 -0.52917,2.11666 c -0.49389,2.18723 -0.45861,4.48028 0.24695,13.22917 0.9525,11.50056 1.23472,19.085279 0.77611,19.826109 -0.35278,0.56445 -0.38806,2.57528 -0.21167,9.24278 0.24695,9.66611 0.35278,23.60083 0.14111,24.90611 -0.14111,0.84667 -0.0353,0.88195 1.62278,0.9525 0.98778,0.0705 5.75028,0.3175 10.58334,0.59972 11.28888,0.67028 38.13528,0.98778 45.89639,0.56445 6.6675,-0.38806 9.38389,-0.98778 10.19528,-2.25778 0.3175,-0.45861 0.70555,-1.86972 0.88194,-3.10444 0.17639,-1.19945 0.56444,-3.95111 0.84667,-6.10306 0.56444,-3.95111 1.05833,-9.41917 1.62277,-17.63889 0.45862,-6.63222 0.70556,-23.600829 0.38806,-26.281939 z m -1.44639,16.404159 c -0.3175,9.17223 -1.09361,20.56695 -1.72861,24.87084 -0.21167,1.27 -0.52917,3.88055 -0.74083,5.82083 -0.52917,4.65667 -0.81139,5.36222 -2.43417,5.82083 -2.99861,0.91723 -13.40556,1.12889 -33.16111,0.74084 -17.35667,-0.35278 -30.62112,-0.88195 -31.00917,-1.27 -0.3175,-0.3175 -0.0353,-23.56556 0.28222,-24.16528 0.74083,-1.34056 0.3175,-20.602219 -0.74083,-33.725559 -0.52917,-6.35 -0.17639,-8.36083 1.41111,-8.78416 1.5875,-0.45862 42.43917,-0.59973 47.83667,-0.17639 2.71639,0.21166 7.65528,0.42333 10.93611,0.45861 3.31611,0.0705 6.31472,0.21166 6.73806,0.35278 0.77611,0.28222 0.74083,0.10583 2.08138,10.12472 0.45862,3.63361 0.59973,5.25639 0.81139,9.525 0.0353,0.67028 -0.10583,5.36222 -0.28222,10.406939 z"
       id="path3111"
       inkscape:connector-curvature="0" />
    <path
       style="fill:#000000;stroke:none;stroke-width:0.03527778"
       d="m 120.25993,102.1301 c -0.56445,-0.28223 -1.97556,-0.59973 -3.175,-0.70556 -2.04611,-0.21167 -2.2225,-0.17639 -3.175,0.77611 -2.32833,2.32834 -3.52778,6.6675 -2.43417,8.78417 0.70556,1.34055 1.55222,1.83444 3.10445,1.79917 1.76389,-0.0353 2.2225,-0.3175 4.1275,-2.71639 1.83444,-2.29306 2.50472,-3.91584 2.50472,-6.13834 0,-1.09361 -0.17639,-1.41111 -0.9525,-1.79916 z m -1.19945,4.09222 c -1.79916,3.56305 -3.88055,5.25639 -5.53861,4.51555 -0.81139,-0.38805 -0.84666,-0.52916 -0.635,-2.36361 0.14111,-1.12889 0.635,-2.64583 1.12889,-3.52777 l 0.91722,-1.55223 h 2.18723 c 3.03389,0 3.24555,0.3175 1.94027,2.92806 z"
       id="path3113"
       inkscape:connector-curvature="0" />
    <path
       style="fill:#000000;stroke:none;stroke-width:0.03527778"
       d="m 107.59521,105.41093 c -0.49389,0 -1.5875,0.17639 -2.43417,0.38806 -1.62278,0.42333 -1.83445,0.74083 -2.01083,3.31611 -0.17639,2.43416 0.74083,2.64583 1.48166,0.3175 0.45861,-1.41111 0.74084,-1.72861 1.94028,-2.18723 2.04611,-0.81138 2.64583,-1.83444 1.02306,-1.83444 z"
       id="path3115"
       inkscape:connector-curvature="0" />
    <path
       style="fill:#000000;stroke:none;stroke-width:0.03527778"
       d="m 102.30354,104.91704 c -1.02306,-1.05833 -2.29306,-0.67028 -4.05695,1.19945 -0.91722,0.98777 -1.79916,1.76388 -1.97555,1.76388 -0.21167,0 -0.52917,-0.38805 -0.74083,-0.88194 -0.21167,-0.49389 -0.59973,-0.88194 -0.81139,-0.88194 -0.21167,0 -0.67028,-0.35278 -0.98778,-0.77612 -0.59972,-0.70555 -0.70556,-0.74083 -2.29306,-0.24694 -1.37583,0.38806 -1.76389,0.70556 -2.18722,1.72861 -0.59972,1.37583 -0.52917,3.21028 0.10583,3.42195 0.24695,0.10583 0.84667,-0.67028 1.34056,-1.65806 0.98778,-1.94028 1.72861,-2.15194 1.76389,-0.49389 0,0.9525 0.0705,1.02306 1.30528,0.91722 0.70555,-0.0353 1.37583,0.0705 1.51694,0.28223 0.10583,0.17638 0.45861,0.35277 0.77611,0.35277 0.28222,0 1.02306,0.42334 1.62278,0.91723 0.84667,0.74083 1.34056,0.88194 2.29306,0.70555 1.23472,-0.17639 2.18722,-0.77611 2.18722,-1.30528 0,-0.17639 -0.38806,-0.24694 -0.88195,-0.10583 -2.50472,0.635 -3.66889,-1.12889 -1.30527,-1.94028 2.29305,-0.84666 3.28083,-2.08139 2.32833,-2.99861 z"
       id="path3117"
       inkscape:connector-curvature="0" />
    <path
       style="fill:#000000;stroke:none;stroke-width:0.03527778"
       d="m 95.21271,81.527871 c -0.24695,-0.635 -0.91723,-0.56444 -1.37584,0.17639 -0.21166,0.3175 -0.98778,2.04611 -1.69333,3.77473 -1.83445,4.40972 -1.69334,4.23333 -3.13972,4.1275 -0.67028,-0.0706 -1.34056,0.0353 -1.48167,0.24694 -0.52917,0.91722 -0.88195,0.24694 -0.88195,-1.76389 0,-2.11667 -0.42333,-3.4925 -1.05833,-3.4925 -0.56444,0 -0.42333,5.50333 0.14111,6.87917 0.56445,1.34055 1.44639,1.5875 2.18722,0.635 0.28223,-0.42334 0.91723,-0.635 1.94028,-0.635 h 1.51695 l 1.44639,-3.70417 c 0.81139,-2.04611 1.69333,-4.16278 2.01083,-4.7625 0.28222,-0.56444 0.45861,-1.27 0.38806,-1.48167 z"
       id="path3119"
       inkscape:connector-curvature="0" />
    <path
       style="fill:#000000;stroke:none;stroke-width:0.03527778"
       d="m 86.11104,102.23593 c -0.28222,0 -0.52917,0.24694 -0.52917,0.52917 0,0.28222 0.24695,0.52916 0.52917,0.52916 0.28222,0 0.52916,-0.24694 0.52916,-0.52916 0,-0.28223 -0.24694,-0.52917 -0.52916,-0.52917 z"
       id="path3121"
       inkscape:connector-curvature="0" />
    <path
       style="fill:#000000;stroke:none;stroke-width:0.03527778"
       d="m 86.14632,104.59954 c -0.70556,-0.28222 -0.9525,0.635 -1.02306,3.84528 -0.0353,1.48167 0.0706,2.39889 0.3175,2.50472 0.56444,0.17639 0.84667,-0.67028 1.09361,-3.59833 0.17639,-2.15195 0.10583,-2.57528 -0.38805,-2.75167 z"
       id="path3123"
       inkscape:connector-curvature="0" />
    <path
       style="fill:#000000;stroke:none;stroke-width:0.03527778"
       d="m 85.96993,97.861491 c -0.35278,-0.24695 -3.52778,0.28222 -6.27945,0.98777 -1.12889,0.28223 -2.46944,0.59973 -2.99861,0.74084 -0.67028,0.10583 -0.98778,0.423329 -0.98778,0.881939 0,0.52917 0.28223,0.67028 1.34056,0.77611 l 1.30528,0.10584 -0.14111,3.91583 c -0.10584,3.70417 0.21166,5.43278 0.98777,5.43278 0.14111,0 0.38806,-2.08139 0.52917,-4.65667 0.14111,-2.57528 0.38806,-4.83306 0.56444,-5.08 0.21167,-0.21167 1.62278,-0.77611 3.175,-1.234719 2.54,-0.77611 3.35139,-1.37584 2.50473,-1.86972 z"
       id="path3125"
       inkscape:connector-curvature="0" />
    <path
       style="fill:#000000;stroke:none;stroke-width:0.03527778"
       d="m 82.30104,81.880651 c -0.56445,-0.35278 -1.09361,0.59972 -1.30528,2.29306 -0.17639,1.62278 -0.21167,1.65805 -1.69333,1.97555 -1.97556,0.42334 -2.36361,0.0353 -1.86973,-1.76389 0.49389,-1.72861 0.49389,-2.96333 0.0353,-2.96333 -0.21166,0 -0.52916,0.35278 -0.74083,0.81139 -0.52917,1.19944 -1.65806,8.255 -1.44639,9.27806 0.28222,1.44638 0.9525,0.74083 1.12889,-1.23473 0.24694,-2.15194 0.635,-2.50472 2.8575,-2.50472 h 1.62278 l 0.3175,1.83445 c 0.17639,0.98777 0.49389,1.86972 0.74083,1.94027 0.49389,0.17639 0.84667,-9.38389 0.35278,-9.66611 z"
       id="path3127"
       inkscape:connector-curvature="0" />
    <path
       style="fill:#000000;stroke:none;stroke-width:0.03527778"
       d="m 61.8752,130.0701 c -1.905,-1.79917 -4.90361,-2.11667 -3.28083,-0.3175 0.35278,0.38805 0.56444,0.77611 0.45861,0.88194 -0.3175,0.35278 -15.875,0.88195 -34.25472,1.19945 -11.46528,0.17639 -18.0622305,0.42333 -18.3091705,0.67027 -1.19945,1.19945 -0.14111,1.23473 20.6727805,0.98778 11.28889,-0.10583 22.61305,-0.3175 25.18833,-0.42333 l 4.69195,-0.24695 -0.24695,1.48167 c -0.21166,1.34056 -0.17639,1.44639 0.56445,1.44639 0.42333,0 1.09361,-0.38806 1.48166,-0.88194 0.38806,-0.49389 1.37584,-1.37584 2.25778,-1.97556 1.76389,-1.19945 1.905,-1.72861 0.77611,-2.82222 z"
       id="path3145"
       inkscape:connector-curvature="0" />
    <path
       style="fill:#000000;stroke:none;stroke-width:0.03527778"
       d="m 51.11548,125.41343 c -0.49389,-0.70556 -1.02306,-1.30528 -1.19944,-1.30528 -0.14112,0 -0.3175,-0.21166 -0.42334,-0.49389 -0.14111,-0.3175 0.24695,-0.77611 1.02306,-1.23472 1.23472,-0.74083 1.62278,-1.79917 0.67028,-1.79917 -0.3175,0 -1.09362,0.21167 -1.76389,0.49389 -1.12889,0.49389 -1.23473,0.45861 -1.41111,-0.17639 -0.14112,-0.35277 -0.10584,-0.81138 0,-1.02305 0.38805,-0.635 -0.21167,-1.76389 -0.91723,-1.76389 -0.35277,0 -0.67027,0.0353 -0.67027,0.10583 -0.0353,0.0353 -0.24695,1.34056 -0.52917,2.89278 -0.67028,3.66889 -0.67028,5.60917 0,6.17361 0.77611,0.635 1.69333,-0.21166 1.44639,-1.27 -0.35278,-1.41111 0.52916,-1.34055 2.04611,0.17639 2.36361,2.32833 3.56305,1.79917 1.72861,-0.77611 z"
       id="path3149"
       inkscape:connector-curvature="0" />
    <path
       style="fill:#000000;stroke:none;stroke-width:0.03527778"
       d="m 43.4602,126.22482 c -0.28222,0 -0.84666,-0.3175 -1.30528,-0.70556 l -0.84666,-0.70555 0.91722,-0.84667 c 1.16417,-0.98778 0.84667,-1.83444 -0.52917,-1.48167 -1.30527,0.3175 -2.25777,2.32834 -1.69333,3.56306 0.56444,1.23472 1.94028,1.83444 3.06917,1.30528 0.9525,-0.42334 1.19944,-1.12889 0.38805,-1.12889 z"
       id="path3155"
       inkscape:connector-curvature="0" />
    <path
       style="fill:#000000;stroke:none;stroke-width:0.03527778"
       d="m 38.30965,124.46093 c -0.21167,0 -0.84667,0.35278 -1.41112,0.74083 -0.56444,0.42334 -1.27,0.67028 -1.55222,0.56445 -0.81139,-0.3175 -0.70555,-0.84667 0.24695,-1.09361 1.5875,-0.42334 1.86972,-0.81139 1.16416,-1.5875 -0.38805,-0.42334 -1.05833,-0.74084 -1.51694,-0.74084 -1.5875,0 -2.96333,3.70417 -1.79917,4.86834 0.74084,0.74083 2.71639,0.49389 4.02167,-0.49389 1.12889,-0.88195 1.65806,-2.25778 0.84667,-2.25778 z"
       id="path3157"
       inkscape:connector-curvature="0" />
    <path
       style="fill:#000000;stroke:none;stroke-width:0.03527778"
       d="m 32.87687,118.46371 c -1.09361,0 -3.52778,5.64444 -3.175,7.37305 0.24694,1.19945 1.16416,1.905 2.04611,1.5875 0.59972,-0.24694 0.77611,-1.19944 0.21167,-1.19944 -0.635,0 -0.38806,-2.08139 0.52916,-4.30389 0.98778,-2.43417 1.09361,-3.45722 0.38806,-3.45722 z"
       id="path3159"
       inkscape:connector-curvature="0" />
    <path
       style="fill:#000000;stroke:none;stroke-width:0.03527778"
       d="m 28.96103,117.89926 c -1.44638,-0.56444 -6.17361,4.51556 -6.17361,6.63223 0,0.635 0.35278,1.37583 0.88195,1.905 0.70555,0.70555 1.16416,0.88194 2.39889,0.77611 1.05833,-0.0706 1.51694,-0.28223 1.5875,-0.70556 0.0706,-0.45861 -0.10584,-0.635 -0.635,-0.635 -1.30528,0 -2.11667,-0.67028 -2.11667,-1.72861 0,-0.77611 0.52917,-1.51694 2.29306,-3.24556 1.27,-1.23472 2.29305,-2.36361 2.29305,-2.50472 0,-0.17639 -0.24694,-0.38805 -0.52917,-0.49389 z"
       id="path3161"
       inkscape:connector-curvature="0" />
    <path
       style="fill:#000000;stroke:none;stroke-width:0.03527778"
       d="m 13.01548,113.77176 c -0.10584,-0.14111 -0.91722,-0.24694 -1.76389,-0.24694 -1.8344505,0 -1.9402805,-0.42333 -0.28222,-1.48167 1.48166,-0.98778 1.72861,-1.51694 1.02305,-2.2225 -0.74083,-0.74083 -3.6336105,-0.70555 -3.9158305,0 -0.10583,0.3175 0.0705,0.77611 0.45861,1.05834 0.635,0.45861 0.635,0.52916 -0.35278,1.55222 -0.59972,0.59972 -0.91722,1.27 -0.81139,1.5875 0.35278,0.88194 3.9158405,1.5875 5.3269505,1.05833 0.56444,-0.21167 0.74083,-0.91722 0.3175,-1.30528 z"
       id="path3163"
       inkscape:connector-curvature="0" />
    <path
       style="fill:#000000;stroke:none;stroke-width:0.03527778"
       d="m 6.6654795,122.59121 c -0.14111,-0.10584 -2.99861,-0.28222 -6.27944998,-0.42334 -5.00944002,-0.21166 -6.10305002,-0.17638 -6.45583002,0.24695 -0.21167,0.28222 -0.52917,2.50472 -0.70556,4.97417 -0.17639,2.46944 -0.42333,4.58611 -0.56444,4.72722 -0.14111,0.17639 -2.08139,0.35278 -4.3391695,0.38805 l -4.05694,0.14112 0.24694,-2.25778 c 0.14111,-1.19945 0.45861,-3.10445 0.74084,-4.19806 0.63499,-2.61055 0.63499,-3.63361 -0.0705,-4.23333 -0.88195,-0.70556 -9.03112,-1.5875 -11.46528,-1.23472 l -1.55223,0.21166 -0.635,4.51556 c -0.3175,2.46944 -0.59972,4.90361 -0.59972,5.43278 0,1.30527 -0.77611,1.48166 -6.52639,1.27 -4.05694,-0.14111 -4.7625,-0.0706 -4.93889,0.38805 -0.14111,0.35278 0.0706,0.81139 0.52917,1.16417 0.67028,0.52917 1.55222,0.635 5.82083,0.635 5.15056,0 6.63223,-0.24695 6.985,-1.16417 0.10584,-0.28222 0.38806,-2.50472 0.635,-4.86833 0.21167,-2.39889 0.56445,-4.58611 0.77612,-4.83306 0.24694,-0.3175 1.55222,-0.42333 4.97416,-0.35278 3.84528,0.10584 4.62139,0.17639 4.55084,0.635 0,0.28223 -0.3175,1.83445 -0.635,3.45723 -0.56445,2.8575 -0.59973,7.69055 -0.0706,7.62 0.14111,-0.0353 2.78694,-0.17639 5.85611,-0.3175 4.7624995,-0.21167 5.6797195,-0.3175 5.8561095,-0.81139 0.14111,-0.35278 0.38806,-2.46945 0.56444,-4.7625 0.17639,-2.29306 0.42334,-4.33917 0.52917,-4.55084 0.17639,-0.24694 1.48167,-0.3175 3.98639002,-0.17638 4.58610998,0.21166 6.84388998,-0.0706 7.02027998,-0.88195 0.0706,-0.3175 -0.0353,-0.635 -0.17639,-0.74083 z"
       id="path3165"
       inkscape:connector-curvature="0" />
    <path
       style="fill:#000000;stroke:none;stroke-width:0.03527778"
       d="m 5.6776995,102.69454 c -0.77611,-0.28222 -0.9525,0 -1.76389,2.46945 l -0.70556,2.18722 -1.72861,0.10583 -1.72860998,0.10583 0.24695,-1.16416 c 0.70555,-3.24556 0.70555,-3.45722 -0.0353,-3.45722 -0.91723,0 -2.22250002,3.77472 -2.46945002,7.16138 -0.17639,2.2225 -0.17639,2.36362 0.56445,2.36362 0.635,0 0.74083,-0.21167 0.74083,-1.37584 v -1.34055 l 1.76389002,-0.24695 c 0.98777998,-0.14111 1.90499998,-0.17639 2.08138998,-0.0705 0.14111,0.10584 0.21166,0.67028 0.10583,1.27 -0.17639,1.19945 0.42333,2.18722 1.19945,1.86972 0.28222,-0.10583 0.49388,-0.59972 0.49388,-1.12888 0,-0.49389 0.38806,-2.50473 0.88195,-4.40973 1.02305,-4.09222 1.02305,-4.05694 0.35278,-4.33916 z"
       id="path3167"
       inkscape:connector-curvature="0" />
    <path
       style="fill:#000000;stroke:none;stroke-width:0.03527778"
       d="m -4.5881305,101.1776 c -0.45862,0 -1.02306,0.70555 -1.905,2.39889 -1.51695,2.89277 -2.2225,3.06916 -2.46945,0.59972 -0.38805,-3.77472 -2.0461095,-1.83445 -4.4449995,5.11528 -0.67028,1.94027 -1.02305,3.4925 -0.84667,3.66888 0.70556,0.70556 1.34056,-0.24694 2.25778,-3.13972 0.98778,-3.13972 1.62278,-3.70416 1.97556,-1.72861 0.2469395,1.44639 1.1641595,1.44639 2.2930495,0 0.52917,-0.70555 1.09361,-1.27 1.27,-1.27 0.17639,0 0.3175,1.05833 0.3175,2.32833 0,2.46945 0.42334,3.66889 1.23473,3.66889 0.38805,0 0.52916,-0.42333 0.52916,-1.51694 0,-0.84667 0.10584,-3.4925 0.24695,-5.82083 0.21166,-4.09223 0.17639,-4.30389 -0.45861,-4.30389 z"
       id="path3169"
       inkscape:connector-curvature="0" />
    <path
       style="fill:#000000;stroke:none;stroke-width:0.03527778"
       d="m -15.31258,103.01204 c -0.45861,-1.12889 -2.46944,-1.97555 -4.02167,-1.69333 -2.39888,0.45861 -4.55083,3.4925 -4.58611,6.45583 -0.0353,1.55222 0.10584,1.97556 0.98778,2.89278 1.41111,1.48167 3.52778,1.51694 5.15056,0.17639 2.2225,-1.86972 3.38666,-5.53861 2.46944,-7.83167 z m -1.94028,4.51556 c -1.905,3.63361 -5.50333,3.13972 -4.79777,-0.67028 0.42333,-2.11667 1.41111,-3.31611 3.03388,-3.63361 2.50473,-0.52917 3.28084,1.37583 1.76389,4.30389 z"
       id="path3171"
       inkscape:connector-curvature="0" />
    <path
       style="fill:#000000;stroke:none;stroke-width:0.03527778"
       d="m -26.98952,108.93871 h -1.12889 l 0.24694,-1.76389 c 0.21167,-1.5875 0.17639,-1.76389 -0.45861,-1.76389 -0.49389,0 -0.84667,0.45861 -1.27,1.72861 -0.52917,1.65806 -0.635,1.72861 -2.18722,1.97556 -0.88195,0.14111 -1.83445,0.3175 -2.08139,0.42333 -0.74083,0.28222 -0.59972,-0.91722 0.35278,-3.45722 1.09361,-2.89278 1.34055,-4.7625 0.70555,-5.29167 -0.67027,-0.56444 -1.12889,-0.10583 -1.41111,1.37583 -0.14111,0.70556 -0.59972,2.32834 -1.05833,3.59834 -0.91722,2.68111 -1.09361,3.73944 -0.70556,4.90361 0.24695,0.74083 0.42334,0.81139 1.94028,0.59972 3.35139,-0.42333 3.35139,-0.42333 3.4925,0.3175 0.28222,1.83445 0.45861,2.29306 0.9525,2.29306 0.35278,0 0.56445,-0.56445 0.74083,-1.72861 0.21167,-1.72862 0.24695,-1.76389 1.51695,-1.86973 0.88194,-0.0706 1.30528,-0.28222 1.37583,-0.70555 0.10584,-0.49389 -0.10583,-0.635 -1.02305,-0.635 z"
       id="path3175"
       inkscape:connector-curvature="0" />
  </g>
</svg>
