<?xml version="1.0" encoding="UTF-8" standalone="no"?>
<!-- Created with Inkscape (http://www.inkscape.org/) -->

<svg
   xmlns:dc="http://purl.org/dc/elements/1.1/"
   xmlns:cc="http://creativecommons.org/ns#"
   xmlns:rdf="http://www.w3.org/1999/02/22-rdf-syntax-ns#"
   xmlns:svg="http://www.w3.org/2000/svg"
   xmlns="http://www.w3.org/2000/svg"
   xmlns:sodipodi="http://sodipodi.sourceforge.net/DTD/sodipodi-0.dtd"
   xmlns:inkscape="http://www.inkscape.org/namespaces/inkscape"
   width="613.34802mm"
   height="419.09537mm"
   viewBox="0 0 613.34802 419.09537"
   version="1.1"
   id="svg1853"
   inkscape:version="0.92.5 (2060ec1f9f, 2020-04-08)"
   sodipodi:docname="infrastructure.svg">
  <defs
     id="defs1847" />
  <sodipodi:namedview
     id="base"
     pagecolor="#ffffff"
     bordercolor="#666666"
     borderopacity="1.0"
     inkscape:pageopacity="0.0"
     inkscape:pageshadow="2"
     inkscape:zoom="0.35"
     inkscape:cx="1132.9669"
     inkscape:cy="646.27694"
     inkscape:document-units="mm"
     inkscape:current-layer="layer1"
     showgrid="false"
     fit-margin-top="0"
     fit-margin-left="0"
     fit-margin-right="0"
     fit-margin-bottom="0"
     inkscape:window-width="1920"
     inkscape:window-height="1080"
     inkscape:window-x="0"
     inkscape:window-y="0"
     inkscape:window-maximized="0" />
  <metadata
     id="metadata1850">
    <rdf:RDF>
      <cc:Work
         rdf:about="">
        <dc:format>image/svg+xml</dc:format>
        <dc:type
           rdf:resource="http://purl.org/dc/dcmitype/StillImage" />
        <dc:title></dc:title>
      </cc:Work>
    </rdf:RDF>
  </metadata>
  <g
     inkscape:label="Layer 1"
     inkscape:groupmode="layer"
     id="layer1"
     transform="translate(119.95377,99.267918)">
    <path
       style="stroke-width:0.03527778"
       inkscape:connector-curvature="0"
       d="m 451.18925,-98.91514 c 0,0.176389 0.17638,0.352778 0.38804,0.352778 0.1764,0 0.24696,-0.176389 0.14113,-0.352778 -0.10583,-0.211667 -0.28223,-0.352778 -0.38806,-0.352778 -0.0706,0 -0.14111,0.141111 -0.14111,0.352778 z"
       id="path1302" />
    <path
       style="stroke-width:0.03527778"
       inkscape:connector-curvature="0"
       d="m 432.13925,-88.684585 c -2.82223,0.141111 -5.67973,0.282222 -6.35,0.3175 l -1.27,0.03528 -0.35276,2.786944 c -0.24697,1.763889 -0.28224,3.633611 -0.0706,5.185833 0.35277,2.610556 0.1411,16.086666 -0.4586,29.315832 -0.3528,7.62 -0.3175,8.255 0.24693,9.278057 0.635,1.023054 0.70557,1.058333 3.31611,1.058333 1.44639,0 6.31473,-0.246946 10.75973,-0.529166 13.68777,-0.881947 24.94137,-0.564447 50.4825,1.446387 2.8222,0.246946 2.89277,0.211666 3.175,-0.599721 0.1411,-0.458613 0.2822,-5.221113 0.35277,-10.548056 0.0706,-13.299721 0.70556,-30.162499 1.19943,-32.243888 0.4939,-2.257778 0.1764,-3.633611 -0.98777,-4.233333 -1.62277,-0.846667 -49.0361,-1.834444 -60.04277,-1.27 z m 42.26277,1.622778 9.24277,0.246944 v 1.799167 c 0.0353,0.987778 0.1764,2.504722 0.3175,3.351389 l 0.3175,1.552222 -7.47887,-0.211667 c -4.09223,-0.141111 -12.34723,-0.388055 -18.37973,-0.599722 -12.94694,-0.458611 -32.13804,-0.352778 -32.0322,0.176389 0.0705,0.211666 4.48026,0.388055 12.1708,0.423333 13.29973,0.03528 42.43917,0.987778 48.22473,1.516944 2.04611,0.211667 3.84527,0.352778 3.9864,0.352778 0.21167,0 0.24694,3.210278 0.1411,7.655279 -0.1411,4.233333 -0.3175,12.52361 -0.42333,18.450277 -0.10583,5.926666 -0.28223,10.865553 -0.42333,11.006666 -0.14111,0.14111 -4.69194,-0.03528 -10.12473,-0.423333 -18.0975,-1.30528 -27.83417,-1.516946 -39.15834,-0.881946 -5.5386,0.282223 -11.42997,0.529166 -13.1233,0.529166 h -3.0339 l 0.24693,-4.515553 c 0.6703,-13.370277 0.9525,-30.127222 0.59973,-33.266945 -0.38806,-3.139722 -0.17639,-6.314722 0.4939,-6.949722 0.10584,-0.141111 1.51694,-0.352777 3.10444,-0.458611 3.13973,-0.246944 30.4447,-0.105833 45.33193,0.246945 z m 16.40417,0.705555 c 0.91723,0.282222 1.30527,1.305278 1.05833,2.751667 -0.24693,1.481666 -0.4586,1.552222 -1.37583,0.529166 -0.67027,-0.740833 -0.635,-0.740833 0.1764,-1.411111 1.05833,-0.846666 0.81137,-1.164166 -0.4939,-0.670277 -0.56444,0.211666 -1.4464,0.282222 -1.97556,0.176389 -0.91721,-0.211667 -0.98777,-0.141112 -0.9525,0.9525 0,0.634999 -0.10584,1.552222 -0.24694,2.046111 -0.28223,0.846666 -0.28223,0.846666 0.42333,0.246944 0.9525,-0.811389 1.48167,-0.740833 2.89277,0.423333 1.16417,1.023056 1.16417,1.023056 0.38807,1.446389 -0.4939,0.246945 -1.51694,0.3175 -2.99861,0.176389 -2.11666,-0.246944 -2.2225,-0.282222 -2.43416,-1.305278 -0.10584,-0.599722 -0.21167,-2.187222 -0.21167,-3.563055 v -2.469444 l 2.57527,0.246944 c 1.37583,0.141111 2.82223,0.3175 3.175,0.423333 z"
       id="path1304" />
    <path
       style="stroke-width:0.03527778"
       inkscape:connector-curvature="0"
       d="m 434.57342,-76.478474 c -0.21167,0.564444 -0.4586,1.869722 -0.56443,2.892778 l -0.21167,1.869722 1.79917,-0.246944 1.79916,-0.211667 0.10584,1.693334 0.10583,1.72861 1.69331,-0.07056 c 2.2225,-0.07055 3.13973,-0.846666 2.99862,-2.54 -0.10583,-1.27 -0.10583,-1.27 -1.94029,-1.375833 l -1.83444,-0.105832 0.1764,-1.658056 c 0.10583,-0.917222 0.0353,-1.834444 -0.10583,-2.081389 -0.14113,-0.211666 -1.02307,-0.493888 -1.94027,-0.635 -1.6228,-0.246944 -1.69333,-0.211666 -2.0814,0.740834 z m 2.8575,1.023055 c 0.24694,0.3175 0.35277,0.881945 0.21167,1.446389 -0.1764,0.705556 -0.42334,0.881945 -1.19944,0.776111 -0.98779,-0.105833 -1.41113,-1.128889 -0.98779,-2.257777 0.24696,-0.635 1.41113,-0.635 1.97556,0.03528 z m 3.66887,4.021668 c 0.42334,0.635 -0.21166,1.375833 -1.27,1.516943 -1.19943,0.17639 -1.69333,-0.45861 -0.98777,-1.305277 0.4939,-0.599723 1.97557,-0.705556 2.25777,-0.211666 z"
       id="path1306" />
    <path
       style="stroke-width:0.03527778"
       inkscape:connector-curvature="0"
       d="m 444.20425,-76.407919 c -0.38806,0.105834 -1.37583,3.845278 -1.09362,4.092221 0.0706,0.07056 0.9525,0.211667 1.97556,0.3175 1.7639,0.211667 1.83444,0.17639 2.3636,-0.987776 0.6703,-1.411111 0.70557,-2.434167 0.14113,-2.928056 -0.4939,-0.352778 -2.78696,-0.705555 -3.38667,-0.493889 z m 2.32834,2.081389 c -0.0706,0.776111 -0.3175,1.023056 -1.05834,1.093611 -0.84666,0.105834 -0.98779,0 -0.98779,-0.740833 0,-1.058333 0.24696,-1.305278 1.30529,-1.305278 0.74084,0 0.84667,0.141111 0.74084,0.9525 z"
       id="path1308" />
    <path
       style="stroke-width:0.03527778"
       inkscape:connector-curvature="0"
       d="m 473.83759,-76.266808 c -0.91723,0.917223 -0.28223,3.845277 0.9525,4.480277 0.74083,0.423333 2.11666,0 3.3161,-0.9525 0.84667,-0.740832 0.8114,-3.104443 -0.0706,-3.598332 -0.9525,-0.493889 -3.66888,-0.458611 -4.19804,0.07056 z m 3.4572,1.869723 c 0,0.635 -0.24693,0.917222 -0.84666,1.093611 -1.12888,0.282222 -1.62277,-0.07056 -1.62277,-1.128889 0,-0.740833 0.17639,-0.846667 1.23473,-0.846667 1.0936,0 1.2347,0.105834 1.2347,0.881945 z"
       id="path1310" />
    <path
       style="stroke-width:0.03527778"
       inkscape:connector-curvature="0"
       d="m 485.58509,-74.079585 c -0.14113,1.058333 -0.14113,2.081387 0,2.293054 0.10583,0.211667 0.98777,0.388057 1.94027,0.388057 0.9525,0 1.83443,-0.17639 1.94027,-0.388057 0.14112,-0.211667 0.14112,-1.234721 0,-2.293054 l -0.21167,-1.905 h -1.7286 -1.72861 z m 2.57527,-0.07056 c 0.70556,0.705556 0.49389,1.340556 -0.45861,1.340556 -0.635,0 -0.88196,-0.176389 -0.88196,-0.635 0,-1.128889 0.59973,-1.446389 1.34057,-0.705556 z"
       id="path1312" />
    <path
       style="stroke-width:0.03527778"
       inkscape:connector-curvature="0"
       d="m 479.62313,-71.892364 c -0.10584,0.3175 -0.21167,1.093613 -0.21167,1.728613 0,2.010833 0.24696,2.293053 2.18723,2.293053 2.25777,0 3.45723,-1.023053 3.175,-2.786943 -0.1764,-1.340557 -1.05833,-1.799167 -3.42194,-1.799167 -1.05833,0 -1.5875,0.17639 -1.72862,0.564444 z m 3.59833,1.834446 c 0.10583,0.635 -0.0705,0.77611 -0.7761,0.77611 -0.4939,0 -1.02307,0 -1.16417,0.03528 -0.35277,0 -0.56444,-1.023054 -0.3175,-1.622777 0.28223,-0.77611 2.11667,-0.105833 2.25777,0.81139 z"
       id="path1314" />
    <path
       style="stroke-width:0.03527778"
       inkscape:connector-curvature="0"
       d="m 319.46202,-27.900974 c -1.76387,3.739443 -4.445,10.054166 -4.445,10.512776 0,0.917224 0.74084,0.07056 1.4464,-1.622776 l 0.8114,-1.975557 2.5047,0.105833 2.46947,0.105834 -0.10584,2.71639 c -0.14113,2.892776 0.3175,3.63361 1.05834,1.763887 0.2822,-0.705554 0.24693,-2.2225 -0.0706,-5.715 -0.24693,-2.610554 -0.4939,-5.750277 -0.59973,-6.985 -0.1411,-1.869721 -0.24694,-2.187221 -0.84667,-2.187221 -0.49387,0 -1.05833,0.811387 -2.2225,3.280834 z m 2.29307,2.328333 c 0.21166,1.5875 0.28223,2.99861 0.1764,3.13972 -0.24697,0.211667 -3.38667,0.388057 -3.81,0.17639 -0.14113,-0.07056 0.21166,-1.199443 0.74083,-2.504723 2.1872,-5.22111 2.29304,-5.256387 2.89277,-0.811387 z"
       id="path1316" />
    <path
       style="stroke-width:0.03527778"
       inkscape:connector-curvature="0"
       d="m 334.20815,-29.841254 c -0.59973,0.35278 -1.79916,4.445 -2.29306,7.831667 l -0.4586,2.928056 -0.8114,-0.9525 c -0.56444,-0.670277 -1.02307,-0.881943 -1.48167,-0.740833 -0.8114,0.246943 -0.88193,0.07056 -1.65806,-4.550834 -0.42334,-2.469443 -0.81137,-3.739443 -1.09361,-3.739443 -0.67026,0 -0.56443,2.081387 0.24694,5.820833 1.09363,4.938887 1.6228,5.820834 2.78696,4.656667 0.35277,-0.35278 0.56444,-0.282223 1.0936,0.352777 0.35277,0.45861 0.9525,0.81139 1.34057,0.81139 0.5997,0 0.70554,-0.423334 1.0936,-3.598334 0.24694,-1.975556 0.8114,-4.62139 1.30527,-5.856113 1.1289,-2.99861 1.09363,-3.739443 -0.0705,-2.963333 z"
       id="path1318" />
    <path
       style="stroke-width:0.03527778"
       inkscape:connector-curvature="0"
       d="m 337.73592,-28.465421 c -0.74083,0.49389 -1.905,2.751667 -1.905,3.66889 0,0.9525 1.51694,2.786944 2.25777,2.786944 0.24696,0 0.70556,0.211666 1.05833,0.458613 0.59973,0.423333 0.56447,0.529166 -0.3175,1.5875 -0.52916,0.635 -1.2347,1.128887 -1.5522,1.128887 -0.88196,0 -1.16417,0.388056 -0.70557,0.9525 0.67027,0.776113 1.72861,0.529166 2.99861,-0.740834 0.91723,-0.91722 1.19946,-1.481666 1.19946,-2.50472 0,-1.199446 -0.10583,-1.30528 -1.7639,-2.010833 -1.48167,-0.599724 -1.7639,-0.881947 -1.7639,-1.658057 0,-1.234723 0.91723,-2.504723 1.79917,-2.504723 0.4939,0 0.6703,-0.211667 0.59973,-0.635 -0.10583,-0.635 -1.27,-0.9525 -1.905,-0.529167 z"
       id="path1320" />
    <path
       style="stroke-width:0.03527778"
       inkscape:connector-curvature="0"
       d="m 350.15369,-21.692087 c -1.27,1.340556 -1.12887,2.504723 0.38806,2.998613 0.59974,0.211666 1.23474,0.493887 1.37584,0.635 0.4939,0.493887 -0.67027,1.340553 -1.83444,1.340553 -1.27,0 -1.48166,0.282223 -0.77613,0.98778 0.59973,0.59972 1.69334,0.529167 2.92807,-0.211667 0.8114,-0.49389 1.27,-0.564446 1.97556,-0.3175 0.98777,0.388054 2.78694,0.07055 2.78694,-0.458613 0,-0.211666 -0.4586,-0.45861 -1.05834,-0.59972 -1.0936,-0.211667 -1.48166,-0.81139 -0.49389,-0.81139 1.09363,0 2.64583,-1.199443 2.54,-1.940277 -0.17637,-1.199446 -2.08137,-1.12889 -3.52777,0.105834 -1.0936,0.9525 -1.23473,0.987776 -2.32834,0.529166 -1.51693,-0.635 -1.4111,-1.658056 0.21167,-1.799166 1.79917,-0.17639 1.30527,-1.481667 -0.59973,-1.481667 -0.3175,0 -1.05833,0.45861 -1.5875,1.023054 z"
       id="path1322" />
    <path
       style="stroke-width:0.03527778"
       inkscape:connector-curvature="0"
       d="m 360.31369,-20.739587 c -1.51694,0.529166 -2.08137,1.375833 -2.32833,3.316113 -0.17637,1.375833 1.09363,1.41111 1.34056,0 0.42333,-1.975557 2.96333,-2.998613 2.96333,-1.164167 0,1.55222 0.77611,2.751667 1.7639,2.751667 0.70554,0 0.98777,-0.282224 1.4111,-1.481667 0.28224,-0.776113 0.8114,-1.76389 1.16417,-2.116667 0.67027,-0.776113 0.7761,-1.375833 0.21167,-1.693333 -0.4939,-0.3175 -1.55223,0.670277 -2.0814,1.975554 -0.24694,0.564446 -0.52917,1.023056 -0.67027,1.023056 -0.1411,0 -0.4586,-0.670277 -0.74083,-1.481667 -0.59973,-1.72861 -0.98777,-1.869723 -3.0339,-1.128889 z"
       id="path1324" />
    <path
       style="stroke-width:0.03527778"
       inkscape:connector-curvature="0"
       d="m 368.99202,-20.069308 c -0.24693,0.282221 -0.74083,0.529167 -1.0936,0.529167 -0.56443,0 -0.67027,0.28222 -0.67027,1.516943 0,0.846667 0.17637,1.693334 0.42334,1.940277 0.635,0.635 2.2225,0.49389 2.89276,-0.246943 0.70557,-0.77611 0.24694,-1.27 -0.88193,-0.917223 -0.52917,0.176389 -0.70557,0.105833 -0.59973,-0.211667 0.0706,-0.246944 0.52916,-0.564444 0.98777,-0.670277 0.98779,-0.246943 1.5875,-1.12889 1.30529,-1.905 -0.28223,-0.705556 -1.7639,-0.740833 -2.36363,-0.03528 z"
       id="path1326" />
    <path
       style="stroke-width:0.03527778"
       inkscape:connector-curvature="0"
       d="m 372.55509,-18.446531 c -0.21167,0.635 -0.38807,1.41111 -0.38807,1.76389 0,0.91722 1.16417,0.846667 1.5875,-0.105833 0.21167,-0.458613 0.91723,-0.917224 1.7639,-1.164167 0.84667,-0.211667 1.4464,-0.599723 1.51694,-0.98778 0.10583,-0.529166 -0.17637,-0.59972 -1.97554,-0.59972 -2.04613,0 -2.11667,0.03528 -2.50473,1.09361 z"
       id="path1328" />
    <path
       style="stroke-width:0.03527778"
       inkscape:connector-curvature="0"
       d="m 326.30592,-8.5334768 c -2.29306,0.211667 -3.91583,0.529167 -4.2686,0.846667 -0.88196,0.776112 -1.65807,8.36083304 -1.9403,18.4855518 -0.10583,4.93889 -0.21166,9.2075 -0.24693,9.48973 0,0.24694 -0.4586,0.635 -1.02307,0.81138 -1.2347,0.42334 -1.0936,1.16417 0.21167,1.16417 l 0.9525,-0.0353 -0.21167,2.32834 c -0.1411,1.27 -0.24693,7.23194 -0.2822,13.29972 -0.0706,8.39611 0.0353,11.1125 0.38804,11.43 0.35279,0.35278 0.42333,-1.19945 0.45863,-7.83167 0,-11.00667 1.02303,-39.4758298 1.5875,-45.4024958 0.21166,-2.187223 0.35276,-2.645834 0.98776,-2.89278 1.34057,-0.529166 9.77194,-1.058333 17.145,-1.058333 6.94974,0 22.57777,0.564446 24.97667,0.917223 1.0936,0.17639 1.1289,0.246944 0.91723,1.375833 -0.10583,0.670277 -0.0353,3.069167 0.17637,5.36222304 0.38807,3.98638996 0.0353,17.21554976 -0.4586,18.06221976 -0.10583,0.17639 -0.28223,5.29167 -0.35277,11.35944 -0.14113,10.44223 -0.74083,17.78 -1.5875,19.26167 -0.1764,0.35278 -3.42196,0.49389 -14.1464,0.635 -21.83693,0.3175 -28.75139,0.59972 -28.75139,1.23472 0,0.45861 0.77613,0.52917 5.29166,0.42334 2.92807,-0.0353 8.07863,-0.28223 11.4653,-0.49389 3.66887,-0.21167 10.26583,-0.3175 16.3336,-0.17639 l 10.12473,0.17639 0.49387,-0.91722 c 1.19947,-2.32834 2.32834,-15.24 2.32834,-26.67 0,-2.36361 0.14113,-5.715 0.3175,-7.44361 0.45863,-4.40973 0.52916,-12.1002798 0.21166,-18.0622258 l -0.2822,-4.974167 -2.8575,-0.211666 c -12.13557,-0.846667 -31.115,-1.093611 -37.9589,-0.49389 z"
       id="path1330" />
    <path
       style="stroke-width:0.03527778"
       inkscape:connector-curvature="0"
       d="m 340.66399,-0.63125376 c -0.3175,0.599723 -0.635,2.57527596 -0.74084,4.72722596 -0.14113,2.04611 -0.4939,6.1736098 -0.77613,9.1722198 -0.67027,6.91444 -1.0936,14.39333 -0.9172,15.48694 0.17637,0.9525 1.905,1.79917 3.6336,1.79917 0.59973,0 2.0461,-0.24695 3.24557,-0.56445 2.11666,-0.52916 2.15193,-0.52916 2.78693,0.28223 l 0.635,0.81138 0.21167,-0.84666 0.24693,-0.84667 5.4328,0.24695 c 5.3975,0.21166 5.3975,0.21166 5.75027,-0.56445 0.4586,-1.19944 0.98777,-8.71361 0.70556,-9.98361 -0.52916,-2.04611 -0.77613,-10.7597198 -0.3175,-11.3241698 0.21167,-0.24694 0.28221,-0.77611 0.1411,-1.09361 -0.1411,-0.35277 -0.21166,-1.94027 -0.17639,-3.4925 0.0353,-2.46943996 -0.0353,-2.92805196 -0.59971,-3.17499596 -0.35279,-0.17639 -2.68113,-0.3175 -5.22113,-0.3175 -4.05693,-0.03528 -6.35,-0.211667 -12.065,-1.09361004 -1.34053,-0.211667 -1.48166,-0.141113 -1.97553,0.77611004 z m 3.98637,0.881944 c 1.27,0.176389 2.54,0.599722 2.8575,0.88194196 0.28223,0.28222 0.81139,0.49389 1.12889,0.49389 0.35277,0 0.59974,0.28222 0.59974,0.67028 0,0.59972 -0.38807,0.67028 -3.95113,0.81139 -2.18721,0.10583 -4.1275,0.0705 -4.30387,-0.0706 -0.14113,-0.17639 -0.1764,-0.9525 -0.0353,-1.72861 0.28223,-1.62277596 0.24696,-1.62277596 3.70417,-1.05833196 z m 14.04056,1.09361196 c 0.24694,0.24694 0.42333,0.81139 0.42333,1.27 0,0.635 -0.1411,0.81139 -0.56443,0.635 -0.3175,-0.10583 -2.2225,-0.21167 -4.23333,-0.21167 -3.6689,0 -3.6689,0 -3.6689,-0.88194 0,-0.84667 0.0706,-0.84667 3.10443,-0.98778 1.69334,-0.0353 3.38667,-0.14111 3.81,-0.17638996 0.38807,-0.0353 0.88197,0.10582996 1.1289,0.35277996 z m -9.73667,3.175 c 0.10584,0.24694 0.0706,0.84667 -0.0706,1.34055 -0.17637,0.81139 -0.4586,0.91723 -2.9986,1.30528 -1.55223,0.21167 -3.3514,0.42334 -3.9511,0.42334 -1.1289,0.0353 -1.16417,0 -1.16417,-1.34056 0,-1.37583 0.0353,-1.41111 1.51693,-1.5875 1.34057,-0.17639 2.68111,-0.3175 5.5739,-0.49389 0.52917,-0.0353 1.02304,0.14111 1.0936,0.35278 z m 9.91307,0.24694 c 0.17637,0.17639 0.21167,0.635 0.0705,1.05834 -0.21167,0.70555 -0.45861,0.74083 -4.40971,0.74083 -4.1275,0 -4.16279,0 -4.3039,-0.84667 -0.3175,-1.51694 0.24694,-1.72861 4.48027,-1.48166 2.11667,0.14111 4.02167,0.38805 4.1628,0.52916 z m 0.10583,3.63361 c -0.10583,0.45862 -0.21166,1.23473 -0.21166,1.7286198 0,0.88194 -0.0706,0.91722 -1.4464,0.67027 -0.7761,-0.14111 -2.78694,-0.17639 -4.40973,-0.0353 l -2.99861,0.24694 0.10584,-1.4463898 c 0.1411,-1.69333 0.52916,-1.83444 5.715,-1.905 3.42193,-0.0353 3.45723,-0.0353 3.24556,0.74083 z m -10.37166,1.05834 c -0.1764,1.2347198 -0.70557,2.1519398 -1.09363,1.9049998 -0.14111,-0.10584 -1.48167,0.0705 -3.03387,0.35278 -4.1275,0.70555 -4.05697,0.70555 -4.05697,-0.88195 0,-2.0813898 0.0353,-2.1166698 6.91447,-2.4341698 1.4111,-0.0706 1.44637,-0.0706 1.27,1.05834 z m 10.4422,3.8805498 0.10583,1.34056 -4.23333,0.0353 c -2.3636,0.0353 -4.48027,0.0705 -4.69194,0.10583 -0.28223,0.0353 -0.4586,-0.42333 -0.4586,-1.19944 0,-1.19945 0.0353,-1.23473 1.5875,-1.44639 0.88194,-0.14111 2.92804,-0.21167 4.5861,-0.17639 l 2.99861,0.0353 z m -10.83027,0.52917 -0.21167,1.30528 -2.9986,0.59972 c -1.65806,0.35278 -3.42196,0.635 -3.95113,0.635 -0.9525,0.0353 -0.98777,-0.0353 -0.98777,-1.55222 v -1.5875 l 1.69334,-0.0353 c 0.91723,-0.0353 2.0461,-0.17639 2.54,-0.3175 0.4939,-0.14111 1.62277,-0.28222 2.50473,-0.3175 l 1.62277,-0.0353 z m 10.86557,2.36361 c 0.24693,0.28222 0.38803,1.12889 0.3175,1.86972 l -0.10584,1.34056 -5.04473,0.0705 -5.04473,0.0706 0.10583,-1.65806 0.10584,-1.65805 2.29306,-0.21167 c 4.5861,-0.38805 6.94973,-0.35278 7.37307,0.17639 z m -10.90084,1.97556 c 0,0.77611 -0.14113,1.44639 -0.28223,1.55222 -0.1411,0.0705 -1.62277,0.38805 -3.24556,0.70555 -1.65804,0.28223 -3.45721,0.635 -4.05694,0.74084 l -1.05833,0.24694 0.10583,-1.79916 c 0.1411,-1.76389 0.1764,-1.79917 1.4111,-1.97556 0.74084,-0.10583 2.11667,-0.35278 3.06917,-0.52917 3.95113,-0.77611 4.05696,-0.74083 4.05696,1.05834 z m 11.1125,4.40972 v 1.76389 l -4.58613,-0.10584 c -2.5047,-0.0706 -4.83303,-0.17638 -5.11527,-0.28222 -0.7761,-0.21166 -0.49389,-2.8575 0.28224,-3.06916 0.35276,-0.10584 2.57526,-0.14112 5.00943,-0.10584 l 4.40973,0.0353 z m -11.1125,-0.38806 c 0,1.65806 -0.3175,1.97556 -2.0814,1.97556 -3.175,0.0353 -5.57389,0.9525 -4.72723,1.79916 0.28223,0.28223 0.74084,0.28223 1.5875,0.0353 0.635,-0.21166 1.97557,-0.42333 2.92807,-0.49389 l 1.7639,-0.10583 v 1.23472 1.23472 l -2.7164,0.67028 c -2.57527,0.59972 -4.40973,0.59972 -5.46807,-0.0705 -0.2822,-0.17639 -0.35277,-1.12889 -0.21166,-3.175 l 0.21166,-2.89278 1.09363,-0.0353 c 0.59971,0 2.11667,-0.21166 3.38667,-0.49389 3.59833,-0.74083 4.23333,-0.67027 4.23333,0.3175 z m 10.68917,3.70417 c 0.1411,0.14111 0.1411,0.77611 0.0353,1.41111 -0.24694,1.12889 -0.3175,1.16417 -1.51694,0.9525 -0.70556,-0.10583 -2.89279,-0.21167 -4.86833,-0.21167 h -3.63363 v -1.16416 c 0,-0.67028 0.10583,-1.30528 0.24696,-1.44639 0.3175,-0.3175 9.3486,0.10583 9.73667,0.45861 z"
       id="path1332" />
    <path
       style="stroke-width:0.03527778"
       inkscape:connector-curvature="0"
       d="m 121.51842,6.8123522 c -3.03388,0.21167 -10.97138,1.09362 -19.75555,2.18723 -12.558894,1.5874998 -29.315834,3.4219398 -38.805554,4.2686098 -10.05417,0.91722 -26.59945,1.83444 -53.4458396,2.99861 -6.70277,0.28222 -16.54527,0.77611 -21.9075004,1.05833 -5.36222,0.28222 -13.123331,0.67028 -17.286108,0.88195 -7.055556,0.3175 -10.230553,0.52916 -23.495,1.41111 -12.876387,0.84666 -15.20472,1.05833 -39.96972,3.70416 -2.822222,0.3175 -8.360828,1.02306 -12.311948,1.5875 -3.95111,0.59973 -8.81944,1.16417 -10.83027,1.30528 -4.16278,0.24695 -4.16278,0.24695 -2.99861,2.96333 0.635,1.51695 1.30527,5.00945 2.15194,11.32417 0.24694,1.79917 0.59972,3.13972 0.88194,3.21028 0.24695,0.10583 0.635,1.34055 0.84667,2.78694 0.21167,1.41111 0.635,3.77473 0.91722,5.22111 0.28223,1.44639 0.70556,6.70278 0.88195,11.64167 0.21166,4.93889 0.67028,11.92389 1.05833,15.52222 0.38806,3.59834 0.84667,10.33639 1.05833,14.99306 0.17639,4.65666 0.52917,11.394718 0.70556,14.993048 0.70556,12.45306 1.44639,26.70528 1.94028,38.27639 0.28222,6.38528 0.77611,14.32278 1.05833,17.63889 0.59972,6.77334 0.67028,23.45971 0.14111,29.80971 -0.17639,2.2225 -0.42333,6.94973 -0.56444,10.44223 -0.21167,6.38527 -0.21167,6.42057 0.59972,6.8439 0.59972,0.3175 1.37583,0.2822 3.63361,-0.14113 5.926667,-1.12887 7.408334,-1.27 18.591388,-1.69333 9.06639,-0.3175 14.816667,-0.3175 27.516667,0.0353 25.117777,0.74084 58.17305135,1.09361 121.179161,1.30527 63.782224,0.24694 62.124174,0.28223 66.216394,-1.79916 3.06917,-1.55224 4.19806,-3.95111 5.08,-10.4775 0.3175,-2.3989 0.67028,-6.94974 0.77611,-10.16 0.24695,-6.0325 -0.28222,-26.28195 -0.98778,-37.04167 -0.38805,-6.24417 -0.84666,-18.06222 -1.27,-33.05528 l -0.24694,-8.18444 1.62278,-0.77611 c 1.72861,-0.84667 2.39889,-2.01084 0.88194,-1.51695 -0.45861,0.14111 -1.16417,0.28223 -1.5875,0.28223 -0.74083,0.0353 -0.77611,-0.0706 -0.9525,-7.02028 -0.10583,-3.880558 -0.28222,-16.862778 -0.42333,-28.892498 -0.14111,-18.48556 -0.10584,-23.03639 0.42333,-29.80972 0.77611,-10.68917 0.52917,-24.30639 -0.56444,-28.15167 -0.38806,-1.41111 -0.70556,-3.03389 -0.70556,-3.59833 0,-1.3758298 -0.56444,-2.8574998 -1.48167,-3.8452798 -0.67027,-0.70555 -1.05833,-0.77611 -3.77472,-0.70555 -1.65805,0.0353 -3.81,0.10583 -4.79778,0.17638 z m 7.9375,1.86973 c 0.45862,0.45861 0.70556,1.16416 0.70556,2.0813898 0,0.74083 0.35278,2.36361 0.74083,3.59833 1.19945,3.56305 1.65806,14.95778 0.98778,23.91833 -0.28222,3.91583 -0.49389,12.17083 -0.52917,19.08528 -0.0353,21.9075 0.9525,74.824158 1.65806,87.488888 1.79917,33.72555 1.86972,42.26278 0.49389,53.51638 -0.67028,5.29167 -1.5875,7.86694 -3.42195,9.45444 -2.50472,2.15196 -3.98638,2.32833 -20.39055,2.64583 -26.775834,0.52917 -132.679725,-0.17637 -155.575002,-1.05833 -26.740553,-1.02304 -47.060553,-0.74084 -56.056388,0.70556 -2.43416,0.42334 -4.62139,0.635 -4.86833,0.52917 -0.56445,-0.1764 -0.52917,-0.84667 0.28222,-23.60083 0.42333,-11.7475 0.38806,-13.75834 -0.14111,-20.46111 -0.67028,-8.07861 -1.30528,-19.43806 -2.15194,-37.07695 -0.3175,-6.20889 -0.74084,-14.64028 -0.91723,-18.69722 -0.21166,-4.09222 -0.52916,-11.147778 -0.70555,-15.698608 -0.35278,-8.67833 -0.98778,-17.81528 -1.27,-18.66194 -0.0706,-0.24695 -0.3175,-4.86834 -0.49389,-10.23056 -0.24695,-7.3025 -0.56445,-11.07722 -1.23472,-15.20472 -0.45861,-2.99861 -0.9525,-6.20889 -1.05834,-7.16139 -0.21166,-1.65806 -0.70555,-2.18722 -0.98777,-1.05833 -0.0706,0.35277 -0.24695,-0.635 -0.38806,-2.18723 -0.38806,-3.98638 -1.55222,-11.04194 -1.97556,-11.81805 -0.59972,-1.12889 -0.38805,-1.41111 0.98778,-1.41111 0.70556,0 3.91584,-0.38806 7.12611,-0.88195 13.299725,-1.97555 19.685001,-2.78694 30.691668,-3.88055 4.93889,-0.49389 9.489723,-0.98778 10.054167,-1.09361 1.834443,-0.28222 31.785277,-2.2225 40.393054,-2.61056 4.550833,-0.21166 9.630837,-0.42333 11.288887,-0.52916 1.65806,-0.10584 7.5141704,-0.35278 13.0527804,-0.52917 20.7786096,-0.77611 52.7402796,-2.29306 59.9722196,-2.82222 5.04472,-0.35278 7.33778,-0.59973 18.55611,-1.76389 9.91306,-1.05834 11.00667,-1.16417 26.952224,-2.96334 16.47472,-1.8697198 20.17889,-2.2224998 24.4475,-2.2930498 2.64584,-0.0353 3.175,0.0705 3.77472,0.67028 z"
       id="path1334" />
    <path
       style="stroke-width:0.03527778"
       inkscape:connector-curvature="0"
       d="m -52.048242,77.262072 c -1.869723,0.81139 -2.04611,1.30528 -1.799167,4.55084 0.3175,3.56305 0.846667,5.53861 1.552224,5.53861 0.493887,0 0.493887,-0.42333 -0.141113,-3.56306 -0.141111,-0.81139 0,-0.9525 1.234723,-1.30527 2.469443,-0.77612 4.162777,-3.91584 2.786943,-5.29167 -0.564443,-0.56445 -2.293053,-0.52917 -3.63361,0.0705 z m 2.99861,1.48167 c 0,0.3175 -0.45861,1.02306 -1.058333,1.5875 -1.305277,1.34056 -2.610554,1.30528 -2.751667,-0.0706 -0.14111,-1.05834 0.564447,-1.72862 2.151947,-2.08139 1.305276,-0.28223 1.658053,-0.17639 1.658053,0.56444 z"
       id="path1336" />
    <path
       style="stroke-width:0.03527778"
       inkscape:connector-curvature="0"
       d="m -47.638519,80.472352 c 0,0.28222 0.3175,0.52917 0.705554,0.52917 0.388056,0 0.705556,-0.24695 0.705556,-0.52917 0,-0.28222 -0.3175,-0.52916 -0.705556,-0.52916 -0.388054,0 -0.705554,0.24694 -0.705554,0.52916 z"
       id="path1338" />
    <path
       style="stroke-width:0.03527778"
       inkscape:connector-curvature="0"
       d="m -36.137965,80.719302 c -0.423333,0.56444 -0.635,0.67027 -0.77611,0.35277 -0.105834,-0.21166 -0.81139,-0.42333 -1.552223,-0.42333 -1.058334,0 -1.516944,0.21167 -2.081387,0.91722 -1.94028,2.46945 0.529166,4.69195 2.539997,2.25778 0.49389,-0.56444 0.9525,-1.23472 1.058333,-1.48167 0.105834,-0.35277 0.35278,-0.28222 0.917223,0.21167 0.564444,0.49389 0.635,0.77611 0.352777,1.12889 -0.881943,1.09361 0.599723,1.62278 1.552223,0.56444 0.740834,-0.81138 0.776111,-1.62277 0.07056,-2.18722 -0.3175,-0.28222 -0.458613,-0.74083 -0.3175,-1.27 0.176387,-0.67028 0.07055,-0.84666 -0.49389,-0.84666 -0.388056,0 -0.9525,0.35277 -1.27,0.77611 z m -1.975556,1.27 c 0,0.45861 -1.375831,1.62277 -1.622777,1.41111 -0.282221,-0.3175 0.670279,-1.69334 1.164166,-1.69334 0.246944,0 0.458611,0.14112 0.458611,0.28223 z"
       id="path1340" />
    <path
       style="stroke-width:0.03527778"
       inkscape:connector-curvature="0"
       d="m -44.251852,81.742352 c -1.552223,1.83445 -0.881946,4.02167 1.164167,3.77472 1.128887,-0.14111 1.23472,-1.12888 0.14111,-1.27 -1.09361,-0.17638 -1.058334,-1.23472 0.07056,-2.11666 0.493887,-0.38806 0.881944,-0.88195 0.881944,-1.09361 0,-0.77611 -1.375834,-0.35278 -2.257777,0.70555 z"
       id="path1342" />
    <path
       style="stroke-width:0.03527778"
       inkscape:connector-curvature="0"
       d="m -71.168798,82.835962 c -2.081387,1.02306 -2.928054,1.65806 -2.928054,2.11667 0,0.77611 0.811387,0.84667 1.41111,0.10583 0.705557,-0.84666 0.987777,-0.635 1.234723,0.9525 0.282221,1.79917 1.41111,4.51556 1.869721,4.51556 0.635,0 0.740833,-0.45861 0.282223,-1.37583 -0.282223,-0.49389 -0.670277,-1.83445 -0.917223,-2.96334 -0.529167,-2.2225 -0.388054,-2.46944 1.869723,-3.4925 0.9525,-0.45861 1.305277,-1.34055 0.529166,-1.34055 -0.246943,0 -1.763889,0.67027 -3.351389,1.48166 z"
       id="path1344" />
    <path
       style="stroke-width:0.03527778"
       inkscape:connector-curvature="0"
       d="m -47.567965,82.518462 c -0.670277,0.77611 -0.881944,2.32834 -0.423333,2.89278 0.881946,1.05833 1.305279,0.59972 1.27,-1.41111 0,-1.97556 -0.176387,-2.29306 -0.846667,-1.48167 z"
       id="path1346" />
    <path
       style="stroke-width:0.03527778"
       inkscape:connector-curvature="0"
       d="m -59.033242,84.423462 c -0.14111,0.10584 -0.246943,0.59973 -0.246943,1.05834 0,0.42333 -0.141113,0.81139 -0.35278,0.81139 -0.176387,0 -0.352777,-0.3175 -0.352777,-0.67028 0,-0.9525 -0.599723,-1.23472 -1.023056,-0.49389 -0.423334,0.74083 0.423333,2.57528 1.199446,2.57528 0.740833,0 0.670277,0.49389 -0.17639,1.23472 -0.388056,0.35278 -0.881943,1.23472 -1.12889,1.97555 -0.3175,1.12889 -0.28222,1.48167 0.211667,2.25778 0.81139,1.23472 1.516946,1.44639 2.328333,0.70556 0.846667,-0.74084 1.234723,-2.36361 1.093613,-4.37445 -0.105833,-1.30527 0.03528,-1.69333 1.023054,-2.68111 0.740833,-0.77611 0.98778,-1.23472 0.705556,-1.41111 -0.211666,-0.14111 -0.670276,0 -1.023056,0.3175 -0.811387,0.74083 -1.09361,0.70556 -1.09361,-0.10583 0,-0.74084 -0.81139,-1.5875 -1.164167,-1.19945 z m 0.45861,6.13834 c 0,1.34055 -0.564443,2.43416 -1.23472,2.43416 -0.67028,0 -0.67028,-0.84666 0.03528,-2.32833 0.705556,-1.48167 1.199443,-1.55222 1.199443,-0.10583 z"
       id="path1348" />
    <path
       style="stroke-width:0.03527778"
       inkscape:connector-curvature="0"
       d="m -67.852685,84.776242 c -0.458613,0.42333 -0.246947,0.81139 0.45861,0.81139 0.388056,0 0.705556,-0.24694 0.705556,-0.52917 0,-0.52916 -0.740833,-0.74083 -1.164166,-0.28222 z"
       id="path1350" />
    <path
       style="stroke-width:0.03527778"
       inkscape:connector-curvature="0"
       d="m 68.072586,85.199572 c -1.94027,0.81139 -2.18722,1.51695 -2.04611,6.49112 0.0706,2.78694 0.21167,3.59833 0.59972,3.59833 0.35278,0 0.49389,-0.59972 0.52917,-2.25778 l 0.0353,-2.25778 1.86972,-0.59972 c 2.2225,-0.74083 2.36361,-0.84667 1.72861,-1.37583 -0.38805,-0.28222 -0.84667,-0.28222 -1.97555,0.14111 l -1.44639,0.49389 v -0.9525 c 0,-1.37584 0.3175,-1.69334 2.29305,-2.43417 0.98778,-0.35278 1.72861,-0.81139 1.69334,-0.98778 -0.14112,-0.59972 -1.62278,-0.52916 -3.28084,0.14111 z"
       id="path1352" />
    <path
       style="stroke-width:0.03527778"
       inkscape:connector-curvature="0"
       d="m -64.430742,86.187352 c -0.81139,1.12889 -0.635,2.68111 0.3175,2.8575 0.45861,0.10584 0.599723,-0.14111 0.599723,-1.02305 v -1.12889 l 0.846667,0.77611 c 1.23472,1.16417 1.516943,0.28222 0.388054,-1.19945 -0.493887,-0.67027 -1.023054,-1.23472 -1.199444,-1.23472 -0.14111,0 -0.564443,0.42334 -0.9525,0.9525 z"
       id="path1354" />
    <path
       style="stroke-width:0.03527778"
       inkscape:connector-curvature="0"
       d="m 54.278976,86.998742 c -2.89278,2.96333 -3.45722,6.77333 -1.34055,9.03111 0.635,0.67028 1.16416,0.84667 2.46944,0.84667 1.79917,0 3.03389,-0.81139 1.79917,-1.19945 -0.38806,-0.14111 -0.91722,-0.14111 -1.19945,-0.0353 -0.88194,0.35277 -2.25777,-0.42334 -2.75166,-1.55223 -0.70556,-1.69333 0.10583,-4.02166 2.08139,-6.06777 0.88194,-0.88195 1.83444,-1.69334 2.11666,-1.79917 0.28222,-0.0706 0.38806,-0.3175 0.24695,-0.56444 -0.52917,-0.88195 -1.79917,-0.38806 -3.42195,1.34055 z"
       id="path1356" />
    <path
       style="stroke-width:0.03527778"
       inkscape:connector-curvature="0"
       d="m -67.394075,87.139852 c 0,0.98778 0.81139,2.68111 1.27,2.68111 0.599723,0 0.599723,-0.0705 0.07056,-1.79916 -0.388056,-1.30528 -1.340556,-1.94028 -1.340556,-0.88195 z"
       id="path1358" />
    <path
       style="stroke-width:0.03527778"
       inkscape:connector-curvature="0"
       d="m 61.334536,90.279572 c -1.48167,0.67028 -1.97556,1.27 -2.2225,2.50473 -0.3175,1.62277 0.28222,2.96333 1.37583,3.24555 1.27,0.3175 2.46945,-0.59972 3.175,-2.43416 0.56445,-1.44639 0.56445,-1.65806 0.0353,-2.68112 -0.635,-1.16416 -0.9525,-1.27 -2.36361,-0.635 z m 0.91722,3.38667 c -0.59972,1.19944 -1.37583,1.41111 -1.72861,0.52917 -0.42333,-1.05834 -0.21167,-1.55222 0.9525,-2.25778 1.09361,-0.70556 1.12889,-0.70556 1.23472,-0.0353 0.0706,0.38806 -0.14111,1.16417 -0.45861,1.76389 z"
       id="path1360" />
    <path
       style="stroke-width:0.03527778"
       inkscape:connector-curvature="0"
       d="m 73.117306,90.067912 c -2.2225,0.28222 -3.06916,3.28083 -1.30527,4.65666 1.23472,0.98778 2.43416,0.91723 3.4925,-0.14111 1.12889,-1.09361 1.19944,-3.03389 0.17639,-4.05694 -0.38806,-0.38806 -0.81139,-0.67028 -0.9525,-0.635 -0.17639,0 -0.81139,0.10583 -1.41112,0.17639 z m 1.65806,2.18722 c 0,2.08139 -2.15194,2.32833 -2.39889,0.28222 -0.10583,-0.74083 0.0353,-0.91722 0.88195,-1.05833 0.52916,-0.0706 1.09361,-0.17639 1.27,-0.21167 0.14111,0 0.24694,0.42334 0.24694,0.98778 z"
       id="path1362" />
    <path
       style="stroke-width:0.03527778"
       inkscape:connector-curvature="0"
       d="m -69.757685,97.652632 c -1.799167,1.97555 -3.704167,7.020278 -4.162777,10.971388 -0.17639,1.51694 -0.388057,2.11666 -0.9525,2.39889 -0.635,0.35277 -0.705557,0.59972 -0.529167,2.15194 0.388054,3.06917 1.763887,4.33917 2.892777,2.64583 0.740833,-1.12888 1.693333,-4.445 1.446387,-5.04472 -0.105833,-0.28222 -0.59972,-0.49389 -1.128887,-0.49389 -0.917223,0 -0.917223,0 -0.67028,-1.97555 0.388057,-3.10445 2.187223,-7.72584 4.1275,-10.477498 0.881947,-1.19945 0.07056,-1.34056 -1.023053,-0.17639 z m -2.8575,15.804438 c -0.3175,0.98778 -0.67028,1.76389 -0.81139,1.76389 -0.282223,0 -1.023054,-1.97555 -1.023054,-2.71639 0,-0.28222 0.176387,-0.38805 0.352777,-0.28222 0.211667,0.10583 0.59972,-0.0353 0.91722,-0.3175 0.917223,-0.9525 1.164167,-0.3175 0.564447,1.55222 z"
       id="path1364" />
    <path
       style="stroke-width:0.03527778"
       inkscape:connector-curvature="0"
       d="m 46.412036,98.322912 c -1.55222,1.834438 -2.82222,4.233328 -3.77472,7.196658 -0.84667,2.54 -1.02306,2.8575 -1.94028,2.99861 -0.9525,0.17639 -1.02306,0.3175 -0.9525,1.5875 0.0705,0.77612 0.35278,2.08139 0.67028,2.92806 0.49388,1.30528 0.70555,1.51694 1.48166,1.41111 1.16417,-0.14111 2.92806,-2.8575 2.99861,-4.58611 0.0706,-1.02306 -0.0353,-1.16417 -0.91722,-1.27 -0.91722,-0.10583 -0.98778,-0.21167 -0.74083,-1.23472 0.45861,-2.18722 1.905,-5.29167 3.31611,-7.12611 2.01083,-2.575278 1.86972,-4.303888 -0.14111,-1.904998 z m -2.68111,11.818048 c 0,0.42334 -1.55223,2.96334 -1.79917,2.96334 -0.38806,0 -0.52917,-0.35278 -0.81139,-1.86973 l -0.24694,-1.30527 h 1.44639 c 0.77611,0 1.41111,0.10583 1.41111,0.21166 z"
       id="path1366" />
    <path
       style="stroke-width:0.03527778"
       inkscape:connector-curvature="0"
       d="m 65.109256,100.43957 c -0.49389,0.59973 -0.91722,1.48167 -0.91722,1.94028 0,1.12889 1.48166,2.61056 2.64583,2.61056 1.09361,0 1.12889,0.35277 0.0353,1.37583 -0.67028,0.59972 -1.12889,0.77611 -1.79917,0.59972 -1.09361,-0.28222 -1.62278,0.635 -0.81139,1.41111 0.74084,0.77611 2.2225,0.28223 3.66889,-1.16416 1.83445,-1.83445 1.55222,-2.89278 -0.91722,-3.52778 -0.88194,-0.24695 -1.27,-0.52917 -1.34056,-1.12889 -0.14111,-0.9525 0.84667,-2.15194 1.76389,-2.15194 0.35278,0 0.635,-0.24695 0.635,-0.529168 0,-0.98778 -1.97555,-0.635 -2.96333,0.564438 z"
       id="path1368" />
    <path
       style="stroke-width:0.03527778"
       inkscape:connector-curvature="0"
       d="m 94.989536,102.06235 c -1.51695,0.21167 -2.92806,1.86972 -2.92806,3.4925 0,1.69333 0.77611,1.51695 1.69333,-0.38805 0.42334,-0.88195 0.88195,-1.5875 1.02306,-1.62278 1.86972,-0.17639 3.31611,-0.70556 3.175,-1.12889 -0.14111,-0.45861 -1.19944,-0.59972 -2.96333,-0.35278 z"
       id="path1370" />
    <path
       style="stroke-width:0.03527778"
       inkscape:connector-curvature="0"
       d="m 82.959806,103.96735 c -0.35277,0.98778 -0.81138,1.79917 -0.98777,1.83445 -0.17639,0.0353 -0.35278,-0.59973 -0.42334,-1.44639 -0.0705,-0.98778 -0.28222,-1.48167 -0.635,-1.48167 -0.635,0 -0.70555,3.88056 -0.0705,4.51556 1.09361,1.09361 2.50472,0.0353 3.28083,-2.46945 0.24695,-0.81139 0.56445,-1.79917 0.70556,-2.15194 0.17639,-0.45861 0.0705,-0.59973 -0.45861,-0.59973 -0.56445,0 -0.88195,0.45862 -1.41112,1.79917 z"
       id="path1372" />
    <path
       style="stroke-width:0.03527778"
       inkscape:connector-curvature="0"
       d="m 86.628696,103.2618 c -0.49389,0.59972 -0.91722,1.44638 -0.91722,1.94027 0,1.09361 1.16417,2.25778 2.25778,2.25778 2.2225,0 2.78694,-1.30528 0.67028,-1.48167 -1.65806,-0.14111 -1.86973,-0.77611 -0.42334,-1.19944 1.55223,-0.45861 2.11667,-1.44639 1.23473,-2.11667 -1.05834,-0.77611 -1.83445,-0.59972 -2.82223,0.59973 z"
       id="path1374" />
    <path
       style="stroke-width:0.03527778"
       inkscape:connector-curvature="0"
       d="m 71.106476,103.96735 c -2.04611,2.43417 -0.17639,5.32695 2.71639,4.23333 1.27,-0.49388 1.30528,-1.62277 0.0353,-1.30527 -0.9525,0.24694 -2.25778,0 -2.25778,-0.45861 0,-0.14112 0.56444,-0.52917 1.23472,-0.84667 1.55222,-0.74083 1.94028,-1.5875 1.05834,-2.2225 -1.02306,-0.74083 -1.79917,-0.59972 -2.78695,0.59972 z"
       id="path1376" />
    <path
       style="stroke-width:0.03527778"
       inkscape:connector-curvature="0"
       d="m 76.539256,103.68513 c -0.77611,0.38805 -0.88195,0.67028 -0.88195,2.18722 0,2.2225 0.84667,2.43417 1.44639,0.35278 0.28223,-1.02306 0.59973,-1.44639 1.23473,-1.5875 0.45861,-0.10583 0.88194,-0.49389 0.9525,-0.81139 0.14111,-0.74083 -1.41112,-0.81139 -2.75167,-0.14111 z"
       id="path1378" />
    <path
       style="stroke-width:0.03527778"
       inkscape:connector-curvature="0"
       d="m 124.97565,112.75152 c -1.62278,0.70555 -2.01084,1.41111 -0.81139,1.41111 0.91722,0 3.52778,-1.30528 3.52778,-1.76389 0,-0.52917 -1.05834,-0.38806 -2.71639,0.35278 z"
       id="path1380" />
    <path
       style="stroke-width:0.03527778"
       inkscape:connector-curvature="0"
       d="m 116.50898,116.2793 c -1.65806,0.74083 -1.97556,1.41111 -0.70556,1.41111 0.98778,-0.0353 3.13973,-1.09361 3.35139,-1.69334 0.17639,-0.635 -0.91722,-0.52916 -2.64583,0.28223 z"
       id="path1382" />
    <path
       style="stroke-width:0.03527778"
       inkscape:connector-curvature="0"
       d="m 27.644256,116.52624 c -4.23333,0.10583 -5.82083,0.24694 -6.10305,0.59972 -0.635,0.74084 -1.48167,12.59417 -1.62278,22.26028 -0.10584,7.09083 -0.74084,20.67278 -0.98778,20.84917 -0.0353,0.0353 -1.83444,0.17639 -3.98639,0.3175 l -3.95111,0.24694 -0.21167,-1.97555 c -0.35277,-2.64584 -0.77611,-3.03389 -3.2455496,-2.78695 -1.12889,0.14111 -1.94028,0.0706 -1.86972,-0.10583 0.77611,-1.79917 3.31611,-5.78556 3.70416,-5.78556 0.24695,0 0.7408396,-0.38805 1.0583396,-0.88194 0.52916,-0.81139 0.52916,-0.9525 0,-1.76389 -1.1641696,-1.72861 -3.1749996,-0.84667 -3.1044496,1.37583 0.0353,1.37584 -3.31611,7.37306 -4.19805,7.54945 -0.38806,0.0705 -1.23473,-0.88195 -2.54000005,-2.89278 -1.09362,-1.62278 -2.15194995,-3.06917 -2.32833995,-3.21028 -0.21166,-0.10583 -0.38805,-0.59972 -0.38805,-1.02305 0,-1.23473 -0.77611,-1.72862 -2.18722,-1.34056 -0.9525,0.24694 -1.19945,0.45861 -1.27,1.34056 -0.14112,1.27 0.38805,1.79916 1.86972,1.97555 0.84666,0.0706 1.34055,0.52917 2.57527,2.32833 0.81138995,1.23473 1.48166995,2.36362 1.48166995,2.54 0,0.14112 -0.81139,0.35278 -1.83443995,0.45862 -0.98778,0.14111 -1.94028,0.35277 -2.08139,0.49388 -0.14111,0.17639 -0.3175,1.86973 -0.38806,3.81 l -0.10583,3.52778 6.70278,0.10584 c 7.6552696,0.10583 8.4666596,-0.0706 8.1491596,-1.86973 l -0.21166,-1.05833 4.05694,-0.0706 4.05695,-0.10583 v 2.75167 c 0.0353,4.445 -1.5875,4.05693 17.18027,4.16276 8.89,0.0353 17.35667,0.24697 18.80306,0.42334 1.51694,0.21166 2.89278,0.24696 3.21028,0.0706 0.84666,-0.4939 1.02305,-4.79777 0.77611,-18.97944 l -0.21167,-12.45306 0.74083,-0.21166 c 0.9525,-0.24695 1.02306,-1.02306 0.14111,-1.23472 -0.59972,-0.17639 -0.635,-0.81139 -0.70555,-9.27806 0,-4.97417 -0.10583,-9.13694 -0.21167,-9.24278 -0.0705,-0.0705 -1.05833,-0.38805 -2.2225,-0.635 -2.01083,-0.49389 -11.64166,-0.56444 -28.53972,-0.28222 z m 26.81111,1.34056 c 0.14111,0.38805 0.59972,0.52916 1.51695,0.45861 l 1.34055,-0.10584 v 24.58861 c 0,13.51139 -0.10583,24.65917 -0.21167,24.80027 -0.14111,0.10583 -1.86972,0.0353 -3.88055,-0.21167 -2.25778,-0.24693 -9.34861,-0.42333 -18.55611,-0.42333 h -14.9225 v -1.7286 c 0,-0.9525 0.14111,-3.175 0.35278,-4.97417 0.45861,-4.23333 1.37583,-19.64972 1.5875,-27.05805 0.24694,-6.63222 0.74083,-14.78139 0.91722,-14.95778 0.24694,-0.24694 15.62805,-0.81139 23.63611,-0.84667 6.91444,-0.0705 8.04333,0 8.21972,0.45862 z m -45.4024996,42.58027 0.0353,2.68111 -5.85611,0.14112 c -3.24556005,0.0706 -5.92667,0.10583 -5.96195,0.0706 -0.0705,0 0.0353,-1.19944 0.17639,-2.64583 l 0.24695,-2.61056 1.58749995,-0.21166 c 0.88194,-0.14112 3.42194005,-0.21167 5.64444005,-0.17639 l 4.05695,0.0353 z"
       id="path1384" />
    <path
       style="stroke-width:0.03527778"
       inkscape:connector-curvature="0"
       d="m 53.255926,138.5043 c -0.38806,0.21166 -0.42334,0.42333 -0.14111,0.70555 0.45861,0.45861 1.62277,0.0706 1.44638,-0.45861 -0.17638,-0.52917 -0.70555,-0.635 -1.30527,-0.24694 z"
       id="path1386" />
    <path
       style="stroke-width:0.03527778"
       inkscape:connector-curvature="0"
       d="m 47.964256,140.23291 c 0,0.17639 -0.49389,0.49389 -1.05833,0.74083 -0.59973,0.24694 -1.02306,0.635 -0.9525,0.84667 0.17639,0.49389 1.30527,0.3175 2.04611,-0.35278 0.28222,-0.28222 0.88194,-0.49389 1.30528,-0.49389 0.45861,0 0.77611,-0.21167 0.77611,-0.52917 0,-0.35277 -0.35278,-0.52916 -1.05834,-0.52916 -0.56444,0 -1.05833,0.14111 -1.05833,0.3175 z"
       id="path1388" />
    <path
       style="stroke-width:0.03527778"
       inkscape:connector-curvature="0"
       d="m 43.872036,142.87874 c -0.52917,0.38806 -0.56445,0.59972 -0.24695,0.9525 0.3175,0.3175 0.59973,0.28222 1.30528,-0.17639 0.52917,-0.3175 0.91722,-0.74083 0.91722,-0.91722 0,-0.52917 -1.16416,-0.42333 -1.97555,0.14111 z"
       id="path1390" />
    <path
       style="stroke-width:0.03527778"
       inkscape:connector-curvature="0"
       d="m 40.838146,144.64263 c -0.77611,0.56444 -0.81139,1.12889 -0.14111,1.37583 0.49389,0.21167 1.97555,-0.9525 1.97555,-1.51694 0,-0.49389 -1.12889,-0.42334 -1.83444,0.14111 z"
       id="path1392" />
    <path
       style="stroke-width:0.03527778"
       inkscape:connector-curvature="0"
       d="m 38.333426,147.25318 c -0.635,0.67028 -0.81139,1.48167 -0.3175,1.48167 0.56444,0 1.83444,-1.12889 1.83444,-1.62278 0,-0.70555 -0.84667,-0.635 -1.51694,0.14111 z"
       id="path1394" />
    <path
       style="stroke-width:0.03527778"
       inkscape:connector-curvature="0"
       d="m 35.017316,149.68735 c -0.52917,0.17639 -0.635,1.16417 -0.14112,1.16417 0.74084,0 1.44639,-0.45861 1.44639,-0.91722 0,-0.49389 -0.49389,-0.59973 -1.30527,-0.24695 z"
       id="path1396" />
    <path
       style="stroke-width:0.03527778"
       inkscape:connector-curvature="0"
       d="m 32.265646,151.90985 c -1.09361,0.42333 -1.76389,1.37583 -1.30528,1.83445 0.24695,0.24694 0.635,0.10583 1.30528,-0.52917 1.09361,-0.98778 1.09361,-1.72861 0,-1.30528 z"
       id="path1398" />
    <path
       style="stroke-width:0.03527778"
       inkscape:connector-curvature="0"
       d="m 28.138146,155.22596 c -0.70556,0.52917 -0.81139,1.12889 -0.24694,1.44639 0.42333,0.28222 1.79916,-1.19944 1.51694,-1.62278 -0.24694,-0.42333 -0.56444,-0.38805 -1.27,0.17639 z"
       id="path1400" />
    <path
       style="stroke-width:0.03527778"
       inkscape:connector-curvature="0"
       d="m 25.457036,158.15402 c 0.0705,0.35278 0.35278,0.635 0.635,0.635 0.28222,0 0.56444,-0.28222 0.635,-0.635 0.0705,-0.42334 -0.10583,-0.59972 -0.635,-0.59972 -0.52917,0 -0.70556,0.17638 -0.635,0.59972 z"
       id="path1402" />
    <path
       style="stroke-width:0.03527778"
       inkscape:connector-curvature="0"
       d="m 21.717586,159.56513 c -0.42333,0.42333 -0.17638,0.81139 0.49389,0.81139 0.38806,0 0.70556,-0.14111 0.70556,-0.3175 0,-0.38806 -0.91722,-0.77611 -1.19945,-0.49389 z"
       id="path1404" />
    <path
       style="stroke-width:0.03527778"
       inkscape:connector-curvature="0"
       d="m -55.187965,119.03096 c -0.423333,0.38806 -0.211667,5.92667 0.246946,6.49111 0.388054,0.52917 0.881944,0.52917 5.573887,0.0706 2.8575,-0.24695 5.609167,-0.635 6.103057,-0.84667 1.023056,-0.38805 1.023056,-0.59972 -0.105834,-4.05694 l -0.564443,-1.76389 -5.538613,-0.0706 c -3.033887,0 -5.609167,0.0706 -5.715,0.17639 z m 10.724446,2.25778 c 0.211667,0.84667 0.45861,1.72861 0.529167,1.94028 0.07055,0.24694 -0.211667,0.52916 -0.635,0.635 -0.705557,0.17639 -8.008057,0.88194 -8.960557,0.88194 -0.3175,0 -0.45861,-0.70555 -0.45861,-2.25778 v -2.29305 l 1.869721,-0.14111 c 0.987779,-0.0706 3.069166,-0.14111 4.550833,-0.17639 l 2.71639,-0.0706 z"
       id="path1406" />
    <path
       style="stroke-width:0.03527778"
       inkscape:connector-curvature="0"
       d="m -74.379075,119.34846 c -2.187221,0.17639 -2.36361,0.45861 -2.751667,4.19806 l -0.246943,2.36361 5.256387,-0.24695 c 3.280833,-0.17638 5.3975,-0.42333 5.679723,-0.67027 0.282223,-0.28223 0.352777,-1.19945 0.17639,-3.06917 l -0.246947,-2.64583 -2.99861,-0.0353 c -1.658056,0 -3.845277,0.0353 -4.868333,0.10583 z m 6.84389,2.71639 -0.03528,1.94028 -2.99861,0.21167 c -1.658057,0.10583 -3.598334,0.28222 -4.339167,0.35277 l -1.340554,0.17639 0.246944,-1.65805 c 0.105833,-0.9525 0.3175,-1.79917 0.45861,-1.94028 0.105833,-0.14111 1.658057,-0.38806 3.386667,-0.56445 5.185833,-0.52916 4.691943,-0.70555 4.62139,1.48167 z"
       id="path1408" />
    <path
       style="stroke-width:0.03527778"
       inkscape:connector-curvature="0"
       d="m 107.37204,119.59541 c -1.30528,0.59972 -1.79917,1.19944 -1.09362,1.44639 0.59973,0.24694 3.77473,-1.09362 3.77473,-1.5875 0,-0.49389 -1.37584,-0.42334 -2.68111,0.14111 z"
       id="path1410" />
    <path
       style="stroke-width:0.03527778"
       inkscape:connector-curvature="0"
       d="m -34.091855,120.54791 c -0.105833,0.21166 -0.07055,0.52916 0.141113,0.74083 0.529167,0.52917 1.975554,0.17639 2.116667,-0.52917 0.105833,-0.45861 -0.105834,-0.59972 -0.9525,-0.59972 -0.564446,0 -1.164167,0.17639 -1.30528,0.38806 z"
       id="path1412" />
    <path
       style="stroke-width:0.03527778"
       inkscape:connector-curvature="0"
       d="m -37.337409,121.11235 c 0.176388,0.91722 1.340554,1.02306 1.340554,0.14111 0,-0.52916 -0.211666,-0.74083 -0.740833,-0.74083 -0.493887,0 -0.670277,0.17639 -0.599721,0.59972 z"
       id="path1414" />
    <path
       style="stroke-width:0.03527778"
       inkscape:connector-curvature="0"
       d="m -29.505742,120.90068 c -0.246946,0.45862 0.45861,1.02306 1.305277,1.02306 0.81139,0 1.058333,-0.38806 0.635,-0.9525 -0.49389,-0.56444 -1.5875,-0.59972 -1.940277,-0.0706 z"
       id="path1416" />
    <path
       style="stroke-width:0.03527778"
       inkscape:connector-curvature="0"
       d="m -41.817685,121.21818 c -0.282224,0.42334 0.705553,0.84667 1.23472,0.52917 0.17639,-0.10583 0.35278,-0.35278 0.35278,-0.56444 0,-0.42334 -1.30528,-0.42334 -1.5875,0.0353 z"
       id="path1418" />
    <path
       style="stroke-width:0.03527778"
       inkscape:connector-curvature="0"
       d="m -24.813798,121.11235 c -0.141111,0.10583 -0.246944,0.42333 -0.246944,0.70556 0,0.56444 1.975554,0.635 2.328333,0.0706 0.423334,-0.70555 -1.481666,-1.41111 -2.081389,-0.77611 z"
       id="path1420" />
    <path
       style="stroke-width:0.03527778"
       inkscape:connector-curvature="0"
       d="m -20.651021,121.57096 c -0.3175,0.49389 0.03528,0.9525 0.881947,1.16417 0.49389,0.10583 0.81139,0 0.9525,-0.35278 0.35278,-0.84667 -1.340558,-1.62278 -1.834447,-0.81139 z"
       id="path1422" />
    <path
       style="stroke-width:0.03527778"
       inkscape:connector-curvature="0"
       d="m 99.716756,122.52346 c -1.41111,0.56445 -1.5875,1.41111 -0.28222,1.27 1.164164,-0.14111 3.210274,-1.09361 3.210274,-1.48166 0,-0.52917 -1.37583,-0.45862 -2.928054,0.21166 z"
       id="path1424" />
    <path
       style="stroke-width:0.03527778"
       inkscape:connector-curvature="0"
       d="m -15.712134,122.98207 c -0.3175,0.52917 -0.17639,0.67028 1.19945,0.91723 1.02305,0.21166 1.16416,0.14111 1.02305,-0.42334 -0.14111,-0.77611 -1.83444,-1.12889 -2.2225,-0.49389 z"
       id="path1426" />
    <path
       style="stroke-width:0.03527778"
       inkscape:connector-curvature="0"
       d="m -11.549354,123.8993 c -0.35278,0.98777 1.9755604,1.72861 2.5752804,0.81138 0.28222,-0.49388 -0.14111,-0.88194 -1.3758304,-1.16416 -0.70556,-0.17639 -1.02306,-0.0706 -1.19945,0.35278 z"
       id="path1428" />
    <path
       style="stroke-width:0.03527778"
       inkscape:connector-curvature="0"
       d="m -6.5399036,124.39318 c -0.42334,0.67028 0.35277,1.12889 1.62277,0.98778 1.69334,-0.14111 1.62278,-1.12889 -0.10583,-1.27 -0.70556,-0.0705 -1.37583,0.0706 -1.51694,0.28222 z"
       id="path1430" />
    <path
       style="stroke-width:0.03527778"
       inkscape:connector-curvature="0"
       d="m 92.414256,124.88707 c -1.41111,0.52917 -1.69333,1.48167 -0.38806,1.34056 1.12889,-0.10583 2.61056,-0.84667 2.78695,-1.41111 0.17639,-0.52917 -0.77611,-0.49389 -2.39889,0.0705 z"
       id="path1432" />
    <path
       style="stroke-width:0.03527778"
       inkscape:connector-curvature="0"
       d="m -2.1301836,126.33346 c 0,0.67028 0.84666,1.02306 1.62276995,0.74084 0.45862,-0.17639 0.49389,-0.3175 0.14112,-0.74084 -0.56445,-0.70555 -1.76388995,-0.67028 -1.76388995,0 z"
       id="path1434" />
    <path
       style="stroke-width:0.03527778"
       inkscape:connector-curvature="0"
       d="m 84.582586,127.63874 c -1.12889,0.38806 -1.34055,1.34056 -0.3175,1.34056 0.91722,0 3.21028,-0.98778 3.21028,-1.41112 0,-0.45861 -1.62278,-0.42333 -2.89278,0.0706 z"
       id="path1436" />
    <path
       style="stroke-width:0.03527778"
       inkscape:connector-curvature="0"
       d="m 0.48036635,129.08513 c -0.3175,0.88194 0,1.79917 0.67028005,1.94028 0.42333,0.10583 0.59972,-0.10584 0.59972,-0.74084 0,-1.09361 -0.95250005,-2.01083 -1.27000005,-1.19944 z"
       id="path1438" />
    <path
       style="stroke-width:0.03527778"
       inkscape:connector-curvature="0"
       d="m 78.056196,130.2493 c -1.23472,0.52916 -1.5875,1.55222 -0.52916,1.55222 0.77611,0 2.89277,-1.27 2.89277,-1.76389 0,-0.49389 -0.98777,-0.38806 -2.36361,0.21167 z"
       id="path1440" />
    <path
       style="stroke-width:0.03527778"
       inkscape:connector-curvature="0"
       d="m -51.448519,130.5668 c -2.187223,0.24694 -4.198056,0.67027 -4.480279,0.88194 -0.740834,0.635 -0.705554,4.02167 0.03528,4.7625 0.599721,0.59972 1.199444,0.56444 8.07861,-0.24694 4.903611,-0.56445 5.326944,-0.88195 4.233334,-2.96334 -0.282223,-0.56444 -0.529167,-1.30528 -0.529167,-1.62278 0,-0.77611 -1.058333,-1.34055 -2.36361,-1.30527 -0.529167,0.0353 -2.786946,0.24694 -4.974168,0.49389 z m 6.279444,2.15194 c 0.423333,0.67028 0.705556,1.34056 0.599723,1.44639 -0.282223,0.24694 -7.090833,1.16417 -8.960557,1.16417 -1.446389,0 -1.516943,-0.0706 -1.552223,-1.05834 -0.03528,-0.59972 -0.07055,-1.27 -0.105833,-1.51694 -0.03528,-0.45861 4.1275,-1.16417 7.443613,-1.27 1.72861,-0.0353 1.834443,0.0353 2.575277,1.23472 z"
       id="path1442" />
    <path
       style="stroke-width:0.03527778"
       inkscape:connector-curvature="0"
       d="m -72.474075,131.76624 c -4.092221,0.3175 -4.7625,1.12889 -3.668887,4.65667 l 0.388053,1.37583 h 2.928057 c 1.622777,0 4.1275,-0.17639 5.609167,-0.38806 2.99861,-0.45861 2.892776,-0.28222 2.434166,-4.1275 l -0.246946,-1.83444 -2.151944,0.0706 c -1.199443,0 -3.563056,0.14111 -5.291666,0.24694 z m 6.49111,2.46944 v 1.69334 l -1.622777,0.24694 c -0.917223,0.10584 -2.99861,0.21167 -4.62139,0.21167 h -2.96333 l 0.105833,-1.51695 0.105833,-1.48166 4.056944,-0.38806 c 2.2225,-0.21166 4.26861,-0.42333 4.515554,-0.45861 0.282223,-0.0353 0.423333,0.52917 0.423333,1.69333 z"
       id="path1444" />
    <path
       style="stroke-width:0.03527778"
       inkscape:connector-curvature="0"
       d="m 72.764536,132.22485 c -1.62278,0.42333 -1.62278,1.51695 -0.0353,1.19945 0.635,-0.10584 1.30528,-0.38806 1.48167,-0.56445 0.59972,-0.59972 -0.24695,-0.98778 -1.44639,-0.635 z"
       id="path1446" />
    <path
       style="stroke-width:0.03527778"
       inkscape:connector-curvature="0"
       d="m 1.0448164,134.23568 c 0,0.88195 0.67027,1.34056 1.09361,0.70556 0.42333,-0.67028 0.21166,-1.16417 -0.49389,-1.30528 -0.38806,-0.0705 -0.59972,0.10584 -0.59972,0.59972 z"
       id="path1448" />
    <path
       style="stroke-width:0.03527778"
       inkscape:connector-curvature="0"
       d="m 67.120086,133.91818 c -0.81139,0.3175 -1.12889,1.41112 -0.45861,1.41112 0.84667,0 2.8575,-1.05834 2.64583,-1.41112 -0.24694,-0.42333 -1.12888,-0.42333 -2.18722,0 z"
       id="path1450" />
    <path
       style="stroke-width:0.03527778"
       inkscape:connector-curvature="0"
       d="m 62.004816,135.36457 c -0.84667,0.49389 -0.81139,1.02306 0.10583,1.02306 0.88194,0 2.08139,-0.59972 2.08139,-1.05833 0,-0.45862 -1.41111,-0.42334 -2.18722,0.0353 z"
       id="path1452" />
    <path
       style="stroke-width:0.03527778"
       inkscape:connector-curvature="0"
       d="m 2.2089764,136.95207 c -0.28222,0.70556 0.45861,1.48167 0.9525,0.98778 0.42334,-0.42333 0.10584,-1.55222 -0.38805,-1.55222 -0.17639,0 -0.42334,0.24694 -0.56445,0.56444 z"
       id="path1454" />
    <path
       style="stroke-width:0.03527778"
       inkscape:connector-curvature="0"
       d="m 1.3975864,141.64402 c 0,0.67028 -0.17638,1.09361 -0.45861005,1.09361 -0.24694,0 -0.74083,0.21167 -1.09361,0.45861 -0.56444,0.38806 -0.56444,0.635 -0.24694,1.94028 0.74083,2.75166 2.71639005,2.75166 4.26861005,0.0353 0.84667,-1.51695 0.56444,-2.43417 -0.74083,-2.43417 -0.42334,0 -0.67028,-0.3175 -0.74084,-0.9525 -0.14111,-1.37583 -0.98778,-1.48167 -0.98778,-0.14111 z m 1.76389,2.32833 c 0,0.9525 -2.11666,2.61056 -2.11666,1.65806 0,-0.14111 -0.10584005,-0.59973 -0.21167005,-1.05834 -0.21167,-0.70555 -0.10583,-0.77611 1.05833005,-0.77611 0.70556,0 1.27,0.0706 1.27,0.17639 z"
       id="path1456" />
    <path
       style="stroke-width:0.03527778"
       inkscape:connector-curvature="0"
       d="m -51.413242,143.5843 c -1.799167,0.21166 -3.421943,0.56444 -3.63361,0.77611 -0.635,0.635 -0.635,4.33916 0,4.72722 0.670277,0.42333 3.880554,0.42333 7.972777,0 4.58611,-0.49389 4.480277,-0.42333 4.198056,-2.78695 -0.388056,-3.31611 -0.282223,-3.21027 -2.928056,-3.175 -1.305277,0.0353 -3.81,0.24695 -5.609167,0.45862 z m 7.020277,1.97555 c 0,0.56445 0.03528,1.27 0.07056,1.48167 0.03528,0.56444 -1.940276,0.88194 -6.314723,1.02305 l -3.527777,0.0706 0.07056,-1.34056 c 0.07055,-0.74083 0.176387,-1.41111 0.246943,-1.48166 0.246944,-0.24695 4.550834,-0.70556 7.020277,-0.77611 l 2.363613,-0.0353 z"
       id="path1458" />
    <path
       style="stroke-width:0.03527778"
       inkscape:connector-curvature="0"
       d="m -75.754909,145.27763 c -0.740833,0.81139 -0.423333,4.26861 0.49389,5.29167 0.599723,0.67027 0.9525,0.70555 5.3975,0.52916 2.610554,-0.0705 5.044721,-0.28222 5.3975,-0.42333 0.45861,-0.17639 0.599721,-0.67028 0.599721,-2.11667 0,-1.02305 -0.105834,-2.32833 -0.211667,-2.92805 l -0.211667,-1.09361 -5.468053,0.0705 c -4.656667,0.0706 -5.503334,0.17639 -5.997224,0.67028 z m 10.301111,2.39889 v 1.94028 l -2.116667,0.28222 c -1.164167,0.14111 -3.210277,0.21166 -4.58611,0.17639 l -2.469444,-0.10584 -0.105833,-2.01083 -0.105833,-2.01083 3.81,-0.14111 c 6.138333,-0.17639 5.573887,-0.38806 5.573887,1.86972 z"
       id="path1460" />
    <path
       style="stroke-width:0.03527778"
       inkscape:connector-curvature="0"
       d="m -54.588242,156.42541 c -0.3175,0.3175 -0.45861,1.44639 -0.45861,3.42194 0,2.57528 0.105833,3.03389 0.705554,3.35139 1.058333,0.56444 10.971389,-0.28222 11.571113,-0.98778 0.45861,-0.635 0.59972,-5.25639 0.14111,-5.96194 -0.423334,-0.67028 -11.28889,-0.45861 -11.959167,0.17639 z m 10.759723,2.75166 c 0.105834,2.57528 0.423334,2.43417 -5.856113,2.82223 l -3.986387,0.24694 0.105834,-2.36361 0.105833,-2.36361 3.45722,-0.14111 c 1.94028,-0.0706 3.598334,-0.21167 3.704167,-0.35278 0.105833,-0.10583 0.705556,-0.17639 1.30528,-0.10583 1.023053,0.10583 1.058333,0.14111 1.164166,2.25777 z"
       id="path1462" />
    <path
       style="stroke-width:0.03527778"
       inkscape:connector-curvature="0"
       d="m -76.248796,157.80124 c 0,0.17639 -0.07056,0.84667 -0.141113,1.51694 -0.105833,0.67028 -0.07055,2.01084 0.03528,2.92806 0.3175,2.54 1.023054,2.75167 7.549444,2.29306 2.82222,-0.21167 5.22111,-0.45862 5.36222,-0.59973 0.141113,-0.14111 0.105833,-0.77611 -0.07055,-1.44639 -0.17639,-0.67027 -0.388056,-1.86972 -0.458613,-2.61055 -0.14111,-1.23472 -0.28222,-1.44639 -1.340553,-1.83445 -1.30528,-0.49388 -10.900834,-0.67027 -10.936111,-0.24694 z m 11.112498,3.13972 c 0.141113,1.09361 0.176389,2.04611 0.141113,2.08139 -0.07056,0.0706 -2.363613,0.21167 -5.11528,0.35278 l -5.04472,0.24694 v -2.32833 -2.32833 h 4.90361 4.868333 z"
       id="path1464" />
    <path
       style="stroke-width:0.03527778"
       inkscape:connector-curvature="0"
       d="m -23.755465,9.2818022 c -0.3175,1.1288898 -0.670277,2.6458298 -0.81139,3.3866698 -0.352777,2.11666 1.023057,4.62138 1.516946,2.71638 0.141111,-0.56444 0.3175,-0.635 0.881944,-0.3175 0.81139,0.42334 2.928061,0.28223 2.892781,-0.21166 -0.0353,-0.21167 -0.705558,-0.67028 -1.516948,-1.02306 -1.658056,-0.77611 -1.834443,-1.34055 -0.564443,-1.905 1.340554,-0.59972 1.128887,-1.27 -0.35278,-1.02305 -1.199443,0.21166 -1.23472,0.17639 -0.987777,-0.74084 0.388057,-1.4463898 0.3175,-2.6458298 -0.105833,-2.7869398 -0.211667,-0.0706 -0.635,0.74083 -0.9525,1.905 z"
       id="path1466" />
    <path
       style="stroke-width:0.03527778"
       inkscape:connector-curvature="0"
       d="m -91.382962,9.6345822 c -0.635,0.4938898 -1.516947,1.5522198 -2.010834,2.3283298 -1.446389,2.29306 -0.776112,3.31611 3.139721,4.86833 2.293056,0.88195 2.575279,1.30528 1.622779,2.32834 -0.635,0.67027 -1.128889,0.81139 -2.998613,0.81139 -2.36361,0 -2.68111,0.28222 -1.693333,1.62277 0.458613,0.67028 0.67028,0.70556 2.010833,0.38806 2.54,-0.56445 3.03389,-0.88195 4.021667,-2.39889 1.234723,-2.01083 0.846667,-2.89278 -1.905,-4.05694 -2.82222,-1.19945 -3.069167,-1.37584 -3.175,-2.15195 -0.105833,-0.81139 1.481667,-2.8575 2.54,-3.28083 0.423333,-0.1411098 0.917223,-0.1058398 1.199446,0.10583 0.599721,0.45861 0.881944,0.10583 0.599721,-0.7761098 -0.3175,-1.05833 -1.975554,-0.9525 -3.351387,0.21167 z"
       id="path1468" />
    <path
       style="stroke-width:0.03527778"
       inkscape:connector-curvature="0"
       d="m -26.471855,12.104022 c -0.45861,1.94028 -1.23472,2.96333 -2.010833,2.68111 -0.388054,-0.14111 -0.45861,-0.56444 -0.282221,-1.905 0.211667,-1.41111 0.141111,-1.72861 -0.282223,-1.72861 -0.670277,0 -0.9525,0.74083 -0.9525,2.61056 0,3.81 3.880557,3.06916 4.586111,-0.88195 0.493889,-2.75166 -0.388054,-3.3866598 -1.058334,-0.77611 z"
       id="path1470" />
    <path
       style="stroke-width:0.03527778"
       inkscape:connector-curvature="0"
       d="m -45.486575,12.527352 c -1.12889,1.05834 -1.41111,2.32834 -0.740834,3.59834 0.458611,0.81139 2.187224,0.91722 2.8575,0.10583 0.246944,-0.3175 0.776111,-0.49389 1.27,-0.38805 1.023057,0.17638 1.375834,-0.3175 0.740834,-1.05834 -0.246944,-0.3175 -0.45861,-0.9525 -0.45861,-1.44639 0,-1.41111 -0.67028,-1.23472 -1.411113,0.35278 -0.388054,0.84667 -0.987777,1.55222 -1.305277,1.62278 -1.058334,0.21167 -0.740834,-1.27 0.423333,-2.29306 1.058333,-0.84666 1.12889,-1.51694 0.17639,-1.51694 -0.246946,0 -0.9525,0.45861 -1.552223,1.02305 z"
       id="path1472" />
    <path
       style="stroke-width:0.03527778"
       inkscape:connector-curvature="0"
       d="m -39.277685,12.104022 c -1.481667,1.69333 -0.846667,4.33917 1.09361,4.33917 1.199443,0 2.010833,-0.49389 1.693333,-1.02306 -0.141113,-0.21166 -0.635,-0.38805 -1.12889,-0.38805 -1.305277,0 -1.481666,-1.02306 -0.388056,-1.97556 0.529167,-0.45861 0.9525,-0.98778 0.9525,-1.19944 0,-0.59973 -1.622777,-0.38806 -2.222497,0.24694 z"
       id="path1474" />
    <path
       style="stroke-width:0.03527778"
       inkscape:connector-curvature="0"
       d="m -57.057685,13.832632 c -1.340557,1.02306 -1.552224,2.50472 -0.529167,3.42195 0.811387,0.74083 1.446387,0.74083 2.398887,0.0706 0.599723,-0.42333 0.9525,-0.42333 1.869723,-0.0706 0.917223,0.3175 1.199444,0.3175 1.658057,-0.17639 0.529166,-0.52917 0.493887,-0.59972 -0.423334,-1.05834 -0.776113,-0.35277 -1.058333,-0.74083 -1.12889,-1.65805 -0.105833,-0.9525 -0.246943,-1.12889 -0.811389,-0.98778 -0.352777,0.10583 -0.670277,0.0353 -0.670277,-0.14111 0,-0.59972 -1.234723,-0.3175 -2.36361,0.59972 z m 2.716387,0.35278 c 0,0.635 -1.305277,2.25778 -1.763887,2.18722 -0.9525,-0.21166 -0.81139,-1.27 0.246943,-1.83444 1.058333,-0.56445 1.516944,-0.67028 1.516944,-0.35278 z"
       id="path1476" />
    <path
       style="stroke-width:0.03527778"
       inkscape:connector-curvature="0"
       d="m -61.679075,13.620972 c -0.423334,0.17638 -1.023057,0.88194 -1.340557,1.51694 -0.529166,1.09361 -0.529166,1.27 0,2.29306 0.49389,0.9525 0.776113,1.12888 1.834447,1.12888 0.670276,0 1.55222,-0.17638 1.940276,-0.35277 0.740834,-0.42334 0.9525,-1.48167 0.246944,-1.23473 -1.27,0.45862 -2.398887,0.42334 -2.786944,-0.0353 -0.211666,-0.28223 -0.352776,-0.52917 -0.282223,-0.59973 0.07056,-0.0353 0.635,-0.35277 1.199447,-0.67027 1.446387,-0.81139 1.905,-1.62278 1.23472,-2.04611 -0.635,-0.42334 -0.987777,-0.42334 -2.04611,0 z"
       id="path1478" />
    <path
       style="stroke-width:0.03527778"
       inkscape:connector-curvature="0"
       d="m 328.24619,13.620972 c -0.1411,0.21166 -0.1411,1.02305 0,1.76388 0.1764,1.12889 0.14113,1.41112 -0.3175,1.41112 -1.05833,0 -2.32833,0.81138 -2.32833,1.48166 0,0.67028 0.10583,0.635 1.5875,-0.21166 l 1.62279,-0.88195 0.56444,1.19945 c 0.3175,0.67027 0.74083,1.23472 0.91723,1.23472 0.52917,0 2.61054,-2.43417 3.24554,-3.77472 0.98779,-2.08139 0.70556,-2.39889 -2.36361,-2.50473 -1.65806,-0.0706 -2.78693,0.0353 -2.92806,0.28223 z m 4.37446,1.27 c 0.21167,0.21166 -1.37583,2.54 -1.905,2.75166 -0.35279,0.10584 -0.59973,-0.21166 -0.88196,-1.12889 -0.56444,-2.04611 -0.49387,-2.15194 1.16417,-1.94027 0.81139,0.10583 1.55223,0.24694 1.62279,0.3175 z"
       id="path1480" />
    <path
       style="stroke-width:0.03527778"
       inkscape:connector-curvature="0"
       d="m 362.28925,13.832632 c 0,0.635 0.9525,1.51695 1.69334,1.55222 0.70556,0 0.4939,-0.98777 -0.35277,-1.55222 -1.02307,-0.70555 -1.34057,-0.70555 -1.34057,0 z"
       id="path1482" />
    <path
       style="stroke-width:0.03527778"
       inkscape:connector-curvature="0"
       d="m -70.992409,14.326522 c -1.058333,0.81139 -1.552223,0.88195 -1.799166,0.24695 -0.17639,-0.52917 -0.246944,-0.45862 -1.128887,1.34055 -0.846667,1.69333 -1.375834,1.79917 -1.516947,0.24695 -0.14111,-1.51695 -1.058333,-1.51695 -1.199443,0 -0.07056,0.77611 -0.3175,1.19944 -0.705557,1.27 -0.846666,0.17638 -0.811387,-0.67028 0.07056,-1.79917 0.388056,-0.49389 0.705556,-1.05833 0.705556,-1.27 0,-0.74083 -0.670279,-0.38806 -1.5875,0.81139 -1.199446,1.5875 -1.128889,3.4925 0.141111,3.66889 0.45861,0.0705 0.987776,-0.0353 1.164166,-0.21167 0.246944,-0.24694 0.635,-0.24694 1.199444,0 0.635,0.28222 0.9525,0.28222 1.411113,-0.10583 0.3175,-0.28223 0.881943,-0.45861 1.23472,-0.38806 0.45861,0.0706 0.846667,-0.3175 1.375833,-1.30528 0.846667,-1.69333 1.76389,-1.94027 1.76389,-0.45861 0,0.56445 0.246944,1.30528 0.564444,1.69334 0.49389,0.635 0.529166,0.52916 0.388056,-1.37584 -0.07056,-1.16416 -0.352779,-2.25778 -0.670279,-2.57528 -0.458611,-0.45861 -0.599721,-0.42333 -1.411111,0.21167 z"
       id="path1484" />
    <path
       style="stroke-width:0.03527778"
       inkscape:connector-curvature="0"
       d="m -67.394075,14.150132 c -0.599723,0.70556 -0.17639,2.18722 0.740833,2.46945 0.881944,0.28222 0.705557,1.02305 -0.3175,1.16416 -0.9525,0.14111 -1.09361,1.48167 -0.14111,1.48167 0.705554,-0.0353 2.293054,-1.34056 2.610554,-2.18722 0.141113,-0.35278 -0.03528,-0.81139 -0.458611,-1.16417 -0.45861,-0.42333 -0.599723,-0.88194 -0.45861,-1.44639 0.176387,-0.70555 0.07055,-0.84666 -0.670279,-0.84666 -0.458611,0 -1.058334,0.24694 -1.305277,0.52916 z"
       id="path1486" />
    <path
       style="stroke-width:0.03527778"
       inkscape:connector-curvature="0"
       d="m -80.270462,15.702352 c -0.98778,1.97556 -1.516947,2.46945 -1.975557,1.76389 -0.211666,-0.38805 -0.388056,-0.35277 -0.9525,0.14111 -0.9525,0.84667 -1.058333,0.77612 -1.340556,-0.98777 -0.282221,-2.11667 -1.058334,-1.905 -0.917221,0.21166 0.07055,0.84667 0.352777,1.905 0.635,2.36361 0.458611,0.67028 0.635,0.74084 1.305277,0.35278 0.423334,-0.21166 1.164167,-0.42333 1.658057,-0.42333 0.740833,-0.0353 1.09361,-0.42333 2.010833,-2.32833 1.23472,-2.54 1.305277,-2.82223 0.811387,-2.82223 -0.176387,0 -0.740833,0.77611 -1.23472,1.72861 z"
       id="path1488" />
    <path
       style="stroke-width:0.03527778"
       inkscape:connector-curvature="0"
       d="m -33.421575,14.538192 c -0.282223,0.74083 0.45861,1.48166 0.987777,0.9525 0.45861,-0.45861 0.176389,-1.51695 -0.388057,-1.51695 -0.211666,0 -0.45861,0.24695 -0.59972,0.56445 z"
       id="path1490" />
    <path
       style="stroke-width:0.03527778"
       inkscape:connector-curvature="0"
       d="m -50.107965,15.737632 c 0,0.52917 0.17639,0.70556 0.635,0.635 0.3175,-0.0706 0.599723,-0.35278 0.599723,-0.635 0,-0.28222 -0.282223,-0.56444 -0.599723,-0.635 -0.45861,-0.0705 -0.635,0.10584 -0.635,0.635 z"
       id="path1492" />
    <path
       style="stroke-width:0.03527778"
       inkscape:connector-curvature="0"
       d="m 322.35482,19.335972 c -1.05833,0.38805 -1.27,0.88194 -0.4939,1.19944 0.635,0.24694 2.75167,-0.84667 2.50473,-1.27 -0.24696,-0.42333 -0.74083,-0.42333 -2.01083,0.0706 z"
       id="path1494" />
    <path
       style="stroke-width:0.03527778"
       inkscape:connector-curvature="0"
       d="m 313.53536,23.534022 c -0.35277,0.17639 -0.635,0.59972 -0.635,0.91722 0,0.42334 0.21166,0.49389 0.9525,0.28222 1.79916,-0.42333 2.57529,-1.58749 1.09363,-1.58749 -0.45863,0 -1.09363,0.17638 -1.41113,0.38805 z"
       id="path1496" />
    <path
       style="stroke-width:0.03527778"
       inkscape:connector-curvature="0"
       d="m 367.22815,23.322352 c 0,0.49389 1.12887,2.29306 1.4111,2.29306 0.4939,0 0.42334,-1.55222 -0.0706,-2.04611 -0.42333,-0.42333 -1.34054,-0.59972 -1.34054,-0.24695 z"
       id="path1498" />
    <path
       style="stroke-width:0.03527778"
       inkscape:connector-curvature="0"
       d="m 308.77286,25.439022 c -0.10584,0.3175 -0.10584,0.67028 0.0353,0.77611 0.3175,0.35278 2.0461,-0.56444 1.79917,-0.9525 -0.3528,-0.56444 -1.5875,-0.42333 -1.83446,0.17639 z"
       id="path1500" />
    <path
       style="stroke-width:0.03527778"
       inkscape:connector-curvature="0"
       d="m 301.89369,28.472912 c -1.65804,1.09361 -2.11667,1.72861 -1.2347,1.72861 0.70553,-0.0353 3.9511,-1.905 3.88053,-2.29306 -0.1411,-0.70555 -1.02303,-0.49388 -2.64583,0.56445 z"
       id="path1502" />
    <path
       style="stroke-width:0.03527778"
       inkscape:connector-curvature="0"
       d="m 369.69759,30.166242 c 0,1.16417 0.38806,1.79917 1.0936,1.79917 0.56446,0 0.635,-0.17639 0.45863,-0.98778 -0.3175,-1.30528 -0.45863,-1.48167 -1.05833,-1.48167 -0.28224,0 -0.4939,0.3175 -0.4939,0.67028 z"
       id="path1504" />
    <path
       style="stroke-width:0.03527778"
       inkscape:connector-curvature="0"
       d="m 293.95619,32.353462 c -1.44637,0.70556 -2.0461,1.72862 -1.02304,1.72862 0.67027,0 3.73944,-1.76389 3.73944,-2.15195 0,-0.52917 -1.16417,-0.35278 -2.7164,0.42333 z"
       id="path1506" />
    <path
       style="stroke-width:0.03527778"
       inkscape:connector-curvature="0"
       d="m 286.72425,36.234022 c -1.23473,0.635 -1.83443,1.72861 -0.98776,1.72861 0.81137,0 3.175,-1.44639 3.175,-1.94028 0,-0.70555 -0.59974,-0.635 -2.18724,0.21167 z"
       id="path1508" />
    <path
       style="stroke-width:0.03527778"
       inkscape:connector-curvature="0"
       d="m 371.46149,36.551522 c 0,0.9525 1.05833,3.52778 1.44637,3.52778 0.67029,0 0.67029,-0.98778 0,-2.57528 -0.74084,-1.72861 -1.44637,-2.18722 -1.44637,-0.9525 z"
       id="path1510" />
    <path
       style="stroke-width:0.03527778"
       inkscape:connector-curvature="0"
       d="m 277.90482,40.643742 c -0.9525,0.45861 -1.69333,1.02306 -1.69333,1.19945 0,0.67027 0.70553,0.70555 1.83443,0.0705 0.635,-0.35278 1.55223,-0.84666 2.01083,-1.09361 0.67027,-0.35278 0.74084,-0.52917 0.35277,-0.77611 -0.635,-0.38806 -0.5997,-0.42333 -2.5047,0.59972 z"
       id="path1512" />
    <path
       style="stroke-width:0.03527778"
       inkscape:connector-curvature="0"
       d="m 373.57815,45.229852 c 0,1.27 0.74084,4.02167 1.0936,4.02167 0.635,0 0.74084,-0.88194 0.3175,-2.8575 -0.4586,-2.15194 -1.4111,-2.92806 -1.4111,-1.16417 z"
       id="path1514" />
    <path
       style="stroke-width:0.03527778"
       inkscape:connector-curvature="0"
       d="m 267.70952,45.194582 c -1.62277,0.59972 -4.19803,2.18722 -4.19803,2.64583 0,0.17639 0.1411,0.38805 0.2822,0.49389 0.45863,0.28222 6.45583,-2.96334 6.24417,-3.35139 -0.28221,-0.42333 -0.77611,-0.38806 -2.32834,0.21167 z"
       id="path1516" />
    <path
       style="stroke-width:0.03527778"
       inkscape:connector-curvature="0"
       d="m 257.09092,50.662632 c -1.48167,0.81139 -1.905,1.34056 -1.4464,1.79917 0.38807,0.38805 3.6689,-1.34056 3.91584,-2.08139 0.21166,-0.635 -0.98777,-0.49389 -2.46944,0.28222 z"
       id="path1518" />
    <path
       style="stroke-width:0.03527778"
       inkscape:connector-curvature="0"
       d="m 249.50619,55.037082 c -0.84667,0.74083 -0.9172,0.88194 -0.38804,1.09361 0.635,0.24694 3.10444,-1.02306 3.10444,-1.62278 0,-0.635 -1.7639,-0.28222 -2.7164,0.52917 z"
       id="path1520" />
    <path
       style="stroke-width:0.03527778"
       inkscape:connector-curvature="0"
       d="m 374.81286,55.213462 c -0.3175,0.56445 0.17639,2.78695 0.74083,3.24556 0.77613,0.635 0.9525,0.14111 0.635,-1.65806 -0.3175,-1.62277 -0.9172,-2.32833 -1.37583,-1.5875 z"
       id="path1522" />
    <path
       style="stroke-width:0.03527778"
       inkscape:connector-curvature="0"
       d="m 243.68536,58.106242 c -0.67027,0.38806 -0.88194,1.37584 -0.28221,1.37584 0.70554,0 2.11667,-0.84667 2.11667,-1.30528 0,-0.52917 -0.9878,-0.59972 -1.83446,-0.0706 z"
       id="path1524" />
    <path
       style="stroke-width:0.03527778"
       inkscape:connector-curvature="0"
       d="m 236.10065,61.951522 c -1.09363,0.67028 -1.5875,1.76389 -0.77613,1.76389 0.6703,0 3.4925,-1.83445 3.28084,-2.15195 -0.3175,-0.52916 -1.30527,-0.35277 -2.50471,0.38806 z"
       id="path1526" />
    <path
       style="stroke-width:0.03527778"
       inkscape:connector-curvature="0"
       d="m 375.23619,62.904022 c -0.3175,0.28222 -0.3175,3.38667 -0.0353,4.1275 0.10583,0.3175 0.42333,0.56444 0.67027,0.56444 0.3175,0 0.42333,-0.70555 0.38806,-2.46944 -0.0353,-2.29306 -0.35276,-2.92806 -1.02306,-2.2225 z"
       id="path1528" />
    <path
       style="stroke-width:0.03527778"
       inkscape:connector-curvature="0"
       d="m 228.69232,65.832072 c -0.84667,0.35278 -1.51696,0.81139 -1.51696,1.02306 0,0.77611 0.77613,0.74083 2.46946,-0.14111 2.8575,-1.44639 2.01083,-2.25778 -0.9525,-0.88195 z"
       id="path1530" />
    <path
       style="stroke-width:0.03527778"
       inkscape:connector-curvature="0"
       d="m 219.87286,69.959572 c -1.19944,0.59973 -1.55221,1.51695 -0.59971,1.51695 0.7761,0 2.64584,-1.12889 2.50471,-1.55222 -0.17637,-0.56445 -0.70554,-0.56445 -1.905,0.0353 z"
       id="path1532" />
    <path
       style="stroke-width:0.03527778"
       inkscape:connector-curvature="0"
       d="m 375.34202,73.734302 c 0,1.5875 0.635,3.24555 1.05834,2.82222 0.49389,-0.49389 0,-4.02167 -0.56444,-4.02167 -0.3175,0 -0.4939,0.42334 -0.4939,1.19945 z"
       id="path1534" />
    <path
       style="stroke-width:0.03527778"
       inkscape:connector-curvature="0"
       d="m 211.01815,73.981242 c -1.09363,0.3175 -1.79916,1.16417 -1.37583,1.5875 0.2822,0.28222 3.3161,-0.91722 3.81,-1.48167 0.3175,-0.38805 0.24693,-0.49388 -0.42333,-0.45861 -0.45863,0 -1.37584,0.17639 -2.01084,0.35278 z"
       id="path1536" />
    <path
       style="stroke-width:0.03527778"
       inkscape:connector-curvature="0"
       d="m 202.48092,77.579572 c -0.88193,0.42334 -1.62277,1.05834 -1.69333,1.37584 -0.1764,0.88194 0.21166,0.81139 2.50473,-0.45861 3.10443,-1.65806 2.3636,-2.46945 -0.8114,-0.91723 z"
       id="path1538" />
    <path
       style="stroke-width:0.03527778"
       inkscape:connector-curvature="0"
       d="m 375.48315,80.437072 c -0.10583,0.3175 -0.10583,1.30528 0.0353,2.18723 l 0.21167,1.5875 -1.4111,0.59972 c -0.8114,0.3175 -1.4464,0.77611 -1.4464,0.98778 0,0.84666 2.25777,4.445 3.0339,4.79777 1.12887,0.52917 1.34053,0.24695 2.08137,-2.54 0.9525,-3.45722 0.88196,-4.02166 -0.24694,-4.16277 -1.02306,-0.10584 -1.05833,-0.21167 -1.1289,-2.8575 -0.0353,-0.98778 -0.81137,-1.41111 -1.12887,-0.59973 z m 1.62277,5.3975 c 0,0.17639 -0.1764,0.88195 -0.38806,1.5875 -0.35277,1.41112 -1.16417,1.76389 -1.48167,0.70556 -0.0705,-0.3175 -0.2822,-0.88194 -0.42333,-1.19944 -0.17637,-0.45862 -0.0353,-0.70556 0.56446,-0.9525 1.05833,-0.42334 1.7286,-0.45862 1.7286,-0.14112 z"
       id="path1540" />
    <path
       style="stroke-width:0.03527778"
       inkscape:connector-curvature="0"
       d="m 193.41452,81.989302 c -1.79916,0.88194 -2.46943,1.83444 -1.34053,1.83444 0.67026,0 4.7625,-2.18722 4.7625,-2.54 0,-0.56444 -1.6228,-0.21167 -3.42197,0.70556 z"
       id="path1542" />
    <path
       style="stroke-width:0.03527778"
       inkscape:connector-curvature="0"
       d="m 182.65482,87.175132 c -1.86973,0.98778 -2.32833,1.51694 -1.5875,1.79917 0.52917,0.21166 4.62137,-1.69334 5.00943,-2.32834 0.42334,-0.67027 -1.7286,-0.3175 -3.42193,0.52917 z"
       id="path1544" />
    <path
       style="stroke-width:0.03527778"
       inkscape:connector-curvature="0"
       d="m 372.97842,91.232072 c -0.0706,0.10584 -2.64583,0.17639 -5.67973,0.21167 -6.77333,0.0353 -8.89,0.35278 -8.89,1.16417 0,0.56444 0.24696,0.56444 2.3989,0.3175 4.9389,-0.67028 40.42833,-0.10584 47.34277,0.70555 l 1.94029,0.24695 0.17637,3.175 c 0.10584,1.72861 0.1764,3.245548 0.10584,3.280828 -0.0353,0.0706 -5.25637,-0.0353 -11.64167,-0.24694 -6.35,-0.211668 -18.2386,-0.564448 -26.38777,-0.776118 -8.1139,-0.17638 -14.85193,-0.42333 -14.95777,-0.49388 -0.0706,-0.10584 -0.14113,-1.65806 -0.1764,-3.52778 -0.0353,-1.83445 -0.1411,-3.35139 -0.28223,-3.35139 -1.12887,0 -1.16416,4.19805 -0.10583,16.580548 0.84667,9.91306 0.84667,19.01473 0,26.84639 l -0.21167,1.97556 1.69334,0.0353 c 0.91723,0.0353 10.12473,0.10583 20.39056,0.21166 10.3011,0.0706 20.99027,0.3175 23.8125,0.52917 2.82223,0.21167 7.90223,0.45861 11.2889,0.59972 l 6.1736,0.21167 1.02307,-1.05833 c 0.84666,-0.91723 1.02303,-1.41112 0.98776,-2.78695 0,-0.91722 -0.10583,-10.19528 -0.21166,-20.56694 -0.21167,-19.402778 -0.35277,-21.660558 -1.62277,-22.048608 -0.3528,-0.10584 -2.11667,0 -3.91583,0.24694 -3.88057,0.49389 -3.9864,0.49389 -8.6078,-0.0353 -1.94027,-0.21166 -7.65527,-0.49389 -12.7,-0.59972 -5.0447,-0.10583 -9.73667,-0.3175 -10.40694,-0.49389 -1.27,-0.35278 -11.21833,-0.67028 -11.53583,-0.35278 z m 47.1311,3.91584 c 0.21167,0.635 0.38807,2.15194 0.38807,3.35139 v 2.257768 h -4.05694 c -4.79779,0 -4.7625,0.0353 -4.7625,-4.021658 v -2.68111 h 4.02167 4.02167 z m -13.22916,6.349998 c 7.33779,0.35277 13.40556,0.70555 13.47613,0.74083 0.0353,0.0706 0.1411,7.79639 0.17637,17.18028 0.0706,16.33361 0.0706,17.07444 -0.56444,17.53305 -0.84667,0.635 -3.4925,0.635 -16.93333,-0.0353 -5.82084,-0.28223 -17.0039,-0.52917 -24.87084,-0.56445 -7.86693,0 -15.62806,-0.14111 -17.25083,-0.24694 l -2.92806,-0.24695 -0.0353,-1.94028 c 0,-1.05833 0.10583,-5.60916 0.24693,-10.05416 0.21167,-6.24417 0.14113,-9.56028 -0.2822,-14.46389 -0.3175,-3.45722 -0.56446,-6.94972 -0.56446,-7.69056 v -1.37583 l 18.0975,0.24694 c 9.91306,0.10584 24.09473,0.52917 31.4325,0.91723 z"
       id="path1546" />
    <path
       style="stroke-width:0.03527778"
       inkscape:connector-curvature="0"
       d="m 413.79482,95.606522 c 0,0.28222 0.17637,0.635 0.38804,0.77611 0.21166,0.14111 0.28223,0.70555 0.14113,1.41111 -0.21167,1.30528 -0.14113,1.37583 0.9172,0.81139 0.52917,-0.28222 0.9525,-0.21167 1.86973,0.35278 0.635,0.42333 1.4464,0.74083 1.7639,0.74083 0.84667,0 0.67027,-0.91722 -0.3175,-1.55222 -1.02307,-0.67028 -1.1289,-1.19945 -0.28223,-1.83445 0.9525,-0.67027 0.28223,-1.02305 -0.9525,-0.49389 -0.91723,0.38806 -1.16417,0.35278 -1.7286,-0.14111 -0.77613,-0.70555 -1.79917,-0.74083 -1.79917,-0.0705 z"
       id="path1548" />
    <path
       style="stroke-width:0.03527778"
       inkscape:connector-curvature="0"
       d="m 371.63786,104.2143 c -1.79917,0.14111 -2.29304,0.59972 -2.29304,1.97555 0,1.76389 0.4586,2.11667 2.3636,2.01083 1.94027,-0.10583 2.2225,-0.38805 2.2225,-2.36361 0,-1.65805 -0.21167,-1.79916 -2.29306,-1.62277 z m 1.23473,1.79916 c 0,0.77611 -1.65807,1.34056 -2.2225,0.77611 -0.635,-0.635 0.0353,-1.44639 1.16416,-1.44639 0.8114,0 1.05834,0.17639 1.05834,0.67028 z"
       id="path1550" />
    <path
       style="stroke-width:0.03527778"
       inkscape:connector-curvature="0"
       d="m 384.47899,105.23735 c -0.1764,0.52917 -0.3175,1.51695 -0.24697,2.18722 l 0.10584,1.27 2.11666,0.0353 c 1.16417,0.0353 2.32834,-0.10583 2.5753,-0.28222 0.24693,-0.21167 0.42333,-1.16417 0.42333,-2.25778 v -1.905 h -2.29306 c -2.18723,0 -2.32834,0.0353 -2.6811,0.9525 z m 3.73943,1.16417 c 0,0.77611 -0.1764,0.88194 -1.48167,0.98778 -1.27,0.10583 -1.51693,0 -1.51693,-0.52917 0,-0.98778 0.74083,-1.55222 1.94027,-1.44639 0.88193,0.0706 1.05833,0.28222 1.05833,0.98778 z"
       id="path1552" />
    <path
       style="stroke-width:0.03527778"
       inkscape:connector-curvature="0"
       d="m 400.91842,105.06096 c -0.3175,0.9525 -0.42333,3.31611 -0.1411,3.84528 0.21167,0.42333 0.74083,0.52917 2.46943,0.45861 1.19944,-0.0705 2.32834,-0.24694 2.54,-0.45861 0.1764,-0.17639 0.35277,-1.16417 0.38807,-2.2225 l 0.0353,-1.86972 -2.57527,-0.10584 c -1.83446,-0.0705 -2.61057,0.0353 -2.7164,0.35278 z m 4.1275,1.51695 c -0.21167,1.41111 -0.42333,1.5875 -1.83443,1.5875 -1.23474,0 -1.41113,-0.10584 -1.41113,-0.81139 0,-1.16417 0.70556,-1.69334 2.11666,-1.5875 1.02307,0.0705 1.19947,0.24694 1.1289,0.81139 z"
       id="path1554" />
    <path
       style="stroke-width:0.03527778"
       inkscape:connector-curvature="0"
       d="m 375.76536,108.80041 c -0.24694,0.17639 -0.52917,1.12889 -0.67027,2.15194 l -0.21167,1.83445 2.25777,-0.10584 2.2578,-0.10583 0.21166,-1.5875 c 0.17637,-1.23472 0.0705,-1.69333 -0.35279,-2.01083 -0.635,-0.49389 -2.82221,-0.59973 -3.4925,-0.17639 z m 2.75166,2.01083 c 0,0.74083 -0.17637,0.88194 -1.02303,0.88194 -0.59974,0 -1.16417,-0.17638 -1.27,-0.35277 -0.45863,-0.74084 0.1411,-1.41111 1.2347,-1.41111 0.88196,0 1.05833,0.14111 1.05833,0.88194 z"
       id="path1556" />
    <path
       style="stroke-width:0.03527778"
       inkscape:connector-curvature="0"
       d="m 391.18175,108.94152 c -0.59973,0.24694 -0.70556,0.52916 -0.59973,2.29305 l 0.10584,2.04611 h 2.11666 c 2.0814,0 2.0814,0 2.5753,-1.30527 0.2822,-0.70556 0.42333,-1.69334 0.2822,-2.18723 -0.17637,-0.74083 -0.4586,-0.88194 -2.01083,-0.98777 -0.9525,-0.0353 -2.08137,0 -2.46944,0.14111 z m 3.21027,1.83444 c 0,0.45861 -0.24693,1.02306 -0.49387,1.27 -0.74083,0.56445 -2.11666,0.3175 -2.25779,-0.45861 -0.24694,-1.16417 0.21166,-1.65805 1.51696,-1.65805 1.05833,0 1.2347,0.10583 1.2347,0.84666 z"
       id="path1558" />
    <path
       style="stroke-width:0.03527778"
       inkscape:connector-curvature="0"
       d="m 171.36592,92.890132 c -1.905,0.84667 -2.7164,1.86972 -1.51693,1.86972 0.9172,0 4.05693,-1.79916 4.05693,-2.32833 0,-0.67028 -0.21167,-0.635 -2.54,0.45861 z"
       id="path1560" />
    <path
       style="stroke-width:0.03527778"
       inkscape:connector-curvature="0"
       d="m 162.72286,97.511522 c -1.72861,0.84666 -2.46944,1.83444 -1.44637,1.83444 0.81137,0 4.19803,-1.86972 4.05693,-2.25778 -0.21167,-0.635 -0.74083,-0.52916 -2.61056,0.42334 z"
       id="path1562" />
    <path
       style="stroke-width:0.03527778"
       inkscape:connector-curvature="0"
       d="m 154.07982,101.14513 c -1.4464,0.74083 -1.72863,1.37583 -0.6703,1.37583 0.91723,0 3.91584,-1.37583 3.91584,-1.76389 0,-0.59972 -1.86971,-0.35277 -3.24554,0.38806 z"
       id="path1564" />
    <path
       style="stroke-width:0.03527778"
       inkscape:connector-curvature="0"
       d="m 147.90619,103.22652 c -0.9172,0.35278 -1.0936,1.05833 -0.3175,1.05833 0.84667,0 2.32833,-0.67028 2.32833,-1.05833 0,-0.42334 -0.9525,-0.42334 -2.01083,0 z"
       id="path1566" />
    <path
       style="stroke-width:0.03527778"
       inkscape:connector-curvature="0"
       d="m 140.39203,105.97818 c -1.5875,0.635 -2.25777,1.76389 -0.88194,1.55223 1.30528,-0.24695 4.05694,-1.55223 3.84528,-1.86973 -0.28222,-0.45861 -1.16417,-0.35277 -2.96334,0.3175 z"
       id="path1568" />
    <path
       style="stroke-width:0.03527778"
       inkscape:connector-curvature="0"
       d="m -32.363242,319.02068 c -0.458613,0.0706 -0.81139,0.3175 -0.81139,0.4939 0,0.49387 1.199444,0.38804 1.975557,-0.21167 0.705554,-0.52916 0.45861,-0.59973 -1.164167,-0.28223 z"
       id="path1570" />
  </g>
</svg>
