<?xml version="1.0" encoding="UTF-8" standalone="no"?>
<!-- Created with Inkscape (http://www.inkscape.org/) -->

<svg
   xmlns:dc="http://purl.org/dc/elements/1.1/"
   xmlns:cc="http://creativecommons.org/ns#"
   xmlns:rdf="http://www.w3.org/1999/02/22-rdf-syntax-ns#"
   xmlns:svg="http://www.w3.org/2000/svg"
   xmlns="http://www.w3.org/2000/svg"
   xmlns:sodipodi="http://sodipodi.sourceforge.net/DTD/sodipodi-0.dtd"
   xmlns:inkscape="http://www.inkscape.org/namespaces/inkscape"
   width="154.69806mm"
   height="83.440498mm"
   viewBox="0 0 154.69806 83.440498"
   version="1.1"
   id="svg5958"
   inkscape:version="0.92.5 (2060ec1f9f, 2020-04-08)"
   sodipodi:docname="interrupt_preempt.svg">
  <defs
     id="defs5952" />
  <sodipodi:namedview
     id="base"
     pagecolor="#ffffff"
     bordercolor="#666666"
     borderopacity="1.0"
     inkscape:pageopacity="0.0"
     inkscape:pageshadow="2"
     inkscape:zoom="0.35"
     inkscape:cx="-757.09029"
     inkscape:cy="-237.44938"
     inkscape:document-units="mm"
     inkscape:current-layer="layer1"
     showgrid="false"
     fit-margin-right="-0.3"
     fit-margin-top="0"
     fit-margin-left="0"
     fit-margin-bottom="0"
     inkscape:window-width="958"
     inkscape:window-height="1057"
     inkscape:window-x="2880"
     inkscape:window-y="0"
     inkscape:window-maximized="0"
     showguides="false" />
  <metadata
     id="metadata5955">
    <rdf:RDF>
      <cc:Work
         rdf:about="">
        <dc:format>image/svg+xml</dc:format>
        <dc:type
           rdf:resource="http://purl.org/dc/dcmitype/StillImage" />
        <dc:title></dc:title>
      </cc:Work>
    </rdf:RDF>
  </metadata>
  <g
     inkscape:label="Layer 1"
     inkscape:groupmode="layer"
     id="layer1"
     transform="translate(-32.870021,-2.5676851)">
    <path
       style="stroke-width:0.03527778"
       inkscape:connector-curvature="0"
       d="m 35.586411,69.815686 c -1.86973,0.42333 -2.71639,0.9525 -2.71639,1.62278 0,0.38805 0.21166,0.49388 0.88194,0.3175 0.49389,-0.10584 1.30528,-0.3175 1.79917,-0.42334 l 0.9525,-0.24694 -0.17639,4.65666 c -0.10583,2.54 -0.28222,4.72723 -0.42333,4.90362 -0.14111,0.14111 -0.77611,0.24694 -1.37584,0.24694 -0.88194,0 -1.12889,0.14111 -1.12889,0.70556 0,0.59972 0.24695,0.70555 1.5875,0.70555 0.88195,0 2.15195,-0.28222 2.82223,-0.635 0.67027,-0.3175 1.41111,-0.59972 1.65805,-0.59972 0.24695,0 0.45861,-0.24695 0.45861,-0.56445 0,-0.42333 -0.3175,-0.52916 -1.30527,-0.42333 -1.05834,0.0706 -1.30528,0 -1.19945,-0.42333 0.0353,-0.28222 0.21167,-2.29306 0.35278,-4.40972 0.14111,-2.15195 0.35278,-4.09223 0.52917,-4.33917 0.14111,-0.21167 0.67027,-0.42333 1.12888,-0.42333 0.56445,0 0.84667,-0.17639 0.77612,-0.45862 -0.21167,-0.52916 -2.78695,-0.67027 -4.62139,-0.21166 z"
       id="path2130" />
    <path
       style="stroke-width:0.03527778"
       inkscape:connector-curvature="0"
       d="m 82.364741,72.814296 c -0.24694,0.635 0.38806,1.37583 0.91722,1.05833 0.59973,-0.38805 0.45862,-1.62278 -0.14111,-1.62278 -0.3175,0 -0.635,0.24695 -0.77611,0.56445 z"
       id="path2136" />
    <path
       style="stroke-width:0.03527778"
       inkscape:connector-curvature="0"
       d="m 132.45919,72.496796 c -0.24694,0.0705 -0.59972,0.74083 -0.84667,1.44639 -0.21166,0.70555 -0.56444,1.48166 -0.74083,1.72861 -0.21167,0.24694 -0.38806,1.23472 -0.45861,2.18722 -0.10583,1.37583 0,1.86972 0.56444,2.36361 0.81139,0.70556 2.25778,0.38806 2.92806,-0.635 0.45861,-0.74083 0,-1.27 -0.56444,-0.70555 -0.49389,0.49389 -1.55223,0.56444 -1.83445,0.14111 -0.10583,-0.17639 -0.10583,-0.635 0,-1.02306 0.14111,-0.56444 0.59972,-0.81139 1.76389,-0.98778 1.94028,-0.28222 2.18722,-1.23472 0.3175,-1.23472 -1.37583,0 -1.44639,-0.21166 -0.74083,-1.94028 0.52917,-1.23472 0.38805,-1.62277 -0.38806,-1.34055 z"
       id="path2138" />
    <path
       style="stroke-width:0.03527778"
       inkscape:connector-curvature="0"
       d="m 47.157521,74.260686 c -0.10584,0.74083 -0.42334,2.04611 -0.67028,2.89278 -0.35278,1.05833 -0.42333,1.76388 -0.17639,2.18722 0.17639,0.35278 0.3175,1.09361 0.3175,1.62278 0,1.97555 1.55222,2.46944 3.03389,0.98777 0.77611,-0.81139 0.9525,-0.84666 1.41111,-0.35277 0.77611,0.77611 2.18722,1.02305 3.21028,0.56444 1.34056,-0.59972 0.81139,-1.27 -0.88194,-1.12889 -1.62278,0.10583 -2.04612,-0.52917 -0.635,-0.88194 0.49388,-0.10584 1.12888,-0.49389 1.48166,-0.88195 0.49389,-0.52916 0.49389,-0.74083 0.14111,-1.19944 -0.77611,-0.91722 -1.72861,-0.56445 -3.73944,1.41111 -2.39889,2.32833 -3.03389,2.46944 -2.89278,0.635 0.10583,-1.16417 0.24694,-1.37583 1.12889,-1.51695 1.44639,-0.24694 1.62278,-1.05833 0.21167,-1.05833 h -1.09362 l 0.10584,-2.15194 c 0.10583,-2.50473 -0.59972,-3.38667 -0.9525,-1.12889 z"
       id="path2142" />
    <path
       style="stroke-width:0.03527778"
       inkscape:connector-curvature="0"
       d="m 72.381131,73.872626 c -0.21167,0.49389 -0.35278,0.98778 -0.35278,1.09361 0,0.14111 -0.21166,0.49389 -0.45861,0.77611 -0.35278,0.38806 -0.42333,1.23473 -0.28222,2.8575 l 0.21167,2.29306 1.30527,0.10583 c 1.37584,0.10584 2.75167,-0.81139 2.75167,-1.86972 0,-0.67028 -0.3175,-0.67028 -1.19944,0 -0.38806,0.28222 -0.98778,0.52917 -1.37584,0.52917 -0.67028,0 -0.67028,-0.0706 -0.24694,-2.75167 0,-0.0353 0.70555,-0.0705 1.5875,-0.0705 1.16416,0 1.5875,-0.14112 1.5875,-0.52917 0,-0.38806 -0.38806,-0.52917 -1.44639,-0.52917 -1.30528,0 -1.44639,-0.0705 -1.23472,-0.70555 0.10583,-0.38806 0.3175,-1.02306 0.42333,-1.41112 0.35278,-1.09361 -0.84667,-0.88194 -1.27,0.21167 z"
       id="path2144" />
    <path
       style="stroke-width:0.03527778"
       inkscape:connector-curvature="0"
       d="m 96.722801,75.283736 -1.09361,0.91723 0.10583,4.37444 c 0.10583,4.97417 0.74083,6.0325 0.91722,1.51694 0.0706,-2.25777 0.17639,-2.78694 0.56445,-2.46944 0.56444,0.45861 2.786939,-0.17639 3.563049,-1.02306 0.3175,-0.35277 0.67028,-1.23472 0.77611,-1.94027 0.17639,-1.05834 0.0706,-1.44639 -0.42333,-1.79917 -1.09361,-0.81139 -3.174999,-0.59972 -4.409719,0.42333 z m 3.880549,0.67028 c 0.81139,0.9525 -1.481659,2.99861 -3.386659,2.99861 -0.84667,0 -0.59972,-2.36361 0.28222,-2.96333 0.98778,-0.70556 2.539999,-0.74083 3.104439,-0.0353 z"
       id="path2172" />
    <path
       style="stroke-width:0.03527778"
       inkscape:connector-curvature="0"
       d="m 149.49836,75.495406 c -0.81139,0.70556 -1.02306,1.27 -1.34056,3.63361 -0.49388,3.98639 -0.52916,4.83306 -0.0705,5.00945 0.24694,0.0706 0.52917,-0.74084 0.70555,-2.08139 0.28223,-1.86973 0.42334,-2.2225 1.02306,-2.2225 2.08139,-0.0353 3.10444,-1.30528 2.92806,-3.56306 -0.10584,-1.27 -0.21167,-1.37583 -1.19945,-1.48167 -0.77611,-0.0705 -1.41111,0.14112 -2.04611,0.70556 z m 2.43417,0.635 c 0.10583,0.17639 -0.0353,0.88194 -0.35278,1.55222 -0.49389,1.02306 -0.70556,1.16417 -1.34056,0.9525 -0.42333,-0.17639 -0.84666,-0.56444 -0.88194,-0.88194 -0.24695,-1.23472 1.94028,-2.64584 2.57528,-1.62278 z"
       id="path2174" />
    <path
       style="stroke-width:0.03527778"
       inkscape:connector-curvature="0"
       d="m 104.30752,75.319016 c -0.98778,0.17639 -1.51694,1.12889 -1.62278,2.96333 -0.17639,2.15195 0.77611,2.15195 1.30528,-0.0353 0.28222,-1.27 0.56445,-1.65806 1.48167,-2.01084 1.97555,-0.81139 1.23472,-1.41111 -1.16417,-0.91722 z"
       id="path2176" />
    <path
       style="stroke-width:0.03527778"
       inkscape:connector-curvature="0"
       d="m 107.8353,75.848186 c -1.05833,0.56444 -1.5875,1.37583 -1.5875,2.39889 0,1.23472 0.59972,1.76389 2.11667,1.76389 1.44638,0 2.61055,-0.56445 1.76388,-0.84667 -0.28222,-0.10583 -0.98777,-0.21167 -1.5875,-0.28222 -1.44638,-0.14111 -1.37583,-1.05834 0.10584,-1.16417 1.55222,-0.14111 2.29305,-0.77611 1.79916,-1.62278 -0.38805,-0.74083 -1.51694,-0.84666 -2.61055,-0.24694 z"
       id="path2178" />
    <path
       style="stroke-width:0.03527778"
       inkscape:connector-curvature="0"
       d="m 115.52586,75.954016 c -1.55223,0.67028 -2.04612,2.43417 -0.9525,3.4925 0.70555,0.70556 2.64583,0.74083 3.52777,0 0.635,-0.49389 0.56445,-0.52917 -0.81139,-0.38805 -1.02305,0.10583 -1.62277,0.0353 -1.905,-0.3175 -0.3175,-0.38806 -0.21166,-0.49389 0.67028,-0.49389 1.05834,0 1.55222,-0.38806 1.94028,-1.44639 0.3175,-0.91722 -1.12889,-1.41111 -2.46944,-0.84667 z"
       id="path2180" />
    <path
       style="stroke-width:0.03527778"
       inkscape:connector-curvature="0"
       d="m 126.49724,75.954016 c -0.56444,0.35278 -0.81138,1.05833 -0.98777,2.54 -0.14111,1.12889 -0.3175,2.64583 -0.42334,3.35139 -0.3175,1.905 0.45861,1.72861 0.9525,-0.21167 0.28223,-1.19944 0.70556,-1.76389 1.72861,-2.46944 1.34056,-0.88195 2.01084,-2.39889 1.27,-2.99861 -0.81138,-0.635 -1.83444,-0.74084 -2.54,-0.21167 z m 1.97556,1.19945 c 0,0.21166 -0.35278,0.59972 -0.77611,0.91722 -0.84667,0.56444 -1.23472,0.24694 -0.84667,-0.70556 0.21167,-0.56444 1.62278,-0.74083 1.62278,-0.21166 z"
       id="path2182" />
    <path
       style="stroke-width:0.03527778"
       inkscape:connector-curvature="0"
       d="m 154.08447,76.730126 c -0.10583,0.56445 -0.3175,1.37584 -0.42333,1.83445 -0.21167,0.67027 -0.14111,0.77611 0.42333,0.67027 0.42333,-0.0705 0.74083,-0.49388 0.84667,-1.16416 0.14111,-0.70556 0.42333,-1.09361 1.02305,-1.23472 1.48167,-0.35278 1.30528,-1.05834 -0.24694,-1.05834 -1.23472,0 -1.41111,0.10584 -1.62278,0.9525 z"
       id="path2184" />
    <path
       style="stroke-width:0.03527778"
       inkscape:connector-curvature="0"
       d="m 157.64753,76.659576 c -0.98778,0.9525 -1.23473,2.2225 -0.52917,2.92805 0.70556,0.70556 1.5875,0.49389 2.54,-0.67028 1.16417,-1.37583 1.19944,-2.61055 0.14111,-2.92805 -1.12889,-0.28222 -1.05833,-0.3175 -2.15194,0.67028 z m 1.86972,0.81139 c 0,0.17638 -0.3175,0.59972 -0.67028,0.91722 -0.77611,0.70555 -1.41111,0.14111 -0.74083,-0.67028 0.45861,-0.56444 1.41111,-0.70556 1.41111,-0.24694 z"
       id="path2186" />
    <path
       style="stroke-width:0.03527778"
       inkscape:connector-curvature="0"
       d="m 162.55114,76.871236 c -0.98778,1.16417 -1.19945,2.46945 -0.45861,3.03389 0.74083,0.59972 1.94027,0.74084 2.61055,0.3175 0.67028,-0.42333 3.10445,-0.49389 3.52778,-0.0706 0.35278,0.35278 2.18722,0.24695 2.96333,-0.14111 0.84667,-0.45861 0.88195,-1.5875 0.0706,-2.11667 -0.59972,-0.35277 -0.56445,-0.42333 0.17639,-0.91722 1.02305,-0.74083 0.98778,-1.19944 -0.10584,-1.19944 -1.19944,0 -2.2225,1.55222 -1.65805,2.50472 0.24694,0.35278 0.42333,0.74083 0.42333,0.84667 0,0.3175 -1.905,0.17639 -2.46944,-0.17639 -0.42334,-0.24695 -0.42334,-0.42334 0.14111,-1.02306 0.81139,-0.88194 0.59972,-1.94028 -0.42333,-2.08139 -1.12889,-0.17639 -2.92806,1.69334 -2.64584,2.71639 0.17639,0.70556 0.0706,0.77611 -0.77611,0.67028 -1.41111,-0.14111 -1.48167,-0.81139 -0.21167,-2.08139 1.27,-1.27 1.30528,-1.37583 0.42334,-1.37583 -0.38806,0 -1.09361,0.49389 -1.5875,1.09361 z"
       id="path2188" />
    <path
       style="stroke-width:0.03527778"
       inkscape:connector-curvature="0"
       d="m 174.08697,76.624296 c -0.88194,0.77611 -0.9525,0.9525 -0.52917,1.62278 0.52917,0.88194 0.28223,1.41111 -0.67027,1.41111 -0.35278,0 -0.67028,0.24694 -0.67028,0.52916 0,0.74084 1.51694,0.67028 2.50472,-0.14111 0.70556,-0.56444 0.77611,-0.77611 0.42333,-1.55222 -0.42333,-0.91722 -0.0705,-1.65805 0.84667,-1.65805 0.24695,0 0.45861,-0.24695 0.45861,-0.52917 0,-0.81139 -1.27,-0.635 -2.36361,0.3175 z"
       id="path2190" />
    <path
       style="stroke-width:0.03527778"
       inkscape:connector-curvature="0"
       d="m 119.75919,76.377346 c -0.59972,0.10584 -0.81139,0.42334 -0.84667,1.19945 -0.0353,0.56444 -0.0706,1.27 -0.10583,1.62278 -0.0706,0.9525 0.81139,0.9525 1.05833,-0.0353 0.10584,-0.49389 0.42334,-1.05833 0.70556,-1.30528 0.38805,-0.3175 0.49389,-0.24694 0.49389,0.49389 0,1.23472 0.98777,1.51694 1.41111,0.38806 0.38805,-0.98778 1.05833,-0.84667 1.05833,0.24694 0,0.38806 0.24695,0.67028 0.56445,0.67028 0.45861,0 0.52916,-0.24695 0.3175,-1.30528 -0.3175,-1.83444 -0.42334,-1.905 -1.76389,-1.65806 -0.67028,0.10584 -1.23473,0.0353 -1.37584,-0.17638 -0.14111,-0.21167 -0.35277,-0.35278 -0.49389,-0.35278 -0.14111,0.0353 -0.59972,0.14111 -1.02305,0.21166 z"
       id="path2194" />
    <path
       style="stroke-width:0.03527778"
       inkscape:connector-curvature="0"
       d="m 177.72058,77.224016 c -0.98778,0.77611 -1.23472,2.32833 -0.49389,3.06917 1.51695,1.51694 4.83306,-1.19945 3.81,-3.13972 -0.49389,-0.88195 -2.11666,-0.88195 -3.31611,0.0705 z m 2.18722,1.05833 c -0.14111,0.9525 -1.16416,1.69334 -1.69333,1.16417 -0.24694,-0.24694 -0.17639,-0.59972 0.21167,-1.12889 0.70555,-1.02305 1.62278,-1.02305 1.48166,-0.0353 z"
       id="path2196" />
    <path
       style="stroke-width:0.03527778"
       inkscape:connector-curvature="0"
       d="m 182.87114,77.435686 c -0.17639,0.35278 -0.45861,1.30528 -0.59972,2.11666 -0.3175,2.08139 0.49388,2.04612 1.51694,-0.0353 0.70556,-1.51695 0.81139,-1.5875 2.43417,-1.69334 2.50472,-0.14111 2.04611,-0.81139 -0.67028,-0.91722 -1.97556,-0.0705 -2.39889,0 -2.68111,0.52917 z"
       id="path2198" />
    <path
       style="stroke-width:0.03527778"
       inkscape:connector-curvature="0"
       d="m 67.724461,77.541516 c -0.3175,0.21167 -0.9525,0.3175 -1.41111,0.28222 -0.67028,-0.10583 -0.81139,0.0706 -0.91722,1.02306 -0.0706,0.59972 -0.35278,1.30528 -0.635,1.51694 -0.52917,0.45861 -0.56444,0.42334 -0.635,-1.41111 -0.0353,-0.67028 -0.24694,-0.88194 -0.81139,-0.88194 -0.42333,0 -0.88194,-0.14111 -1.02305,-0.28222 -0.14112,-0.14112 -0.70556,-0.24695 -1.27,-0.24695 -0.74084,0 -1.09362,0.21167 -1.34056,0.91722 -0.45861,1.16417 -0.45861,3.66889 0,3.66889 0.45861,0 1.05833,-1.19944 1.05833,-2.2225 0,-0.635 0.21167,-0.91722 0.88195,-1.02305 1.05833,-0.21167 1.23472,-0.0706 1.23472,1.12889 0,0.88194 0.91722,2.11666 1.5875,2.11666 0.17639,0 0.70556,-0.35278 1.16417,-0.81139 l 0.84666,-0.77611 -0.14111,2.71639 c -0.0706,1.94028 0,2.75167 0.28222,2.75167 0.56445,0 0.84667,-0.84667 0.84667,-2.39889 0,-1.12889 0.17639,-1.37583 1.16417,-1.83445 1.34055,-0.635 1.94028,-2.04611 1.44639,-3.45722 -0.35278,-1.02305 -1.34056,-1.34055 -2.32834,-0.77611 z m 1.48167,1.72861 c 0,0.59972 -0.635,1.44639 -1.09361,1.44639 -0.52917,0 -0.59972,-1.02305 -0.10583,-1.72861 0.59972,-0.81139 1.19944,-0.70556 1.19944,0.28222 z"
       id="path2200" />
    <path
       style="stroke-width:0.03527778"
       inkscape:connector-curvature="0"
       d="m 42.148071,78.247076 c -0.70555,0.28222 -0.81139,0.59972 -0.81139,2.29305 0,1.41111 0.14112,1.94028 0.49389,1.94028 0.52917,0 0.91723,-0.74083 0.91723,-1.76389 0,-1.27 0.70555,-1.09361 1.27,0.3175 0.56444,1.41111 0.84666,1.69333 1.30527,1.23472 0.28223,-0.28222 -0.74083,-2.96333 -1.44639,-3.77472 -0.59972,-0.67028 -0.635,-0.67028 -1.72861,-0.24694 z"
       id="path2202" />
    <path
       style="stroke-width:0.03527778"
       inkscape:connector-curvature="0"
       d="m 55.976961,78.670406 c -0.42333,1.905 -0.35277,2.92806 0.17639,2.92806 0.28222,0 0.59972,-0.42334 0.70556,-1.02306 0.17639,-0.98778 0.56444,-1.37583 1.86972,-1.76389 1.16417,-0.35278 0.59972,-0.91722 -0.98778,-0.91722 -1.34055,0 -1.5875,0.10583 -1.76389,0.77611 z"
       id="path2204" />
    <path
       style="stroke-width:0.03527778"
       inkscape:connector-curvature="0"
       d="m 82.858631,79.164296 c -0.49389,0.52917 -0.21167,1.19944 0.49389,1.19944 0.49389,0 0.67028,-0.17639 0.59972,-0.59972 -0.10583,-0.635 -0.70555,-0.9525 -1.09361,-0.59972 z"
       id="path2206" />
    <path
       style="stroke-width:0.03527778"
       inkscape:connector-curvature="0"
       d="m 119.35372,3.3018471 c -2.08139,1.12889 -3.06917,1.97556 -4.1275,3.56306 -1.23473,1.83444 -1.23473,2.8575 -0.0353,3.8099999 0.81138,0.635 0.88194,0.84666 0.59972,1.69333 l -0.35278,0.9525 -4.02166,-0.0353 h -4.05695 l -0.10583,-2.46944 -0.10584,-2.5047199 1.48167,-0.56445 c 1.44639,-0.56444 1.44639,-0.59972 1.19945,-1.905 -0.10584,-0.74083 -0.35278,-1.44639 -0.45862,-1.5875 -0.14111,-0.14111 -1.48166,-0.14111 -2.99861,0.0353 -2.92805,0.28222 -3.42194,0.56444 -3.42194,2.15194 0,1.27 0.38805,1.69334 1.5875,1.83445 l 1.05833,0.10583 -0.0706,2.4341699 c -0.0706,2.78694 -0.10583,2.8575 -3.06916,3.21028 -1.12889,0.14111 -2.645841,0.45861 -3.386671,0.70555 -0.74083,0.24695 -1.44639,0.38806 -1.55222,0.28222 -0.52917,-0.52916 -0.14111,-1.55222 0.77611,-2.01083 0.56444,-0.28222 1.19944,-0.74083 1.44639,-1.02305 0.635001,-0.81139 -0.17639,-1.12889 -0.91723,-0.38806 -2.0461,2.04611 -8.29027,3.63361 -9.77194,2.50472 -0.67027,-0.49389 -0.67027,-0.67028 -0.24694,-3.10444 0.24694,-1.4463899 0.70555,-3.1397199 1.02305,-3.8099999 0.70556,-1.51695 2.32834,-2.50473 4.1275,-2.50473 2.68112,0 2.92806,0.21167 3.73945,2.85751 0.70555,2.32833 1.16417,3.1044399 1.62278,2.6458299 0.3175,-0.3174999 -0.9525,-4.7272199 -1.62278,-5.5386099 -0.635,-0.77611 -3.84528,-1.30528 -5.46806,-0.88195 -1.51694,0.38806 -3.28083,2.2225 -3.88055,4.02167 -0.74084,2.3283299 -1.02306,5.5386099 -0.59972,6.3499999 0.74083,1.37583 3.56305,1.83444 5.75027,0.9525 0.45861,-0.17639 0.70556,0 0.98778,0.70556 0.45861,1.23472 0.0353,1.76388 -2.29305,2.78694 -4.48028,2.01083 -6.45584,7.33778 -6.06778,16.58056 0.14111,3.73944 0.35278,5.15055 1.12889,7.44361 1.16416,3.4925 2.11666,4.79777 4.79777,6.45583 1.12889,0.70556 2.08139,1.48167 2.08139,1.65806 0,0.35277 -0.49389,1.16416 -2.96333,4.79777 -0.56444,0.84667 -1.23472,1.34056 -1.94028,1.48167 -1.41111,0.28222 -1.94028,1.30528 -1.23472,2.29306 0.635,0.91722 1.79917,0.98777 2.89278,0.21166 0.635,-0.42333 0.77611,-0.77611 0.59972,-1.51694 -0.17639,-0.77611 0.14111,-1.41111 1.48167,-3.31611 0.91722,-1.27 1.86972,-2.57528 2.04611,-2.8575 0.3175,-0.49389 0.56444,-0.45861 2.18722,0.3175 0.98778,0.49389 3.704171,1.30527 5.997221,1.79916 3.52778,0.77611 4.65667,0.88195 7.51417,0.70556 3.4925,-0.24695 4.7625,-0.52917 7.37306,-1.69333 0.84666,-0.35278 1.55222,-0.635 1.5875,-0.56445 0.0706,0.0706 0.67027,1.34056 1.37583,2.8575 0.84667,1.79917 1.23472,3.06917 1.09361,3.59834 -0.10583,0.49388 0.0353,0.98777 0.38806,1.37583 1.12889,1.12889 4.05694,0.38805 4.05694,-1.05833 0,-0.84667 -0.59972,-1.19945 -2.15194,-1.19945 -0.81139,0 -1.05834,-0.17639 -1.23473,-0.98778 -0.14111,-0.52916 -0.70555,-1.86972 -1.30527,-2.99861 l -1.05834,-2.01083 2.15195,-2.15195 c 3.56305,-3.4925 5.00944,-7.33777 5.53861,-14.605 0.28222,-3.56305 -0.0706,-5.89139 -1.44639,-9.98361 -1.72861,-5.18583 -3.35139,-7.54944 -7.02028,-10.16 -1.23472,-0.84666 -0.9525,-1.55222 0.635,-1.55222 0.635,0 1.97556,-0.49389 2.99861,-1.05833 1.76389,-1.02306 2.15195,-1.51695 1.55223,-1.905 -0.17639,-0.10584 -0.17639,-1.2347299 0,-2.5047299 0.35277,-2.64583 -0.0706,-4.55083 -1.12889,-5.11527 -1.09361,-0.59973 -3.28084,-0.38806 -4.7625,0.38805 z m 4.58611,1.16417 c 0.45861,0.67028 0.49389,1.41111 0.3175,3.73944 -0.21167,2.5752799 -0.35278,2.9280599 -1.16417,3.4572299 -0.49389,0.35277 -1.5875,0.59972 -2.50472,0.59972 -1.34056,0 -1.905,-0.24695 -3.42195,-1.41111 -1.02305,-0.77611 -1.83444,-1.5874999 -1.86972,-1.7991699 0,-0.17639 0.45861,-1.09361 1.02306,-2.01083 1.905,-2.92806 6.38528,-4.48028 7.62,-2.57528 z m -15.41639,1.51694 c -0.0705,0.45861 -0.59972,0.70556 -1.86972,0.88195 -1.905,0.28222 -2.64584,0.17639 -2.64584,-0.42334 0,-0.56444 1.37584,-1.02305 3.10445,-1.02305 1.27,-0.0353 1.51694,0.0706 1.41111,0.56444 z m 9.56028,6.7733399 c 0.67027,0.42333 0.21166,1.44639 -0.635,1.44639 -0.91723,0 -1.27,-0.59973 -0.74084,-1.23473 0.49389,-0.59972 0.70556,-0.635 1.37584,-0.21166 z m -21.731121,2.15194 c 0.21167,0.84667 -0.42333,1.34056 -0.84666,0.67028 -0.45861,-0.74083 -0.38806,-1.37583 0.17639,-1.37583 0.24694,0 0.56444,0.3175 0.67027,0.70555 z m 17.533061,-0.21167 c 6.38528,0.56445 9.94833,3.81 12.27667,11.14778 1.19944,3.73945 1.44639,5.85611 1.12889,9.87778 -0.42334,5.08 -0.635,6.17361 -1.79917,8.74889 -1.83444,4.09222 -4.58611,6.49111 -9.2075,8.04333 -2.54,0.84667 -3.45722,0.9525 -6.80861,0.9525 -5.99722,-0.0706 -12.100281,-1.905 -16.016111,-4.83305 -0.67028,-0.49389 -1.37584,-0.91723 -1.55223,-0.91723 -0.49389,0 -1.94027,-1.72861 -2.71639,-3.21027 -2.82222,-5.36223 -2.8575,-16.86278 -0.10583,-21.94278 1.09361,-1.97556 2.89278,-3.52778 3.73945,-3.21028 0.35277,0.10583 1.23472,-0.35278 2.32833,-1.19944 0.98778,-0.81139 2.64583,-1.72861 3.63361,-2.11667 2.504721,-0.91722 9.701391,-1.86972 12.100281,-1.62278 0.38805,0.0706 1.72861,0.17639 2.99861,0.28222 z"
       id="path1958" />
    <path
       style="stroke-width:0.03527778"
       inkscape:connector-curvature="0"
       d="m 107.18288,18.294907 c -2.50472,0.38805 -4.90361,0.98778 -6.06778,1.5875 -0.74083,0.38805 -1.763881,0.67028 -2.328331,0.67028 -1.12889,0 -3.63361,1.51694 -5.08,3.03388 -1.41111,1.51695 -3.56306,6.35 -3.73944,8.46667 -0.28223,3.13972 0.45861,6.38528 2.2225,9.91306 1.97555,3.84527 3.81,5.82083 6.84389,7.26722 1.940271,0.91722 2.786941,1.09361 5.891381,1.23472 2.96334,0.14111 4.02167,0.0353 6.0325,-0.56444 4.72723,-1.44639 9.24278,-5.00945 10.79501,-8.53723 0.91722,-2.01083 1.19944,-6.59694 0.635,-9.63083 -0.24695,-1.19944 -1.05834,-3.45722 -1.79917,-5.00944 -2.36361,-4.83306 -5.715,-7.58473 -10.12472,-8.29028 -1.12889,-0.21167 -2.11667,-0.3175 -2.2225,-0.3175 -0.10584,0.0353 -0.56445,0.10583 -1.05834,0.17639 z m 5.36222,1.76389 c 3.10445,0.98777 6.35001,4.58611 7.93751,8.92527 1.30527,3.42195 1.51694,8.64306 0.49388,11.35945 -2.43416,6.45583 -11.78277,10.65389 -19.26166,8.64305 -4.162781,-1.09361 -6.138341,-2.82222 -8.537231,-7.44361 -2.71639,-5.29166 -2.89277,-9.48972 -0.56444,-14.14639 1.05833,-2.11666 1.83444,-3.13972 3.28083,-4.30388 1.83445,-1.51695 1.94028,-1.55223 3.95111,-1.41112 1.799171,0.14112 2.046121,0.0705 1.869731,-0.45861 -0.17639,-0.49389 0.24694,-0.70555 2.18722,-1.16416 4.05694,-0.9525 5.57389,-0.9525 8.64305,0 z"
       id="path1960" />
    <path
       style="stroke-width:0.03527778"
       inkscape:connector-curvature="0"
       d="m 104.21955,24.151017 c -0.52917,3.88055 -0.84667,10.68917 -0.56445,11.04194 0.17639,0.21167 0.88195,0.3175 1.51695,0.24695 0.91722,-0.10584 1.19944,-0.28222 1.05833,-0.70556 -0.10583,-0.52916 2.39889,-2.96333 6.24417,-5.99722 1.02305,-0.84667 0.74083,-1.41111 -0.42333,-0.88194 -0.45862,0.21166 -2.11667,1.51694 -3.66889,2.89277 -1.5875,1.37584 -3.06917,2.50473 -3.31611,2.50473 -0.35278,0 -0.42334,-0.98778 -0.21167,-4.51556 0.10583,-2.46944 0.3175,-4.83306 0.42333,-5.29167 0.17639,-0.56444 0.0705,-0.77611 -0.3175,-0.77611 -0.38805,0 -0.635,0.45861 -0.74083,1.48167 z"
       id="path1962" />
    <path
       style="stroke-width:0.03527778"
       inkscape:connector-curvature="0"
       d="m 112.93316,34.769627 c 0.17639,0.59972 2.25778,0.67028 2.46945,0.0705 0.17638,-0.35278 -0.14112,-0.49389 -1.19945,-0.45861 -0.88194,0 -1.34056,0.17639 -1.27,0.38806 z"
       id="path1964" />
    <path
       style="stroke-width:0.03527778"
       inkscape:connector-curvature="0"
       d="m 116.17872,34.663797 c -0.28223,0.42333 0.70555,0.84666 1.23472,0.52916 0.21167,-0.10583 0.28222,-0.38805 0.17639,-0.56444 -0.28222,-0.42333 -1.12889,-0.42333 -1.41111,0.0353 z"
       id="path1966" />
    <path
       style="stroke-width:0.03527778"
       inkscape:connector-curvature="0"
       d="m 107.25344,35.087127 c 0.10583,0.24694 0.45861,0.52917 0.77611,0.56444 0.42333,0.10584 0.59972,-0.0353 0.49389,-0.35277 -0.10584,-0.24695 -0.45861,-0.52917 -0.77611,-0.56445 -0.42334,-0.10583 -0.59973,0.0353 -0.49389,0.35278 z"
       id="path1968" />
    <path
       style="stroke-width:0.03527778"
       inkscape:connector-curvature="0"
       d="m 109.01733,35.087127 c 0.21166,0.635 0.98777,0.74083 0.98777,0.14111 0,-0.3175 -0.24694,-0.56444 -0.56444,-0.56444 -0.3175,0 -0.49389,0.17639 -0.42333,0.42333 z"
       id="path1970" />
    <path
       style="stroke-width:0.03527778"
       inkscape:connector-curvature="0"
       d="m 110.71066,35.016567 c 0,0.17639 0.3175,0.35278 0.70556,0.35278 0.38805,0 0.70555,-0.17639 0.70555,-0.35278 0,-0.21166 -0.3175,-0.35277 -0.70555,-0.35277 -0.38806,0 -0.70556,0.14111 -0.70556,0.35277 z"
       id="path1972" />
  </g>
</svg>
