<?xml version="1.0" encoding="UTF-8" standalone="no"?>
<!-- Created with Inkscape (http://www.inkscape.org/) -->

<svg
   xmlns:dc="http://purl.org/dc/elements/1.1/"
   xmlns:cc="http://creativecommons.org/ns#"
   xmlns:rdf="http://www.w3.org/1999/02/22-rdf-syntax-ns#"
   xmlns:svg="http://www.w3.org/2000/svg"
   xmlns="http://www.w3.org/2000/svg"
   xmlns:sodipodi="http://sodipodi.sourceforge.net/DTD/sodipodi-0.dtd"
   xmlns:inkscape="http://www.inkscape.org/namespaces/inkscape"
   width="138.30502mm"
   height="117.83212mm"
   viewBox="0 0 138.30502 117.83212"
   version="1.1"
   id="svg2857"
   inkscape:version="0.92.5 (2060ec1f9f, 2020-04-08)"
   sodipodi:docname="interrupts_and_timers.svg">
  <defs
     id="defs2851" />
  <sodipodi:namedview
     id="base"
     pagecolor="#ffffff"
     bordercolor="#666666"
     borderopacity="1.0"
     inkscape:pageopacity="0.0"
     inkscape:pageshadow="2"
     inkscape:zoom="0.35"
     inkscape:cx="-532.92189"
     inkscape:cy="-48.753695"
     inkscape:document-units="mm"
     inkscape:current-layer="layer1"
     showgrid="false"
     fit-margin-top="0"
     fit-margin-right="0"
     fit-margin-left="0"
     fit-margin-bottom="0"
     inkscape:window-width="1920"
     inkscape:window-height="1080"
     inkscape:window-x="1920"
     inkscape:window-y="0"
     inkscape:window-maximized="0" />
  <metadata
     id="metadata2854">
    <rdf:RDF>
      <cc:Work
         rdf:about="">
        <dc:format>image/svg+xml</dc:format>
        <dc:type
           rdf:resource="http://purl.org/dc/dcmitype/StillImage" />
        <dc:title></dc:title>
      </cc:Work>
    </rdf:RDF>
  </metadata>
  <g
     inkscape:label="Layer 1"
     inkscape:groupmode="layer"
     id="layer1"
     transform="translate(-45.75225,-25.661319)">
    <g
       id="g3499"
       transform="translate(217.71429,-64.255952)">
      <path
         id="path1914"
         d="m -60.484259,90.390013 c -3.66888,0.635 -5.29166,1.27 -5.29166,2.081389 0,0.423334 0.17639,0.529167 0.81139,0.3175 1.79916,-0.564444 3.95111,-1.128889 4.02166,-1.093611 0.0706,0.07056 -0.42333,2.645834 -1.02305,5.785556 -0.635,3.139723 -1.02306,5.820833 -0.84667,5.961943 0.45861,0.45861 0.74083,-0.45861 1.97556,-6.244165 1.34055,-6.385278 0.91722,-5.856112 5.15055,-6.279445 1.34056,-0.141111 2.43417,-0.423333 2.43417,-0.599722 0,-0.564445 -3.95111,-0.529167 -7.23195,0.07055 z"
         inkscape:connector-curvature="0"
         style="stroke-width:0.03527778" />
      <path
         id="path1916"
         d="m -169.06926,90.91918 c -2.15195,0.388055 -2.32833,1.093611 -0.3175,1.27 l 1.30528,0.105833 v 3.986389 c 0,4.938888 -0.35278,8.360838 -0.84667,8.501948 -0.21167,0.0706 -0.98778,0.21166 -1.69333,0.35278 -0.84667,0.14111 -1.34056,0.38805 -1.34056,0.70555 0,0.42333 0.59972,0.52917 2.96333,0.52917 3.56306,0 5.15056,-0.28222 5.15056,-0.91722 0,-0.35278 -0.49389,-0.49389 -1.69333,-0.49389 h -1.65806 l 0.10583,-6.10306 c 0.0706,-3.316111 0.17639,-6.279444 0.24695,-6.526389 0.10583,-0.282222 0.91722,-0.423333 2.46944,-0.423333 2.43417,0 2.89278,-0.3175 1.41112,-0.987778 -1.05834,-0.493889 -3.45723,-0.493889 -6.10306,0 z"
         inkscape:connector-curvature="0"
         style="stroke-width:0.03527778" />
      <path
         id="path1918"
         d="m -86.94259,91.836402 c -3.35139,2.2225 -4.93889,4.374445 -4.93889,6.738056 0,1.305278 -0.246943,1.975552 -1.27,3.386662 -1.44639,2.04612 -2.963333,4.86834 -2.963333,5.57389 0,0.28223 0.246943,0.70556 0.529166,0.9525 0.458611,0.38806 0.9525,0.0705 3.175,-2.08138 2.363613,-2.29306 2.681113,-2.50473 3.175,-2.04612 0.776113,0.81139 2.39889,1.05834 3.951113,0.635 2.892777,-0.81138 3.033887,-1.76388 0.176387,-1.19944 -1.940276,0.38806 -3.63361,0 -2.963333,-0.67028 0.211667,-0.21166 1.199446,-0.77611 2.2225,-1.30528 1.728613,-0.84666 2.645833,-1.79916 1.76389,-1.79916 -0.246944,0 -1.516944,0.56444 -2.892777,1.23472 -1.375833,0.67028 -2.57528,1.23472 -2.645833,1.23472 -0.07056,0 -0.35278,-0.45861 -0.67028,-1.05833 -0.529167,-1.02306 -0.529167,-1.02306 1.62278,-3.421946 2.081387,-2.293056 3.845277,-5.185834 3.845277,-6.279445 0,-0.705556 -0.987777,-0.635 -2.116667,0.105833 z m 0.705556,0.987778 c 0,0.458611 -1.869723,3.245556 -3.175,4.727222 -1.234723,1.411112 -1.375833,1.481667 -1.411113,0.776112 0,-0.423334 0.3175,-1.411112 0.705557,-2.151945 0.846667,-1.728611 3.880556,-4.303889 3.880556,-3.351389 z m -4.7625,9.70139 c 0.211667,0.59972 -0.176389,1.16417 -1.799169,2.82222 -1.164167,1.16417 -2.116667,1.94028 -2.18722,1.72861 -0.211667,-0.635 2.822223,-5.29166 3.457223,-5.29166 0.176387,0 0.423333,0.35277 0.529166,0.74083 z"
         inkscape:connector-curvature="0"
         style="stroke-width:0.03527778" />
      <path
         id="path1920"
         d="m -152.66509,94.976125 c -0.28223,0.564444 -0.70556,1.869722 -0.9525,2.928055 -0.24695,1.058334 -0.56445,2.081389 -0.70556,2.29306 -0.42333,0.67027 -0.21167,4.97416 0.3175,5.60916 0.81139,0.9525 3.21028,0.14111 3.21028,-1.09361 0,-0.45861 -0.14111,-0.45861 -0.91722,0.0706 -0.81139,0.52917 -0.98778,0.52917 -1.44639,0.0706 -0.38806,-0.38805 -0.45861,-0.91722 -0.28222,-1.97555 0.24694,-1.44639 0.35277,-1.55223 2.43416,-1.86973 0.38806,-0.0706 0.74084,-0.3175 0.84667,-0.56444 0.0706,-0.28222 -0.3175,-0.42333 -1.30528,-0.42333 -1.69333,0 -1.72861,-0.141115 -0.74083,-3.033893 0.38805,-1.128889 0.70555,-2.293056 0.70555,-2.54 0,-0.776111 -0.67027,-0.458611 -1.16416,0.529167 z"
         inkscape:connector-curvature="0"
         style="stroke-width:0.03527778" />
      <path
         id="path1922"
         d="m -119.53926,95.011402 c -0.28222,0.564445 -0.70555,1.763889 -0.9525,2.645834 -0.21167,0.917222 -0.59972,1.799166 -0.88194,2.046111 -0.35278,0.282222 -0.42334,0.952503 -0.24695,2.575283 0.24695,2.46944 0.56445,3.03388 1.69334,3.03388 1.05833,0 3.175,-2.08138 2.68111,-2.57527 -0.24695,-0.24695 -0.67028,-0.0706 -1.30528,0.59972 -0.84667,0.81139 -1.02306,0.88194 -1.48167,0.42333 -0.3175,-0.3175 -0.42333,-0.81139 -0.28222,-1.37583 0.17639,-0.70556 0.49389,-0.9525 1.5875,-1.12889 0.77611,-0.14111 1.62278,-0.49389 1.86972,-0.77611 0.42334,-0.493891 0.28222,-0.564446 -1.27,-0.38806 l -1.69333,0.21167 0.21167,-1.481668 c 0.14111,-0.776111 0.635,-2.151944 1.12888,-2.998611 1.02306,-1.834444 1.02306,-1.799166 0.14112,-1.799166 -0.38806,0 -0.91723,0.423333 -1.19945,0.987777 z"
         inkscape:connector-curvature="0"
         style="stroke-width:0.03527778" />
      <path
         id="path1924"
         d="m -56.780089,96.457791 c -0.10583,0.176389 -0.0353,0.423334 0.17639,0.564445 0.42333,0.246944 1.05833,-0.07056 1.05833,-0.564445 0,-0.423333 -0.9525,-0.423333 -1.23472,0 z"
         inkscape:connector-curvature="0"
         style="stroke-width:0.03527778" />
      <path
         id="path1926"
         d="m -53.393419,98.927236 c -0.74084,0.705555 -1.09361,1.340554 -1.09361,2.081384 0,1.65806 0.67027,1.72862 1.30527,0.10584 0.70556,-1.763891 1.16417,-1.869724 1.16417,-0.24695 0,1.62278 0.635,1.97556 1.5875,0.81139 0.88195,-1.12889 1.23472,-1.19944 1.23472,-0.28222 0,0.74083 0.88195,1.65806 1.16417,1.19945 0.10583,-0.14112 0.10583,-1.05834 0,-1.97556 -0.24694,-2.010834 -0.9525,-2.504723 -1.905,-1.340556 l -0.635,0.776106 -0.45861,-0.952495 c -0.635,-1.340556 -1.05833,-1.375834 -2.36361,-0.176389 z"
         inkscape:connector-curvature="0"
         style="stroke-width:0.03527778" />
      <path
         id="path1928"
         d="m -40.481759,98.891958 c -1.09361,1.199442 -1.72861,3.951112 -0.91722,3.951112 0.17639,0 0.67028,-0.70556 1.05834,-1.5875 0.56444,-1.23472 0.88194,-1.587501 1.55222,-1.587501 1.12889,0 1.41111,-0.564444 0.56444,-1.023055 -0.98778,-0.529167 -1.62278,-0.493889 -2.25778,0.246944 z"
         inkscape:connector-curvature="0"
         style="stroke-width:0.03527778" />
      <path
         id="path1930"
         d="m -46.126199,99.632791 c -1.41111,1.693329 -0.59972,3.351389 1.55222,3.139719 1.62278,-0.14111 1.76389,-0.98777 0.17639,-0.98777 -1.5875,0 -1.65805,-0.45862 -0.10583,-0.88195 0.88194,-0.28222 1.12889,-0.52917 1.12889,-1.234721 0,-1.375833 -1.5875,-1.411111 -2.75167,-0.03528 z"
         inkscape:connector-curvature="0"
         style="stroke-width:0.03527778" />
      <path
         id="path1932"
         d="m -35.754529,99.280014 c -0.70556,0.705555 -1.02306,2.151946 -0.45861,2.151946 0.14111,0 0.45861,0.14111 0.74083,0.3175 0.38805,0.24694 0.28222,0.49389 -0.52917,1.19944 -1.16416,0.98778 -0.98778,1.5875 0.28222,0.9525 2.04612,-1.09361 2.71639,-2.57528 1.34056,-2.99861 -0.91722,-0.28222 -0.91722,-0.88194 0,-1.128888 0.42333,-0.105833 0.67028,-0.388055 0.59972,-0.599722 -0.21166,-0.670278 -1.23472,-0.635 -1.97555,0.105834 z"
         inkscape:connector-curvature="0"
         style="stroke-width:0.03527778" />
      <path
         id="path1934"
         d="m -57.238699,100.76168 c -0.52917,2.29306 -0.52917,2.78695 0.0706,2.78695 0.24694,0 0.56444,-0.49389 0.67027,-1.16417 0.10584,-0.59972 0.3175,-1.65806 0.45861,-2.29306 0.17639,-0.846664 0.10584,-1.128886 -0.28222,-1.128886 -0.3175,0 -0.67028,0.635 -0.91722,1.799166 z"
         inkscape:connector-curvature="0"
         style="stroke-width:0.03527778" />
      <path
         id="path1936"
         d="m -126.4537,100.55001 c -0.24695,0.3175 -0.59973,1.23473 -0.74084,2.04612 -0.9525,5.60916 -1.09361,6.91444 -0.88194,7.51416 0.28222,0.635 0.28222,0.635 0.56444,-0.0353 0.14111,-0.38805 0.35278,-1.44639 0.49389,-2.39889 0.17639,-1.02305 0.42334,-1.65805 0.74084,-1.65805 0.24694,0 0.9525,-0.56445 1.55222,-1.27 0.98778,-1.09361 1.12889,-1.48167 1.02305,-2.89278 -0.10583,-1.55222 -0.17639,-1.65806 -1.19944,-1.76389 -0.67028,-0.0705 -1.27,0.10583 -1.55222,0.45861 z m 1.76389,1.51695 c 0,1.02305 -0.84667,2.54 -1.44639,2.54 -0.42334,0 -0.42334,-1.48167 0.0353,-2.61056 0.45861,-1.23472 1.41111,-1.19944 1.41111,0.0706 z"
         inkscape:connector-curvature="0"
         style="stroke-width:0.03527778" />
      <path
         id="path1938"
         d="m -147.19704,101.43196 c -0.9525,0.59972 -1.12889,0.91722 -1.12889,2.04611 0,1.55222 0.74084,2.43417 2.32834,2.75167 0.70555,0.14111 1.19944,0.0353 1.48166,-0.3175 0.35278,-0.42334 0.24695,-0.56445 -0.67027,-0.74084 -2.04612,-0.38805 -2.8575,-1.62277 -1.09361,-1.62277 1.12888,0 2.53999,-0.88195 2.53999,-1.58751 0,-1.09361 -2.04611,-1.37583 -3.45722,-0.52916 z"
         inkscape:connector-curvature="0"
         style="stroke-width:0.03527778" />
      <path
         id="path1940"
         d="m -129.66398,101.6789 c -1.27,3.52778 -1.72861,3.84528 -1.72861,1.16417 0,-1.905 -0.52917,-2.32833 -1.05834,-0.84667 -0.56444,1.44639 -0.42333,2.78695 0.38806,3.52778 0.52917,0.49389 0.84667,0.56445 1.30528,0.28222 0.77611,-0.45861 2.18722,-3.24555 2.18722,-4.26861 0,-1.12889 -0.635,-1.02305 -1.09361,0.14111 z"
         inkscape:connector-curvature="0"
         style="stroke-width:0.03527778" />
      <path
         id="path1942"
         d="m -114.84731,101.64362 -0.84667,0.91723 1.02305,0.88194 c 0.98778,0.84667 1.02306,0.91722 0.35278,1.30528 -0.35278,0.21167 -0.98778,0.45861 -1.34055,0.56444 -0.88195,0.24695 -1.09361,0.91723 -0.38806,1.19945 0.67028,0.24694 1.76389,-0.24695 2.92806,-1.30528 0.9525,-0.88194 0.98777,-1.51694 0.0706,-2.08139 -0.91723,-0.59972 -0.88195,-1.27 0.0705,-1.41111 1.19944,-0.17639 1.23472,-0.98778 0.0353,-0.98778 -0.67028,0 -1.34056,0.35278 -1.905,0.91722 z"
         inkscape:connector-curvature="0"
         style="stroke-width:0.03527778" />
      <path
         id="path1944"
         d="m -161.0612,101.6789 c -0.10584,1.34056 -0.3175,3.10445 -0.45862,3.4925 -0.21166,0.56445 0.35278,1.34056 0.77612,1.05834 0.17638,-0.10584 0.45861,-0.635 0.59972,-1.16417 0.28222,-1.23472 1.12889,-2.57528 1.5875,-2.57528 0.21166,0 0.35278,0.635 0.35278,1.37584 0,1.76388 0.28222,2.50472 0.9525,2.50472 0.42333,0 0.49388,-0.38806 0.28222,-2.2225 -0.24695,-2.61056 -0.88195,-3.45723 -1.97556,-2.75167 -0.52916,0.3175 -0.84666,0.35278 -1.12889,0.0706 -0.56444,-0.56444 -0.9525,-0.45861 -0.98777,0.21167 z"
         inkscape:connector-curvature="0"
         style="stroke-width:0.03527778" />
      <path
         id="path1946"
         d="m -137.84843,101.71418 c -0.84666,0.91722 -1.23472,3.95111 -0.52916,3.95111 0.3175,0 0.81139,-0.67028 1.12889,-1.55222 0.42333,-1.12889 0.84666,-1.62278 1.37583,-1.69333 1.19944,-0.17639 0.9525,-1.12889 -0.3175,-1.27 -0.70556,-0.0706 -1.27,0.10583 -1.65806,0.56444 z"
         inkscape:connector-curvature="0"
         style="stroke-width:0.03527778" />
      <path
         id="path1948"
         d="m -142.25815,102.03168 c -0.52917,1.02306 -0.84667,3.52778 -0.49389,3.77472 0.49389,0.28223 1.16417,-0.67027 1.44639,-1.97555 0.17639,-0.81139 0.49389,-1.19945 1.09361,-1.34056 1.48167,-0.35278 1.27,-1.05833 -0.3175,-1.05833 -0.98778,0 -1.51694,0.17639 -1.72861,0.59972 z"
         inkscape:connector-curvature="0"
         style="stroke-width:0.03527778" />
      <path
         id="path1950"
         d="m -131.18093,127.25529 c -0.28222,0.88195 -0.91722,10.40695 -0.91722,13.40556 0,1.69333 0.17639,3.175 0.35278,3.28083 0.21167,0.14111 0.35278,-0.74083 0.35278,-2.36361 0,-1.41111 0.24694,-4.97416 0.52916,-7.86694 0.28223,-2.92806 0.52917,-5.64445 0.52917,-6.10306 0,-0.81139 -0.635,-1.09361 -0.84667,-0.35278 z"
         inkscape:connector-curvature="0"
         style="stroke-width:0.03527778" />
      <path
         id="path1952"
         d="m -147.44398,129.37196 c -0.14111,1.23472 -0.17639,5.57389 -0.10584,9.70139 l 0.10584,7.47889 -1.23472,0.52917 c -2.29306,1.02305 -5.32695,3.77472 -7.05556,6.42055 -1.55222,2.39889 -2.57528,5.36222 -2.89278,8.5725 -0.0706,0.635 -0.38805,0.9525 -1.23472,1.16417 -2.8575,0.74083 -3.77472,4.26861 -2.01083,7.72583 0.84666,1.69334 0.9525,1.76389 2.15194,1.65806 l 1.30528,-0.10583 0.74083,3.59833 c 0.59972,2.89278 1.02306,3.95111 2.11667,5.57389 0.77611,1.09361 1.86972,2.32833 2.46944,2.75166 0.56445,0.38806 1.34056,0.98778 1.65806,1.34056 0.35278,0.35278 1.37583,0.70556 2.46944,0.81139 1.02306,0.0706 4.48028,0.42333 7.69056,0.74083 3.21028,0.28222 6.31472,0.45861 6.91444,0.3175 l 1.09361,-0.21166 0.21167,2.61055 c 0.10583,1.41111 0.0706,4.62139 -0.10583,7.16139 -0.49389,6.73805 -0.42334,9.45444 0.14111,10.23055 0.45861,0.635 0.49389,0.42334 0.45861,-1.94027 -0.0353,-1.44639 0.10583,-6.17362 0.24694,-10.4775 l 0.3175,-7.83167 0.91723,-0.21167 c 2.64583,-0.635 5.75028,-2.11666 7.05555,-3.35138 1.69334,-1.65806 2.43417,-2.96334 2.8575,-5.25639 0.17639,-0.9525 0.81139,-2.46945 1.37584,-3.38667 2.2225,-3.4925 2.75166,-9.48972 1.27,-14.18167 -0.91723,-2.96333 -4.02167,-10.23055 -4.97417,-11.64166 -0.3175,-0.49389 -1.69333,-1.41112 -3.06917,-2.04612 -5.715,-2.64583 -10.795,-3.21027 -16.26305,-1.79916 -1.94028,0.49389 -3.63361,0.81139 -3.81,0.70555 -0.17639,-0.10583 -0.21167,-4.23333 -0.0706,-9.525 0.17639,-6.56166 0.14111,-9.31333 -0.14111,-9.31333 -0.21167,0 -0.45861,0.98778 -0.59973,2.18722 z m 16.40416,17.49778 c 3.175,0.9525 5.78556,2.32833 6.63223,3.4925 0.74083,1.05833 3.81,8.255 4.86833,11.39472 1.44639,4.23334 0.49389,10.65389 -2.04611,13.75834 -0.70556,0.88194 -0.98778,1.62277 -0.98778,2.57527 0,2.18723 -1.79916,4.97417 -3.88055,6.06778 -1.48167,0.77611 -6.06778,2.2225 -7.76112,2.43417 -0.88194,0.14111 -4.79777,-0.0706 -8.71361,-0.42333 l -7.12611,-0.67028 -1.72861,-1.44639 c -3.38667,-2.8575 -4.40972,-4.93889 -5.64444,-11.53583 -0.24695,-1.12889 -0.42334,-1.37584 -0.98778,-1.30528 -2.01083,0.3175 -2.08139,0.28222 -2.08139,-0.98778 -0.0353,-0.67028 0.0706,-1.79917 0.21167,-2.46944 0.21166,-1.23473 0.21166,-1.19945 0.28222,0.35277 0.0353,1.76389 0.56444,3.03389 0.88194,2.11667 0.0705,-0.28222 0.21167,-1.79917 0.3175,-3.35139 0.0706,-1.55222 0.3175,-3.13972 0.52917,-3.52778 0.21167,-0.38805 0.635,-1.97555 0.9525,-3.52778 0.98778,-4.62138 3.10444,-7.9375 6.73806,-10.44222 1.76388,-1.19944 3.56305,-1.86972 7.54944,-2.82222 3.28083,-0.81139 8.60778,-0.67028 11.99444,0.3175 z m -30.33888,21.73111 c -0.28223,0.28222 -0.35278,-0.0353 -0.21167,-1.19944 0.24694,-2.32834 0.3175,-2.46945 0.45861,-0.74084 0.10583,0.84667 -0.0353,1.72862 -0.24694,1.94028 z"
         inkscape:connector-curvature="0"
         style="stroke-width:0.03527778" />
      <path
         id="path1954"
         d="m -140.91759,148.2103 c -1.48167,0.28222 -4.79778,1.51694 -6.42056,2.43416 -2.08139,1.16417 -6.38528,5.60917 -7.47889,7.76111 -1.51694,2.99861 -2.08139,5.92667 -1.83444,9.525 0.28222,3.73945 0.91722,5.89139 2.61055,8.74889 3.06917,5.29167 7.05556,7.79639 13.40556,8.53723 9.38389,1.05833 20.28472,-9.45445 20.28472,-19.57917 0,-8.43139 -8.32555,-16.65111 -17.63889,-17.42722 -1.12889,-0.0706 -2.43416,-0.0706 -2.92805,0 z m 5.85611,1.69333 c 5.60916,1.48167 11.50055,6.94972 13.05278,12.10028 1.27,4.19805 0.35277,8.74889 -2.71639,13.335 -2.8575,4.23333 -5.78556,6.45583 -10.75973,8.14916 -2.68111,0.88195 -2.89277,0.91723 -5.57388,0.49389 -4.23334,-0.635 -6.27945,-1.55222 -8.78417,-3.88055 -5.32695,-4.97417 -7.19667,-12.7 -4.83306,-19.64973 1.19945,-3.4925 6.31473,-8.5725 8.64306,-8.5725 0.28222,0 0.52917,-0.21166 0.52917,-0.49388 0,-0.67028 0.42333,-0.91723 2.43416,-1.44639 2.18722,-0.635 5.78556,-0.635 8.00806,-0.0353 z"
         inkscape:connector-curvature="0"
         style="stroke-width:0.03527778" />
      <path
         id="path1956"
         d="m -139.68287,153.00807 c -0.10583,0.45861 -0.14111,3.38667 -0.10583,6.49111 0.10583,5.00945 0.0353,5.78556 -0.49389,6.38528 -0.77611,0.84667 -0.81139,1.62278 -0.10584,2.2225 0.59973,0.49389 1.94028,0.14111 1.94028,-0.49389 0,-0.24694 1.05833,-1.65805 2.32833,-3.175 1.79917,-2.08139 2.25778,-2.82222 1.94028,-3.13972 -0.3175,-0.3175 -0.88194,0.10583 -2.43416,1.83445 l -2.01084,2.2225 v -6.56167 c 0,-4.97417 -0.10583,-6.56167 -0.42333,-6.56167 -0.24695,0 -0.52917,0.35278 -0.635,0.77611 z"
         inkscape:connector-curvature="0"
         style="stroke-width:0.03527778" />
      <path
         id="path1958"
         d="m -52.899529,137.45057 c -2.08139,1.12889 -3.06917,1.97556 -4.1275,3.56306 -1.23473,1.83444 -1.23473,2.8575 -0.0353,3.81 0.81139,0.635 0.88194,0.84666 0.59972,1.69333 l -0.35278,0.9525 -4.02166,-0.0353 h -4.05695 l -0.10583,-2.46944 -0.10583,-2.50473 1.48166,-0.56444 c 1.44639,-0.56445 1.44639,-0.59972 1.19945,-1.905 -0.10584,-0.74083 -0.35278,-1.44639 -0.45861,-1.5875 -0.14112,-0.14111 -1.48167,-0.14111 -2.99862,0.0353 -2.92805,0.28222 -3.42194,0.56444 -3.42194,2.15194 0,1.27 0.38806,1.69334 1.5875,1.83445 l 1.05833,0.10583 -0.0705,2.43417 c -0.0706,2.78694 -0.10584,2.8575 -3.06917,3.21028 -1.12889,0.14111 -2.645834,0.45861 -3.386668,0.70555 -0.740833,0.24695 -1.446387,0.38806 -1.55222,0.28223 -0.52917,-0.52917 -0.141113,-1.55223 0.77611,-2.01084 0.564444,-0.28222 1.199444,-0.74083 1.44639,-1.02305 0.634998,-0.81139 -0.17639,-1.12889 -0.917223,-0.38806 -2.046113,2.04611 -8.29028,3.63361 -9.771947,2.50472 -0.670276,-0.49389 -0.670276,-0.67027 -0.246943,-3.10444 0.246943,-1.44639 0.705556,-3.13972 1.023056,-3.81 0.705554,-1.51695 2.328334,-2.50472 4.1275,-2.50472 2.681111,0 2.928054,0.21166 3.739444,2.8575 0.705556,2.32833 1.164167,3.10444 1.622779,2.64583 0.3175,-0.3175 -0.9525,-4.72722 -1.622779,-5.53861 -0.635,-0.77611 -3.845277,-1.30528 -5.468057,-0.88195 -1.516943,0.38806 -3.280833,2.2225 -3.880553,4.02167 -0.740834,2.32833 -1.023057,5.53861 -0.599723,6.35 0.740833,1.37583 3.563056,1.83445 5.750276,0.9525 0.458613,-0.17639 0.705557,0 0.98778,0.70556 0.45861,1.23472 0.03528,1.76389 -2.293056,2.78694 -4.480277,2.01083 -6.455834,7.33778 -6.067777,16.58056 0.14111,3.73944 0.352777,5.15055 1.128887,7.44361 1.164166,3.4925 2.116666,4.79778 4.797779,6.45583 1.128887,0.70556 2.081387,1.48167 2.081387,1.65806 0,0.35278 -0.493887,1.16417 -2.963333,4.79778 -0.564443,0.84666 -1.23472,1.34055 -1.940277,1.48166 -1.41111,0.28222 -1.940277,1.30528 -1.234723,2.29306 0.635,0.91722 1.799167,0.98777 2.89278,0.21166 0.635,-0.42333 0.77611,-0.77611 0.59972,-1.51694 -0.176387,-0.77611 0.141113,-1.41111 1.481667,-3.31611 0.917223,-1.27 1.869723,-2.57528 2.046113,-2.8575 0.3175,-0.49389 0.564443,-0.45861 2.18722,0.3175 0.98778,0.49389 3.704171,1.30528 5.997221,1.79917 3.52778,0.77611 4.65667,0.88194 7.51417,0.70555 3.4925,-0.24694 4.7625,-0.52916 7.37306,-1.69333 0.84666,-0.35278 1.55222,-0.635 1.5875,-0.56445 0.0705,0.0706 0.67027,1.34056 1.37583,2.8575 0.84667,1.79917 1.23472,3.06917 1.09361,3.59833 -0.10583,0.49389 0.0353,0.98778 0.38806,1.37584 1.12889,1.12889 4.05694,0.38805 4.05694,-1.05834 0,-0.84666 -0.59972,-1.19944 -2.15194,-1.19944 -0.81139,0 -1.05834,-0.17639 -1.23473,-0.98778 -0.14111,-0.52916 -0.70555,-1.86972 -1.30527,-2.99861 l -1.05834,-2.01083 2.15195,-2.15194 c 3.56305,-3.4925 5.00944,-7.33778 5.53861,-14.605 0.28222,-3.56306 -0.0706,-5.89139 -1.44639,-9.98362 -1.72861,-5.18583 -3.35139,-7.54944 -7.02028,-10.16 -1.23472,-0.84666 -0.9525,-1.55222 0.635,-1.55222 0.635,0 1.97556,-0.49389 2.99861,-1.05833 1.76389,-1.02306 2.15195,-1.51695 1.55223,-1.905 -0.17639,-0.10584 -0.17639,-1.23473 0,-2.50473 0.35277,-2.64583 -0.0706,-4.55083 -1.12889,-5.11527 -1.09361,-0.59973 -3.28084,-0.38806 -4.7625,0.38805 z m 4.58611,1.16417 c 0.45861,0.67028 0.49389,1.41111 0.3175,3.73944 -0.21167,2.57528 -0.35278,2.92806 -1.16417,3.45723 -0.49389,0.35277 -1.5875,0.59972 -2.50472,0.59972 -1.34056,0 -1.905,-0.24695 -3.42195,-1.41111 -1.02305,-0.77611 -1.83444,-1.5875 -1.86972,-1.79917 0,-0.17639 0.45861,-1.09361 1.02306,-2.01083 1.905,-2.92806 6.38528,-4.48028 7.62,-2.57528 z m -15.41639,1.51694 c -0.0706,0.45861 -0.59972,0.70556 -1.86972,0.88195 -1.905,0.28222 -2.64584,0.17639 -2.64584,-0.42334 0,-0.56444 1.37584,-1.02305 3.10445,-1.02305 1.27,-0.0353 1.51694,0.0705 1.41111,0.56444 z m 9.56028,6.77334 c 0.67027,0.42333 0.21166,1.44639 -0.635,1.44639 -0.91723,0 -1.27,-0.59973 -0.74084,-1.23473 0.49389,-0.59972 0.70556,-0.635 1.37584,-0.21166 z m -21.731118,2.15194 c 0.211667,0.84667 -0.423333,1.34056 -0.846666,0.67028 -0.45861,-0.74083 -0.388054,-1.37583 0.17639,-1.37583 0.246943,0 0.564443,0.3175 0.670276,0.70555 z m 17.533058,-0.21166 c 6.38528,0.56444 9.94833,3.81 12.27667,11.14777 1.19944,3.73945 1.44639,5.85612 1.12889,9.87778 -0.42334,5.08 -0.635,6.17361 -1.79917,8.74889 -1.83444,4.09222 -4.58611,6.49111 -9.2075,8.04333 -2.54,0.84667 -3.45722,0.9525 -6.80861,0.9525 -5.99722,-0.0706 -12.100281,-1.905 -16.016114,-4.83305 -0.670277,-0.49389 -1.375834,-0.91722 -1.552224,-0.91722 -0.493887,0 -1.940276,-1.72861 -2.716387,-3.21028 -2.822223,-5.36222 -2.8575,-16.86278 -0.105833,-21.94278 1.09361,-1.97556 2.892777,-3.52778 3.739444,-3.21028 0.352776,0.10584 1.234723,-0.35278 2.328333,-1.19944 0.987777,-0.81139 2.645833,-1.72861 3.633613,-2.11667 2.504718,-0.91722 9.701388,-1.86972 12.100278,-1.62278 0.38806,0.0706 1.72861,0.17639 2.99861,0.28223 z"
         inkscape:connector-curvature="0"
         style="stroke-width:0.03527778" />
      <path
         id="path1960"
         d="m -65.070369,152.44363 c -2.50472,0.38805 -4.90361,0.98778 -6.06777,1.5875 -0.74084,0.38805 -1.763895,0.67028 -2.328338,0.67028 -1.12889,0 -3.633613,1.51694 -5.080003,3.03389 -1.41111,1.51694 -3.563054,6.35 -3.739443,8.46666 -0.282224,3.13973 0.45861,6.38528 2.2225,9.91306 1.975556,3.84528 3.81,5.82083 6.843889,7.26722 1.940275,0.91722 2.786945,1.09361 5.891395,1.23472 2.96333,0.14111 4.02166,0.0353 6.0325,-0.56444 4.72722,-1.44639 9.24277,-5.00945 10.795,-8.53722 0.91722,-2.01084 1.19944,-6.59695 0.635,-9.63084 -0.24695,-1.19944 -1.05834,-3.45722 -1.79917,-5.00944 -2.36361,-4.83306 -5.715,-7.58472 -10.12472,-8.29028 -1.12889,-0.21167 -2.11667,-0.3175 -2.2225,-0.3175 -0.10584,0.0353 -0.56445,0.10583 -1.05834,0.17639 z m 5.36223,1.76389 c 3.10444,0.98778 6.35,4.58611 7.9375,8.92528 1.30527,3.42194 1.51694,8.64305 0.49388,11.35944 -2.43416,6.45583 -11.78277,10.65389 -19.26166,8.64306 -4.162781,-1.09361 -6.138338,-2.82223 -8.537228,-7.44361 -2.716387,-5.29167 -2.892776,-9.48973 -0.564443,-14.14639 1.058333,-2.11667 1.834443,-3.13973 3.280833,-4.30389 1.834446,-1.51695 1.94028,-1.55223 3.951113,-1.41111 1.799165,0.14111 2.046115,0.0705 1.869725,-0.45862 -0.17639,-0.49388 0.24694,-0.70555 2.18722,-1.16416 4.05694,-0.9525 5.57389,-0.9525 8.64306,0 z"
         inkscape:connector-curvature="0"
         style="stroke-width:0.03527778" />
      <path
         id="path1962"
         d="m -68.033699,158.29974 c -0.52917,3.88056 -0.84667,10.68917 -0.56444,11.04195 0.17638,0.21166 0.88194,0.3175 1.51694,0.24694 0.91722,-0.10583 1.19944,-0.28222 1.05833,-0.70556 -0.10583,-0.52916 2.39889,-2.96333 6.24417,-5.99722 1.02306,-0.84667 0.74083,-1.41111 -0.42333,-0.88194 -0.45861,0.21166 -2.11667,1.51694 -3.66889,2.89278 -1.5875,1.37583 -3.06917,2.50472 -3.31611,2.50472 -0.35278,0 -0.42334,-0.98778 -0.21167,-4.51556 0.10583,-2.46944 0.3175,-4.83305 0.42333,-5.29167 0.17639,-0.56444 0.0706,-0.77611 -0.3175,-0.77611 -0.38805,0 -0.635,0.45861 -0.74083,1.48167 z"
         inkscape:connector-curvature="0"
         style="stroke-width:0.03527778" />
      <path
         id="path1964"
         d="m -59.320089,168.91835 c 0.17639,0.59972 2.25778,0.67028 2.46945,0.0705 0.17638,-0.35278 -0.14112,-0.49389 -1.19945,-0.45861 -0.88194,0 -1.34055,0.17639 -1.27,0.38806 z"
         inkscape:connector-curvature="0"
         style="stroke-width:0.03527778" />
      <path
         id="path1966"
         d="m -56.074529,168.81252 c -0.28223,0.42333 0.70555,0.84667 1.23472,0.52917 0.21167,-0.10584 0.28222,-0.38806 0.17639,-0.56445 -0.28222,-0.42333 -1.12889,-0.42333 -1.41111,0.0353 z"
         inkscape:connector-curvature="0"
         style="stroke-width:0.03527778" />
      <path
         id="path1968"
         d="m -64.999809,169.23585 c 0.10583,0.24695 0.45861,0.52917 0.77611,0.56445 0.42333,0.10583 0.59972,-0.0353 0.49389,-0.35278 -0.10583,-0.24695 -0.45861,-0.52917 -0.77611,-0.56445 -0.42334,-0.10583 -0.59972,0.0353 -0.49389,0.35278 z"
         inkscape:connector-curvature="0"
         style="stroke-width:0.03527778" />
      <path
         id="path1970"
         d="m -63.235919,169.23585 c 0.21166,0.635 0.98778,0.74084 0.98778,0.14111 0,-0.3175 -0.24695,-0.56444 -0.56445,-0.56444 -0.3175,0 -0.49389,0.17639 -0.42333,0.42333 z"
         inkscape:connector-curvature="0"
         style="stroke-width:0.03527778" />
      <path
         id="path1972"
         d="m -61.542589,169.1653 c 0,0.17639 0.3175,0.35277 0.70556,0.35277 0.38805,0 0.70555,-0.17638 0.70555,-0.35277 0,-0.21167 -0.3175,-0.35278 -0.70555,-0.35278 -0.38806,0 -0.70556,0.14111 -0.70556,0.35278 z"
         inkscape:connector-curvature="0"
         style="stroke-width:0.03527778" />
      <path
         id="path2078"
         d="m -144.5512,188.10946 c -0.77612,0.74084 0.42333,18.80306 1.23472,18.80306 0.38805,0 0.35278,-3.24556 -0.10584,-5.99722 -0.17638,-1.27001 -0.42333,-4.65667 -0.49388,-7.54945 -0.0706,-2.8575 -0.21167,-5.29166 -0.28223,-5.36222 -0.0706,-0.0705 -0.24694,-0.0353 -0.35277,0.10583 z"
         inkscape:connector-curvature="0"
         style="stroke-width:0.03527778" />
    </g>
  </g>
</svg>
