<?xml version="1.0" encoding="UTF-8" standalone="no"?>
<!-- Created with Inkscape (http://www.inkscape.org/) -->

<svg
   xmlns:dc="http://purl.org/dc/elements/1.1/"
   xmlns:cc="http://creativecommons.org/ns#"
   xmlns:rdf="http://www.w3.org/1999/02/22-rdf-syntax-ns#"
   xmlns:svg="http://www.w3.org/2000/svg"
   xmlns="http://www.w3.org/2000/svg"
   xmlns:sodipodi="http://sodipodi.sourceforge.net/DTD/sodipodi-0.dtd"
   xmlns:inkscape="http://www.inkscape.org/namespaces/inkscape"
   width="251.18741mm"
   height="164.22374mm"
   viewBox="0 0 251.18741 164.22374"
   version="1.1"
   id="svg9032"
   inkscape:version="0.92.5 (2060ec1f9f, 2020-04-08)"
   sodipodi:docname="interrupt_predictable_latency.svg">
  <defs
     id="defs9026" />
  <sodipodi:namedview
     id="base"
     pagecolor="#ffffff"
     bordercolor="#666666"
     borderopacity="1.0"
     inkscape:pageopacity="0.0"
     inkscape:pageshadow="2"
     inkscape:zoom="0.35"
     inkscape:cx="-452.338"
     inkscape:cy="199.86117"
     inkscape:document-units="mm"
     inkscape:current-layer="layer1"
     showgrid="false"
     fit-margin-top="0"
     fit-margin-left="0"
     fit-margin-right="0"
     fit-margin-bottom="0"
     inkscape:window-width="1920"
     inkscape:window-height="1080"
     inkscape:window-x="1920"
     inkscape:window-y="0"
     inkscape:window-maximized="0" />
  <metadata
     id="metadata9029">
    <rdf:RDF>
      <cc:Work
         rdf:about="">
        <dc:format>image/svg+xml</dc:format>
        <dc:type
           rdf:resource="http://purl.org/dc/dcmitype/StillImage" />
        <dc:title></dc:title>
      </cc:Work>
    </rdf:RDF>
  </metadata>
  <g
     inkscape:label="Layer 1"
     inkscape:groupmode="layer"
     id="layer1"
     transform="translate(17.524262,-45.04905)">
    <g
       id="g9800"
       transform="rotate(-0.66042194,105.07738,172.26786)">
      <path
         id="path2588"
         d="m 116.27171,135.30218 c -0.98778,0.24694 -0.77611,1.16417 0.24694,1.16417 0.88195,0 0.88195,0.0353 0.88195,2.99861 0,2.36361 -0.10584,3.03389 -0.56445,3.28083 -0.67027,0.38806 -0.35277,1.12889 0.45861,1.12889 0.3175,0 1.16417,-0.17639 1.905,-0.42333 1.65806,-0.49389 1.83445,-1.34056 0.28223,-1.34056 h -1.05834 l 0.14111,-2.92805 c 0.10584,-2.64584 0.17639,-2.89278 0.88195,-2.99862 0.42333,-0.0705 0.77611,-0.35277 0.77611,-0.635 0,-0.35277 -0.42333,-0.49388 -1.65806,-0.45861 -0.9525,0.0353 -1.97555,0.10584 -2.29305,0.21167 z"
         inkscape:connector-curvature="0"
         style="stroke-width:0.03527778" />
      <path
         id="path2590"
         d="m 126.57282,136.81912 c -0.24694,0.98778 -0.56444,1.83445 -0.74083,1.94028 -0.28222,0.17639 -0.21167,1.05834 0.24694,3.28084 0.21167,1.05833 1.69334,1.76388 2.43417,1.12888 0.635,-0.52916 0.38805,-1.05833 -0.52917,-1.05833 -0.56444,0 -1.05833,-0.635 -1.05833,-1.41111 0,-0.14111 0.56444,-0.52917 1.27,-0.88194 1.34055,-0.635 1.12889,-1.34056 -0.3175,-0.9525 -0.59972,0.14111 -0.67028,0.0705 -0.45861,-0.67028 0.635,-2.18722 0.67028,-3.13972 0.10583,-3.13972 -0.35278,0 -0.67028,0.59972 -0.9525,1.76388 z"
         inkscape:connector-curvature="0"
         style="stroke-width:0.03527778" />
      <path
         id="path2592"
         d="m 149.11532,136.88968 c -0.42333,0.84667 -1.02305,1.69333 -1.34055,1.94028 -0.45861,0.3175 -0.49389,0.49389 -0.10584,0.84666 0.21167,0.24695 0.42334,0.70556 0.38806,0.98778 0,0.38806 -0.14111,0.3175 -0.38806,-0.21166 -0.52916,-1.09362 -1.55222,-1.34056 -2.57527,-0.67028 -0.91723,0.59972 -0.88195,0.45861 -1.02306,6.45583 -0.0353,1.62278 0.74083,1.30528 1.05833,-0.49389 0.24695,-1.34055 0.49389,-1.69333 1.12889,-1.86972 0.45861,-0.10583 1.02306,-0.56444 1.30528,-1.02306 l 0.45861,-0.84666 0.38806,0.74083 c 0.49389,0.91722 1.86972,1.02306 2.50472,0.24695 0.38805,-0.45862 0.3175,-0.52917 -0.45861,-0.52917 -1.55222,0 -1.83445,-2.18722 -0.38806,-2.89278 0.98778,-0.49389 1.16417,-1.23472 0.24695,-1.05833 -0.56445,0.14111 -0.52917,-0.28222 0.0705,-2.32834 0.42334,-1.37583 -0.45861,-0.88194 -1.27,0.70556 z m -2.43416,4.86833 c 0,1.12889 -0.91723,1.51695 -1.27,0.52917 -0.3175,-0.74083 0.10583,-1.5875 0.74083,-1.5875 0.35278,0 0.52917,0.35278 0.52917,1.05833 z"
         inkscape:connector-curvature="0"
         style="stroke-width:0.03527778" />
      <path
         id="path2594"
         d="m 158.32282,136.2194 c -2.29305,0.77611 -2.82222,1.37584 -1.37583,1.5875 0.635,0.10584 0.70555,0.28222 0.52917,1.23472 -0.59973,3.24556 -0.635,3.77473 -0.21167,4.30389 0.635,0.74084 1.05833,0.3175 1.05833,-1.02305 0,-0.635 0.17639,-2.01084 0.38806,-3.06917 0.35278,-1.86972 0.45861,-1.97555 1.86972,-2.46944 0.77611,-0.28223 1.44639,-0.67028 1.44639,-0.84667 0,-0.59972 -1.34056,-0.52917 -3.70417,0.28222 z"
         inkscape:connector-curvature="0"
         style="stroke-width:0.03527778" />
      <path
         id="path2596"
         d="m 186.08644,137.41885 c -0.14112,0.10583 -0.24695,0.74083 -0.24695,1.41111 0,0.77611 -0.17639,1.16416 -0.49389,1.16416 -0.77611,0 -2.36361,1.48167 -2.46944,2.29306 -0.0706,0.38806 0.0353,0.98778 0.21166,1.37583 0.28223,0.52917 0.59973,0.59973 1.86973,0.42334 1.16416,-0.17639 1.55222,-0.14111 1.69333,0.3175 0.14111,0.28222 0.49389,0.52916 0.81139,0.52916 0.42333,0 0.49389,-0.17639 0.28222,-0.635 -0.17639,-0.3175 -0.28222,-1.72861 -0.21167,-3.06916 0.0353,-1.37584 0,-2.82223 -0.10583,-3.28084 -0.17639,-0.74083 -0.88194,-1.02305 -1.34055,-0.52916 z m -0.38806,4.86833 c -0.52917,0.81139 -1.62278,1.12889 -1.62278,0.49389 0,-0.24695 0.35278,-0.81139 0.77611,-1.27 0.91723,-0.98778 1.5875,-0.35278 0.84667,0.77611 z"
         inkscape:connector-curvature="0"
         style="stroke-width:0.03527778" />
      <path
         id="path2602"
         d="m 163.96727,138.40662 c 0,0.28223 0.24694,0.52917 0.52916,0.52917 0.28223,0 0.52917,-0.24694 0.52917,-0.52917 0,-0.28222 -0.24694,-0.52916 -0.52917,-0.52916 -0.28222,0 -0.52916,0.24694 -0.52916,0.52916 z"
         inkscape:connector-curvature="0"
         style="stroke-width:0.03527778" />
      <path
         id="path2608"
         d="m 130.1006,139.88829 c -0.38806,0.49389 -0.70556,1.27 -0.70556,1.69333 0,1.37584 2.68111,2.57528 3.06917,1.37584 0.0706,-0.24695 -0.28222,-0.49389 -0.77611,-0.635 -1.05833,-0.28222 -1.16417,-0.91722 -0.21167,-1.16417 0.70556,-0.17639 1.23472,-1.02305 0.91722,-1.51694 -0.45861,-0.74084 -1.62277,-0.59973 -2.29305,0.24694 z"
         inkscape:connector-curvature="0"
         style="stroke-width:0.03527778" />
      <path
         id="path2610"
         d="m 133.76949,140.48801 c -0.3175,1.30528 -0.0353,2.46945 0.67028,2.61056 0.42333,0.10583 0.59972,-0.10583 0.59972,-0.74083 0,-0.9525 0.49389,-1.44639 1.72861,-1.76389 0.77611,-0.17639 0.81139,-0.14111 0.59972,1.19944 -0.21167,1.23472 -0.14111,1.41111 0.38806,1.30528 0.38805,-0.0706 0.70555,-0.52917 0.81139,-1.12889 0.10583,-0.635 0.49388,-1.12889 0.98777,-1.30528 0.77611,-0.28222 0.77611,-0.24694 0.59973,0.88195 -0.42334,2.18722 1.30527,3.63361 2.50472,2.04611 0.56444,-0.70556 0.67028,-3.95111 0.14111,-3.95111 -0.17639,0 -0.35278,0.21166 -0.38806,0.42333 -0.0353,0.24694 -0.0705,0.70556 -0.10583,0.98778 -0.0706,0.28222 -0.10583,0.81139 -0.14111,1.12889 -0.10583,1.12889 -0.77611,0.67027 -0.77611,-0.56445 0,-0.635 -0.21167,-1.34055 -0.45861,-1.55222 -0.24695,-0.21167 -1.905,-0.38806 -3.70417,-0.38806 -3.10444,0 -3.24556,0.0353 -3.45722,0.81139 z"
         inkscape:connector-curvature="0"
         style="stroke-width:0.03527778" />
      <path
         id="path2614"
         d="m 121.98671,141.82857 c 0,2.01083 0.635,2.25778 1.48167,0.52917 0.59972,-1.19945 0.59972,-1.19945 1.19944,0.77611 0.14111,0.38805 0.24695,0.42333 0.56445,0.10583 0.28222,-0.28222 0.3175,-0.81139 0.0705,-1.72861 -0.3175,-1.27 -0.38805,-1.34056 -1.79917,-1.37583 h -1.51694 z"
         inkscape:connector-curvature="0"
         style="stroke-width:0.03527778" />
      <path
         id="path2616"
         d="m 160.82755,140.48801 c -0.59973,0.74084 -0.35278,3.21028 0.3175,3.21028 0.35277,0 0.56444,-0.42333 0.635,-1.12889 0.0705,-0.70555 0.38805,-1.30528 0.81138,-1.51694 0.35278,-0.21167 0.67028,-0.52917 0.67028,-0.70556 0,-0.52916 -1.97555,-0.42333 -2.43416,0.14111 z"
         inkscape:connector-curvature="0"
         style="stroke-width:0.03527778" />
      <path
         id="path2618"
         d="m 167.49505,140.27635 c -1.30528,0.21166 -1.76389,0.74083 -1.76389,2.04611 0,0.81139 0.21166,1.30528 0.70555,1.55222 0.74084,0.38806 0.91722,1.27 0.38806,2.04611 -0.24695,0.42334 -0.42334,0.42334 -1.02306,0.0353 -0.88194,-0.56444 -1.41111,-0.17639 -0.91722,0.67028 0.635,1.02305 1.97556,0.9525 2.82222,-0.10583 l 0.74084,-0.91723 0.59972,0.88195 c 1.34055,2.04611 2.75166,0.28222 3.24555,-4.02167 l 0.21167,-1.94028 -0.98778,-0.0705 c -2.01083,-0.10584 -2.89278,1.72861 -1.51694,3.10444 0.70555,0.70556 0.81139,2.11667 0.14111,2.32834 -0.21167,0.0706 -0.67028,-0.38806 -1.02306,-0.98778 -0.49389,-0.84667 -0.59972,-1.48167 -0.42333,-2.78695 0.24694,-1.86972 0.14111,-2.04611 -1.19944,-1.83444 z m -0.14112,2.43416 c -0.38805,0.38806 -0.67027,-0.21166 -0.38805,-0.84666 0.28222,-0.59973 0.28222,-0.59973 0.42333,0 0.10584,0.35277 0.0706,0.74083 -0.0353,0.84666 z m 3.91584,-0.42333 c -0.14111,0.28222 -0.38806,0.52917 -0.59972,0.52917 -0.49389,0 -0.45862,-0.9525 0.10583,-1.16417 0.56444,-0.21167 0.74083,-0.0353 0.49389,0.635 z"
         inkscape:connector-curvature="0"
         style="stroke-width:0.03527778" />
      <path
         id="path2620"
         d="m 173.9156,140.45274 c -0.21167,0.24694 -0.56444,0.88194 -0.77611,1.44638 -0.49389,1.30528 0.35278,2.78695 1.48167,2.61056 1.02305,-0.14111 1.19944,-0.84667 0.28222,-1.09361 -0.9525,-0.24695 -0.88195,-0.88195 0.14111,-1.16417 0.81139,-0.17639 1.44639,-1.34055 1.05833,-1.97555 -0.28222,-0.45861 -1.76389,-0.3175 -2.18722,0.17639 z"
         inkscape:connector-curvature="0"
         style="stroke-width:0.03527778" />
      <path
         id="path2622"
         d="m 177.47866,140.59385 c -0.70556,0.14111 -0.81139,0.38805 -0.81139,1.65805 0,0.81139 0.10583,1.62278 0.24694,1.72861 0.38806,0.42334 1.16417,-0.49389 1.16417,-1.37583 0,-0.59972 0.28222,-0.98778 0.88194,-1.19944 1.83445,-0.70556 0.81139,-1.27 -1.48166,-0.81139 z"
         inkscape:connector-curvature="0"
         style="stroke-width:0.03527778" />
      <path
         id="path2624"
         d="m 180.33616,141.22885 c -1.12889,1.12889 -1.02306,2.61055 0.17639,3.21027 0.45861,0.24695 1.05833,0.35278 1.30527,0.24695 0.74084,-0.28222 0.59973,-1.16417 -0.17638,-1.16417 -0.9525,0 -1.27,-0.67028 -0.49389,-0.9525 1.23472,-0.42333 1.905,-1.23472 1.48166,-1.76389 -0.59972,-0.70555 -1.30527,-0.56444 -2.29305,0.42334 z"
         inkscape:connector-curvature="0"
         style="stroke-width:0.03527778" />
      <path
         id="path2626"
         d="m 163.61449,141.44051 c -0.52917,0.9525 -0.3175,2.25778 0.35278,2.25778 0.35278,0 0.56444,-0.45861 0.635,-1.51694 0.10583,-1.5875 -0.35278,-1.97556 -0.98778,-0.74084 z"
         inkscape:connector-curvature="0"
         style="stroke-width:0.03527778" />
      <path
         id="path2638"
         d="m 112.74393,146.97913 c -1.65805,1.905 -3.77472,6.73805 -4.55083,10.54805 -0.35278,1.62278 -0.635,2.2225 -1.12889,2.36361 -0.635,0.14111 -0.67028,0.38806 -0.45861,2.39889 0.14111,1.19945 0.35278,2.32834 0.42333,2.46945 0.45861,0.74083 1.09361,0.10583 1.86972,-1.83445 0.74084,-1.86972 0.81139,-2.2225 0.38806,-2.99861 -0.59972,-1.12889 -0.21167,-2.96333 1.65805,-7.76111 0.84667,-2.18722 1.79917,-3.98639 2.64584,-4.93889 0.74083,-0.84667 1.34055,-1.62278 1.34055,-1.72861 0,-0.59972 -0.81139,-0.0353 -2.18722,1.48167 z m -4.16278,14.14638 c 0,0.59973 -0.42333,1.44639 -0.74083,1.44639 -0.17639,0 -0.3175,-0.38805 -0.3175,-0.88194 0,-0.56445 0.21167,-0.88195 0.52917,-0.88195 0.28222,0 0.52916,0.14112 0.52916,0.3175 z"
         inkscape:connector-curvature="0"
         style="stroke-width:0.03527778" />
      <path
         id="path2664"
         d="m 138.46143,154.66968 c -0.3175,0.35278 0.0706,0.84667 0.67028,0.84667 0.28222,0 0.49389,-0.24695 0.49389,-0.52917 0,-0.52917 -0.74083,-0.74083 -1.16417,-0.3175 z"
         inkscape:connector-curvature="0"
         style="stroke-width:0.03527778" />
      <path
         id="path2666"
         d="m 176.31449,155.33996 c 0,0.28222 0.17639,0.52917 0.35278,0.52917 0.21166,0 0.35278,-0.24695 0.35278,-0.52917 0,-0.28222 -0.14112,-0.52917 -0.35278,-0.52917 -0.17639,0 -0.35278,0.24695 -0.35278,0.52917 z"
         inkscape:connector-curvature="0"
         style="stroke-width:0.03527778" />
      <path
         id="path2668"
         d="m 138.53199,156.64524 c -0.24695,0.91722 -0.24695,2.75166 0,2.89277 0.45861,0.28223 0.635,-0.0353 0.91722,-1.65805 0.21167,-1.05833 0.14111,-1.30528 -0.3175,-1.30528 -0.3175,0 -0.56444,0.0353 -0.59972,0.0706 z"
         inkscape:connector-curvature="0"
         style="stroke-width:0.03527778" />
      <path
         id="path2670"
         d="m 176.31449,157.8094 c 0,0.28223 0.17639,0.52917 0.35278,0.52917 0.21166,0 0.35278,-0.24694 0.35278,-0.52917 0,-0.28222 -0.14112,-0.52916 -0.35278,-0.52916 -0.17639,0 -0.35278,0.24694 -0.35278,0.52916 z"
         inkscape:connector-curvature="0"
         style="stroke-width:0.03527778" />
      <path
         id="path2672"
         d="m 176.49088,159.78496 c -0.35278,0.52917 0.10583,0.88194 0.56444,0.42333 0.24695,-0.24694 0.24695,-0.45861 0.0353,-0.59972 -0.21167,-0.10583 -0.49389,-0.0353 -0.59972,0.17639 z"
         inkscape:connector-curvature="0"
         style="stroke-width:0.03527778" />
      <path
         id="path2676"
         d="m 137.86171,161.76052 c 0,2.36361 0.42333,3.98638 0.98778,3.98638 0.38805,0 0.45861,-0.24694 0.28222,-1.09361 -0.10583,-0.59972 -0.21167,-1.79916 -0.21167,-2.64583 0,-1.12889 -0.14111,-1.55222 -0.52916,-1.55222 -0.38806,0 -0.52917,0.38805 -0.52917,1.30528 z"
         inkscape:connector-curvature="0"
         style="stroke-width:0.03527778" />
      <path
         id="path2680"
         d="m 176.66727,163.27746 c 0,0.38806 0.24694,0.70556 0.52916,0.70556 0.28223,0 0.52917,-0.3175 0.52917,-0.70556 0,-0.38806 -0.24694,-0.70556 -0.52917,-0.70556 -0.28222,0 -0.52916,0.3175 -0.52916,0.70556 z"
         inkscape:connector-curvature="0"
         style="stroke-width:0.03527778" />
      <path
         id="path2682"
         d="m 177.02005,165.92329 c 0,0.49389 0.14111,0.88195 0.3175,0.88195 0.42333,0 0.81139,-1.02306 0.52916,-1.44639 -0.35277,-0.635 -0.84666,-0.3175 -0.84666,0.56444 z"
         inkscape:connector-curvature="0"
         style="stroke-width:0.03527778" />
      <path
         id="path2684"
         d="m 107.69921,166.91107 c -0.10583,0.21167 -0.21167,2.89278 -0.24695,5.89139 l -0.10583,5.46806 -8.466668,-0.10584 c -4.65666,-0.0706 -11.78278,0.0353 -15.839719,0.24695 -6.103057,0.35277 -26.775833,0.42333 -58.913893,0.24694 -3.245553,-0.0353 -4.974166,0.10583 -5.04472,0.35278 -0.07056,0.24694 2.010833,0.45861 6.6675,0.67028 13.123333,0.49389 22.154444,0.52916 42.615556,0.10583 11.359447,-0.24694 25.047226,-0.38806 30.409446,-0.3175 l 9.771948,0.10583 0.24694,-0.9525 c 0.14111,-0.56444 0.14111,-3.175 0,-5.85611 l -0.21167,-4.86833 4.48028,-0.10583 c 8.07861,-0.17639 27.09334,0.38805 41.91,1.27 5.82084,0.35277 9.06639,0.38805 11.46528,0.17638 1.83445,-0.21166 4.79778,-0.28222 6.52639,-0.14111 1.76389,0.10584 8.81945,0.24695 15.69861,0.35278 6.87917,0.10583 15.94556,0.3175 20.14362,0.52917 11.1125,0.52916 15.02833,0.45861 15.24,-0.17639 0.14111,-0.28222 0.10583,-0.56445 -0.0353,-0.67028 -0.14111,-0.0706 -10.23056,-0.3175 -22.47195,-0.56444 -12.20611,-0.21167 -23.56555,-0.52917 -25.22361,-0.67028 -1.76389,-0.17639 -5.15056,-0.14111 -8.29028,0.10583 -2.89278,0.21167 -7.26722,0.28222 -9.70139,0.14111 -2.43416,-0.10583 -7.65528,-0.38805 -11.64166,-0.59972 -10.40695,-0.56444 -13.93473,-0.70555 -27.09334,-0.91722 -9.13694,-0.14111 -11.78278,-0.0706 -11.88861,0.28222 z"
         inkscape:connector-curvature="0"
         style="stroke-width:0.03527778" />
      <path
         id="path2686"
         d="m -11.892462,169.76857 c -1.905,0.81139 -2.046111,1.27 -2.081389,6.24417 -0.03528,3.13972 0.07056,4.55083 0.352778,4.55083 0.493889,0 0.846667,-1.65805 0.846667,-4.09222 v -1.905 h 1.340555 c 0.705556,0 1.481667,-0.14111 1.6933337,-0.28222 0.7761113,-0.52917 1.5522223,-2.04611 1.5522223,-3.03389 0,-1.76389 -1.5875,-2.39889 -3.704167,-1.48167 z m 2.575278,1.48167 c 0.176389,1.12889 -0.987778,2.2225 -2.398889,2.32833 -1.093611,0.10583 -1.234722,0 -1.340555,-0.84667 -0.211667,-1.79916 3.4924997,-3.24555 3.739444,-1.48166 z"
         inkscape:connector-curvature="0"
         style="stroke-width:0.03527778" />
      <path
         id="path2688"
         d="m 2.747817,169.90968 c -0.458611,0.35278 -0.811389,1.16417 -0.9525,2.04611 -0.176389,1.34056 -0.105834,1.48167 0.740833,1.69334 0.599722,0.14111 0.917222,0.45861 0.917222,0.91722 0,1.05833 -0.670277,1.19944 -1.622777,0.3175 l -0.84666697,-0.77611 v 0.91722 c 0,1.37583 1.37583297,1.97556 2.64583297,1.16417 1.234723,-0.81139 1.199445,-2.39889 -0.03528,-3.28084 -1.411112,-1.05833 -0.917223,-2.04611 1.27,-2.57527 0.987777,-0.24695 1.763888,-0.56445 1.763888,-0.74084 0,-0.59972 -3.069166,-0.35278 -3.880555,0.3175 z"
         inkscape:connector-curvature="0"
         style="stroke-width:0.03527778" />
      <path
         id="path2690"
         d="m 138.56727,170.5094 c 0,0.28223 0.24694,0.52917 0.52916,0.52917 0.28222,0 0.52917,-0.24694 0.52917,-0.52917 0,-0.28222 -0.24695,-0.52916 -0.52917,-0.52916 -0.28222,0 -0.52916,0.24694 -0.52916,0.52916 z"
         inkscape:connector-curvature="0"
         style="stroke-width:0.03527778" />
      <path
         id="path2696"
         d="m 177.23171,171.63829 c -0.42333,0.42334 -0.21166,1.16417 0.3175,1.16417 0.28223,0 0.52917,-0.21167 0.52917,-0.49389 0,-0.59972 -0.49389,-0.98778 -0.84667,-0.67028 z"
         inkscape:connector-curvature="0"
         style="stroke-width:0.03527778" />
      <path
         id="path2698"
         d="m -7.4827393,172.62607 c 0,0.28222 0.1763889,0.52917 0.3527777,0.52917 0.2116669,0 0.3527779,-0.24695 0.3527779,-0.52917 0,-0.28222 -0.141111,-0.52917 -0.3527779,-0.52917 -0.1763888,0 -0.3527777,0.24695 -0.3527777,0.52917 z"
         inkscape:connector-curvature="0"
         style="stroke-width:0.03527778" />
      <path
         id="path2700"
         d="m 138.77893,172.34385 c -0.42333,0.42333 -0.21166,1.51694 0.3175,1.51694 0.28222,0 0.52917,-0.3175 0.52917,-0.67027 0,-0.74084 -0.45861,-1.19945 -0.84667,-0.84667 z"
         inkscape:connector-curvature="0"
         style="stroke-width:0.03527778" />
      <path
         id="path2702"
         d="m -5.119128,173.75496 c -0.1058334,0.17639 -0.2822224,0.9525 -0.4233334,1.76389 -0.2116666,1.27 -0.1411113,1.51694 0.3527777,1.51694 0.3175,0 0.7761113,-0.52916 1.0936113,-1.23472 0.5997224,-1.51694 1.1994444,-1.30528 1.1994444,0.38806 0,0.84666 0.176389,1.19944 0.529167,1.19944 0.388055,0 0.529166,-0.38805 0.529166,-1.37583 0,-2.15195 -0.246944,-2.50472 -1.763889,-2.50472 -0.7761107,0 -1.4463884,0.10583 -1.516944,0.24694 z"
         inkscape:connector-curvature="0"
         style="stroke-width:0.03527778" />
      <path
         id="path2704"
         d="m -7.5885727,174.46052 c -0.141111,0.10583 -0.2469443,0.84666 -0.2469443,1.5875 0,1.905 0.8466666,1.5875 0.9877777,-0.35278 0.1058333,-1.37584 -0.176389,-1.83445 -0.7408334,-1.23472 z"
         inkscape:connector-curvature="0"
         style="stroke-width:0.03527778" />
      <path
         id="path2706"
         d="m 177.37282,175.44829 c 0,0.49389 0.17639,0.88195 0.35278,0.88195 0.21167,0 0.35278,-0.38806 0.35278,-0.88195 0,-0.49389 -0.14111,-0.88194 -0.35278,-0.88194 -0.17639,0 -0.35278,0.38805 -0.35278,0.88194 z"
         inkscape:connector-curvature="0"
         style="stroke-width:0.03527778" />
      <path
         id="path2708"
         d="m 138.92004,176.18913 c 0,0.49389 0.14111,0.81139 0.35278,0.67027 0.21167,-0.10583 0.35278,-0.52916 0.35278,-0.91722 0,-0.35278 -0.14111,-0.67028 -0.35278,-0.67028 -0.17639,0 -0.35278,0.42334 -0.35278,0.91723 z"
         inkscape:connector-curvature="0"
         style="stroke-width:0.03527778" />
      <path
         id="path2714"
         d="m 138.56727,178.97607 c 0,0.56445 0.21166,0.88195 0.52916,0.88195 0.3175,0 0.52917,-0.3175 0.52917,-0.88195 0,-0.56444 -0.21167,-0.88194 -0.52917,-0.88194 -0.3175,0 -0.52916,0.3175 -0.52916,0.88194 z"
         inkscape:connector-curvature="0"
         style="stroke-width:0.03527778" />
      <path
         id="path2716"
         d="m 177.23171,178.97607 c 0.14111,0.28222 0.35278,0.52917 0.52917,0.52917 0.17639,0 0.3175,-0.24695 0.3175,-0.52917 0,-0.28222 -0.24694,-0.52917 -0.52917,-0.52917 -0.3175,0 -0.42333,0.21167 -0.3175,0.52917 z"
         inkscape:connector-curvature="0"
         style="stroke-width:0.03527778" />
      <path
         id="path2720"
         d="m 138.70838,181.79829 c -0.10584,0.28223 -0.10584,0.67028 0.0353,0.88195 0.38806,0.635 0.88195,0.38805 0.88195,-0.52917 0,-0.9525 -0.59972,-1.19944 -0.91722,-0.35278 z"
         inkscape:connector-curvature="0"
         style="stroke-width:0.03527778" />
      <path
         id="path2722"
         d="m 177.44338,182.00996 c 0.0353,0.45861 0.28222,0.81139 0.45861,0.74083 0.52917,-0.10583 0.42333,-1.23472 -0.10583,-1.41111 -0.3175,-0.10583 -0.45861,0.10584 -0.35278,0.67028 z"
         inkscape:connector-curvature="0"
         style="stroke-width:0.03527778" />
      <path
         id="path2724"
         d="m 111.0506,184.7969 c -0.635,0.635 -0.70556,1.09362 -0.635,3.77473 0.0705,1.97555 0.24694,3.10444 0.52916,3.175 0.28223,0.10583 0.45862,-0.42334 0.52917,-1.51695 0.10583,-1.55222 0.17639,-1.69333 1.23472,-1.97555 1.83445,-0.45861 2.89278,-2.64584 1.79917,-3.73945 -0.67028,-0.67028 -2.68111,-0.49389 -3.45722,0.28222 z m 2.68111,0.88195 c 0.3175,0.74083 -0.49389,1.5875 -1.48167,1.5875 -0.56444,0 -0.84666,-0.21167 -0.84666,-0.635 0,-1.30528 1.905,-2.08139 2.32833,-0.9525 z"
         inkscape:connector-curvature="0"
         style="stroke-width:0.03527778" />
      <path
         id="path2728"
         d="m 138.92004,185.50246 c 0,0.45861 0.24695,0.70556 0.67028,0.70556 0.49389,0 0.635,-0.17639 0.49389,-0.70556 -0.10583,-0.38806 -0.42333,-0.70556 -0.67028,-0.70556 -0.28222,0 -0.49389,0.3175 -0.49389,0.70556 z"
         inkscape:connector-curvature="0"
         style="stroke-width:0.03527778" />
      <path
         id="path2730"
         d="m 147.73949,185.18496 c -0.45861,0.17639 -1.16417,0.3175 -1.5875,0.28222 -0.38806,-0.0353 -0.88195,-0.0353 -1.12889,0 -0.59972,0.0353 -0.17639,1.02306 0.49389,1.16417 0.84667,0.17639 0.84667,3.38667 0.0353,3.95111 -0.56445,0.42333 -0.59973,0.52917 -0.10584,0.91722 0.38806,0.3175 1.02306,0.35278 2.36361,0.14111 2.2225,-0.38805 2.64584,-1.09361 0.74084,-1.27 -1.34056,-0.10583 -1.34056,-0.10583 -1.44639,-1.76389 -0.10583,-1.65805 -0.10583,-1.69333 1.34055,-2.25777 0.77612,-0.3175 1.37584,-0.77611 1.30528,-0.98778 -0.17639,-0.52917 -0.9525,-0.59972 -2.01083,-0.17639 z"
         inkscape:connector-curvature="0"
         style="stroke-width:0.03527778" />
      <path
         id="path2732"
         d="m 165.55477,185.18496 c -0.14111,0.21167 0.0705,0.59972 0.49389,0.88194 1.02305,0.70556 0.9525,2.39889 -0.14111,4.55084 -0.91723,1.83444 -0.91723,2.15194 0,1.79916 1.5875,-0.59972 2.57527,-5.89138 1.30527,-7.02027 -0.74083,-0.70556 -1.34055,-0.77611 -1.65805,-0.21167 z"
         inkscape:connector-curvature="0"
         style="stroke-width:0.03527778" />
      <path
         id="path2734"
         d="m 177.44338,185.67885 c 0.0706,0.49389 0.28222,0.91722 0.45861,0.91722 0.21167,0 0.38806,-0.42333 0.45861,-0.91722 0.0706,-0.635 -0.0353,-0.88195 -0.45861,-0.88195 -0.42333,0 -0.52917,0.24695 -0.45861,0.88195 z"
         inkscape:connector-curvature="0"
         style="stroke-width:0.03527778" />
      <path
         id="path2736"
         d="m 123.36254,186.17274 -0.77611,1.05833 -0.98778,-0.74083 c -0.59972,-0.45861 -1.30527,-0.67028 -1.86972,-0.56445 -0.49389,0.10584 -0.91722,0.0353 -0.91722,-0.14111 0,-0.17639 -0.67028,-0.28222 -1.48167,-0.21166 l -1.51694,0.10583 -0.10584,2.25778 c -0.0705,1.69333 0,2.18722 0.35278,2.08139 0.24695,-0.10584 0.49389,-0.70556 0.56445,-1.37584 0.14111,-1.41111 0.635,-2.08139 1.44639,-2.08139 0.49388,0 0.56444,0.24695 0.45861,1.23473 -0.24695,2.18722 1.12889,2.92805 2.89277,1.55222 0.81139,-0.635 0.9525,-0.67028 1.12889,-0.14111 0.28223,0.70555 1.69334,1.30527 2.43417,1.02305 0.77611,-0.3175 0.635,-1.19944 -0.17639,-1.19944 -1.05833,0 -1.27,-0.98778 -0.38805,-2.11667 0.38805,-0.56444 0.74083,-1.19944 0.74083,-1.41111 0,-0.70556 -1.05833,-0.3175 -1.79917,0.67028 z m -2.32833,1.23472 c 0.21167,0.56444 -0.38806,1.27 -1.05833,1.27 -0.56445,0 -0.59973,-0.77611 -0.0353,-1.34056 0.56444,-0.56444 0.88194,-0.52916 1.09361,0.0706 z"
         inkscape:connector-curvature="0"
         style="stroke-width:0.03527778" />
      <path
         id="path2738"
         d="m 151.12616,186.24329 c -1.27,0.98778 -1.09362,2.08139 0.42333,2.75167 1.41111,0.635 1.41111,1.65806 -0.0353,1.51694 -1.02305,-0.10583 -1.27,0.52917 -0.52917,1.27 1.05834,1.05834 2.29306,0.21167 2.64584,-1.83444 0.17639,-1.19944 0.10583,-1.30528 -0.91722,-1.65806 -1.34056,-0.45861 -1.37584,-0.91722 -0.21167,-1.44638 0.49389,-0.21167 0.84667,-0.56445 0.77611,-0.77612 -0.21167,-0.67027 -1.16417,-0.59972 -2.15194,0.17639 z"
         inkscape:connector-curvature="0"
         style="stroke-width:0.03527778" />
      <path
         id="path2740"
         d="m 161.14505,186.63135 c -1.37584,2.29305 -0.42334,5.57389 1.62277,5.57389 1.02306,0 1.09361,-0.52917 0.14111,-1.05834 -1.51694,-0.81138 -1.69333,-3.06916 -0.3175,-4.55083 0.84667,-0.91722 0.84667,-1.09361 -0.0353,-1.09361 -0.42334,0 -0.98778,0.45861 -1.41111,1.12889 z"
         inkscape:connector-curvature="0"
         style="stroke-width:0.03527778" />
      <path
         id="path2742"
         d="m 197.26949,186.41968 c 0.56445,2.18722 0.635,3.73945 0.21167,4.7625 -0.56445,1.34056 -0.14111,1.79917 0.74083,0.70556 1.19945,-1.48167 0.70556,-5.85611 -0.70555,-6.31472 -0.38806,-0.14112 -0.42334,0.0706 -0.24695,0.84666 z"
         inkscape:connector-curvature="0"
         style="stroke-width:0.03527778" />
      <path
         id="path2744"
         d="m 126.81977,186.56079 c -1.69334,1.34056 -1.16417,3.175 0.84666,3.175 0.74084,0 0.91722,-0.91722 0.24695,-1.16416 -0.3175,-0.10584 -0.28223,-0.3175 0.21166,-0.67028 0.67028,-0.52917 0.67028,-1.72861 0,-1.94028 -0.21166,-0.0706 -0.81139,0.21167 -1.30527,0.59972 z"
         inkscape:connector-curvature="0"
         style="stroke-width:0.03527778" />
      <path
         id="path2746"
         d="m 129.74782,186.3844 c -0.35278,0.45862 -0.35278,0.67028 0.17639,1.23473 0.56444,0.635 0.56444,0.70555 0.0353,0.91722 -0.3175,0.10583 -0.56445,0.45861 -0.56445,0.74083 0,0.88195 1.55223,0.35278 2.04611,-0.70555 0.38806,-0.81139 0.52917,-0.88195 0.9525,-0.45861 0.28223,0.24694 0.38806,0.81138 0.28223,1.23472 -0.14111,0.56444 -0.0353,0.74083 0.56444,0.74083 0.91722,0 1.37583,-1.51694 0.74083,-2.32833 -0.35277,-0.38806 -0.35277,-0.635 -0.0705,-0.91722 1.16417,-1.16417 -0.38806,-1.37584 -1.5875,-0.21167 l -0.84667,0.77611 -0.21166,-0.77611 c -0.21167,-0.91722 -0.88195,-1.02306 -1.51695,-0.24695 z"
         inkscape:connector-curvature="0"
         style="stroke-width:0.03527778" />
      <path
         id="path2748"
         d="m 155.57116,186.27857 c -0.52917,0.67028 -0.81139,5.99722 -0.3175,5.82083 0.21166,-0.0706 0.49388,-0.49388 0.59972,-0.9525 l 0.21166,-0.84666 0.74084,0.9525 c 1.27,1.62278 2.15194,0.9525 0.9525,-0.74084 -0.52917,-0.77611 -0.52917,-0.88194 0.17639,-1.62277 0.77611,-0.81139 0.91722,-1.48167 0.52916,-2.46945 -0.24694,-0.67028 -2.36361,-0.77611 -2.89277,-0.14111 z m 2.04611,1.37583 c 0,0.14112 -0.3175,0.45862 -0.70556,0.67028 -0.59972,0.3175 -0.70555,0.28222 -0.70555,-0.28222 0,-0.35278 0.10583,-0.74083 0.21166,-0.88194 0.28222,-0.28223 1.19945,0.10583 1.19945,0.49388 z"
         inkscape:connector-curvature="0"
         style="stroke-width:0.03527778" />
      <path
         id="path2750"
         d="m 182.66449,186.3844 c 0,0.28223 0.24695,0.52917 0.52917,0.52917 0.28222,0 0.52916,-0.24694 0.52916,-0.52917 0,-0.28222 -0.24694,-0.52916 -0.52916,-0.52916 -0.28222,0 -0.52917,0.24694 -0.52917,0.52916 z"
         inkscape:connector-curvature="0"
         style="stroke-width:0.03527778" />
      <path
         id="path2752"
         d="m 194.30616,186.98413 c -0.84667,1.41111 -0.9525,4.23333 -0.17639,4.86833 0.59972,0.49389 1.65806,0.35278 1.86972,-0.28222 0.0706,-0.24695 -0.17639,-0.42334 -0.59972,-0.42334 -0.635,0 -0.74083,-0.21166 -0.74083,-1.34055 0,-0.70556 0.3175,-1.83445 0.70555,-2.46945 0.84667,-1.37583 0.84667,-1.48166 0.17639,-1.48166 -0.28222,0 -0.84667,0.52916 -1.23472,1.12889 z"
         inkscape:connector-curvature="0"
         style="stroke-width:0.03527778" />
      <path
         id="path2754"
         d="m 201.36171,186.91357 c 0,0.38806 0.17639,0.70556 0.35278,0.70556 0.21167,0 0.35278,-0.3175 0.35278,-0.70556 0,-0.38805 -0.14111,-0.70555 -0.35278,-0.70555 -0.17639,0 -0.35278,0.3175 -0.35278,0.70555 z"
         inkscape:connector-curvature="0"
         style="stroke-width:0.03527778" />
      <path
         id="path2756"
         d="m 139.41393,188.14829 c -0.28222,0.70556 0.10584,1.69334 0.56445,1.41111 0.45861,-0.28222 0.45861,-1.94027 0,-1.94027 -0.21167,0 -0.45861,0.24694 -0.56445,0.52916 z"
         inkscape:connector-curvature="0"
         style="stroke-width:0.03527778" />
      <path
         id="path2758"
         d="m 182.66449,189.5594 c 0,1.16417 0.14111,1.5875 0.45861,1.48167 0.24695,-0.0706 0.42334,-0.70555 0.42334,-1.48167 0,-0.77611 -0.17639,-1.41111 -0.42334,-1.51694 -0.3175,-0.0706 -0.45861,0.35278 -0.45861,1.51694 z"
         inkscape:connector-curvature="0"
         style="stroke-width:0.03527778" />
      <path
         id="path2760"
         d="m 185.27505,188.25413 c -0.52917,0.35277 -0.84667,2.15194 -0.38806,2.43416 0.17639,0.10584 0.59972,-0.14111 0.9525,-0.59972 l 0.59972,-0.81139 0.24695,0.9525 c 0.10583,0.49389 0.38805,0.91722 0.56444,0.91722 0.635,0 0.70556,-0.70555 0.21167,-1.94027 -0.52917,-1.19945 -1.30528,-1.55223 -2.18722,-0.9525 z"
         inkscape:connector-curvature="0"
         style="stroke-width:0.03527778" />
      <path
         id="path2762"
         d="m 189.36727,188.64218 c -0.56445,1.05834 -0.42333,2.08139 0.35278,2.75167 0.70555,0.635 0.88194,1.72861 0.49389,3.21028 -0.3175,1.05833 -1.62278,0.91722 -1.905,-0.21167 -0.21167,-1.02306 -0.84667,-1.05833 -0.98778,-0.0706 -0.17639,1.02306 0.88194,2.11667 2.01083,2.11667 1.30528,0 2.04611,-1.41111 2.46945,-4.79778 0.3175,-2.43417 0.28222,-2.8575 -0.21167,-3.24555 -0.84667,-0.635 -1.79917,-0.52917 -2.2225,0.24694 z m 1.27,1.34056 c -0.35278,0.35278 -0.67028,-0.17639 -0.35278,-0.635 0.21167,-0.38806 0.28222,-0.38806 0.42333,0 0.0706,0.24694 0.0353,0.52916 -0.0705,0.635 z"
         inkscape:connector-curvature="0"
         style="stroke-width:0.03527778" />
      <path
         id="path2764"
         d="m 177.37282,189.34774 c 0,0.42333 0.21167,0.74083 0.56445,0.74083 0.3175,0 0.49389,-0.24694 0.42333,-0.59972 -0.17639,-0.88195 -0.98778,-0.98778 -0.98778,-0.14111 z"
         inkscape:connector-curvature="0"
         style="stroke-width:0.03527778" />
      <path
         id="path2766"
         d="m 135.56865,189.73579 c -0.10583,0.21167 0,0.42334 0.24695,0.49389 0.81139,0.28222 2.15194,0.0353 2.32833,-0.42333 0.17639,-0.52917 -2.25778,-0.59972 -2.57528,-0.0705 z"
         inkscape:connector-curvature="0"
         style="stroke-width:0.03527778" />
      <path
         id="path2768"
         d="m 200.30338,191.85246 c -1.51694,1.94028 -1.19944,2.64583 0.45861,0.98778 1.23472,-1.19945 1.69334,-2.39889 0.98778,-2.39889 -0.17639,0 -0.84667,0.635 -1.44639,1.41111 z"
         inkscape:connector-curvature="0"
         style="stroke-width:0.03527778" />
      <path
         id="path2772"
         d="m 139.06115,191.67607 c -0.10583,0.28222 -0.10583,0.67028 0.0353,0.88195 0.38806,0.635 0.88195,0.38805 0.88195,-0.52917 0,-0.9525 -0.59973,-1.19945 -0.91723,-0.35278 z"
         inkscape:connector-curvature="0"
         style="stroke-width:0.03527778" />
      <path
         id="path2774"
         d="m 177.37282,192.02885 c 0,0.28222 0.24695,0.52917 0.52917,0.52917 0.28222,0 0.52917,-0.24695 0.52917,-0.52917 0,-0.28222 -0.24695,-0.52917 -0.52917,-0.52917 -0.28222,0 -0.52917,0.24695 -0.52917,0.52917 z"
         inkscape:connector-curvature="0"
         style="stroke-width:0.03527778" />
      <path
         id="path2776"
         d="m 177.44338,194.03968 c 0.17639,1.12889 0.98778,1.23472 0.98778,0.14111 0,-0.59972 -0.17639,-0.91722 -0.56445,-0.91722 -0.35277,0 -0.49389,0.24695 -0.42333,0.77611 z"
         inkscape:connector-curvature="0"
         style="stroke-width:0.03527778" />
      <path
         id="path2780"
         d="m 138.70838,194.85107 c -0.10584,0.28222 -0.10584,0.67028 0.0353,0.88195 0.38806,0.635 0.88195,0.38805 0.88195,-0.52917 0,-0.9525 -0.59972,-1.19945 -0.91722,-0.35278 z"
         inkscape:connector-curvature="0"
         style="stroke-width:0.03527778" />
      <path
         id="path2782"
         d="m 177.37282,197.4969 c 0,0.38806 0.24695,0.70556 0.52917,0.70556 0.28222,0 0.52917,-0.3175 0.52917,-0.70556 0,-0.38805 -0.24695,-0.70555 -0.52917,-0.70555 -0.28222,0 -0.52917,0.3175 -0.52917,0.70555 z"
         inkscape:connector-curvature="0"
         style="stroke-width:0.03527778" />
      <path
         id="path2784"
         d="m 106.18226,198.30829 c -1.19944,1.27 -0.84666,3.70417 0.49389,3.175 0.35278,-0.14111 0.38806,-0.3175 0.0353,-0.81139 -0.21167,-0.38805 -0.3175,-0.74083 -0.21167,-0.84666 0.14111,-0.17639 10.26584,-0.28222 22.33084,-0.21167 h 5.25639 l -0.77611,0.84667 c -1.16417,1.23472 -0.28223,1.51694 1.19944,0.38805 1.41111,-1.05833 1.48167,-1.23472 0.56445,-2.32833 -0.49389,-0.635 -0.77612,-0.74083 -1.12889,-0.42333 -0.35278,0.24694 -4.40973,0.38805 -13.08806,0.42333 -10.83028,0 -12.62944,-0.0706 -12.62944,-0.49389 0,-0.81139 -1.19945,-0.635 -2.04612,0.28222 z"
         inkscape:connector-curvature="0"
         style="stroke-width:0.03527778" />
      <path
         id="path2786"
         d="m 138.70838,198.02607 c -0.10584,0.28222 -0.10584,0.67028 0.0353,0.88195 0.38806,0.635 0.88195,0.38805 0.88195,-0.52917 0,-0.9525 -0.59972,-1.19945 -0.91722,-0.35278 z"
         inkscape:connector-curvature="0"
         style="stroke-width:0.03527778" />
      <path
         id="path2788"
         d="m 177.37282,199.93107 c 0,0.42333 0.21167,0.74083 0.56445,0.74083 0.3175,0 0.49389,-0.24694 0.42333,-0.59972 -0.17639,-0.88194 -0.98778,-0.98778 -0.98778,-0.14111 z"
         inkscape:connector-curvature="0"
         style="stroke-width:0.03527778" />
      <path
         id="path2792"
         d="m 138.21449,201.69496 c 0,0.52917 0.21166,0.74083 0.74083,0.74083 0.49389,0 0.67028,-0.17639 0.59972,-0.59972 -0.17639,-0.91722 -1.34055,-1.02305 -1.34055,-0.14111 z"
         inkscape:connector-curvature="0"
         style="stroke-width:0.03527778" />
      <path
         id="path2794"
         d="m 116.55393,202.92968 c -1.23472,1.65806 -1.12889,3.95111 0.28222,4.86834 0.59973,0.42333 2.15195,0.3175 2.61056,-0.14112 0.74083,-0.74083 0.45861,-1.02305 -0.74083,-0.81138 -0.84667,0.17638 -1.30528,0.0705 -1.62278,-0.3175 -0.67028,-0.77612 -0.24695,-1.55223 0.88194,-1.69334 1.16417,-0.14111 1.5875,-0.98778 0.52917,-0.98778 -0.77611,0 -1.02306,-0.84666 -0.38806,-1.23472 0.52917,-0.3175 0.42334,-0.88194 -0.14111,-0.88194 -0.24694,0 -0.88194,0.52916 -1.41111,1.19944 z"
         inkscape:connector-curvature="0"
         style="stroke-width:0.03527778" />
      <path
         id="path2796"
         d="m 177.37282,203.31774 c 0,0.28222 0.24695,0.52916 0.52917,0.52916 0.28222,0 0.52917,-0.24694 0.52917,-0.52916 0,-0.28222 -0.24695,-0.52917 -0.52917,-0.52917 -0.28222,0 -0.52917,0.24695 -0.52917,0.52917 z"
         inkscape:connector-curvature="0"
         style="stroke-width:0.03527778" />
      <path
         id="path2798"
         d="m 121.14004,205.22274 c -0.14111,0.17639 -0.0353,0.67028 0.17639,1.05833 0.35278,0.52917 0.35278,0.84667 -0.10583,1.51695 -0.52917,0.81138 -0.52917,0.88194 0.10583,1.27 0.91722,0.59972 2.61056,0.52916 3.13972,-0.10584 0.38806,-0.45861 0.28223,-0.56444 -0.67027,-0.74083 -1.30528,-0.28222 -1.48167,-1.19945 -0.28223,-2.01083 0.42334,-0.28223 0.70556,-0.59973 0.59973,-0.70556 -0.38806,-0.42333 -2.75167,-0.635 -2.96334,-0.28222 z"
         inkscape:connector-curvature="0"
         style="stroke-width:0.03527778" />
    </g>
    <g
       id="g10092"
       transform="rotate(0.29377185,-6234.3277,1089.4346)">
      <path
         id="path2306"
         d="m 152.28629,12.989906 c 0,0.38806 0.14112,0.70556 0.3175,0.70556 0.38806,0 0.77612,-0.91722 0.49389,-1.19945 -0.42333,-0.42333 -0.81139,-0.17639 -0.81139,0.49389 z"
         inkscape:connector-curvature="0"
         style="stroke-width:0.03527778" />
      <path
         id="path2308"
         d="m 170.34852,13.060466 c 0.21166,0.635 0.98778,0.74083 0.98778,0.14111 0,-0.3175 -0.24695,-0.56445 -0.56445,-0.56445 -0.3175,0 -0.49389,0.17639 -0.42333,0.42334 z"
         inkscape:connector-curvature="0"
         style="stroke-width:0.03527778" />
      <path
         id="path2316"
         d="m 152.07463,15.671016 c 0.10583,0.3175 0.21166,0.635 0.21166,0.70556 0,0.0706 0.24695,0.14111 0.52917,0.14111 0.28222,0 0.52917,-0.3175 0.52917,-0.70555 0,-0.49389 -0.24695,-0.70556 -0.74084,-0.70556 -0.52916,0 -0.67027,0.14111 -0.52916,0.56444 z"
         inkscape:connector-curvature="0"
         style="stroke-width:0.03527778" />
      <path
         id="path2318"
         d="m 170.80713,15.424076 c -0.28222,0.52917 0.10583,1.09361 0.74083,1.09361 0.3175,0 0.49389,-0.24694 0.42334,-0.59972 -0.14112,-0.70556 -0.84667,-0.98778 -1.16417,-0.49389 z"
         inkscape:connector-curvature="0"
         style="stroke-width:0.03527778" />
      <path
         id="path2324"
         d="m 151.75713,17.576016 c -0.3175,0.49389 0.14111,1.83445 0.56444,1.5875 0.42334,-0.28222 0.42334,-1.48166 0,-1.76388 -0.17639,-0.10584 -0.42333,-0.0353 -0.56444,0.17638 z"
         inkscape:connector-curvature="0"
         style="stroke-width:0.03527778" />
      <path
         id="path2328"
         d="m 198.11213,18.069906 c -0.0705,0.0706 -6.0325,0.21167 -13.22917,0.35278 -7.19666,0.10583 -13.29972,0.24695 -13.58194,0.35278 -0.28222,0.10583 -3.98639,0.35278 -8.255,0.56444 -4.26861,0.21167 -8.85473,0.45861 -10.23056,0.52917 -1.34055,0.10583 -5.00944,0.35278 -8.11389,0.56444 -3.10444,0.21167 -15.09889,0.49389 -26.67,0.635 -16.61583,0.17639 -21.131385,0.3175 -21.589995,0.67028 -0.45861,0.38806 -0.52917,0.9525 -0.35278,2.8575 0.10584,1.30528 0.0706,4.05695 -0.0705,6.06778 l -0.24695,3.66889 -15.5575,-0.0706 c -40.92228,-0.10583 -66.81617,-0.35277 -67.52172,-0.59972 -0.59972,-0.17639 -0.81139,-0.10583 -0.81139,0.24695 0,0.70555 7.62,0.9525 30.48,0.98777 19.61444,0 24.05944,0.21167 24.51806,0.98778 0.21166,0.35278 0.35277,0.35278 0.45861,0.0353 0.0706,-0.28222 3.91583,-0.42333 14.95778,-0.45861 l 14.81667,-0.0706 -0.0353,-6.42056 c 0,-5.08 0.10583,-6.49111 0.45861,-6.63222 0.28222,-0.10583 7.337775,-0.17639 15.698605,-0.17639 12.80584,0 34.50167,-0.70555 37.60612,-1.19944 0.56444,-0.10583 1.09361,0.10583 1.51694,0.635 l 0.635,0.74083 0.21167,-0.77611 c 0.17639,-0.67028 0.49389,-0.77611 3.95111,-0.98778 2.08139,-0.10583 6.17361,-0.35277 9.06639,-0.52916 12.48833,-0.81139 44.34417,-1.34056 53.62222,-0.9525 2.39889,0.10583 1.72861,-0.635 -0.77611,-0.84667 -2.64583,-0.24694 -20.70805,-0.38806 -20.955,-0.17639 z"
         inkscape:connector-curvature="0"
         style="stroke-width:0.03527778" />
      <path
         id="path2330"
         d="m 171.86546,21.809356 c -0.28222,0.45861 0.45861,1.41111 1.09361,1.41111 0.59973,0 0.635,-0.77611 0.0706,-1.34056 -0.52917,-0.52916 -0.88195,-0.52916 -1.16417,-0.0705 z"
         inkscape:connector-curvature="0"
         style="stroke-width:0.03527778" />
      <path
         id="path2340"
         d="m 152.63907,24.067136 c 0,0.59972 0.17639,0.91722 0.56445,0.91722 0.35277,0 0.49389,-0.24695 0.42333,-0.77611 -0.17639,-1.12889 -0.98778,-1.23473 -0.98778,-0.14111 z"
         inkscape:connector-curvature="0"
         style="stroke-width:0.03527778" />
      <path
         id="path2346"
         d="m -21.280375,25.442966 -1.5875,0.77611 v 4.86833 c 0,2.92806 0.14111,4.86834 0.35277,4.93889 0.21167,0.0353 0.38806,-1.02305 0.45861,-2.57528 l 0.10584,-2.64583 1.37583,0.10583 c 1.27,0.14112 1.5875,0 2.82222,-1.27 1.09361,-1.09361 1.41111,-1.65805 1.41111,-2.61055 0,-2.39889 -2.01083,-3.03389 -4.93888,-1.5875 z m 3.73944,1.09361 c 0.42333,1.69333 -1.44639,3.38667 -3.73944,3.38667 -1.05834,0 -1.09362,-0.0706 -0.98778,-1.34056 0.10583,-1.16417 0.28222,-1.41111 1.69333,-2.11667 2.01083,-0.98777 2.75167,-0.98777 3.03389,0.0706 z"
         inkscape:connector-curvature="0"
         style="stroke-width:0.03527778" />
      <path
         id="path2348"
         d="m -3.6414852,24.949076 c -0.70556,0.17639 -0.98778,0.59972 -1.41112,2.25778 -0.70555,2.78694 -0.24694,3.98639 1.83445,4.62139 0.81139,0.24694 0.42333,1.27 -0.45861,1.27 -0.35278,0 -0.88195,-0.35278 -1.16417,-0.77611 -0.74083,-1.05834 -1.19944,-0.45862 -0.52917,0.70555 0.74084,1.37583 2.71639,1.34056 3.4925,0 0.635,-1.16417 0.21167,-2.08139 -1.09361,-2.39889 -0.70555,-0.17639 -0.88194,-0.45861 -0.9525,-1.69333 -0.14111,-2.08139 0.3175,-2.75167 2.25778,-3.10445 2.22249996,-0.42333 2.50471996,-1.19944 0.42333,-1.16416 -0.81138,0.0353 -1.905,0.14111 -2.39888,0.28222 z"
         inkscape:connector-curvature="0"
         style="stroke-width:0.03527778" />
      <path
         id="path2350"
         d="m 172.88852,25.831016 c -0.21167,0.59973 0.38805,1.62278 0.98778,1.62278 0.49388,0 0.17638,-1.86972 -0.3175,-2.04611 -0.24695,-0.0705 -0.56445,0.14111 -0.67028,0.42333 z"
         inkscape:connector-curvature="0"
         style="stroke-width:0.03527778" />
      <path
         id="path2354"
         d="m 153.06241,27.594906 c 0.0705,0.52917 0.28222,0.91723 0.45861,0.91723 0.52916,0 0.42333,-1.51695 -0.10584,-1.69334 -0.35277,-0.10583 -0.45861,0.14111 -0.35277,0.77611 z"
         inkscape:connector-curvature="0"
         style="stroke-width:0.03527778" />
      <path
         id="path2360"
         d="m -15.459545,28.864906 c -0.28222,0.45861 0.14111,1.12889 0.56444,0.88195 0.42334,-0.28222 0.42334,-1.23472 0,-1.23472 -0.21166,0 -0.45861,0.14111 -0.56444,0.35277 z"
         inkscape:connector-curvature="0"
         style="stroke-width:0.03527778" />
      <path
         id="path2366"
         d="m 172.74741,30.628796 c 0,0.38806 0.24694,0.81139 0.52916,0.9525 0.74084,0.28222 0.98778,-0.0353 0.70556,-0.91722 -0.28222,-0.9525 -1.23472,-0.9525 -1.23472,-0.0353 z"
         inkscape:connector-curvature="0"
         style="stroke-width:0.03527778" />
      <path
         id="path2368"
         d="m 153.16824,30.628796 c -0.24695,0.42334 0.42333,1.76389 0.88194,1.76389 0.38806,0 0.45861,-0.74083 0.14111,-1.55222 -0.24694,-0.635 -0.70555,-0.74083 -1.02305,-0.21167 z"
         inkscape:connector-curvature="0"
         style="stroke-width:0.03527778" />
      <path
         id="path2372"
         d="m -13.025375,31.122686 c -0.3175,0.77611 0,3.56306 0.38805,3.4925 0.21167,0 0.56445,-0.67028 0.81139,-1.48167 0.59972,-1.79916 1.05833,-1.83444 1.19945,-0.14111 0.0705,0.91723 0.28222,1.34056 0.6349998,1.34056 0.74083,0 0.81138,-0.9525 0.21166,-2.43417 -0.4586098,-1.12889 -0.6702798,-1.27 -1.7991598,-1.27 -0.74084,0 -1.34056,0.21167 -1.44639,0.49389 z"
         inkscape:connector-curvature="0"
         style="stroke-width:0.03527778" />
      <path
         id="path2374"
         d="m -15.741765,31.581296 c -0.14111,0.10584 -0.24695,0.77611 -0.24695,1.41111 0,1.65806 0.84667,1.34056 0.98778,-0.35277 0.10583,-1.19945 -0.17639,-1.62278 -0.74083,-1.05834 z"
         inkscape:connector-curvature="0"
         style="stroke-width:0.03527778" />
      <path
         id="path2378"
         d="m 172.57102,33.803796 c -0.24695,0.42334 0.42333,1.41111 0.9525,1.41111 0.45861,0 0.21166,-1.51694 -0.3175,-1.65805 -0.21167,-0.0706 -0.49389,0.0353 -0.635,0.24694 z"
         inkscape:connector-curvature="0"
         style="stroke-width:0.03527778" />
      <path
         id="path2380"
         d="m 153.34463,34.756296 c 0,0.70556 0.635,1.51695 1.16416,1.51695 0.14112,0 0.24695,-0.42334 0.17639,-0.9525 -0.14111,-1.12889 -1.34055,-1.62278 -1.34055,-0.56445 z"
         inkscape:connector-curvature="0"
         style="stroke-width:0.03527778" />
      <path
         id="path2396"
         d="m 162.94018,37.331576 c -0.88194,1.19945 -0.98777,2.18722 -0.28222,2.78694 0.67028,0.56445 2.75167,0.35278 2.96334,-0.28222 0.10583,-0.35278 -0.0706,-0.42333 -0.74084,-0.24694 -0.49389,0.10583 -0.98778,0.0706 -1.12889,-0.14111 -0.10583,-0.17639 0.21167,-0.42334 0.70556,-0.56445 1.05833,-0.24694 1.16417,-0.84666 0.17639,-0.84666 -0.74084,0 -0.9525,-0.52917 -0.35278,-0.88195 0.49389,-0.3175 0.42333,-0.88194 -0.10583,-0.88194 -0.24695,0 -0.81139,0.45861 -1.23473,1.05833 z"
         inkscape:connector-curvature="0"
         style="stroke-width:0.03527778" />
      <path
         id="path2404"
         d="m 173.17074,37.719636 c 0.0353,0.42333 0.3175,0.84666 0.56444,0.9525 0.3175,0.10583 0.45862,-0.10584 0.35278,-0.67028 -0.0353,-0.42334 -0.3175,-0.84667 -0.56444,-0.9525 -0.3175,-0.10584 -0.45861,0.10583 -0.35278,0.67028 z"
         inkscape:connector-curvature="0"
         style="stroke-width:0.03527778" />
      <path
         id="path2406"
         d="m 154.12074,38.213516 c 0.0705,0.49389 0.28222,0.91723 0.45861,0.91723 0.21167,0 0.38806,-0.42334 0.45861,-0.91723 0.0706,-0.635 -0.0353,-0.88194 -0.45861,-0.88194 -0.42333,0 -0.52917,0.24694 -0.45861,0.88194 z"
         inkscape:connector-curvature="0"
         style="stroke-width:0.03527778" />
      <path
         id="path2412"
         d="m 148.75852,39.624636 c 0,0.28222 0.49389,0.77611 1.12889,1.09361 1.05833,0.52916 1.09361,0.59972 0.45861,1.05833 -0.35278,0.24694 -0.81139,0.52917 -1.02306,0.59972 -0.21167,0.0706 -0.28222,0.28222 -0.14111,0.42334 0.42333,0.45861 3.13972,-0.91723 3.03389,-1.51695 -0.10583,-0.49389 -2.54,-2.11667 -3.175,-2.18722 -0.17639,0 -0.28222,0.24694 -0.28222,0.52917 z"
         inkscape:connector-curvature="0"
         style="stroke-width:0.03527778" />
      <path
         id="path2418"
         d="m 98.558245,41.141576 c -1.12889,1.48167 -1.12889,2.68111 0.0353,2.82222 0.42333,0.0705 0.77611,-0.0353 0.77611,-0.24694 0,-0.21167 -0.17639,-0.38806 -0.38806,-0.38806 -0.21167,0 -0.3175,-0.21166 -0.24694,-0.42333 0.14111,-0.35278 1.693325,-0.42333 6.491105,-0.35278 3.88055,0.0706 8.67833,-0.10583 12.48833,-0.45861 3.4925,-0.3175 11.43,-0.67028 18.34445,-0.74083 6.94972,-0.10584 12.20611,-0.3175 12.27666,-0.52917 0.21167,-0.52917 -22.96583,-0.38806 -29.56278,0.21167 -6.49111,0.56444 -18.55611,0.70555 -18.873605,0.21166 -0.10583,-0.17639 -0.0353,-0.42333 0.176385,-0.56444 0.49389,-0.3175 0.45861,-0.88195 -0.0705,-0.88195 -0.246945,0.0353 -0.917225,0.59973 -1.446385,1.34056 z"
         inkscape:connector-curvature="0"
         style="stroke-width:0.03527778" />
      <path
         id="path2420"
         d="m 170.13685,40.436016 c -0.28222,0.88195 -2.04611,1.12889 -7.79639,1.12889 -4.16278,0 -4.33917,-0.0353 -4.16278,-0.70555 0.28223,-1.09361 -0.74083,-0.88195 -1.79916,0.38805 -1.02306,1.19945 -1.12889,1.72861 -0.49389,2.36361 0.635,0.635 2.75166,0.56445 2.75166,-0.10583 0,-0.3175 -0.3175,-0.52917 -0.88194,-0.52917 -0.49389,0 -0.88194,-0.10583 -0.88194,-0.28222 0,-0.14111 2.18722,-0.17639 4.86833,-0.14111 2.64583,0.0706 5.715,-0.0353 6.77333,-0.21167 2.04611,-0.38805 2.71639,-0.24694 1.65806,0.3175 -0.59972,0.35278 -0.84667,1.37584 -0.3175,1.37584 0.14111,0 0.81139,-0.45861 1.48167,-1.02306 1.34055,-1.12889 1.27,-1.72861 -0.24695,-2.75166 -0.67028,-0.45862 -0.77611,-0.42334 -0.9525,0.17638 z"
         inkscape:connector-curvature="0"
         style="stroke-width:0.03527778" />
      <path
         id="path2422"
         d="m 154.05018,41.564906 c 0,0.67028 0.38806,0.91723 0.81139,0.49389 0.28222,-0.28222 -0.10583,-1.19944 -0.49389,-1.19944 -0.17639,0 -0.3175,0.3175 -0.3175,0.70555 z"
         inkscape:connector-curvature="0"
         style="stroke-width:0.03527778" />
      <path
         id="path2424"
         d="m 172.99435,41.282686 c -0.17639,0.56445 0.35278,1.69333 0.84667,1.69333 0.49389,0 0.24694,-1.83444 -0.24695,-2.01083 -0.24694,-0.0706 -0.49389,0.0706 -0.59972,0.3175 z"
         inkscape:connector-curvature="0"
         style="stroke-width:0.03527778" />
      <path
         id="path2432"
         d="m 154.12074,44.069636 c 0.0353,0.42333 0.3175,0.84666 0.56444,0.9525 0.3175,0.10583 0.45861,-0.10584 0.35278,-0.67028 -0.0353,-0.42334 -0.3175,-0.84667 -0.56444,-0.9525 -0.3175,-0.10584 -0.45861,0.10583 -0.35278,0.67028 z"
         inkscape:connector-curvature="0"
         style="stroke-width:0.03527778" />
      <path
         id="path2440"
         d="m 173.27657,45.092686 c -0.35277,0.56445 0.17639,1.76389 0.74084,1.76389 0.52916,0 0.635,-0.635 0.28222,-1.55222 -0.24695,-0.635 -0.70556,-0.74084 -1.02306,-0.21167 z"
         inkscape:connector-curvature="0"
         style="stroke-width:0.03527778" />
      <path
         id="path2442"
         d="m 143.81963,45.974636 c 0,0.28222 0.24694,1.16416 0.56444,1.97555 0.56445,1.34056 0.56445,1.51695 0,2.64583 -0.67028,1.48167 -0.70555,1.55223 -0.10583,1.55223 0.59972,0 1.65805,-1.83445 1.65805,-2.89278 -0.0353,-1.05833 -1.27,-3.81 -1.76389,-3.81 -0.17638,0 -0.35277,0.24694 -0.35277,0.52917 z"
         inkscape:connector-curvature="0"
         style="stroke-width:0.03527778" />
      <path
         id="path2446"
         d="m 141.20907,47.174076 c -1.12889,2.18722 -0.56444,5.11528 0.91722,4.90361 1.02306,-0.14111 1.19945,-0.84667 0.28223,-1.09361 -0.88195,-0.21167 -0.98778,-2.15194 -0.14112,-3.35139 0.52917,-0.77611 0.42334,-1.48167 -0.21166,-1.48167 -0.17639,0 -0.56445,0.45862 -0.84667,1.02306 z"
         inkscape:connector-curvature="0"
         style="stroke-width:0.03527778" />
      <path
         id="path2452"
         d="m 147.70018,47.209356 c 0,0.38805 0.24695,0.70555 0.52917,0.70555 0.28222,0 0.52917,-0.3175 0.52917,-0.70555 0,-0.38806 -0.24695,-0.70556 -0.52917,-0.70556 -0.28222,0 -0.52917,0.3175 -0.52917,0.70556 z"
         inkscape:connector-curvature="0"
         style="stroke-width:0.03527778" />
      <path
         id="path2454"
         d="m 154.47352,47.103516 c 0.17639,0.88195 0.98777,0.98778 0.98777,0.14112 0,-0.42334 -0.21166,-0.74084 -0.56444,-0.74084 -0.3175,0 -0.49389,0.24695 -0.42333,0.59972 z"
         inkscape:connector-curvature="0"
         style="stroke-width:0.03527778" />
      <path
         id="path2456"
         d="m 111.32879,47.456296 c -1.12889,0.28222 -2.08139,4.02167 -1.55222,5.99723 l 0.28222,0.98777 0.24695,-1.05833 c 0.14111,-0.59972 0.28222,-1.79917 0.3175,-2.68111 0,-0.91722 0.24694,-1.79917 0.49389,-1.97556 0.67027,-0.49389 2.25777,-0.52916 2.54,-0.0706 0.3175,0.49389 -1.12889,1.69334 -2.01084,1.72861 -0.77611,0 -0.84666,0.635 -0.10583,0.91723 0.59972,0.24694 2.92806,-1.37584 3.24556,-2.2225 0.42333,-1.09361 -1.5875,-2.04611 -3.45723,-1.62278 z"
         inkscape:connector-curvature="0"
         style="stroke-width:0.03527778" />
      <path
         id="path2458"
         d="m 131.11963,48.091296 c 0,0.3175 0.17639,0.52917 0.38805,0.45861 0.21167,-0.0706 0.38806,-0.28222 0.38806,-0.45861 0,-0.17639 -0.17639,-0.38805 -0.38806,-0.45861 -0.21166,-0.0705 -0.38805,0.14111 -0.38805,0.45861 z"
         inkscape:connector-curvature="0"
         style="stroke-width:0.03527778" />
      <path
         id="path2462"
         d="m 115.45629,49.572966 c -0.10583,0.74083 -0.21166,1.72861 -0.21166,2.2225 0.0353,0.84667 0.0353,0.84667 0.52916,0.21167 0.28223,-0.38806 0.52917,-1.05834 0.52917,-1.51695 0,-0.42333 0.3175,-0.9525 0.70556,-1.16417 1.02305,-0.52916 0.88194,-1.05833 -0.3175,-1.05833 -0.88195,0 -1.02306,0.14111 -1.23473,1.30528 z"
         inkscape:connector-curvature="0"
         style="stroke-width:0.03527778" />
      <path
         id="path2464"
         d="m 121.41824,48.620466 c -0.14111,0.21167 -0.81139,0.24694 -1.5875,0.14111 -1.16417,-0.17639 -1.41111,-0.10583 -1.94028,0.67028 -0.81139,1.23472 -0.59972,2.92805 0.35278,2.78694 0.38805,-0.0706 0.98778,-0.38805 1.30528,-0.67028 0.52916,-0.45861 0.635,-0.42333 0.98777,0.21167 0.45861,0.88195 1.16417,0.9525 1.76389,0.21167 0.3175,-0.38806 0.56445,-0.45861 0.84667,-0.17639 0.52917,0.52917 3.59833,0.42333 4.05694,-0.14111 0.49389,-0.56445 0.81139,-3.03389 0.42334,-3.03389 -0.10584,0 -0.59973,0.24694 -1.02306,0.56444 -0.56444,0.38806 -0.74083,0.77611 -0.59972,1.23473 0.17639,0.56444 0.0353,0.67027 -0.74083,0.67027 -0.91723,0 -0.91723,-0.0353 -0.38806,-0.635 0.84667,-0.91722 0.74083,-1.48166 -0.24694,-1.48166 -1.05834,0 -1.97556,0.84666 -1.97556,1.79916 0,0.49389 -0.21167,0.67028 -0.59972,0.59973 -0.88195,-0.17639 -0.9525,-0.84667 -0.14111,-1.65806 0.42333,-0.42333 0.74083,-0.91722 0.74083,-1.09361 0,-0.45861 -0.9525,-0.45861 -1.23472,0 z m -1.94028,1.30528 c 0,0.17639 -0.14111,0.52916 -0.35278,0.81139 -0.38805,0.635 -0.88194,0.24694 -0.59972,-0.52917 0.21167,-0.52917 0.9525,-0.74083 0.9525,-0.28222 z"
         inkscape:connector-curvature="0"
         style="stroke-width:0.03527778" />
      <path
         id="path2466"
         d="m 173.59407,49.114356 c -0.21166,0.59972 0.0706,1.27 0.59973,1.27 0.42333,0 0.42333,-1.30528 -0.0353,-1.5875 -0.21167,-0.10584 -0.45861,0.0353 -0.56445,0.3175 z"
         inkscape:connector-curvature="0"
         style="stroke-width:0.03527778" />
      <path
         id="path2468"
         d="m 128.54435,49.220186 c -0.28222,0.45861 -0.17639,3.28084 0.10583,3.28084 0.49389,0 0.9525,-0.88195 1.16417,-2.22251 0.17639,-1.12888 0.10583,-1.30527 -0.45861,-1.30527 -0.35278,0 -0.74084,0.10583 -0.81139,0.24694 z"
         inkscape:connector-curvature="0"
         style="stroke-width:0.03527778" />
      <path
         id="path2470"
         d="m 133.44796,49.537686 c -0.635,0.59972 -0.77611,2.61056 -0.21167,2.61056 0.21167,0 0.52917,-0.42334 0.74084,-0.98778 0.35277,-0.88195 0.38805,-0.91722 0.81139,-0.3175 0.28222,0.3175 0.70555,0.52917 0.9525,0.42333 0.28222,-0.0706 0.88194,0.17639 1.34055,0.56445 l 0.88195,0.70555 -0.67028,1.23473 c -0.59972,1.12888 -1.5875,1.65805 -1.5875,0.84666 0,-0.21166 -0.14111,-0.35278 -0.35278,-0.35278 -0.56444,0 -0.42333,1.76389 0.14111,1.97556 1.37583,0.52917 2.96333,-1.65806 3.70417,-5.08 0.21166,-1.02306 0.38805,-1.94028 0.38805,-2.01083 0,-0.10584 -0.635,-0.17639 -1.44639,-0.17639 -1.12888,0 -1.48166,0.14111 -1.62277,0.70555 -0.10584,0.38806 -0.28223,0.70556 -0.42334,0.70556 -0.10583,0 -0.42333,-0.3175 -0.67027,-0.70556 -0.52917,-0.84666 -1.23473,-0.91722 -1.97556,-0.14111 z m 4.58611,1.02306 c -0.10583,0.3175 -0.38805,0.45861 -0.56444,0.35277 -0.28223,-0.17638 -0.24695,-0.38805 0.0353,-0.74083 0.49389,-0.635 0.84667,-0.38805 0.52917,0.38806 z"
         inkscape:connector-curvature="0"
         style="stroke-width:0.03527778" />
      <path
         id="path2472"
         d="m 130.76685,50.031576 c -0.45861,0.84667 -0.14111,2.2225 0.45861,2.01083 0.52917,-0.14111 0.77611,-2.71639 0.28222,-2.71639 -0.21166,0 -0.52916,0.3175 -0.74083,0.70556 z"
         inkscape:connector-curvature="0"
         style="stroke-width:0.03527778" />
      <path
         id="path2474"
         d="m 154.61463,49.643516 c -0.28222,0.42334 0.10583,1.44639 0.52916,1.44639 0.17639,0 0.3175,-0.38805 0.3175,-0.88194 0,-0.88195 -0.49388,-1.19945 -0.84666,-0.56445 z"
         inkscape:connector-curvature="0"
         style="stroke-width:0.03527778" />
      <path
         id="path2478"
         d="m 147.27685,51.654356 c -0.56444,0.28222 -0.98778,0.67028 -0.98778,0.84667 0,0.52916 1.27,0.42333 1.76389,-0.17639 0.70556,-0.84667 0.24695,-1.23473 -0.77611,-0.67028 z"
         inkscape:connector-curvature="0"
         style="stroke-width:0.03527778" />
      <path
         id="path2480"
         d="m 155.24963,51.830746 c -0.28222,0.49389 0.38805,1.16416 0.88194,0.88194 0.21167,-0.14111 0.38806,-0.38805 0.38806,-0.56444 0,-0.45861 -1.02306,-0.70556 -1.27,-0.3175 z"
         inkscape:connector-curvature="0"
         style="stroke-width:0.03527778" />
      <path
         id="path2482"
         d="m 172.95907,52.112966 c -0.24694,0.38806 0.10584,1.44639 0.49389,1.44639 0.28222,0 0.70556,-0.84667 0.70556,-1.44639 0,-0.42333 -0.9525,-0.42333 -1.19945,0 z"
         inkscape:connector-curvature="0"
         style="stroke-width:0.03527778" />
      <path
         id="path2484"
         d="m 155.10852,54.829356 c 0,0.3175 0.17639,0.49389 0.42333,0.42333 0.635,-0.21166 0.74083,-0.98778 0.14111,-0.98778 -0.3175,0 -0.56444,0.24695 -0.56444,0.56445 z"
         inkscape:connector-curvature="0"
         style="stroke-width:0.03527778" />
      <path
         id="path2490"
         d="m 173.27657,55.323246 c -0.24694,0.42333 0.42334,1.41111 0.9525,1.41111 0.45861,0 0.21167,-1.51695 -0.3175,-1.65806 -0.21166,-0.0706 -0.49389,0.0353 -0.635,0.24695 z"
         inkscape:connector-curvature="0"
         style="stroke-width:0.03527778" />
      <path
         id="path2498"
         d="m 155.28491,57.051856 c -0.21167,0.38805 0.3175,0.81139 0.67027,0.49389 0.3175,-0.3175 0.24695,-0.81139 -0.10583,-0.81139 -0.21167,0 -0.42333,0.14111 -0.56444,0.3175 z"
         inkscape:connector-curvature="0"
         style="stroke-width:0.03527778" />
      <path
         id="path2504"
         d="m 173.80574,58.498246 c 0,0.45861 0.17639,0.70555 0.45861,0.59972 0.21167,-0.0706 0.42333,-0.35278 0.42333,-0.59972 0,-0.24695 -0.21166,-0.52917 -0.42333,-0.635 -0.28222,-0.0706 -0.45861,0.17639 -0.45861,0.635 z"
         inkscape:connector-curvature="0"
         style="stroke-width:0.03527778" />
      <path
         id="path2506"
         d="m 155.63768,58.851026 c 0.10584,0.17638 0.28223,0.35277 0.38806,0.35277 0.0705,0 0.14111,-0.17639 0.14111,-0.35277 0,-0.21167 -0.17639,-0.35278 -0.38806,-0.35278 -0.17638,0 -0.24694,0.14111 -0.14111,0.35278 z"
         inkscape:connector-curvature="0"
         style="stroke-width:0.03527778" />
      <path
         id="path2508"
         d="m 224.95852,59.380186 c 0,0.35278 -0.35278,0.52917 -1.19944,0.52917 -1.48167,0 -1.83445,0.42333 -2.25778,2.82222 -0.38806,2.08139 -0.14111,2.82222 0.9525,2.82222 1.83444,0 2.92805,-2.50472 1.19944,-2.75166 -0.84666,-0.14111 -1.19944,-1.48167 -0.35277,-1.48167 0.21166,0 0.84666,-0.24694 1.41111,-0.49389 0.91722,-0.49389 0.98777,-0.49389 1.83444,0.77611 0.49389,0.70556 0.88195,1.55222 0.88195,1.86972 0,0.59973 -2.2225,2.78695 -2.82223,2.78695 -0.21166,0 -0.35277,0.24694 -0.35277,0.52917 0,0.49388 0.14111,0.49388 1.34055,0 3.35139,-1.37584 3.84528,-4.1275 1.19945,-6.985 -0.98778,-1.05834 -1.83445,-1.23473 -1.83445,-0.42334 z"
         inkscape:connector-curvature="0"
         style="stroke-width:0.03527778" />
      <path
         id="path2510"
         d="m 199.2763,59.627136 c -0.21167,0.24694 -0.38806,1.23472 -0.42334,2.2225 -0.10583,3.31611 -0.0353,4.05694 0.52917,4.05694 0.38806,0 0.49389,-0.56444 0.49389,-2.50472 0,-2.50472 0.3175,-3.45722 1.05833,-2.99861 0.56445,0.35278 0.49389,1.09361 -0.14111,1.62278 -0.77611,0.67027 -0.635,1.69333 0.38806,2.71638 0.67028,0.67028 1.02305,0.77612 1.30528,0.49389 0.28222,-0.28222 0.14111,-0.59972 -0.45862,-1.27 l -0.81138,-0.88194 0.74083,-0.81139 c 0.42333,-0.45861 0.77611,-1.05833 0.77611,-1.37583 0,-1.34056 -2.61056,-2.29306 -3.45722,-1.27 z"
         inkscape:connector-curvature="0"
         style="stroke-width:0.03527778" />
      <path
         id="path2512"
         d="m 214.62213,59.838796 c -0.35278,0.35278 -0.59972,1.09361 -0.59972,1.5875 0,0.77611 -0.17639,0.9525 -0.84667,0.9525 -0.56444,0 -1.12889,0.38806 -1.65805,1.09361 l -0.74084,1.05834 -0.42333,-0.81139 c -0.45861,-0.91722 -2.08139,-1.27 -2.89278,-0.59972 -0.28222,0.21166 -0.49389,0.9525 -0.49389,1.5875 0,1.09361 0.10584,1.19944 1.02306,1.19944 0.56444,0 1.44639,-0.14111 1.905,-0.3175 0.70555,-0.28222 1.02305,-0.21167 1.51694,0.35278 0.635,0.70555 2.08139,0.91722 2.43417,0.3175 0.14111,-0.21167 0.74083,-0.28222 1.44639,-0.14111 1.27,0.24694 1.5875,-0.17639 0.67028,-0.91722 -0.42334,-0.35278 -0.49389,-0.98778 -0.3175,-3.21028 0.24694,-2.89278 0.0353,-3.31611 -1.02306,-2.15195 z m -0.59972,4.26861 c 0,0.77612 -0.88195,1.5875 -1.41111,1.27 -0.45861,-0.28222 -0.45861,-0.98777 0.0705,-1.51694 0.635,-0.635 1.34056,-0.49389 1.34056,0.24694 z m -5.00945,0.10584 c -0.0705,0.21166 -0.35277,0.49389 -0.56444,0.56444 -0.24694,0.0705 -0.35278,-0.0706 -0.21167,-0.42333 0.24695,-0.635 0.98778,-0.77611 0.77611,-0.14111 z"
         inkscape:connector-curvature="0"
         style="stroke-width:0.03527778" />
      <path
         id="path2514"
         d="m 218.85547,59.838796 c -0.81139,0.88195 -1.30528,2.36361 -1.37584,4.1275 -0.0705,1.83445 0.56445,2.71639 1.76389,2.57528 1.16417,-0.14111 1.41111,-0.88194 0.35278,-1.05833 -0.635,-0.0706 -0.84667,-0.35278 -0.91722,-1.19945 -0.14111,-1.34055 0.74083,-3.59833 1.51694,-3.88055 0.74083,-0.3175 0.67028,-1.19945 -0.10583,-1.19945 -0.38806,0 -0.91722,0.28223 -1.23472,0.635 z"
         inkscape:connector-curvature="0"
         style="stroke-width:0.03527778" />
      <path
         id="path2516"
         d="m 175.04046,60.967686 c -0.21166,0.98778 -0.3175,1.05834 -1.41111,0.84667 -1.12889,-0.21167 -1.23472,-0.14111 -1.72861,1.09361 -0.77611,1.83444 -0.70556,2.61056 0.28222,3.03389 0.635,0.28222 1.05834,0.24694 1.905,-0.17639 0.91722,-0.49389 1.09361,-0.49389 1.48167,-0.0353 0.24694,0.28222 0.635,0.52917 0.91722,0.52917 0.84667,0 0.91722,-0.74084 0.14111,-1.30528 -0.67028,-0.49389 -0.74083,-0.74084 -0.52916,-2.78695 0.21166,-1.905 0.17638,-2.25777 -0.28223,-2.25777 -0.3175,0 -0.635,0.45861 -0.77611,1.05833 z m -0.17639,2.2225 c 0,0.67028 -1.02305,2.01084 -1.5875,2.01084 -0.9525,0 -0.98777,-0.81139 -0.0353,-1.65806 1.05833,-0.91722 1.62277,-1.02306 1.62277,-0.35278 z"
         inkscape:connector-curvature="0"
         style="stroke-width:0.03527778" />
      <path
         id="path2518"
         d="m 187.28185,61.320466 c -0.38805,0.81139 -0.635,1.72861 -0.59972,2.04611 0.52917,2.64583 0.49389,2.57528 1.65806,2.46945 1.30527,-0.14112 1.72861,-0.88195 0.59972,-1.05834 -1.02306,-0.14111 -1.23472,-0.84666 -0.3175,-1.09361 0.70555,-0.17639 1.02305,-0.9525 0.35278,-0.9525 -0.17639,0 -0.35278,-0.635 -0.35278,-1.41111 0,-1.79917 -0.45861,-1.79917 -1.34056,0 z"
         inkscape:connector-curvature="0"
         style="stroke-width:0.03527778" />
      <path
         id="path2520"
         d="m 195.18407,60.191576 c -0.10583,0.17639 -0.35277,1.34056 -0.59972,2.64583 -0.42333,2.29306 -1.02305,3.175 -1.02305,1.55223 0,-0.42334 -0.24695,-1.05834 -0.52917,-1.44639 -1.09361,-1.41111 -3.38667,0.45861 -2.82222,2.29305 0.17639,0.52917 0.56444,0.67028 2.01083,0.67028 1.27,0 1.905,0.17639 2.2225,0.59972 0.59972,0.81139 1.23472,0.24695 1.02306,-0.88194 -0.10584,-0.52917 0.0353,-1.94028 0.3175,-3.13972 0.28222,-1.19945 0.42333,-2.29306 0.3175,-2.39889 -0.28223,-0.24695 -0.70556,-0.21167 -0.91723,0.10583 z m -3.03388,4.1275 c 0,0.28222 -0.14112,0.52917 -0.35278,0.52917 -0.17639,0 -0.35278,-0.24695 -0.35278,-0.52917 0,-0.28222 0.17639,-0.52917 0.35278,-0.52917 0.21166,0 0.35278,0.24695 0.35278,0.52917 z"
         inkscape:connector-curvature="0"
         style="stroke-width:0.03527778" />
      <path
         id="path2522"
         d="m 184.74185,61.320466 c 0,0.38806 0.24695,0.70556 0.52917,0.70556 0.28222,0 0.52917,-0.3175 0.52917,-0.70556 0,-0.38806 -0.24695,-0.70556 -0.52917,-0.70556 -0.28222,0 -0.52917,0.3175 -0.52917,0.70556 z"
         inkscape:connector-curvature="0"
         style="stroke-width:0.03527778" />
      <path
         id="path2526"
         d="m 178.14491,63.154906 c -0.42334,1.55223 -0.28223,2.50473 0.38805,2.29306 0.21167,-0.0706 0.38806,-0.70556 0.38806,-1.37583 0,-0.70556 0.10583,-1.41111 0.28222,-1.55223 0.38806,-0.38805 0.28222,-0.84666 -0.21167,-0.84666 -0.24694,0 -0.635,0.67028 -0.84666,1.48166 z"
         inkscape:connector-curvature="0"
         style="stroke-width:0.03527778" />
      <path
         id="path2528"
         d="m 204.53269,62.696296 c -1.23473,1.23473 -0.77611,3.21028 0.74083,3.21028 0.74083,0 0.81139,-0.38805 0.21167,-0.98778 -0.45861,-0.45861 -0.14111,-0.81139 0.9525,-1.27 0.42333,-0.14111 -0.17639,-1.34055 -0.81139,-1.55222 -0.21167,-0.0705 -0.70556,0.21167 -1.09361,0.59972 z"
         inkscape:connector-curvature="0"
         style="stroke-width:0.03527778" />
      <path
         id="path2530"
         d="m 180.12046,63.154906 c -0.49389,0.9525 -0.14111,2.29306 0.74084,2.57528 0.38805,0.10584 0.70555,0.45861 0.70555,0.74084 0,0.91722 -1.05833,2.61055 -1.62278,2.61055 -0.3175,0 -0.49389,0.21167 -0.38805,0.42334 0.24694,0.84666 1.44639,0.45861 2.2225,-0.70556 0.45861,-0.635 0.98778,-1.97556 1.19944,-2.99861 0.21167,-0.98778 0.45861,-2.15195 0.56445,-2.54 0.14111,-0.635 0,-0.70556 -1.44639,-0.77611 -1.27,-0.0353 -1.65806,0.10583 -1.97556,0.67027 z m 1.79917,0.77612 c 0,0.28222 -0.14111,0.59972 -0.3175,0.74083 -0.42333,0.24694 -0.84667,-0.42333 -0.56444,-0.88195 0.3175,-0.52916 0.88194,-0.42333 0.88194,0.14112 z"
         inkscape:connector-curvature="0"
         style="stroke-width:0.03527778" />
      <path
         id="path2534"
         d="m 184.63602,62.978526 c -0.42333,0.77611 -0.56445,2.2225 -0.21167,2.39888 0.49389,0.3175 0.56445,0.21167 0.84667,-1.34055 0.17639,-0.84667 0.10583,-1.30528 -0.10583,-1.30528 -0.21167,0 -0.45862,0.10583 -0.52917,0.24695 z"
         inkscape:connector-curvature="0"
         style="stroke-width:0.03527778" />
    </g>
    <path
       style="stroke-width:0.03527778"
       inkscape:connector-curvature="0"
       d="m 40.349905,129.44186 c 0.28222,0.28223 0.56444,0.28223 1.05833,0 0.56444,-0.3175 0.49389,-0.35277 -0.38806,-0.38805 -0.77611,0 -0.9525,0.10583 -0.67027,0.38805 z"
       id="path2710" />
  </g>
</svg>
