<?xml version="1.0" encoding="UTF-8" standalone="no"?>
<!-- Created with Inkscape (http://www.inkscape.org/) -->

<svg
   xmlns:dc="http://purl.org/dc/elements/1.1/"
   xmlns:cc="http://creativecommons.org/ns#"
   xmlns:rdf="http://www.w3.org/1999/02/22-rdf-syntax-ns#"
   xmlns:svg="http://www.w3.org/2000/svg"
   xmlns="http://www.w3.org/2000/svg"
   xmlns:sodipodi="http://sodipodi.sourceforge.net/DTD/sodipodi-0.dtd"
   xmlns:inkscape="http://www.inkscape.org/namespaces/inkscape"
   width="214.52042mm"
   height="69.08548mm"
   viewBox="0 0 214.52042 69.08548"
   version="1.1"
   id="svg8222"
   inkscape:version="0.92.5 (2060ec1f9f, 2020-04-08)"
   sodipodi:docname="interrupt_latency_timing.svg">
  <defs
     id="defs8216" />
  <sodipodi:namedview
     id="base"
     pagecolor="#ffffff"
     bordercolor="#666666"
     borderopacity="1.0"
     inkscape:pageopacity="0.0"
     inkscape:pageshadow="2"
     inkscape:zoom="0.35"
     inkscape:cx="0.26434285"
     inkscape:cy="-155.15904"
     inkscape:document-units="mm"
     inkscape:current-layer="layer1"
     showgrid="false"
     fit-margin-top="0"
     fit-margin-left="0"
     fit-margin-right="0"
     fit-margin-bottom="0"
     inkscape:window-width="1920"
     inkscape:window-height="1080"
     inkscape:window-x="1920"
     inkscape:window-y="0"
     inkscape:window-maximized="0" />
  <metadata
     id="metadata8219">
    <rdf:RDF>
      <cc:Work
         rdf:about="">
        <dc:format>image/svg+xml</dc:format>
        <dc:type
           rdf:resource="http://purl.org/dc/dcmitype/StillImage" />
        <dc:title></dc:title>
      </cc:Work>
    </rdf:RDF>
  </metadata>
  <g
     inkscape:label="Layer 1"
     inkscape:groupmode="layer"
     id="layer1"
     transform="translate(-1.596938,-46.254878)">
    <g
       id="g8943"
       transform="rotate(2.2648723,108.85714,80.797619)">
      <path
         id="path2264"
         d="m 157.20908,47.525449 c -0.42333,0.74084 -0.77611,1.97556 -0.81138,2.75167 -0.0353,1.41111 -0.0353,1.41111 1.30527,1.41111 1.51695,0 1.94028,-0.67028 0.49389,-0.81139 -1.23472,-0.14111 -1.05833,-0.91722 0.21167,-1.05833 1.05833,-0.14111 1.27,-0.67028 0.42333,-0.98778 -0.42333,-0.17639 -0.49389,-0.52916 -0.3175,-1.41111 0.28222,-1.5875 -0.28222,-1.55222 -1.30528,0.10583 z"
         inkscape:connector-curvature="0"
         style="stroke-width:0.03527778" />
      <path
         id="path2266"
         d="m 164.75853,47.313789 c -1.41111,0.42333 -1.69333,1.5875 -0.28222,1.23472 0.84666,-0.21167 0.84666,-0.17639 0.9525,2.15194 0.0705,1.48167 0.28222,2.39889 0.56444,2.50473 0.3175,0.10583 0.42333,-0.52917 0.42333,-2.36361 0,-1.72862 0.14112,-2.57528 0.45862,-2.64584 0.21166,-0.10583 0.84666,-0.24694 1.41111,-0.35278 0.52916,-0.14111 0.9525,-0.38805 0.9525,-0.56444 0,-0.42333 -2.96334,-0.38806 -4.48028,0.0353 z"
         inkscape:connector-curvature="0"
         style="stroke-width:0.03527778" />
      <path
         id="path2268"
         d="m 135.72492,48.654339 c -0.35278,1.41111 -0.14111,3.42195 0.42333,3.77473 0.38806,0.24694 2.04611,-0.81139 2.04611,-1.30528 0,-0.21167 -0.3175,-0.28222 -0.70555,-0.14111 -0.42334,0.14111 -0.70556,0.0705 -0.70556,-0.17639 0,-0.24695 0.3175,-0.49389 0.70556,-0.59972 0.91722,-0.24695 0.91722,-0.67028 0,-0.91723 -0.59973,-0.14111 -0.67028,-0.38805 -0.49389,-1.09361 0.17639,-0.70555 0.0705,-0.91722 -0.35278,-0.91722 -0.3175,0 -0.67028,0.52917 -0.91722,1.37583 z"
         inkscape:connector-curvature="0"
         style="stroke-width:0.03527778" />
      <path
         id="path2270"
         d="m 195.69714,48.654339 c -0.56444,1.12889 -0.91722,1.41111 -1.83444,1.51695 -2.25778,0.21166 -2.18723,3.81 0.0705,3.81 0.59973,0 1.51695,0.28222 2.01084,0.59972 0.91722,0.635 0.9525,0.635 0.67027,-0.24694 -0.59972,-2.01084 -0.59972,-2.43417 0.10584,-3.81 0.88194,-1.72862 0.98778,-3.24556 0.21166,-3.24556 -0.28222,0 -0.84666,0.635 -1.23472,1.37583 z m -1.02305,3.52778 c -0.24695,0.42333 -0.56445,0.74083 -0.74084,0.74083 -0.49389,0 -0.42333,-1.19944 0.0706,-1.69333 0.635,-0.635 1.12889,0.0706 0.67028,0.9525 z"
         inkscape:connector-curvature="0"
         style="stroke-width:0.03527778" />
      <path
         id="path2272"
         d="m 129.7277,48.513229 c 0,0.28222 0.24694,0.52917 0.52916,0.52917 0.28222,0 0.52917,-0.24695 0.52917,-0.52917 0,-0.28222 -0.24695,-0.52916 -0.52917,-0.52916 -0.28222,0 -0.52916,0.24694 -0.52916,0.52916 z"
         inkscape:connector-curvature="0"
         style="stroke-width:0.03527778" />
      <path
         id="path2276"
         d="m 151.84686,48.901289 c -0.14111,0.14111 -0.67028,0.24694 -1.19944,0.28222 -0.67028,0.0353 -1.02306,0.24694 -1.09361,0.74083 -0.24695,1.27 -0.77611,1.44639 -0.77611,0.24695 v -1.09361 l -3.175,0.0705 c -1.72862,0.0353 -3.31612,0.24695 -3.4925,0.42334 -0.49389,0.52916 -0.635,2.39888 -0.14112,2.54 0.21167,0.0705 0.67028,-0.35278 0.98778,-0.91723 0.74084,-1.44639 1.16417,-1.37583 1.30528,0.21167 0.14111,1.79917 0.88194,1.86972 1.34056,0.14111 0.45861,-1.76389 1.65805,-2.04611 1.83444,-0.49389 0.0706,0.81139 0.28222,1.02306 1.27,1.09361 1.02306,0.10584 1.19944,0 1.51694,-0.9525 0.52917,-1.48166 1.19945,-1.44639 0.84667,0.0353 -0.38805,1.72861 -0.38805,2.57528 0,2.68111 0.21167,0.0706 0.49389,-0.35278 0.67028,-0.9525 0.21167,-0.81139 0.52917,-1.09361 1.09361,-1.09361 1.44639,0 2.46944,-1.79917 1.51694,-2.75167 -0.45861,-0.45861 -2.11666,-0.56444 -2.50472,-0.21166 z m 1.79917,1.27 c -0.24695,0.67028 -1.34056,0.77611 -1.34056,0.14111 0,-0.35278 0.3175,-0.56445 0.74084,-0.56445 0.42333,0 0.67027,0.17639 0.59972,0.42334 z"
         inkscape:connector-curvature="0"
         style="stroke-width:0.03527778" />
      <path
         id="path2278"
         d="m 138.97047,49.853789 c -0.70555,0.74083 -0.74083,0.88194 -0.21166,1.5875 0.28222,0.42333 0.91722,0.77611 1.41111,0.77611 0.9525,0 1.16416,-0.59972 0.3175,-0.9525 -0.45861,-0.17639 -0.45861,-0.28222 0.17639,-0.70556 0.59972,-0.42333 0.67027,-0.635 0.3175,-1.02305 -0.56445,-0.70556 -1.12889,-0.59972 -2.01084,0.3175 z"
         inkscape:connector-curvature="0"
         style="stroke-width:0.03527778" />
      <path
         id="path2280"
         d="m 172.62547,49.324619 c -0.10583,0.17639 -0.84666,0.3175 -1.65805,0.35278 -1.94028,0.0705 -2.43417,0.56444 -2.43417,2.25778 0,1.16416 0.10583,1.37583 0.56445,1.19944 0.3175,-0.10583 0.635,-0.21167 0.70555,-0.21167 0.0706,0 0.14111,-0.45861 0.14111,-1.02305 0,-0.88195 0.17639,-1.09361 1.05834,-1.27 0.56444,-0.14111 1.12888,-0.38806 1.23472,-0.56445 0.14111,-0.17638 0.52916,-0.3175 0.91722,-0.3175 0.35278,0 0.67028,-0.17638 0.67028,-0.35277 0,-0.42334 -0.9525,-0.45861 -1.19945,-0.0706 z"
         inkscape:connector-curvature="0"
         style="stroke-width:0.03527778" />
      <path
         id="path2282"
         d="m 176.01214,49.994899 c -1.19944,0.24694 -1.76389,1.69333 -1.02306,2.50472 0.74084,0.81139 0.74084,1.48167 0.0706,2.39889 -0.45861,0.56444 -0.56444,0.59972 -0.84667,0.14111 -0.45861,-0.67028 -1.19944,0 -1.02305,0.91722 0.17639,0.9525 1.65805,0.70556 2.64583,-0.38805 0.77611,-0.88195 1.86972,-3.91584 1.86972,-5.18584 0,-0.635 -0.17638,-0.67027 -1.69333,-0.38805 z"
         inkscape:connector-curvature="0"
         style="stroke-width:0.03527778" />
      <path
         id="path2284"
         d="m 185.53714,50.524069 c -0.59972,1.16416 -0.67028,2.46944 -0.14111,2.64583 0.24694,0.10583 0.59972,-0.28222 0.81139,-0.88195 0.21167,-0.67027 0.67028,-1.12888 1.23472,-1.27 0.77611,-0.21166 1.19945,-0.88194 0.59972,-0.9525 -0.17639,0 -0.70555,-0.10583 -1.19944,-0.17638 -0.67028,-0.10584 -0.98778,0.0705 -1.30528,0.635 z"
         inkscape:connector-curvature="0"
         style="stroke-width:0.03527778" />
      <path
         id="path2286"
         d="m 130.29214,50.347679 c -0.42333,0.42333 -0.21167,2.46944 0.28222,2.89277 0.70556,0.56445 0.91722,0.0353 0.67028,-1.51694 -0.21167,-1.30528 -0.52917,-1.79917 -0.9525,-1.37583 z"
         inkscape:connector-curvature="0"
         style="stroke-width:0.03527778" />
      <path
         id="path2288"
         d="m 132.65575,50.347679 c -0.49389,0.17639 -0.635,2.29305 -0.21167,2.71639 0.14112,0.14111 0.52917,-0.10584 0.84667,-0.56445 0.49389,-0.635 0.70556,-0.70555 1.12889,-0.35278 0.81139,0.70556 1.09361,-0.10583 0.38806,-1.16416 -0.56445,-0.84667 -1.19945,-1.02306 -2.15195,-0.635 z"
         inkscape:connector-curvature="0"
         style="stroke-width:0.03527778" />
      <path
         id="path2290"
         d="m 178.76381,50.806289 c -0.84667,0.84666 -0.84667,1.02305 -0.17639,2.01083 0.35278,0.49389 0.45861,1.12889 0.3175,1.69333 -0.28222,1.19945 -0.77611,1.44639 -1.37583,0.67028 -0.49389,-0.635 -0.49389,-0.635 -0.52917,0.10584 0,1.94027 1.30528,2.54 2.29305,1.05833 0.635,-1.02306 1.94028,-4.72722 1.94028,-5.60917 0,-0.88194 -1.55222,-0.84666 -2.46944,0.0706 z"
         inkscape:connector-curvature="0"
         style="stroke-width:0.03527778" />
      <path
         id="path2292"
         d="m 182.18575,50.347679 c -0.42333,0.38805 -0.28222,2.39889 0.17639,2.8575 0.49389,0.49389 2.04611,0.56444 2.04611,0.10583 0,-0.17639 -0.24694,-0.42333 -0.56444,-0.52917 -0.52917,-0.21166 -0.52917,-0.28222 0.0353,-0.91722 0.35277,-0.38805 0.52916,-0.91722 0.42333,-1.23472 -0.21167,-0.52917 -1.69333,-0.74083 -2.11667,-0.28222 z"
         inkscape:connector-curvature="0"
         style="stroke-width:0.03527778" />
      <path
         id="path2294"
         d="m 188.99436,50.735729 c -1.37583,1.12889 -0.0705,3.175 1.5875,2.50472 0.67028,-0.28222 0.67028,-0.28222 -0.0705,-0.52916 -0.88195,-0.24695 -1.09361,-0.84667 -0.3175,-0.84667 0.24694,0 0.67028,-0.24694 0.9525,-0.56444 0.35278,-0.45861 0.35278,-0.59973 -0.0706,-0.88195 -0.74083,-0.45861 -1.19944,-0.38805 -2.08139,0.3175 z"
         inkscape:connector-curvature="0"
         style="stroke-width:0.03527778" />
      <path
         id="path2296"
         d="m 172.66075,50.665179 c -0.38805,0.38805 -0.28222,1.83444 0.14111,2.08139 0.49389,0.3175 0.56445,0.17638 0.74084,-1.02306 0.10583,-0.98778 -0.38806,-1.55222 -0.88195,-1.05833 z"
         inkscape:connector-curvature="0"
         style="stroke-width:0.03527778" />
      <path
         id="path2300"
         d="m 125.42381,53.946009 c -1.55223,1.72861 -3.175,5.25639 -3.63361,7.83167 -0.17639,0.91722 -0.49389,1.41111 -1.12889,1.69333 -0.84667,0.38806 -0.88195,0.52917 -0.67028,2.08139 0.24694,1.72861 0.9525,2.78694 1.5875,2.39889 0.21167,-0.14111 0.88194,-0.9525 1.48167,-1.83445 1.09361,-1.5875 1.16416,-2.61055 0.14111,-2.61055 -0.74084,0 -0.67028,-1.16417 0.3175,-3.95111 1.12889,-3.21028 2.46944,-5.3975 3.73944,-6.17361 1.19945,-0.70556 1.37583,-1.16417 0.38806,-1.16417 -0.38806,0 -1.37584,0.77611 -2.2225,1.72861 z m -3.28084,11.67694 c -0.84666,0.9525 -1.23472,0.88195 -1.23472,-0.14111 0,-0.52916 0.24695,-0.91722 0.635,-1.02305 0.98778,-0.21167 1.30528,0.38805 0.59972,1.16416 z"
         inkscape:connector-curvature="0"
         style="stroke-width:0.03527778" />
      <path
         id="path2310"
         d="m 154.06936,64.564619 c 0,0.38806 0.17639,0.70556 0.35278,0.70556 0.21167,0 0.35278,-0.3175 0.35278,-0.70556 0,-0.38805 -0.14111,-0.70555 -0.35278,-0.70555 -0.17639,0 -0.35278,0.3175 -0.35278,0.70555 z"
         inkscape:connector-curvature="0"
         style="stroke-width:0.03527778" />
      <path
         id="path2314"
         d="m 154.21047,66.116839 c -0.14111,0.35278 -0.0705,0.77611 0.14111,0.98778 0.28223,0.28222 0.45862,0.24695 0.635,-0.21167 0.14112,-0.35277 0.0706,-0.77611 -0.14111,-0.98777 -0.28222,-0.28223 -0.45861,-0.24695 -0.635,0.21166 z"
         inkscape:connector-curvature="0"
         style="stroke-width:0.03527778" />
      <path
         id="path2322"
         d="m 154.42214,68.445179 c 0,0.38805 0.14111,0.70555 0.3175,0.70555 0.38806,0 0.77611,-0.91722 0.49389,-1.19944 -0.42333,-0.42334 -0.81139,-0.17639 -0.81139,0.49389 z"
         inkscape:connector-curvature="0"
         style="stroke-width:0.03527778" />
      <path
         id="path2326"
         d="m 208.39714,68.833229 c -16.08667,0.77611 -54.89222,1.41111 -84.98417,1.37584 h -3.31611 l 0.14111,5.36222 0.14111,5.3975 -7.58472,0.24694 c -4.16278,0.14112 -9.41917,0.42334 -11.64167,0.635 -8.254999,0.81139 -14.322779,1.09362 -30.338889,1.37584 -9.03111,0.17639 -16.68639,0.42333 -17.03917,0.56444 -1.34055,0.52917 -0.35277,1.05834 1.905,1.02306 22.08389,-0.52917 34.74862,-0.88195 36.30084,-1.02306 6.45583,-0.635 16.651109,-1.27 22.683609,-1.48166 3.84528,-0.10584 7.02028,-0.3175 7.09084,-0.42334 0.0353,-0.10583 -0.0353,-2.43416 -0.21167,-5.11528 -0.17639,-2.68111 -0.17639,-5.00944 -0.0353,-5.15055 0.14111,-0.14111 13.47611,-0.38806 29.56278,-0.49389 16.12195,-0.14111 33.26695,-0.38806 38.1,-0.56445 4.86834,-0.17639 12.73528,-0.45861 17.53306,-0.56444 8.53722,-0.24695 10.23056,-0.45861 9.10167,-1.19945 -0.28223,-0.17638 -0.84667,-0.3175 -1.23473,-0.28222 -0.38805,0 -3.175,0.14111 -6.17361,0.3175 z"
         inkscape:connector-curvature="0"
         style="stroke-width:0.03527778" />
      <path
         id="path2332"
         d="m 22.624351,73.172399 c -0.91722,0.42333 -1.12889,0.74083 -1.30527,2.04611 -0.3175,2.2225 0,3.10445 1.23472,3.35139 1.23472,0.24695 1.55222,0.67028 0.98778,1.34056 -0.635,0.77611 -1.37584,0.635 -1.83445,-0.35278 -0.52917,-1.16417 -0.98778,-1.12889 -0.98778,0.10583 0,2.01084 2.08139,2.8575 3.42195,1.37584 1.55222,-1.65806 1.23472,-3.13973 -0.81139,-3.63362 -0.67028,-0.17638 -0.84667,-0.45861 -0.84667,-1.34055 0,-1.41111 0.56445,-1.97556 1.97556,-1.97556 1.34055,0 3.31611,-0.635 3.31611,-1.09361 0,-0.49389 -3.91583,-0.35278 -5.15056,0.17639 z"
         inkscape:connector-curvature="0"
         style="stroke-width:0.03527778" />
      <path
         id="path2334"
         d="m 154.4927,73.242959 c 0.14111,0.74083 0.77611,0.81139 0.91722,0.0353 0.0705,-0.35278 -0.10584,-0.59973 -0.45861,-0.59973 -0.35278,0 -0.52917,0.21167 -0.45861,0.56445 z"
         inkscape:connector-curvature="0"
         style="stroke-width:0.03527778" />
      <path
         id="path2338"
         d="m 3.327409,74.477679 c -1.5875,0.84667 -2.116667,1.94028 -1.446389,2.99861 0.282222,0.42333 0.599722,2.29306 0.740833,4.48028 0.105834,2.08139 0.352778,3.77472 0.529167,3.77472 0.141111,0 0.282222,-1.23472 0.282222,-2.78694 v -2.75167 l 1.5875,-0.45861 c 2.786945,-0.77611 3.81,-3.10445 2.257778,-5.08 -0.881944,-1.12889 -2.081389,-1.16417 -3.951111,-0.17639 z m 3.280833,0.81139 c 0.670278,0.84666 0.246945,2.08139 -1.023055,2.96333 -1.516945,0.98778 -2.2225,0.88195 -2.645834,-0.38805 -0.423333,-1.16417 -0.03528,-1.97556 1.234723,-2.61056 1.128888,-0.59972 1.905,-0.56444 2.434166,0.0353 z"
         inkscape:connector-curvature="0"
         style="stroke-width:0.03527778" />
      <path
         id="path2344"
         d="m 154.4927,75.747679 c 0.17638,0.88194 0.98777,0.98778 0.98777,0.14111 0,-0.42333 -0.21166,-0.74083 -0.56444,-0.74083 -0.3175,0 -0.49389,0.24694 -0.42333,0.59972 z"
         inkscape:connector-curvature="0"
         style="stroke-width:0.03527778" />
      <path
         id="path2352"
         d="m 9.571576,77.299899 c -0.352778,0.59972 0.458611,1.27 0.9525,0.77611 0.423333,-0.42333 0.141111,-1.16416 -0.388056,-1.16416 -0.176389,0 -0.423333,0.17638 -0.564444,0.38805 z"
         inkscape:connector-curvature="0"
         style="stroke-width:0.03527778" />
      <path
         id="path2356"
         d="m 154.42214,78.146569 c 0,0.28222 0.24694,0.52916 0.52917,0.52916 0.28222,0 0.52916,-0.24694 0.52916,-0.52916 0,-0.28222 -0.24694,-0.52917 -0.52916,-0.52917 -0.28223,0 -0.52917,0.24695 -0.52917,0.52917 z"
         inkscape:connector-curvature="0"
         style="stroke-width:0.03527778" />
      <path
         id="path2358"
         d="m 12.958243,79.169619 c -1.128889,0.42334 -1.234723,0.56445 -1.234723,1.79917 0,1.79917 0.705556,1.94028 1.411112,0.3175 0.635,-1.5875 1.093611,-1.30528 1.199444,0.81139 0.03528,0.24694 0.352775,0.45861 0.705555,0.45861 0.56445,0 0.635,-0.17639 0.42333,-1.16417 -0.24694,-1.02305 -0.987774,-2.75166 -1.19944,-2.68111 -0.03528,0 -0.635,0.21167 -1.305278,0.45861 z"
         inkscape:connector-curvature="0"
         style="stroke-width:0.03527778" />
      <path
         id="path2362"
         d="m 9.677409,79.628229 c -0.141111,0.10584 -0.246944,0.84667 -0.246944,1.5875 0,0.9525 0.141111,1.34056 0.529166,1.34056 0.388056,0 0.529167,-0.42333 0.529167,-1.5875 0,-1.48167 -0.246944,-1.905 -0.811389,-1.34056 z"
         inkscape:connector-curvature="0"
         style="stroke-width:0.03527778" />
      <path
         id="path2364"
         d="m 154.77492,80.227959 c 0,0.3175 0.24694,0.56444 0.56444,0.56444 0.3175,0 0.49389,-0.17639 0.42334,-0.42333 -0.21167,-0.635 -0.98778,-0.74084 -0.98778,-0.14111 z"
         inkscape:connector-curvature="0"
         style="stroke-width:0.03527778" />
      <path
         id="path2376"
         d="m 154.91603,82.697399 c -0.14111,0.3175 -0.14111,0.70556 0,0.81139 0.10583,0.14111 0.42333,0.0353 0.635,-0.17639 0.3175,-0.3175 0.3175,-0.52917 0,-0.84667 -0.3175,-0.3175 -0.45861,-0.24694 -0.635,0.21167 z"
         inkscape:connector-curvature="0"
         style="stroke-width:0.03527778" />
      <path
         id="path2388"
         d="m 154.77492,85.766569 c 0,0.84666 0.81139,0.74083 0.98778,-0.14111 0.0705,-0.35278 -0.10584,-0.59973 -0.42334,-0.59973 -0.35278,0 -0.56444,0.3175 -0.56444,0.74084 z"
         inkscape:connector-curvature="0"
         style="stroke-width:0.03527778" />
      <path
         id="path2400"
         d="m 150.54158,87.671569 c 0,0.28222 -0.0353,0.52916 -0.0705,0.56444 -0.10583,0 -11.00667,0.49389 -20.6375,0.88195 -5.89139,0.21166 -6.45583,0.21166 -6.45583,-0.3175 0,-0.88195 -0.635,-0.74084 -1.5875,0.35277 -1.44639,1.62278 -1.02306,2.57528 1.09361,2.57528 0.91722,0 1.09361,-0.3175 0.45861,-0.9525 -0.38806,-0.38805 4.16278,-0.67028 16.96861,-0.98778 4.37444,-0.14111 8.29028,-0.28222 8.74889,-0.38805 0.70555,-0.14111 0.77611,-0.0353 0.56444,0.74083 -0.28222,1.09361 0.14111,1.12889 1.97556,0.17639 1.69333,-0.84667 1.76389,-1.37583 0.35278,-2.39889 -1.23473,-0.91722 -1.41112,-0.9525 -1.41112,-0.24694 z"
         inkscape:connector-curvature="0"
         style="stroke-width:0.03527778" />
      <path
         id="path2402"
         d="m 154.77492,88.200729 c 0,0.38806 0.24694,0.70556 0.52916,0.70556 0.28223,0 0.52917,-0.3175 0.52917,-0.70556 0,-0.38805 -0.24694,-0.70555 -0.52917,-0.70555 -0.28222,0 -0.52916,0.3175 -0.52916,0.70555 z"
         inkscape:connector-curvature="0"
         style="stroke-width:0.03527778" />
      <path
         id="path2414"
         d="m 154.77492,90.493789 c 0,0.28222 0.24694,0.52917 0.52916,0.52917 0.28223,0 0.52917,-0.24695 0.52917,-0.52917 0,-0.28222 -0.24694,-0.52917 -0.52917,-0.52917 -0.28222,0 -0.52916,0.24695 -0.52916,0.52917 z"
         inkscape:connector-curvature="0"
         style="stroke-width:0.03527778" />
      <path
         id="path2426"
         d="m 154.77492,92.751569 c 0,0.42333 0.21166,0.74083 0.56444,0.74083 0.3175,0 0.49389,-0.24694 0.42334,-0.59972 -0.17639,-0.88195 -0.98778,-0.98778 -0.98778,-0.14111 z"
         inkscape:connector-curvature="0"
         style="stroke-width:0.03527778" />
      <path
         id="path2428"
         d="m 132.19714,92.892679 c 0,0.28222 -0.3175,0.77611 -0.70556,1.12889 -0.45861,0.42333 -0.59972,0.77611 -0.38805,1.02305 0.17639,0.21167 0.38805,0.9525 0.45861,1.62278 0.10583,1.34056 0.70556,1.65806 2.25778,1.27 1.30528,-0.35278 1.12889,-1.30528 -0.21167,-1.05833 -0.9525,0.21166 -1.05833,0.14111 -1.05833,-0.67028 0,-1.02306 0.35278,-1.30528 1.83444,-1.62278 1.34056,-0.28222 1.44639,-0.88194 0.17639,-1.02305 -0.56444,-0.0706 -1.09361,-0.35278 -1.19944,-0.635 -0.24695,-0.635 -1.16417,-0.635 -1.16417,-0.0353 z"
         inkscape:connector-curvature="0"
         style="stroke-width:0.03527778" />
      <path
         id="path2430"
         d="m 197.63742,94.409619 c -0.70556,1.72861 -0.70556,5.22111 0.0353,5.961951 0.67028,0.67028 1.83444,0.42333 2.71639,-0.599721 1.05833,-1.23473 0.635,-1.79917 -0.67028,-0.81139 -1.05833,0.81139 -1.62278,0.67027 -1.48167,-0.45861 0.0706,-0.77612 0.28222,-0.98778 1.27,-1.05834 1.51695,-0.14111 1.55222,-1.12889 0.0353,-1.12889 -1.02306,0 -1.09361,-0.0705 -0.9525,-0.98777 0.10583,-0.52917 0.3175,-1.23473 0.45861,-1.5875 0.17639,-0.42334 0.10583,-0.59973 -0.3175,-0.59973 -0.3175,0 -0.77611,0.56445 -1.09361,1.27 z"
         inkscape:connector-curvature="0"
         style="stroke-width:0.03527778" />
      <path
         id="path2434"
         d="m 167.65131,95.079899 c -0.77611,0.28222 -1.44639,0.52917 -1.48167,0.52917 -0.0706,0 -0.10583,0.24694 -0.10583,0.56444 0,0.42334 0.21166,0.52917 0.84666,0.35278 0.74084,-0.17639 0.84667,-0.0705 1.05834,1.30528 0.14111,0.81139 0.3175,1.97555 0.42333,2.610551 0.17639,0.88195 0.0706,1.12889 -0.52917,1.34056 -0.77611,0.24694 -1.02305,1.23472 -0.28222,1.23472 0.67028,-0.0353 3.31611,-1.27 3.56306,-1.72861 0.17639,-0.24694 -0.10584,-0.38806 -0.81139,-0.38806 -1.02306,0 -1.05834,-0.0353 -1.27,-2.328331 -0.28222,-2.39889 -0.14111,-2.82222 1.02305,-3.03389 0.38806,-0.0353 0.74084,-0.3175 0.84667,-0.56444 0.17639,-0.56445 -1.48167,-0.52917 -3.28083,0.10583 z"
         inkscape:connector-curvature="0"
         style="stroke-width:0.03527778" />
      <path
         id="path2436"
         d="m 175.51825,96.208789 c -0.10583,2.08139 0.10583,3.77472 0.45861,4.198061 0.38806,0.49388 1.55223,0.28222 2.08139,-0.38806 0.3175,-0.388061 0.52917,-0.352781 1.09361,0.21167 0.67028,0.67027 2.43417,0.9525 2.43417,0.35277 0,-0.17638 -0.42333,-0.45861 -0.9525,-0.670271 l -0.98778,-0.3175 1.34056,-0.59973 c 1.44639,-0.70555 1.69333,-1.44638 0.59972,-1.79916 -0.81139,-0.24695 -1.86972,0.24694 -2.54,1.19944 -0.56444,0.77611 -2.39889,1.37584 -2.39889,0.77611 0,-0.17639 0.3175,-0.52916 0.70556,-0.74083 0.38805,-0.21167 0.70555,-0.52917 0.70555,-0.70556 0,-0.21166 -0.3175,-0.35277 -0.70555,-0.35277 -0.56445,0 -0.70556,-0.24695 -0.70556,-1.23473 0,-1.79916 -1.02306,-1.69333 -1.12889,0.0705 z"
         inkscape:connector-curvature="0"
         style="stroke-width:0.03527778" />
      <path
         id="path2438"
         d="m 136.18353,95.679619 c -0.14111,0.24695 -0.21167,0.81139 -0.14111,1.27 0.0353,0.45861 -0.17639,1.16417 -0.52917,1.51695 -0.56444,0.59972 -0.56444,0.77611 -0.14111,1.05833 0.56444,0.35278 2.43417,0.0705 2.99861,-0.42333 0.21167,-0.21167 0.0706,-0.42334 -0.45861,-0.52917 -0.88194,-0.24694 -0.98778,-1.05833 -0.24694,-2.04611 0.42333,-0.56444 0.42333,-0.77611 0.0705,-0.98778 -0.635,-0.38805 -1.23472,-0.35278 -1.55222,0.14111 z"
         inkscape:connector-curvature="0"
         style="stroke-width:0.03527778" />
      <path
         id="path2444"
         d="m 193.47464,97.514069 c -0.88194,0.81139 -0.9525,1.09361 -0.9525,3.563051 0,2.01084 0.10583,2.68111 0.45861,2.57528 0.21167,-0.10583 0.45861,-0.81139 0.52917,-1.62278 0.0706,-0.91722 0.28222,-1.48166 0.56444,-1.48166 0.88195,0 1.69334,-1.305281 1.55223,-2.504731 -0.14111,-1.51694 -0.91723,-1.69333 -2.15195,-0.52916 z m 1.02306,1.44639 c -0.10584,0.3175 -0.38806,0.45861 -0.56445,0.35277 -0.28222,-0.17638 -0.24694,-0.38805 0.0353,-0.74083 0.49389,-0.635 0.84667,-0.38805 0.52917,0.38806 z"
         inkscape:connector-curvature="0"
         style="stroke-width:0.03527778" />
      <path
         id="path2448"
         d="m 183.87909,97.337679 c -0.9525,0.21167 -1.05834,0.35278 -1.16417,1.72861 -0.0706,1.164171 0,1.481671 0.42333,1.481671 0.38806,0 0.56445,-0.35278 0.56445,-1.058341 0,-0.635 0.17639,-1.05833 0.45861,-1.05833 0.24694,0 0.74083,-0.21167 1.09361,-0.45861 0.84667,-0.59972 0.17639,-0.91722 -1.37583,-0.635 z"
         inkscape:connector-curvature="0"
         style="stroke-width:0.03527778" />
      <path
         id="path2450"
         d="m 186.45436,97.619899 c -0.81139,0.9525 -1.16416,2.928061 -0.52916,2.928061 0.635,0 1.19944,-0.635001 1.34055,-1.552231 0.21167,-1.16416 1.02306,-1.09361 1.02306,0.0706 0,1.164171 0.56444,1.799171 1.51694,1.622781 0.91722,-0.14111 1.62278,-1.199441 1.65806,-2.363611 0,-1.19944 -0.77611,-1.12889 -1.05834,0.10583 -0.28222,1.27 -1.05833,1.30528 -1.05833,0.0706 0,-1.51694 -1.83444,-2.08139 -2.89278,-0.88194 z"
         inkscape:connector-curvature="0"
         style="stroke-width:0.03527778" />
      <path
         id="path2460"
         d="m 172.48436,98.713509 c -0.56444,0.38806 -0.42333,2.610561 0.14111,2.786951 0.21167,0.0706 0.49389,-0.21167 0.59973,-0.67028 0.21166,-0.77611 0.24694,-0.77611 0.74083,-0.10583 0.70555,0.9525 1.09361,0.42333 0.70555,-0.952501 -0.35277,-1.19945 -1.27,-1.62278 -2.18722,-1.05834 z"
         inkscape:connector-curvature="0"
         style="stroke-width:0.03527778" />
      <path
         id="path2476"
         d="m 143.48603,100.65379 c -1.48167,0.38806 -1.5875,0.49389 -1.48167,1.48167 0.24695,2.43416 2.15195,4.1275 3.10445,2.82222 0.42333,-0.59972 0.56444,-0.59972 2.32833,0.10583 2.64583,1.02306 3.91583,1.37584 7.33778,1.97556 5.53861,0.9525 7.47889,1.02305 10.61861,0.38805 3.21028,-0.70555 3.84528,-1.02305 3.24555,-1.62277 -0.3175,-0.3175 -0.98777,-0.28223 -2.71638,0.17638 -1.27,0.3175 -3.28084,0.56445 -4.51556,0.56445 -4.51556,0 -14.56972,-2.25778 -14.99306,-3.38667 -0.0705,-0.24694 0.0353,-0.77611 0.24695,-1.19944 0.3175,-0.56445 0.3175,-0.88195 -0.0353,-1.27 -0.45861,-0.56445 -0.98778,-0.59972 -3.13972,-0.0353 z"
         inkscape:connector-curvature="0"
         style="stroke-width:0.03527778" />
      <path
         id="path2486"
         d="m 184.54936,106.15712 c -0.14111,0.59973 -0.38805,1.19945 -0.56444,1.30528 -0.17639,0.10583 -0.21167,0.74083 -0.0706,1.41111 0.17639,1.05834 0.14111,1.19945 -0.52916,1.19945 -0.59973,0 -0.74084,-0.21167 -0.74084,-1.05834 0,-0.81139 -0.17639,-1.09361 -0.84666,-1.27 -1.34056,-0.3175 -2.32834,0.38806 -2.32834,1.72861 0,1.62278 0.88195,2.04612 3.28084,1.65806 1.05833,-0.17639 2.29305,-0.21167 2.71639,-0.10583 0.45861,0.14111 1.02305,-0.0706 1.51694,-0.52917 0.70556,-0.635 0.84667,-0.67028 1.44639,-0.21167 0.81139,0.56445 1.83444,0.635 2.15194,0.14111 0.10584,-0.21166 -0.21166,-0.52916 -0.77611,-0.74083 l -0.98778,-0.42333 1.16417,-0.35278 c 1.19945,-0.35278 1.41111,-0.88194 0.70556,-1.5875 -0.70556,-0.70556 -1.34056,-0.49389 -2.78695,0.98778 -0.77611,0.77611 -1.72861,1.41111 -2.08139,1.41111 -0.91722,0 -0.88194,-0.49389 0.10584,-1.16417 0.67027,-0.49389 0.70555,-0.635 0.24694,-0.91722 -0.28222,-0.21167 -0.52917,-0.77611 -0.52917,-1.30528 0,-1.37583 -0.84666,-1.48166 -1.09361,-0.17639 z m -3.10444,3.77473 c -0.10583,0.28222 -0.35278,0.42333 -0.56445,0.3175 -0.24694,-0.14112 -0.21166,-0.49389 0.0706,-0.98778 0.42333,-0.84667 0.84667,-0.28222 0.49389,0.67028 z"
         inkscape:connector-curvature="0"
         style="stroke-width:0.03527778" />
      <path
         id="path2488"
         d="m 175.09492,105.76907 c -0.35278,0.56444 -0.98778,5.3975 -0.77611,5.92666 0.24694,0.635 1.09361,0.635 3.13972,-0.0706 2.32833,-0.77611 2.15194,-1.34055 -0.3175,-1.05833 -1.5875,0.17639 -1.94028,0.14111 -1.79917,-0.24694 0.42334,-1.12889 0.67028,-4.40973 0.3175,-4.62139 -0.21166,-0.10584 -0.45861,-0.0705 -0.56444,0.0706 z"
         inkscape:connector-curvature="0"
         style="stroke-width:0.03527778" />
      <path
         id="path2492"
         d="m 195.87353,107.74462 c -0.70555,0.70556 -0.81139,1.05834 -0.56444,1.69334 0.14111,0.45861 0.635,0.84666 1.05833,0.91722 0.84667,0.14111 0.91722,-0.0353 0.3175,-0.98778 -0.38806,-0.59972 -0.3175,-0.77611 0.35278,-1.27 0.42333,-0.28222 0.70555,-0.70555 0.59972,-0.88194 -0.35278,-0.52917 -0.84667,-0.35278 -1.76389,0.52916 z"
         inkscape:connector-curvature="0"
         style="stroke-width:0.03527778" />
      <path
         id="path2494"
         d="m 192.31047,107.60351 c -0.91722,0.35278 -1.44638,2.08139 -0.77611,2.50472 0.28223,0.21167 0.67028,0.0353 1.02306,-0.42333 0.49389,-0.67028 0.59972,-0.67028 0.98778,-0.17639 0.28222,0.3175 0.67028,0.56445 0.91722,0.56445 0.38806,0 0.35278,-0.3175 -0.0706,-1.41111 -0.59972,-1.44639 -0.81138,-1.5875 -2.08139,-1.05834 z"
         inkscape:connector-curvature="0"
         style="stroke-width:0.03527778" />
      <path
         id="path2496"
         d="m 200.63603,108.30907 c -0.56444,1.34055 -1.51694,1.48166 -1.19944,0.17639 0.24694,-0.9525 -0.24695,-1.16417 -0.88195,-0.38806 -0.28222,0.3175 -0.28222,0.74083 -0.0705,1.37583 0.3175,0.77612 0.24694,0.9525 -0.3175,1.12889 -0.84667,0.28223 -2.82223,2.61056 -2.82223,3.35139 0,1.48167 2.11667,1.86972 3.63362,0.70556 0.49388,-0.38806 1.16416,-1.44639 1.51694,-2.32834 0.49389,-1.30527 0.88194,-1.69333 1.97556,-2.15194 1.51694,-0.59972 1.62277,-1.41111 0.14111,-1.23472 -0.84667,0.10583 -0.91723,0 -0.70556,-0.81139 0.3175,-1.30528 -0.70555,-1.16417 -1.27,0.17639 z m -1.05833,3.45722 c 0,0.88194 -1.905,2.64583 -2.68111,2.46944 -0.56445,-0.10583 -0.42334,-0.35277 0.70555,-1.62277 1.48167,-1.62278 1.97556,-1.83445 1.97556,-0.84667 z"
         inkscape:connector-curvature="0"
         style="stroke-width:0.03527778" />
    </g>
  </g>
</svg>
