<?xml version="1.0" encoding="UTF-8" standalone="no"?>
<!-- Created with Inkscape (http://www.inkscape.org/) -->

<svg
   xmlns:dc="http://purl.org/dc/elements/1.1/"
   xmlns:cc="http://creativecommons.org/ns#"
   xmlns:rdf="http://www.w3.org/1999/02/22-rdf-syntax-ns#"
   xmlns:svg="http://www.w3.org/2000/svg"
   xmlns="http://www.w3.org/2000/svg"
   xmlns:sodipodi="http://sodipodi.sourceforge.net/DTD/sodipodi-0.dtd"
   xmlns:inkscape="http://www.inkscape.org/namespaces/inkscape"
   width="248.55231mm"
   height="102.14854mm"
   viewBox="0 0 248.55231 102.14854"
   version="1.1"
   id="svg3756"
   inkscape:version="0.92.5 (2060ec1f9f, 2020-04-08)"
   sodipodi:docname="polling_latency.svg">
  <defs
     id="defs3750" />
  <sodipodi:namedview
     id="base"
     pagecolor="#ffffff"
     bordercolor="#666666"
     borderopacity="1.0"
     inkscape:pageopacity="0.0"
     inkscape:pageshadow="2"
     inkscape:zoom="0.35"
     inkscape:cx="-356.00924"
     inkscape:cy="93.0366"
     inkscape:document-units="mm"
     inkscape:current-layer="layer1"
     showgrid="false"
     fit-margin-top="0"
     fit-margin-left="0"
     fit-margin-right="0"
     fit-margin-bottom="0"
     inkscape:window-width="1920"
     inkscape:window-height="1080"
     inkscape:window-x="1920"
     inkscape:window-y="0"
     inkscape:window-maximized="0" />
  <metadata
     id="metadata3753">
    <rdf:RDF>
      <cc:Work
         rdf:about="">
        <dc:format>image/svg+xml</dc:format>
        <dc:type
           rdf:resource="http://purl.org/dc/dcmitype/StillImage" />
        <dc:title></dc:title>
      </cc:Work>
    </rdf:RDF>
  </metadata>
  <g
     inkscape:label="Layer 1"
     inkscape:groupmode="layer"
     id="layer1"
     transform="translate(1.0558884,-78.860254)">
    <path
       style="stroke-width:0.03527778"
       inkscape:connector-curvature="0"
       d="m 147.99654,79.606319 c -0.56445,1.44639 -1.23472,6.73806 -0.98778,7.44361 0.3175,0.77611 0.9525,0.38806 0.9525,-0.52917 0,-0.67027 0.0353,-0.67027 0.77611,-0.17638 0.42334,0.3175 1.05834,0.56444 1.41111,0.56444 0.9525,0 0.77611,-1.02306 -0.24694,-1.48167 -1.12889,-0.49389 -1.12889,-0.98777 0,-2.04611 1.05833,-0.98778 0.59972,-1.905 -0.45861,-0.9525 -0.91722,0.84667 -1.09361,0.49389 -0.70556,-1.37583 0.42334,-1.94028 -0.14111,-2.99861 -0.74083,-1.44639 z"
       id="path1974" />
    <path
       style="stroke-width:0.03527778"
       inkscape:connector-curvature="0"
       d="m 133.56793,80.276599 c -0.59972,1.76389 -1.55222,6.6675 -1.30528,6.91444 0.10583,0.14111 0.70556,-0.3175 1.34056,-0.98778 l 1.12888,-1.19944 0.10584,1.27 0.10583,1.27 2.39889,0.21167 c 1.30528,0.14111 2.64583,0.14111 2.96333,0 1.05834,-0.38806 0.635,-0.84667 -0.81139,-0.84667 -1.16416,0 -1.41111,-0.10583 -1.41111,-0.70556 0,-0.56444 0.24695,-0.70555 1.23473,-0.70555 1.51694,0 2.25777,-1.02306 1.37583,-1.905 -0.28222,-0.3175 -0.81139,-0.56445 -1.16417,-0.56445 -0.88194,0 -2.50472,1.69334 -2.75166,2.89278 -0.28223,1.41111 -0.81139,0.84667 -0.81139,-0.84666 0,-1.41112 -0.0353,-1.41112 -1.05834,-1.23473 -0.88194,0.21167 -1.05833,0.10584 -1.05833,-0.45861 0,-0.38805 0.24694,-1.23472 0.56444,-1.905 0.56445,-1.16416 0.49389,-2.32833 -0.14111,-2.32833 -0.14111,0 -0.45861,0.52917 -0.70555,1.12889 z"
       id="path1976" />
    <path
       style="stroke-width:0.03527778"
       inkscape:connector-curvature="0"
       d="m 109.26154,81.828819 c -1.09361,2.39889 -1.44639,4.83306 -0.81139,5.60917 0.52917,0.67027 2.96333,0.74083 2.75167,0.0705 -0.10584,-0.21166 -0.49389,-0.45861 -0.91723,-0.52916 -1.16416,-0.17639 -1.23472,-1.19945 -0.24694,-3.81 1.16417,-3.10445 1.12889,-3.03389 0.59972,-3.21028 -0.24694,-0.10584 -0.77611,0.59972 -1.37583,1.86972 z"
       id="path1978" />
    <path
       style="stroke-width:0.03527778"
       inkscape:connector-curvature="0"
       d="m 24.877087,81.511319 c -0.70555,2.57528 -1.16416,8.04333 -0.77611,9.03111 0.56445,1.48167 1.09361,1.16417 0.88195,-0.56444 -0.21167,-1.37584 0.67027,-8.74889 1.12888,-9.45445 0.10584,-0.17639 -0.0705,-0.3175 -0.35277,-0.3175 -0.3175,0 -0.67028,0.52917 -0.88195,1.30528 z"
       id="path1980" />
    <path
       style="stroke-width:0.03527778"
       inkscape:connector-curvature="0"
       d="m 80.051537,82.569649 c -0.38806,1.12889 -0.88194,2.15195 -1.12889,2.32834 -0.45861,0.28222 -0.28222,3.45722 0.28222,4.51555 0.35278,0.74084 1.76389,0.49389 2.75167,-0.45861 0.9525,-0.88194 0.59972,-1.55222 -0.42333,-0.81139 -1.27,0.88195 -1.72861,0.67028 -1.5875,-0.77611 0.10583,-1.19944 0.21166,-1.34055 1.51694,-1.72861 1.34056,-0.35278 1.37583,-0.38806 0.59972,-0.81139 -0.42333,-0.21167 -0.77611,-0.28222 -0.77611,-0.14111 0,0.14111 -0.17639,0.0705 -0.38805,-0.14111 -0.24695,-0.24695 -0.21167,-0.74083 0.17639,-1.69333 0.67027,-1.62278 0.70555,-2.29306 0.10583,-2.29306 -0.24695,0 -0.74083,0.91722 -1.12889,2.01083 z"
       id="path1982" />
    <path
       style="stroke-width:0.03527778"
       inkscape:connector-curvature="0"
       d="m 2.6168067,81.546599 c -0.77611,0.35278 -1.27,0.88194 -1.34055,1.41111 l -0.10583,0.81139 0.81138,-0.84667 c 0.67028,-0.67028 1.41112,-0.91722 3.24556,-1.09361 2.71639,-0.3175 3.38667,0 3.38667,1.62278 0,2.57528 -3.03389,5.57389 -5.60917,5.57389 -0.98778,0 -1.09361,-0.10584 -1.09361,-1.19945 0,-0.635 -0.10583,-1.69333 -0.21167,-2.29305 -0.45861,-2.29306 -0.77611003,-0.91723 -0.77611003,3.38666 0,2.50473 -0.10583,5.60917 -0.21167,6.985 -0.21166,1.94028 -0.17638,2.32834 0.14112,1.83445 0.24694003,-0.35278 0.49388003,-2.2225 0.59972003,-4.16278 l 0.21166,-3.4925 h 1.19945 c 2.11667,0 6.13833,-3.31611 6.80861,-5.60917 0.3527803,-1.19944 -0.0353,-2.78694 -0.81139,-3.28083 -0.81139,-0.52917 -4.97417,-0.3175 -6.24417,0.35278 z"
       id="path1984" />
    <path
       style="stroke-width:0.03527778"
       inkscape:connector-curvature="0"
       d="m 20.432087,81.687709 c -0.35277,1.23472 -0.88194,5.36222 -0.88194,7.23194 0,1.65806 0.14111,2.25778 0.70555,2.75167 0.52917,0.49389 0.88195,0.56444 1.48167,0.28222 0.77611,-0.35278 0.77611,-0.35278 -0.24694,-0.84666 -1.34056,-0.635 -1.48167,-1.72862 -0.74084,-5.715 0.3175,-1.62278 0.56445,-3.21028 0.56445,-3.52778 0,-0.70556 -0.67028,-0.81139 -0.88195,-0.17639 z"
       id="path1986" />
    <path
       style="stroke-width:0.03527778"
       inkscape:connector-curvature="0"
       d="m 152.26515,82.393259 c 0.10583,0.24695 0.45861,0.52917 0.77611,0.56445 0.42333,0.10583 0.59972,-0.0353 0.49389,-0.35278 -0.10583,-0.24694 -0.45861,-0.52917 -0.77611,-0.56444 -0.42333,-0.10584 -0.59972,0.0353 -0.49389,0.35277 z"
       id="path1988" />
    <path
       style="stroke-width:0.03527778"
       inkscape:connector-curvature="0"
       d="m 127.92348,83.381039 c -1.5875,1.12889 -2.11666,2.39889 -1.62277,3.84528 0.28222,0.77611 0.56444,0.9525 1.83444,1.02306 1.72861,0.14111 1.94028,-0.3175 0.42333,-0.88195 -1.905,-0.70555 -1.02305,-3.03389 1.44639,-3.81 0.84667,-0.28222 0.88195,-1.23472 0.0353,-1.23472 -0.38806,0 -1.34056,0.45861 -2.11667,1.05833 z"
       id="path1990" />
    <path
       style="stroke-width:0.03527778"
       inkscape:connector-curvature="0"
       d="m 64.635147,83.592709 c -1.27,0.81139 -2.75167,3.06917 -2.75167,4.16278 0,0.9525 1.94028,2.82222 2.61056,2.57527 0.56444,-0.21166 0.49389,-0.38805 -0.49389,-1.30527 -0.88194,-0.81139 -1.05833,-1.19945 -0.84667,-1.83445 0.49389,-1.65805 1.55223,-2.64583 3.42195,-3.24555 0.3175,-0.10584 0.59972,-0.42334 0.59972,-0.74084 0,-0.77611 -1.02306,-0.635 -2.54,0.38806 z"
       id="path1992" />
    <path
       style="stroke-width:0.03527778"
       inkscape:connector-curvature="0"
       d="m 161.01404,83.416319 c -1.48167,0.3175 -2.18722,1.19944 -2.04611,2.68111 0.10583,0.91722 -0.10584,1.23472 -1.12889,1.94028 -1.30528,0.88194 -2.92806,2.99861 -2.71639,3.59833 0.52917,1.5875 3.84528,0.38806 5.11528,-1.86972 0.635,-1.12889 1.02305,-1.41111 2.2225,-1.5875 1.5875,-0.24694 1.72861,-1.02306 0.21166,-1.19944 -1.09361,-0.14112 -1.12888,-0.24695 -0.38805,-2.01084 0.635,-1.5875 0.38805,-1.905 -1.27,-1.55222 z m -0.21167,1.905 c -0.21166,0.56444 -0.84666,0.74083 -0.84666,0.24694 0,-0.38805 0.38805,-0.77611 0.74083,-0.77611 0.17639,0 0.21167,0.24695 0.10583,0.52917 z m -1.55222,4.05694 c -0.38806,0.74084 -1.41111,1.41112 -2.15194,1.41112 -0.24695,0 0,-0.49389 0.56444,-1.05834 1.19944,-1.23472 2.18722,-1.48166 1.5875,-0.35278 z"
       id="path1994" />
    <path
       style="stroke-width:0.03527778"
       inkscape:connector-curvature="0"
       d="m 84.461257,84.051319 c 0,0.42333 0.21167,0.74083 0.56445,0.74083 0.3175,0 0.49389,-0.24694 0.42333,-0.59972 -0.17639,-0.88194 -0.98778,-0.98778 -0.98778,-0.14111 z"
       id="path1996" />
    <path
       style="stroke-width:0.03527778"
       inkscape:connector-curvature="0"
       d="m 113.03626,84.615759 c -0.77611,2.08139 -0.0353,4.05695 1.51695,4.05695 0.84666,0 0.74083,0.38805 -0.45862,2.04611 -1.12888,1.5875 -1.86972,1.79917 -2.89277,0.88194 -0.84667,-0.74083 -1.05834,-0.49388 -0.52917,0.59973 1.09361,2.2225 4.19806,0.52916 5.50333,-2.96334 1.41111,-3.84527 1.12889,-6.94972 -0.3175,-3.59833 -0.49389,1.19944 -0.88194,1.62278 -1.44639,1.62278 -0.67027,0 -0.74083,-0.14111 -0.56444,-1.16417 0.10583,-0.59972 0.24694,-1.34055 0.3175,-1.62278 0.21167,-0.91722 -0.77611,-0.81139 -1.12889,0.14111 z"
       id="path1998" />
    <path
       style="stroke-width:0.03527778"
       inkscape:connector-curvature="0"
       d="m 142.77543,84.404099 c -1.5875,1.30528 -0.635,3.45722 1.37583,3.13972 1.02306,-0.14111 1.27,-0.98778 0.3175,-0.98778 -0.98778,0 -1.37583,-1.02305 -0.635,-1.5875 0.70556,-0.49389 0.77611,-1.23472 0.17639,-1.23472 -0.24694,0.0353 -0.81139,0.3175 -1.23472,0.67028 z"
       id="path2000" />
    <path
       style="stroke-width:0.03527778"
       inkscape:connector-curvature="0"
       d="m 155.68709,83.980759 c -0.9525,0.14112 -1.37583,0.88195 -1.37583,2.46945 0,1.05833 0.56445,1.02305 1.27,-0.0706 0.70556,-1.09361 1.12889,-1.12889 1.27,-0.10583 0.17639,1.34056 0.98778,1.16417 0.98778,-0.17639 0,-1.55222 -0.3175,-2.36361 -0.84667,-2.32833 -0.21166,0.0353 -0.81139,0.14111 -1.30528,0.21166 z"
       id="path2002" />
    <path
       style="stroke-width:0.03527778"
       inkscape:connector-curvature="0"
       d="m 151.63015,85.321319 c -0.14111,0.81139 -0.0706,1.44639 0.17639,1.69333 0.59972,0.59973 1.16417,-0.17639 1.02305,-1.51694 -0.14111,-1.65806 -0.88194,-1.72861 -1.19944,-0.17639 z"
       id="path2004" />
    <path
       style="stroke-width:0.03527778"
       inkscape:connector-curvature="0"
       d="m 28.440147,84.827429 c 0.0706,0.21167 0.28222,0.35278 0.45861,0.35278 0.17639,0 0.38805,-0.14111 0.45861,-0.35278 0.0706,-0.21167 -0.14111,-0.38805 -0.45861,-0.38805 -0.3175,0 -0.52917,0.17638 -0.45861,0.38805 z"
       id="path2006" />
    <path
       style="stroke-width:0.03527778"
       inkscape:connector-curvature="0"
       d="m 93.704037,85.039099 c -0.17639,0.35278 -0.42333,1.05833 -0.56444,1.5875 -0.3175,1.41111 -0.98778,1.23472 -0.88195,-0.21167 0.0705,-0.67028 0,-1.34055 -0.14111,-1.51694 -0.45861,-0.45861 -0.9525,0.67027 -0.9525,2.2225 0,1.65805 0.77611,2.61055 1.65806,2.04611 0.59972,-0.38806 2.25777,-4.23334 1.94027,-4.51556 -0.35277,-0.38805 -0.74083,-0.21166 -1.05833,0.38806 z"
       id="path2008" />
    <path
       style="stroke-width:0.03527778"
       inkscape:connector-curvature="0"
       d="m 101.74737,86.026879 c -0.91722,1.905 -1.23472,2.01083 -0.9525,0.35277 0.10583,-0.67027 0.0353,-1.30527 -0.14111,-1.41111 -0.45861,-0.3175 -1.093613,1.51695 -0.952503,2.78695 0.0706,0.88194 0.28222,1.09361 0.952503,1.09361 0.67028,0 1.05833,-0.38806 1.86972,-1.94028 1.12889,-2.18722 1.19945,-2.46944 0.49389,-2.46944 -0.28222,0 -0.84667,0.70555 -1.27,1.5875 z"
       id="path2010" />
    <path
       style="stroke-width:0.03527778"
       inkscape:connector-curvature="0"
       d="m 104.92237,85.144929 c -0.91722,0.91722 -0.88194,1.34056 0.17639,1.83445 1.19945,0.52916 0.88195,1.19944 -0.49389,1.05833 -0.91722,-0.0706 -1.12889,0.0353 -1.02305,0.52917 0.14111,0.88194 1.94027,1.02305 2.78694,0.24694 0.81139,-0.74083 0.88195,-2.11667 0.10583,-2.39889 -0.35277,-0.14111 -0.45861,-0.45861 -0.3175,-0.88194 0.3175,-0.98778 -0.38805,-1.23473 -1.23472,-0.38806 z"
       id="path2012" />
    <path
       style="stroke-width:0.03527778"
       inkscape:connector-curvature="0"
       d="m 12.000697,85.674099 c -1.12889,1.05833 -1.62277,2.25778 -1.62277,4.02166 0,1.65806 1.12888,3.21028 2.29305,3.21028 1.05833,0 3.10445,-1.76389 3.70417,-3.175 0.52917,-1.27 0.28222,-4.19805 -0.38806,-4.62139 -0.98778,-0.635 -2.99861,-0.35277 -3.98639,0.56445 z m 3.24556,0.52916 c 0.28222,0 0.42333,0.56445 0.42333,1.5875 0,1.23473 -0.21166,1.79917 -1.09361,2.82223 -1.27,1.41111 -2.15194,1.55222 -2.92805,0.45861 -0.74084,-1.05834 -0.70556,-1.79917 0.14111,-3.42195 0.74083,-1.51694 1.23472,-1.83444 2.29305,-1.62277 0.38806,0.10583 0.91722,0.17638 1.16417,0.17638 z"
       id="path2014" />
    <path
       style="stroke-width:0.03527778"
       inkscape:connector-curvature="0"
       d="m 68.515707,85.391879 c -1.37584,1.5875 -1.83445,4.16277 -0.81139,4.55083 0.98777,0.38805 2.29305,-0.21167 2.99861,-1.37583 0.91722,-1.44639 0.88194,-2.15195 -0.0706,-3.06917 -0.9525,-0.88195 -1.41111,-0.88195 -2.11667,-0.10583 z m 1.27,2.54 c -0.88195,1.48166 -1.72862,1.48166 -1.41112,-0.0353 0.10584,-0.59972 0.38806,-1.30528 0.635,-1.5875 0.35278,-0.42334 0.45862,-0.42334 0.91723,0.0353 0.42333,0.42333 0.42333,0.635 -0.14111,1.5875 z"
       id="path2016" />
    <path
       style="stroke-width:0.03527778"
       inkscape:connector-curvature="0"
       d="m 88.165427,85.180209 c -0.14111,0.21167 -0.45861,0.28222 -0.74083,0.17639 -0.74084,-0.28222 -1.41112,1.41111 -1.23473,3.21028 0.0706,0.81138 0.74084,0.49388 1.37584,-0.59973 0.3175,-0.56444 0.67028,-1.05833 0.77611,-1.05833 0.10583,0 0.38805,0.45861 0.59972,1.05833 0.635,1.65806 1.27,1.34056 0.98778,-0.45861 -0.38806,-2.36361 -1.16417,-3.35139 -1.76389,-2.32833 z"
       id="path2018" />
    <path
       style="stroke-width:0.03527778"
       inkscape:connector-curvature="0"
       d="m 95.609037,85.674099 c -0.70555,1.05833 -0.74083,2.78694 -0.0705,3.45722 1.30528,1.30528 3.38667,-0.59972 3.38667,-3.06917 0,-1.23472 -0.0353,-1.27 -1.37584,-1.27 -1.05833,0 -1.48166,0.17639 -1.94028,0.88195 z m 2.25778,0.74083 c 0,0.84667 -0.67028,1.905 -1.23472,1.905 -0.635,0 -0.70556,-1.44639 -0.10584,-2.04611 0.59973,-0.59972 1.34056,-0.52917 1.34056,0.14111 z"
       id="path2020" />
    <path
       style="stroke-width:0.03527778"
       inkscape:connector-curvature="0"
       d="m 73.207647,85.638819 c -0.9525,0.52917 -1.37583,1.34056 -1.41111,2.57528 -0.0353,1.16416 0.84667,0.98778 1.37583,-0.24695 0.49389,-1.16416 1.05834,-1.41111 1.05834,-0.42333 0,0.84667 0.88194,2.01083 1.30527,1.72861 0.42334,-0.24694 -0.635,-3.84528 -1.16416,-4.02167 -0.17639,-0.0353 -0.70556,0.14112 -1.16417,0.38806 z"
       id="path2022" />
    <path
       style="stroke-width:0.03527778"
       inkscape:connector-curvature="0"
       d="m 38.705977,86.026879 c -2.89278,1.23472 -2.46944,5.11527 0.56445,5.11527 1.48166,0 0.42333,3.28084 -1.48167,4.72723 -1.44639,1.09361 -1.94028,1.16416 -2.08139,0.21166 -0.17639,-1.16416 -0.81139,-0.81139 -0.81139,0.42334 0,0.98777 0.14111,1.16416 0.9525,1.27 1.41111,0.17639 3.03389,-0.84667 4.16278,-2.61056 0.77611,-1.23472 1.05833,-2.2225 1.27,-4.30389 0.14111,-1.48167 0.35278,-3.175 0.52917,-3.70417 0.24694,-0.84666 0.17639,-1.02305 -0.59973,-1.30527 -1.09361,-0.42334 -1.12888,-0.42334 -2.50472,0.17639 z m 1.65806,1.97555 c -0.42334,1.48167 -0.9525,2.04611 -1.76389,1.83445 -1.48167,-0.38806 -1.19945,-2.04612 0.49389,-2.75167 1.41111,-0.59972 1.65805,-0.42333 1.27,0.91722 z"
       id="path2024" />
    <path
       style="stroke-width:0.03527778"
       inkscape:connector-curvature="0"
       d="m 32.602927,86.203259 c -0.28223,0.17639 -0.81139,0.38806 -1.12889,0.49389 -0.45861,0.14111 -0.635,0.56445 -0.635,1.5875 0,0.77611 -0.10584,1.62278 -0.21167,1.94028 -0.14111,0.35278 -0.0353,0.56445 0.24694,0.56445 0.28223,0 0.88195,-0.84667 1.37584,-1.83445 1.12889,-2.39889 1.76389,-2.61055 1.76389,-0.56444 0,1.5875 0.49389,2.75166 0.91722,2.29305 0.38806,-0.38805 0.14111,-3.88055 -0.28222,-4.40972 -0.42334,-0.49389 -1.27,-0.52917 -2.04611,-0.0706 z"
       id="path2026" />
    <path
       style="stroke-width:0.03527778"
       inkscape:connector-curvature="0"
       d="m 84.002647,86.097429 c -0.38805,0.35278 -0.28222,3.28083 0.10583,3.28083 0.42334,0 0.56445,-0.38805 0.84667,-2.2225 0.14111,-1.23472 -0.28222,-1.76388 -0.9525,-1.05833 z"
       id="path2028" />
    <path
       style="stroke-width:0.03527778"
       inkscape:connector-curvature="0"
       d="m 28.228477,88.178819 c -0.28222,2.29306 -0.28222,3.31611 0.10583,3.31611 0.42334,0 0.635,-0.70555 0.91723,-3.10444 0.21166,-1.48167 0.14111,-1.83445 -0.28223,-1.83445 -0.3175,0 -0.56444,0.52917 -0.74083,1.62278 z"
       id="path2030" />
    <path
       style="stroke-width:0.03527778"
       inkscape:connector-curvature="0"
       d="m 50.241817,88.496319 c 0,0.42333 0.28222,0.56444 1.16416,0.45861 0.59972,-0.0706 1.12889,-0.28222 1.12889,-0.45861 0,-0.21167 -0.52917,-0.38806 -1.12889,-0.45861 -0.88194,-0.10583 -1.16416,0.0353 -1.16416,0.45861 z"
       id="path2032" />
    <path
       style="stroke-width:0.03527778"
       inkscape:connector-curvature="0"
       d="m 143.19876,119.39965 c -0.3175,0.45862 0.10583,2.08139 0.52917,2.08139 0.52916,0 0.77611,-0.70555 0.56444,-1.62277 -0.24694,-0.88195 -0.70555,-1.09362 -1.09361,-0.45862 z"
       id="path2080" />
    <path
       style="stroke-width:0.03527778"
       inkscape:connector-curvature="0"
       d="m 143.23404,123.80938 c -0.10583,0.3175 -0.0706,0.81139 0.10583,1.09361 0.24695,0.49389 0.35278,0.45861 0.70556,-0.21167 0.42333,-0.74083 0.28222,-1.44639 -0.3175,-1.44639 -0.14111,0 -0.38806,0.24695 -0.49389,0.56445 z"
       id="path2082" />
    <path
       style="stroke-width:0.03527778"
       inkscape:connector-curvature="0"
       d="m 143.51626,127.23132 c -0.3175,0.88195 0,1.79917 0.70556,1.94028 0.56444,0.10583 0.635,0 0.42333,-0.88195 -0.35278,-1.30527 -0.84667,-1.79916 -1.12889,-1.05833 z"
       id="path2084" />
    <path
       style="stroke-width:0.03527778"
       inkscape:connector-curvature="0"
       d="m 222.39738,129.27743 c -3.59834,0.10584 -17.00389,0.24695 -29.80973,0.28222 -12.80583,0.0353 -26.59944,0.21167 -30.69167,0.38806 -13.05277,0.59972 -26.59944,1.02306 -34.67805,1.09361 -5.15056,0.0706 -7.9375,0.21167 -8.14917,0.45861 -0.56444,0.70556 -1.09361,4.51556 -1.09361,7.97278 v 3.38667 l -9.77194,0.42333 c -5.39751,0.24695 -13.934723,0.42333 -18.979453,0.38806 -10.19528,0 -41.38083,0.67027 -42.08639,0.91722 -0.24694,0.10583 -0.35278,0.35278 -0.24694,0.52917 0.17639,0.28222 2.2225,0.3175 6.27944,0.17638 13.40556,-0.42333 23.60084,-0.635 35.52473,-0.70555 10.65388,-0.0706 17.391943,-0.24695 28.222223,-0.70556 l 1.94027,-0.0706 0.21167,-5.53861 c 0.10583,-3.03389 0.35278,-5.67972 0.52917,-5.85611 0.24694,-0.24694 4.83305,-0.38805 12.17083,-0.45861 l 11.78278,-0.0706 0.10583,0.77611 c 0.0706,0.45862 0.28222,0.81139 0.45861,0.81139 0.3175,0 0.35278,-0.10583 0.45861,-1.16416 0.10584,-0.98778 16.75695,-1.65806 42.72139,-1.65806 10.86556,0 26.74056,-0.24694 35.27778,-0.52917 8.53723,-0.28222 17.74473,-0.52916 20.46112,-0.52916 3.31611,0 4.7625,-0.10584 4.40972,-0.35278 -0.59972,-0.38806 -14.67556,-0.35278 -25.04722,0.0353 z"
       id="path2086" />
    <path
       style="stroke-width:0.03527778"
       inkscape:connector-curvature="0"
       d="m 21.913757,135.69799 c -1.86972,0.3175 -2.08139,0.45861 -2.68111,1.62278 -1.27,2.46944 -1.27,2.82222 -0.0706,3.24555 2.04611,0.70556 2.36361,3.03389 0.35278,2.61056 -1.30528,-0.28222 -1.37584,0.38805 -0.10584,0.9525 0.84667,0.38805 1.02306,0.3175 1.76389,-0.52917 1.12889,-1.34055 1.05834,-1.905 -0.45861,-3.31611 -1.09361,-1.05833 -1.23472,-1.34056 -0.9525,-2.15194 0.24695,-0.70556 0.67028,-0.98778 2.18722,-1.30528 3.38667,-0.77611 3.35139,-1.65806 -0.0353,-1.12889 z"
       id="path2088" />
    <path
       style="stroke-width:0.03527778"
       inkscape:connector-curvature="0"
       d="m 143.79848,136.1566 c 0.0706,0.52917 0.3175,1.02306 0.56445,1.12889 0.35278,0.10583 0.45861,-0.14111 0.35278,-0.84667 -0.0706,-0.52916 -0.3175,-1.02305 -0.56445,-1.12889 -0.35278,-0.10583 -0.45861,0.14111 -0.35278,0.84667 z"
       id="path2090" />
    <path
       style="stroke-width:0.03527778"
       inkscape:connector-curvature="0"
       d="m -0.09957333,139.19049 c -0.77612,0.35278 -0.81139,0.59972 -0.88195,4.58611 -0.0353,2.29306 -0.0705,4.65667 -0.0705,5.29167 -0.0353,0.59972 0.17637991,1.16416 0.42332991,1.23472 0.28222,0.10583 0.42333,-0.35278 0.42333,-1.5875 0,-3.03389 0.28222,-3.77472 1.58750009,-4.26861 2.57528,-0.91722 3.88056,-3.95111 2.2225,-5.11528 -0.91722,-0.635 -2.57528,-0.70556 -3.70416009,-0.14111 z m 3.28083003,1.16417 c 0.38805,0.9525 -0.14111,2.11666 -1.23472,2.75166 -0.56445,0.3175 -1.19945003,0.59972 -1.37584003,0.59972 -0.35277,0 -0.77611,-3.10444 -0.52916,-3.63361 0.28222,-0.49389 2.92805003,-0.28222 3.13972003,0.28223 z"
       id="path2092" />
    <path
       style="stroke-width:0.03527778"
       inkscape:connector-curvature="0"
       d="m 6.1445867,140.38993 c 0,0.3175 0.17639,0.49389 0.42334,0.42334 0.635,-0.21167 0.74083,-0.98778 0.14111,-0.98778 -0.3175,0 -0.56445,0.24694 -0.56445,0.56444 z"
       id="path2094" />
    <path
       style="stroke-width:0.03527778"
       inkscape:connector-curvature="0"
       d="m 143.72793,140.53104 c 0,0.38806 0.24694,0.70556 0.52916,0.70556 0.28223,0 0.52917,-0.3175 0.52917,-0.70556 0,-0.38805 -0.24694,-0.70555 -0.52917,-0.70555 -0.28222,0 -0.52916,0.3175 -0.52916,0.70555 z"
       id="path2096" />
    <path
       style="stroke-width:0.03527778"
       inkscape:connector-curvature="0"
       d="m 9.6723667,141.41299 c -0.24694,0.28222 -0.635,0.52917 -0.91722,0.52917 -0.59972,0 -1.09361,3.06916 -0.56445,3.59833 0.28223,0.28222 0.45861,0.21167 0.635,-0.28222 0.77611,-2.2225 1.2347303,-2.96334 1.6933403,-2.96334 0.42333,0 0.56444,0.38806 0.56444,1.41111 0,1.02306 0.14111,1.41112 0.52917,1.41112 0.635,0 0.74083,-1.905 0.17639,-3.31612 -0.38806,-1.02305 -1.44639,-1.19944 -2.1166703,-0.38805 z"
       id="path2098" />
    <path
       style="stroke-width:0.03527778"
       inkscape:connector-curvature="0"
       d="m 5.5801467,142.78882 c -0.3175,0.81139 0,2.43417 0.49389,2.61056 0.28222,0.0706 0.42333,-0.35278 0.42333,-1.48167 0,-1.55222 -0.52917,-2.18722 -0.91722,-1.12889 z"
       id="path2100" />
    <path
       style="stroke-width:0.03527778"
       inkscape:connector-curvature="0"
       d="m 128.34682,144.65854 c -0.10584,0.35278 -0.35278,0.98778 -0.49389,1.41112 -0.45861,1.12888 1.19944,4.05694 2.2225,3.91583 1.02305,-0.14111 1.16416,-0.91722 0.21166,-1.05833 -1.23472,-0.17639 -1.23472,-0.9525 0,-1.37584 1.27,-0.45861 1.55223,-1.55222 0.3175,-1.19944 -1.65805,0.52916 -1.62277,0.52916 -1.19944,-1.34056 0.17639,-0.70555 0.10583,-0.9525 -0.3175,-0.9525 -0.3175,0 -0.635,0.28222 -0.74083,0.59972 z"
       id="path2102" />
    <path
       style="stroke-width:0.03527778"
       inkscape:connector-curvature="0"
       d="m 143.79848,144.83493 c 0.17639,1.12889 0.98778,1.23473 0.98778,0.14111 0,-0.59972 -0.17639,-0.91722 -0.56444,-0.91722 -0.35278,0 -0.49389,0.24695 -0.42334,0.77611 z"
       id="path2104" />
    <path
       style="stroke-width:0.03527778"
       inkscape:connector-curvature="0"
       d="m 143.93959,148.18632 c -0.42333,0.42334 -0.21166,1.16417 0.3175,1.16417 0.28223,0 0.52917,-0.21167 0.52917,-0.49389 0,-0.59972 -0.49389,-0.98778 -0.84667,-0.67028 z"
       id="path2106" />
    <path
       style="stroke-width:0.03527778"
       inkscape:connector-curvature="0"
       d="m 140.90571,151.36132 c 0,0.10584 0.24694,0.49389 0.52916,0.81139 0.52917,0.56445 0.45861,0.59972 -0.9525,0.56445 -1.65805,-0.0353 -14.07583,0.74083 -18.20333,1.16416 -1.41111,0.14111 -2.64583,0.17639 -2.71639,0.0706 -0.10583,-0.0706 0.0706,-0.45861 0.42333,-0.81139 1.19945,-1.34055 0.0706,-1.02305 -1.34055,0.38806 -1.65806,1.62278 -1.51695,2.25778 0.49389,2.61055 0.59972,0.14112 1.48166,0.3175 1.94027,0.45862 0.56445,0.14111 0.77612,0.0705 0.77612,-0.3175 0,-0.28223 -0.45862,-0.59973 -1.12889,-0.74084 -2.32834,-0.49389 -0.0706,-0.88194 7.65527,-1.30528 4.26862,-0.21166 8.85473,-0.49388 10.19528,-0.56444 2.68111,-0.17639 3.73945,0.28222 2.01084,0.88194 -1.16417,0.42334 -1.48167,1.12889 -0.45862,1.12889 1.27,-0.0353 4.65667,-2.89277 4.65667,-3.95111 0,-0.81139 -0.56444,-0.81139 -0.98778,-0.0353 -0.3175,0.56445 -0.38805,0.56445 -1.27,0 -0.91722,-0.635 -1.62277,-0.77611 -1.62277,-0.35278 z"
       id="path2124" />
    <path
       style="stroke-width:0.03527778"
       inkscape:connector-curvature="0"
       d="m 143.79848,154.85382 c 0.14111,0.74084 0.77611,0.81139 0.91723,0.0353 0.0705,-0.35277 -0.10584,-0.59972 -0.45862,-0.59972 -0.35277,0 -0.52916,0.21167 -0.45861,0.56445 z"
       id="path2128" />
    <path
       style="stroke-width:0.03527778"
       inkscape:connector-curvature="0"
       d="m 143.86904,157.57021 c -0.28222,0.81139 0.10583,1.76389 0.67028,1.55222 0.45861,-0.14111 0.38805,-1.27 -0.14111,-1.79916 -0.17639,-0.21167 -0.38806,-0.10584 -0.52917,0.24694 z"
       id="path2134" />
    <path
       style="stroke-width:0.03527778"
       inkscape:connector-curvature="0"
       d="m 143.86904,161.52132 c -0.24695,0.59973 0.14111,1.30528 0.59972,1.05834 0.42333,-0.28223 0.42333,-1.5875 -0.0353,-1.5875 -0.21166,0 -0.45861,0.24694 -0.56444,0.52916 z"
       id="path2192" />
    <path
       style="stroke-width:0.03527778"
       inkscape:connector-curvature="0"
       d="m 143.72793,165.40188 c 0,0.49389 0.17639,0.88194 0.35278,0.88194 0.21166,0 0.35277,-0.38805 0.35277,-0.88194 0,-0.49389 -0.14111,-0.88195 -0.35277,-0.88195 -0.17639,0 -0.35278,0.38806 -0.35278,0.88195 z"
       id="path2208" />
    <path
       style="stroke-width:0.03527778"
       inkscape:connector-curvature="0"
       d="m 195.79793,167.65966 c -0.14111,0.17639 -0.0706,0.42333 0.14111,0.56444 0.67028,0.42333 1.76389,2.96334 1.76389,4.09222 0,0.77612 -0.35278,1.44639 -1.23472,2.32834 -1.30528,1.30528 -1.27,2.32833 0.0705,1.51694 2.25778,-1.41111 2.96334,-5.15055 1.41111,-7.44361 -0.81138,-1.23472 -1.76388,-1.69333 -2.15194,-1.05833 z"
       id="path2216" />
    <path
       style="stroke-width:0.03527778"
       inkscape:connector-curvature="0"
       d="m 189.83598,168.64743 c -1.09361,1.19945 -2.32833,3.81001 -2.36361,5.04473 0,1.12889 1.23473,3.175 1.94028,3.175 0.67028,0 0.67028,-0.3175 0,-1.19945 -0.9525,-1.27 -0.67028,-3.45722 0.70556,-5.46805 1.76389,-2.54 1.5875,-3.4925 -0.28223,-1.55223 z"
       id="path2218" />
    <path
       style="stroke-width:0.03527778"
       inkscape:connector-curvature="0"
       d="m 142.52848,169.31771 c -0.10583,0.3175 -0.21166,0.9525 -0.21166,1.41111 0,0.635 -0.17639,0.84667 -0.81139,0.84667 -1.48167,0 -3.42195,1.69333 -3.42195,2.99861 0,1.55222 3.175,3.175 3.63361,1.83445 0.10584,-0.3175 0.3175,-0.24695 0.84667,0.17639 0.38806,0.35277 0.74083,0.635 0.84667,0.635 0.0705,0 0.17639,-1.905 0.21166,-4.23334 0.0353,-3.31611 -0.0353,-4.23333 -0.42333,-4.23333 -0.24694,0 -0.56444,0.24694 -0.67028,0.56444 z m -0.38805,4.09223 c -0.70556,2.29305 -2.32834,3.175 -2.57528,1.37583 -0.14111,-0.9525 1.05833,-2.11667 2.15194,-2.15195 0.49389,0 0.59973,0.17639 0.42334,0.77612 z"
       id="path2220" />
    <path
       style="stroke-width:0.03527778"
       inkscape:connector-curvature="0"
       d="m 183.45071,169.00021 c -0.10584,0.10584 -0.21167,0.77611 -0.21167,1.48167 0,1.5875 -0.3175,2.04611 -1.41111,2.18722 -0.52917,0.10584 -1.05833,0.52917 -1.34056,1.09361 -0.49389,1.05834 -1.12889,1.30528 -1.12889,0.49389 0,-0.24694 -0.38805,-0.74083 -0.84666,-1.02305 -0.74084,-0.49389 -0.91722,-0.49389 -1.5875,-0.0353 -0.38806,0.28222 -0.74084,0.84666 -0.74084,1.23472 0,0.84666 -1.37583,1.44639 -2.04611,0.91722 -0.38805,-0.3175 -0.35278,-0.42333 0.17639,-0.635 0.35278,-0.14111 0.88195,-0.49389 1.12889,-0.81139 0.42333,-0.52917 0.42333,-0.67028 0,-1.05833 -0.67028,-0.635 -2.68111,-0.0705 -2.8575,0.77611 -0.45861,2.29305 1.02306,3.84528 2.68111,2.78694 0.74083,-0.49389 0.91722,-0.49389 1.27,-0.0706 0.56445,0.67028 1.05834,0.67028 2.29306,0.0353 0.74083,-0.38805 1.16416,-0.42333 1.79916,-0.14111 0.635,0.28222 1.09362,0.28222 1.72862,0 0.74083,-0.35278 1.09361,-0.3175 1.79916,0.17639 0.67028,0.42333 0.98778,0.45861 1.30528,0.14111 0.28222,-0.28222 0.21167,-0.52917 -0.38806,-0.9525 -0.70555,-0.49389 -0.77611,-0.84667 -0.77611,-3.4925 0,-2.71639 -0.24694,-3.66889 -0.84666,-3.10444 z m -1.27,5.92667 c -0.3175,0.38806 -0.56445,0.45861 -0.81139,0.21167 -0.24695,-0.24695 -0.21167,-0.52917 0.10583,-0.91723 0.3175,-0.38805 0.56445,-0.45861 0.81139,-0.21166 0.24694,0.24694 0.21167,0.52916 -0.10583,0.91722 z m -3.88056,-0.38806 c 0,0.56445 -0.635,1.09362 -0.9525,0.77612 -0.28222,-0.28223 0.17639,-1.27 0.59972,-1.27 0.17639,0 0.35278,0.21166 0.35278,0.49388 z"
       id="path2222" />
    <path
       style="stroke-width:0.03527778"
       inkscape:connector-curvature="0"
       d="m 169.02209,169.74105 c -0.45861,0.49389 -0.635,1.41111 -0.70555,3.81 -0.0353,1.86972 0.0705,3.175 0.28222,3.24555 0.21167,0.0353 0.38806,-0.56444 0.45861,-1.34055 0.14111,-1.69334 0.38806,-1.76389 1.19945,-0.3175 0.91722,1.55222 1.41111,0.9525 0.74083,-0.88195 -0.56444,-1.44639 -0.52917,-1.55222 0.28222,-2.64583 0.635,-0.88195 0.74084,-1.27 0.45861,-1.72861 -0.56444,-0.84667 -2.01083,-0.9525 -2.71639,-0.14111 z m 1.51695,1.09361 c 0,0.21166 -0.14111,0.45861 -0.35278,0.56444 -0.17639,0.10584 -0.35278,-0.0353 -0.35278,-0.3175 0,-0.3175 0.17639,-0.56444 0.35278,-0.56444 0.21167,0 0.35278,0.14111 0.35278,0.3175 z"
       id="path2224" />
    <path
       style="stroke-width:0.03527778"
       inkscape:connector-curvature="0"
       d="m 192.55237,169.74105 c -0.24694,0.14111 -0.49389,1.02305 -0.52916,2.01083 -0.14111,1.62278 -0.0706,1.76389 0.67027,1.86972 0.42334,0.0705 0.77612,0.28222 0.77612,0.45861 0,0.21167 -0.35278,0.3175 -0.77612,0.24695 -0.52916,-0.0705 -0.81138,0.0706 -0.81138,0.42333 0,0.67028 1.44638,0.88195 2.15194,0.35278 0.74083,-0.67028 0.635,-2.15195 -0.21167,-2.36361 -1.41111,-0.35278 -0.59972,-2.2225 0.9525,-2.2225 0.49389,0 0.81139,-0.21167 0.81139,-0.52917 0,-0.38806 -0.38805,-0.52917 -1.30527,-0.52917 -0.74084,0 -1.51695,0.14111 -1.72862,0.28223 z"
       id="path2226" />
    <path
       style="stroke-width:0.03527778"
       inkscape:connector-curvature="0"
       d="m 163.16598,171.82244 c -1.02305,3.88055 -0.77611,5.3975 0.84667,5.3975 1.12889,0 1.51694,-0.70556 0.52917,-0.9525 -0.70556,-0.17639 -0.77611,-0.35278 -0.59973,-1.83445 0.10584,-0.88194 0.3175,-2.15194 0.45862,-2.78694 0.17638,-0.88195 0.10583,-1.12889 -0.3175,-1.12889 -0.35278,0 -0.70556,0.49389 -0.91723,1.30528 z"
       id="path2228" />
    <path
       style="stroke-width:0.03527778"
       inkscape:connector-curvature="0"
       d="m 154.87571,172.52799 c -1.37584,4.02167 0.17638,7.23194 2.04611,4.23333 0.45861,-0.70555 0,-1.23472 -0.56445,-0.67027 -0.24694,0.24694 -0.56444,0.42333 -0.70555,0.42333 -0.35278,0 -0.38806,-1.41111 0,-1.41111 0.14111,0 0.49389,-0.17639 0.77611,-0.35278 0.45861,-0.28222 0.45861,-0.38805 -0.10584,-0.77611 -0.52916,-0.38806 -0.56444,-0.635 -0.28222,-1.44639 0.49389,-1.30528 0.49389,-1.65805 -0.10583,-1.65805 -0.28222,0 -0.74083,0.74083 -1.05833,1.65805 z"
       id="path2230" />
    <path
       style="stroke-width:0.03527778"
       inkscape:connector-curvature="0"
       d="m 152.37098,171.54021 c -0.28222,0.52917 0.10584,1.09361 0.74084,1.09361 0.3175,0 0.49389,-0.24694 0.42333,-0.59972 -0.14111,-0.70555 -0.84667,-0.98778 -1.16417,-0.49389 z"
       id="path2232" />
    <path
       style="stroke-width:0.03527778"
       inkscape:connector-curvature="0"
       d="m 145.03321,172.10466 c -0.28223,0.635 0.38805,1.09361 0.88194,0.59972 0.38806,-0.38806 0.10583,-1.12889 -0.42333,-1.12889 -0.14111,0 -0.35278,0.24695 -0.45861,0.52917 z"
       id="path2234" />
    <path
       style="stroke-width:0.03527778"
       inkscape:connector-curvature="0"
       d="m 147.85543,173.6216 c -0.9525,1.02306 -0.77611,2.43417 0.38805,3.175 0.91723,0.52917 0.98778,0.70556 0.70556,1.76389 -0.38806,1.44639 -1.12889,1.30528 -1.27,-0.24694 -0.14111,-1.51695 -0.91722,-1.23473 -1.05833,0.35277 -0.0706,0.88195 0.10583,1.41111 0.59972,1.86972 0.67028,0.59973 0.77611,0.635 1.5875,0.0706 0.88194,-0.56445 1.19944,-1.37583 1.86972,-5.08 0.38806,-2.04611 0.38806,-2.01083 -1.16417,-2.32833 -0.81139,-0.17639 -1.19944,-0.0706 -1.65805,0.42333 z m 1.34055,2.11667 c -0.21166,0.56444 -0.24694,0.56444 -0.56444,-0.0353 -0.28222,-0.45861 -0.24695,-0.81139 0.10583,-1.19944 0.42334,-0.52917 0.45861,-0.52917 0.56445,0.0353 0.0705,0.3175 0.0353,0.88194 -0.10584,1.19944 z"
       id="path2238" />
    <path
       style="stroke-width:0.03527778"
       inkscape:connector-curvature="0"
       d="m 145.13904,174.5741 c -0.42333,1.16417 -0.35278,2.01084 0.21167,2.18722 0.49388,0.17639 0.9525,-2.39888 0.49388,-2.8575 -0.21166,-0.21166 -0.45861,0.0353 -0.70555,0.67028 z"
       id="path2240" />
    <path
       style="stroke-width:0.03527778"
       inkscape:connector-curvature="0"
       d="m 158.15654,174.64466 c -0.74083,1.94028 0.91722,3.77472 2.32833,2.57528 0.28222,-0.21167 0.67028,-0.28223 0.91722,-0.14112 0.67028,0.38806 0.0353,-2.43416 -0.67027,-2.96333 -0.98778,-0.77611 -2.15195,-0.52917 -2.57528,0.52917 z m 2.15194,0.98778 c 0,0.28222 -0.17639,0.59972 -0.38805,0.74083 -0.56445,0.3175 -1.05834,-0.635 -0.59972,-1.16417 0.42333,-0.52916 0.98777,-0.28222 0.98777,0.42334 z"
       id="path2242" />
    <path
       style="stroke-width:0.03527778"
       inkscape:connector-curvature="0"
       d="m 152.44154,174.29188 c -0.35278,0.35278 -0.28222,2.57528 0.0705,2.57528 0.38806,0 0.74084,-0.88195 0.74084,-1.97556 0,-0.81139 -0.35278,-1.09361 -0.81139,-0.59972 z"
       id="path2244" />
  </g>
</svg>
