<?xml version="1.0" encoding="UTF-8" standalone="no"?>
<!-- Created with Inkscape (http://www.inkscape.org/) -->

<svg
   xmlns:dc="http://purl.org/dc/elements/1.1/"
   xmlns:cc="http://creativecommons.org/ns#"
   xmlns:rdf="http://www.w3.org/1999/02/22-rdf-syntax-ns#"
   xmlns:svg="http://www.w3.org/2000/svg"
   xmlns="http://www.w3.org/2000/svg"
   xmlns:sodipodi="http://sodipodi.sourceforge.net/DTD/sodipodi-0.dtd"
   xmlns:inkscape="http://www.inkscape.org/namespaces/inkscape"
   width="950.00244"
   height="351.36874"
   viewBox="0 0 251.35481 92.966316"
   version="1.1"
   id="svg4606"
   inkscape:version="0.92.5 (2060ec1f9f, 2020-04-08)"
   sodipodi:docname="polling_long_latency.svg">
  <defs
     id="defs4600" />
  <sodipodi:namedview
     id="base"
     pagecolor="#ffffff"
     bordercolor="#666666"
     borderopacity="1.0"
     inkscape:pageopacity="0.0"
     inkscape:pageshadow="2"
     inkscape:zoom="0.35"
     inkscape:cx="-713.57022"
     inkscape:cy="18.541541"
     inkscape:document-units="mm"
     inkscape:current-layer="layer1"
     showgrid="false"
     units="px"
     fit-margin-top="0"
     fit-margin-left="0"
     fit-margin-right="0"
     fit-margin-bottom="0"
     inkscape:window-width="1920"
     inkscape:window-height="1080"
     inkscape:window-x="1920"
     inkscape:window-y="0"
     inkscape:window-maximized="0" />
  <metadata
     id="metadata4603">
    <rdf:RDF>
      <cc:Work
         rdf:about="">
        <dc:format>image/svg+xml</dc:format>
        <dc:type
           rdf:resource="http://purl.org/dc/dcmitype/StillImage" />
        <dc:title></dc:title>
      </cc:Work>
    </rdf:RDF>
  </metadata>
  <g
     inkscape:label="Layer 1"
     inkscape:groupmode="layer"
     id="layer1"
     transform="translate(-93.548787,-68.332318)">
    <path
       style="stroke-width:0.03527778"
       inkscape:connector-curvature="0"
       d="m 268.70296,69.03528 c 0,0.388056 0.14112,0.705556 0.3175,0.705556 0.38806,0 0.77612,-0.917223 0.49389,-1.199445 -0.42333,-0.423333 -0.81139,-0.176389 -0.81139,0.493889 z"
       id="path2306" />
    <path
       style="stroke-width:0.03527778"
       inkscape:connector-curvature="0"
       d="m 286.76519,69.105836 c 0.21166,0.635 0.98778,0.740833 0.98778,0.141111 0,-0.3175 -0.24695,-0.564445 -0.56445,-0.564445 -0.3175,0 -0.49389,0.176389 -0.42333,0.423334 z"
       id="path2308" />
    <path
       style="stroke-width:0.03527778"
       inkscape:connector-curvature="0"
       d="m 268.4913,71.716391 c 0.10583,0.3175 0.21166,0.635 0.21166,0.705556 0,0.07056 0.24695,0.141111 0.52917,0.141111 0.28222,0 0.52917,-0.3175 0.52917,-0.705556 0,-0.493889 -0.24695,-0.705555 -0.74084,-0.705555 -0.52916,0 -0.67027,0.141111 -0.52916,0.564444 z"
       id="path2316" />
    <path
       style="stroke-width:0.03527778"
       inkscape:connector-curvature="0"
       d="m 287.2238,71.469447 c -0.28222,0.529166 0.10583,1.093611 0.74083,1.093611 0.3175,0 0.49389,-0.246945 0.42334,-0.599722 -0.14112,-0.705556 -0.84667,-0.987778 -1.16417,-0.493889 z"
       id="path2318" />
    <path
       style="stroke-width:0.03527778"
       inkscape:connector-curvature="0"
       d="m 268.1738,73.621391 c -0.3175,0.493889 0.14111,1.834445 0.56444,1.5875 0.42334,-0.282222 0.42334,-1.481666 0,-1.763889 -0.17639,-0.105833 -0.42333,-0.03528 -0.56444,0.176389 z"
       id="path2324" />
    <path
       style="stroke-width:0.03527778"
       inkscape:connector-curvature="0"
       d="m 314.5288,74.11528 c -0.0705,0.07056 -6.0325,0.211667 -13.22917,0.352778 -7.19666,0.105833 -13.29972,0.246944 -13.58194,0.352778 -0.28222,0.105833 -3.98639,0.352778 -8.255,0.564444 -4.26861,0.211667 -8.85473,0.458611 -10.23056,0.529167 -1.34055,0.105833 -5.00944,0.352778 -8.11389,0.564444 -3.10444,0.211667 -15.09889,0.493889 -26.67,0.635 -16.61583,0.176389 -21.13139,0.3175 -21.59,0.670278 -0.45861,0.388056 -0.52917,0.9525 -0.35278,2.8575 0.10584,1.305278 0.0706,4.056945 -0.0705,6.067779 l -0.24695,3.668889 -15.5575,-0.07056 c -40.92227,-0.105829 -66.81617,-0.352774 -67.52172,-0.599718 -0.59972,-0.176389 -0.81139,-0.105833 -0.81139,0.246944 0,0.705556 7.62,0.9525 30.48,0.987778 19.61445,0 24.05945,0.211667 24.51806,0.987778 0.21167,0.352778 0.35278,0.352778 0.45861,0.03528 0.0706,-0.282222 3.91583,-0.423334 14.95778,-0.458611 l 14.81667,-0.07056 -0.0353,-6.420556 c 0,-5.08 0.10583,-6.491111 0.45861,-6.632223 0.28222,-0.105833 7.33778,-0.176388 15.69861,-0.176388 12.80584,0 34.50167,-0.705556 37.60612,-1.199445 0.56444,-0.105833 1.09361,0.105833 1.51694,0.635 l 0.635,0.740833 0.21167,-0.776111 c 0.17639,-0.670277 0.49389,-0.776111 3.95111,-0.987778 2.08139,-0.105833 6.17361,-0.352777 9.06639,-0.529166 12.48833,-0.811389 44.34417,-1.340556 53.62222,-0.9525 2.39889,0.105833 1.72861,-0.635 -0.77611,-0.846667 -2.64583,-0.246944 -20.70805,-0.388056 -20.955,-0.176389 z"
       id="path2328" />
    <path
       style="stroke-width:0.03527778"
       inkscape:connector-curvature="0"
       d="m 288.28213,77.854725 c -0.28222,0.458611 0.45861,1.411111 1.09361,1.411111 0.59973,0 0.635,-0.776111 0.0706,-1.340556 -0.52917,-0.529166 -0.88195,-0.529166 -1.16417,-0.07056 z"
       id="path2330" />
    <path
       style="stroke-width:0.03527778"
       inkscape:connector-curvature="0"
       d="m 269.05574,80.112503 c 0,0.599722 0.17639,0.917222 0.56445,0.917222 0.35277,0 0.49389,-0.246944 0.42333,-0.776111 -0.17639,-1.128889 -0.98778,-1.234722 -0.98778,-0.141111 z"
       id="path2340" />
    <path
       style="stroke-width:0.03527778"
       inkscape:connector-curvature="0"
       d="m 95.136287,81.488336 -1.5875,0.776111 v 4.868334 c 0,2.928056 0.141111,4.868334 0.352777,4.938889 0.211667,0.03528 0.388056,-1.023055 0.458612,-2.575278 l 0.105833,-2.645833 1.375833,0.105833 c 1.27,0.141111 1.5875,0 2.822223,-1.27 1.093611,-1.093611 1.411115,-1.658056 1.411115,-2.610556 0,-2.398889 -2.010837,-3.033889 -4.938893,-1.5875 z m 3.739444,1.093611 c 0.423334,1.693334 -1.446389,3.386667 -3.739444,3.386667 -1.058334,0 -1.093611,-0.07056 -0.987778,-1.340555 0.105833,-1.164167 0.282222,-1.411112 1.693333,-2.116667 2.010834,-0.987778 2.751667,-0.987778 3.033889,0.07056 z"
       id="path2346" />
    <path
       style="stroke-width:0.03527778"
       inkscape:connector-curvature="0"
       d="m 112.77518,80.994447 c -0.70556,0.176389 -0.98778,0.599722 -1.41111,2.257778 -0.70556,2.786945 -0.24695,3.986389 1.83444,4.621389 0.81139,0.246945 0.42333,1.27 -0.45861,1.27 -0.35278,0 -0.88195,-0.352777 -1.16417,-0.776111 -0.74083,-1.058333 -1.19944,-0.458611 -0.52916,0.705556 0.74083,1.375833 2.71638,1.340555 3.4925,0 0.635,-1.164167 0.21166,-2.081389 -1.09362,-2.398889 -0.70555,-0.176389 -0.88194,-0.458611 -0.9525,-1.693334 -0.14111,-2.081389 0.3175,-2.751666 2.25778,-3.104444 2.2225,-0.423334 2.50472,-1.199445 0.42334,-1.164167 -0.81139,0.03528 -1.905,0.141111 -2.39889,0.282222 z"
       id="path2348" />
    <path
       style="stroke-width:0.03527778"
       inkscape:connector-curvature="0"
       d="m 289.30519,81.876392 c -0.21167,0.599722 0.38805,1.622778 0.98778,1.622778 0.49388,0 0.17638,-1.869723 -0.3175,-2.046112 -0.24695,-0.07055 -0.56445,0.141111 -0.67028,0.423334 z"
       id="path2350" />
    <path
       style="stroke-width:0.03527778"
       inkscape:connector-curvature="0"
       d="m 269.47908,83.640281 c 0.0705,0.529166 0.28222,0.917222 0.45861,0.917222 0.52916,0 0.42333,-1.516945 -0.10584,-1.693333 -0.35277,-0.105834 -0.45861,0.141111 -0.35277,0.776111 z"
       id="path2354" />
    <path
       style="stroke-width:0.03527778"
       inkscape:connector-curvature="0"
       d="m 100.95712,84.910281 c -0.28222,0.458611 0.14111,1.128889 0.56444,0.881944 0.42334,-0.282222 0.42334,-1.234722 0,-1.234722 -0.21166,0 -0.45861,0.141111 -0.56444,0.352778 z"
       id="path2360" />
    <path
       style="stroke-width:0.03527778"
       inkscape:connector-curvature="0"
       d="m 289.16408,86.67417 c 0,0.388055 0.24694,0.811389 0.52916,0.9525 0.74084,0.282222 0.98778,-0.03528 0.70556,-0.917222 -0.28222,-0.9525 -1.23472,-0.9525 -1.23472,-0.03528 z"
       id="path2366" />
    <path
       style="stroke-width:0.03527778"
       inkscape:connector-curvature="0"
       d="m 269.58491,86.67417 c -0.24695,0.423333 0.42333,1.763889 0.88194,1.763889 0.38806,0 0.45861,-0.740834 0.14111,-1.552223 -0.24694,-0.635 -0.70555,-0.740833 -1.02305,-0.211666 z"
       id="path2368" />
    <path
       style="stroke-width:0.03527778"
       inkscape:connector-curvature="0"
       d="m 103.39129,87.168059 c -0.3175,0.776111 0,3.563055 0.38805,3.4925 0.21167,0 0.56445,-0.670278 0.81139,-1.481667 0.59972,-1.799167 1.05833,-1.834444 1.19945,-0.141111 0.0705,0.917222 0.28222,1.340556 0.635,1.340556 0.74083,0 0.81138,-0.9525 0.21166,-2.434167 -0.45861,-1.128889 -0.67028,-1.27 -1.79916,-1.27 -0.74084,0 -1.34056,0.211666 -1.44639,0.493889 z"
       id="path2372" />
    <path
       style="stroke-width:0.03527778"
       inkscape:connector-curvature="0"
       d="m 100.6749,87.62667 c -0.14111,0.105833 -0.24695,0.776111 -0.24695,1.411111 0,1.658056 0.84667,1.340556 0.98778,-0.352778 0.10583,-1.199444 -0.17639,-1.622778 -0.74083,-1.058333 z"
       id="path2374" />
    <path
       style="stroke-width:0.03527778"
       inkscape:connector-curvature="0"
       d="m 288.98769,89.84917 c -0.24695,0.423333 0.42333,1.411111 0.9525,1.411111 0.45861,0 0.21166,-1.516944 -0.3175,-1.658055 -0.21167,-0.07056 -0.49389,0.03528 -0.635,0.246944 z"
       id="path2378" />
    <path
       style="stroke-width:0.03527778"
       inkscape:connector-curvature="0"
       d="m 269.7613,90.80167 c 0,0.705556 0.635,1.516945 1.16416,1.516945 0.14112,0 0.24695,-0.423334 0.17639,-0.9525 -0.14111,-1.128889 -1.34055,-1.622778 -1.34055,-0.564445 z"
       id="path2380" />
    <path
       style="stroke-width:0.03527778"
       inkscape:connector-curvature="0"
       d="m 279.35685,93.376948 c -0.88194,1.199445 -0.98777,2.187223 -0.28222,2.786944 0.67028,0.564446 2.75167,0.352779 2.96334,-0.282221 0.10583,-0.352779 -0.0706,-0.423333 -0.74084,-0.246946 -0.49389,0.105833 -0.98778,0.07056 -1.12889,-0.14111 -0.10583,-0.17639 0.21167,-0.423333 0.70556,-0.564444 1.05833,-0.246945 1.16417,-0.846667 0.17639,-0.846667 -0.74084,0 -0.9525,-0.529167 -0.35278,-0.881945 0.49389,-0.3175 0.42333,-0.881944 -0.10583,-0.881944 -0.24695,0 -0.81139,0.458611 -1.23473,1.058333 z"
       id="path2396" />
    <path
       style="stroke-width:0.03527778"
       inkscape:connector-curvature="0"
       d="m 289.58741,93.765004 c 0.0353,0.423333 0.3175,0.846666 0.56444,0.9525 0.3175,0.105834 0.45862,-0.105834 0.35278,-0.670278 -0.0353,-0.423334 -0.3175,-0.846667 -0.56444,-0.9525 -0.3175,-0.105834 -0.45861,0.105833 -0.35278,0.670278 z"
       id="path2404" />
    <path
       style="stroke-width:0.03527778"
       inkscape:connector-curvature="0"
       d="m 270.53741,94.258892 c 0.0705,0.493889 0.28222,0.917223 0.45861,0.917223 0.21167,0 0.38806,-0.423334 0.45861,-0.917223 0.0706,-0.635 -0.0353,-0.881944 -0.45861,-0.881944 -0.42333,0 -0.52917,0.246944 -0.45861,0.881944 z"
       id="path2406" />
    <path
       style="stroke-width:0.03527778"
       inkscape:connector-curvature="0"
       d="m 265.17519,95.670005 c 0,0.28222 0.49389,0.77611 1.12889,1.09361 1.05833,0.529167 1.09361,0.599723 0.45861,1.058333 -0.35278,0.246944 -0.81139,0.529167 -1.02306,0.599723 -0.21167,0.07055 -0.28222,0.282221 -0.14111,0.423334 0.42333,0.45861 3.13972,-0.917223 3.03389,-1.516947 -0.10583,-0.493887 -2.54,-2.116666 -3.175,-2.18722 -0.17639,0 -0.28222,0.246944 -0.28222,0.529167 z"
       id="path2412" />
    <path
       style="stroke-width:0.03527778"
       inkscape:connector-curvature="0"
       d="m 214.97491,97.186948 c -1.12889,1.481667 -1.12889,2.68111 0.0353,2.822222 0.42333,0.0705 0.77611,-0.03528 0.77611,-0.246945 0,-0.211667 -0.17639,-0.388054 -0.38806,-0.388054 -0.21167,0 -0.3175,-0.211666 -0.24694,-0.423333 0.14111,-0.35278 1.69333,-0.423333 6.49111,-0.35278 3.88055,0.07056 8.67833,-0.105833 12.48833,-0.45861 3.4925,-0.3175 11.43,-0.670277 18.34445,-0.740833 6.94972,-0.105833 12.20611,-0.3175 12.27666,-0.529167 0.21167,-0.529166 -22.96583,-0.388056 -29.56278,0.211667 -6.49111,0.564443 -18.55611,0.705556 -18.87361,0.211667 -0.10583,-0.17639 -0.0353,-0.423334 0.17639,-0.564444 0.49389,-0.3175 0.45861,-0.881946 -0.0705,-0.881946 -0.24695,0.03528 -0.91723,0.599723 -1.44639,1.340556 z"
       id="path2418" />
    <path
       style="stroke-width:0.03527778"
       inkscape:connector-curvature="0"
       d="m 286.55352,96.481392 c -0.28222,0.881946 -2.04611,1.12889 -7.79639,1.12889 -4.16278,0 -4.33917,-0.03528 -4.16278,-0.705557 0.28223,-1.09361 -0.74083,-0.881943 -1.79916,0.388057 -1.02306,1.199443 -1.12889,1.72861 -0.49389,2.36361 0.635,0.634998 2.75166,0.564448 2.75166,-0.105834 0,-0.3175 -0.3175,-0.529166 -0.88194,-0.529166 -0.49389,0 -0.88194,-0.105834 -0.88194,-0.282221 0,-0.141113 2.18722,-0.176389 4.86833,-0.141113 2.64583,0.07056 5.715,-0.03528 6.77333,-0.211666 2.04611,-0.388054 2.71639,-0.246944 1.65806,0.3175 -0.59972,0.352779 -0.84667,1.375828 -0.3175,1.375828 0.14111,0 0.81139,-0.458605 1.48167,-1.023049 1.34055,-1.128889 1.27,-1.728613 -0.24695,-2.751666 -0.67028,-0.458613 -0.77611,-0.423334 -0.9525,0.176387 z"
       id="path2420" />
    <path
       style="stroke-width:0.03527778"
       inkscape:connector-curvature="0"
       d="m 270.46685,97.610282 c 0,0.670276 0.38806,0.917223 0.81139,0.493889 0.28222,-0.282223 -0.10583,-1.199446 -0.49389,-1.199446 -0.17639,0 -0.3175,0.3175 -0.3175,0.705557 z"
       id="path2422" />
    <path
       style="stroke-width:0.03527778"
       inkscape:connector-curvature="0"
       d="m 289.41102,97.328058 c -0.17639,0.564447 0.35278,1.693334 0.84667,1.693334 0.49389,0 0.24694,-1.834444 -0.24695,-2.010834 -0.24694,-0.07055 -0.49389,0.07056 -0.59972,0.3175 z"
       id="path2424" />
    <path
       style="stroke-width:0.03527778"
       inkscape:connector-curvature="0"
       d="m 270.53741,100.115 c 0.0353,0.42334 0.3175,0.84667 0.56444,0.9525 0.3175,0.10584 0.45861,-0.10583 0.35278,-0.67028 -0.0353,-0.423328 -0.3175,-0.846662 -0.56444,-0.952495 -0.3175,-0.105833 -0.45861,0.105833 -0.35278,0.670275 z"
       id="path2432" />
    <path
       style="stroke-width:0.03527778"
       inkscape:connector-curvature="0"
       d="m 289.69324,101.13806 c -0.35277,0.56444 0.17639,1.76389 0.74084,1.76389 0.52916,0 0.635,-0.635 0.28222,-1.55223 -0.24695,-0.635 -0.70556,-0.74083 -1.02306,-0.21166 z"
       id="path2440" />
    <path
       style="stroke-width:0.03527778"
       inkscape:connector-curvature="0"
       d="m 260.2363,102.02 c 0,0.28222 0.24694,1.16417 0.56444,1.97556 0.56445,1.34055 0.56445,1.51694 0,2.64583 -0.67028,1.48167 -0.70555,1.55222 -0.10583,1.55222 0.59972,0 1.65805,-1.83444 1.65805,-2.89277 -0.0353,-1.05834 -1.27,-3.81 -1.76389,-3.81 -0.17638,0 -0.35277,0.24694 -0.35277,0.52916 z"
       id="path2442" />
    <path
       style="stroke-width:0.03527778"
       inkscape:connector-curvature="0"
       d="m 257.62574,103.21945 c -1.12889,2.18722 -0.56444,5.11528 0.91722,4.90361 1.02306,-0.14111 1.19945,-0.84667 0.28223,-1.09361 -0.88195,-0.21167 -0.98778,-2.15195 -0.14112,-3.35139 0.52917,-0.77611 0.42334,-1.48167 -0.21166,-1.48167 -0.17639,0 -0.56445,0.45861 -0.84667,1.02306 z"
       id="path2446" />
    <path
       style="stroke-width:0.03527778"
       inkscape:connector-curvature="0"
       d="m 264.11685,103.25472 c 0,0.38806 0.24695,0.70556 0.52917,0.70556 0.28222,0 0.52917,-0.3175 0.52917,-0.70556 0,-0.38805 -0.24695,-0.70555 -0.52917,-0.70555 -0.28222,0 -0.52917,0.3175 -0.52917,0.70555 z"
       id="path2452" />
    <path
       style="stroke-width:0.03527778"
       inkscape:connector-curvature="0"
       d="m 270.89019,103.14889 c 0.17639,0.88195 0.98777,0.98778 0.98777,0.14111 0,-0.42333 -0.21166,-0.74083 -0.56444,-0.74083 -0.3175,0 -0.49389,0.24694 -0.42333,0.59972 z"
       id="path2454" />
    <path
       style="stroke-width:0.03527778"
       inkscape:connector-curvature="0"
       d="m 227.74546,103.50167 c -1.12889,0.28222 -2.08139,4.02167 -1.55222,5.99722 l 0.28222,0.98778 0.24695,-1.05833 c 0.14111,-0.59973 0.28222,-1.79917 0.3175,-2.68112 0,-0.91722 0.24694,-1.79916 0.49389,-1.97555 0.67027,-0.49389 2.25777,-0.52917 2.54,-0.0706 0.3175,0.49389 -1.12889,1.69333 -2.01084,1.72861 -0.77611,0 -0.84666,0.635 -0.10583,0.91722 0.59972,0.24695 2.92806,-1.37583 3.24556,-2.2225 0.42333,-1.09361 -1.5875,-2.04611 -3.45723,-1.62277 z"
       id="path2456" />
    <path
       style="stroke-width:0.03527778"
       inkscape:connector-curvature="0"
       d="m 247.5363,104.13667 c 0,0.3175 0.17639,0.52917 0.38805,0.45861 0.21167,-0.0706 0.38806,-0.28222 0.38806,-0.45861 0,-0.17639 -0.17639,-0.38806 -0.38806,-0.45861 -0.21166,-0.0705 -0.38805,0.14111 -0.38805,0.45861 z"
       id="path2458" />
    <path
       style="stroke-width:0.03527778"
       inkscape:connector-curvature="0"
       d="m 231.87296,105.61834 c -0.10583,0.74083 -0.21166,1.72861 -0.21166,2.2225 0.0353,0.84666 0.0353,0.84666 0.52916,0.21166 0.28223,-0.38805 0.52917,-1.05833 0.52917,-1.51694 0,-0.42334 0.3175,-0.9525 0.70556,-1.16417 1.02305,-0.52917 0.88194,-1.05833 -0.3175,-1.05833 -0.88195,0 -1.02306,0.14111 -1.23473,1.30528 z"
       id="path2462" />
    <path
       style="stroke-width:0.03527778"
       inkscape:connector-curvature="0"
       d="m 237.83491,104.66584 c -0.14111,0.21166 -0.81139,0.24694 -1.5875,0.14111 -1.16417,-0.17639 -1.41111,-0.10584 -1.94028,0.67027 -0.81139,1.23473 -0.59972,2.92806 0.35278,2.78695 0.38805,-0.0706 0.98778,-0.38806 1.30528,-0.67028 0.52916,-0.45861 0.635,-0.42333 0.98777,0.21167 0.45861,0.88194 1.16417,0.9525 1.76389,0.21167 0.3175,-0.38806 0.56445,-0.45862 0.84667,-0.17639 0.52917,0.52916 3.59833,0.42333 4.05694,-0.14111 0.49389,-0.56445 0.81139,-3.03389 0.42334,-3.03389 -0.10584,0 -0.59973,0.24694 -1.02306,0.56444 -0.56444,0.38806 -0.74083,0.77611 -0.59972,1.23472 0.17639,0.56445 0.0353,0.67028 -0.74083,0.67028 -0.91723,0 -0.91723,-0.0353 -0.38806,-0.635 0.84667,-0.91722 0.74083,-1.48167 -0.24694,-1.48167 -1.05834,0 -1.97556,0.84667 -1.97556,1.79917 0,0.49389 -0.21167,0.67028 -0.59972,0.59972 -0.88195,-0.17639 -0.9525,-0.84666 -0.14111,-1.65805 0.42333,-0.42334 0.74083,-0.91723 0.74083,-1.09361 0,-0.45862 -0.9525,-0.45862 -1.23472,0 z m -1.94028,1.30527 c 0,0.17639 -0.14111,0.52917 -0.35278,0.81139 -0.38805,0.635 -0.88194,0.24695 -0.59972,-0.52916 0.21167,-0.52917 0.9525,-0.74084 0.9525,-0.28223 z"
       id="path2464" />
    <path
       style="stroke-width:0.03527778"
       inkscape:connector-curvature="0"
       d="m 290.01074,105.15972 c -0.21166,0.59973 0.0706,1.27 0.59973,1.27 0.42333,0 0.42333,-1.30527 -0.0353,-1.5875 -0.21167,-0.10583 -0.45861,0.0353 -0.56445,0.3175 z"
       id="path2466" />
    <path
       style="stroke-width:0.03527778"
       inkscape:connector-curvature="0"
       d="m 244.96102,105.26556 c -0.28222,0.45861 -0.17639,3.28083 0.10583,3.28083 0.49389,0 0.9525,-0.88194 1.16417,-2.2225 0.17639,-1.12889 0.10583,-1.30528 -0.45861,-1.30528 -0.35278,0 -0.74084,0.10584 -0.81139,0.24695 z"
       id="path2468" />
    <path
       style="stroke-width:0.03527778"
       inkscape:connector-curvature="0"
       d="m 249.86463,105.58306 c -0.635,0.59972 -0.77611,2.61055 -0.21167,2.61055 0.21167,0 0.52917,-0.42333 0.74084,-0.98777 0.35277,-0.88195 0.38805,-0.91723 0.81139,-0.3175 0.28222,0.3175 0.70555,0.52916 0.9525,0.42333 0.28222,-0.0706 0.88194,0.17639 1.34055,0.56444 l 0.88195,0.70556 -0.67028,1.23472 c -0.59972,1.12889 -1.5875,1.65806 -1.5875,0.84667 0,-0.21167 -0.14111,-0.35278 -0.35278,-0.35278 -0.56444,0 -0.42333,1.76389 0.14111,1.97556 1.37583,0.52916 2.96333,-1.65806 3.70417,-5.08 0.21166,-1.02306 0.38805,-1.94028 0.38805,-2.01084 0,-0.10583 -0.635,-0.17639 -1.44639,-0.17639 -1.12888,0 -1.48166,0.14111 -1.62277,0.70556 -0.10584,0.38805 -0.28223,0.70555 -0.42334,0.70555 -0.10583,0 -0.42333,-0.3175 -0.67027,-0.70555 -0.52917,-0.84667 -1.23473,-0.91722 -1.97556,-0.14111 z m 4.58611,1.02305 c -0.10583,0.3175 -0.38805,0.45861 -0.56444,0.35278 -0.28223,-0.17639 -0.24695,-0.38805 0.0353,-0.74083 0.49389,-0.635 0.84667,-0.38806 0.52917,0.38805 z"
       id="path2470" />
    <path
       style="stroke-width:0.03527778"
       inkscape:connector-curvature="0"
       d="m 247.18352,106.07695 c -0.45861,0.84666 -0.14111,2.2225 0.45861,2.01083 0.52917,-0.14111 0.77611,-2.71639 0.28222,-2.71639 -0.21166,0 -0.52916,0.3175 -0.74083,0.70556 z"
       id="path2472" />
    <path
       style="stroke-width:0.03527778"
       inkscape:connector-curvature="0"
       d="m 271.0313,105.68889 c -0.28222,0.42333 0.10583,1.44639 0.52916,1.44639 0.17639,0 0.3175,-0.38806 0.3175,-0.88194 0,-0.88195 -0.49388,-1.19945 -0.84666,-0.56445 z"
       id="path2474" />
    <path
       style="stroke-width:0.03527778"
       inkscape:connector-curvature="0"
       d="m 263.69352,107.69973 c -0.56444,0.28222 -0.98778,0.67027 -0.98778,0.84666 0,0.52917 1.27,0.42334 1.76389,-0.17639 0.70556,-0.84666 0.24695,-1.23472 -0.77611,-0.67027 z"
       id="path2478" />
    <path
       style="stroke-width:0.03527778"
       inkscape:connector-curvature="0"
       d="m 271.6663,107.87611 c -0.28222,0.49389 0.38805,1.16417 0.88194,0.88195 0.21167,-0.14111 0.38806,-0.38806 0.38806,-0.56445 0,-0.45861 -1.02306,-0.70555 -1.27,-0.3175 z"
       id="path2480" />
    <path
       style="stroke-width:0.03527778"
       inkscape:connector-curvature="0"
       d="m 289.37574,108.15834 c -0.24694,0.38805 0.10584,1.44639 0.49389,1.44639 0.28222,0 0.70556,-0.84667 0.70556,-1.44639 0,-0.42334 -0.9525,-0.42334 -1.19945,0 z"
       id="path2482" />
    <path
       style="stroke-width:0.03527778"
       inkscape:connector-curvature="0"
       d="m 271.52519,110.87473 c 0,0.3175 0.17639,0.49388 0.42333,0.42333 0.635,-0.21167 0.74083,-0.98778 0.14111,-0.98778 -0.3175,0 -0.56444,0.24695 -0.56444,0.56445 z"
       id="path2484" />
    <path
       style="stroke-width:0.03527778"
       inkscape:connector-curvature="0"
       d="m 289.69324,111.36861 c -0.24694,0.42334 0.42334,1.41112 0.9525,1.41112 0.45861,0 0.21167,-1.51695 -0.3175,-1.65806 -0.21166,-0.0706 -0.49389,0.0353 -0.635,0.24694 z"
       id="path2490" />
    <path
       style="stroke-width:0.03527778"
       inkscape:connector-curvature="0"
       d="m 271.70158,113.09723 c -0.21167,0.38805 0.3175,0.81138 0.67027,0.49388 0.3175,-0.3175 0.24695,-0.81138 -0.10583,-0.81138 -0.21167,0 -0.42333,0.14111 -0.56444,0.3175 z"
       id="path2498" />
    <path
       style="stroke-width:0.03527778"
       inkscape:connector-curvature="0"
       d="m 290.22241,114.54361 c 0,0.45862 0.17639,0.70556 0.45861,0.59973 0.21167,-0.0706 0.42333,-0.35278 0.42333,-0.59973 0,-0.24694 -0.21166,-0.52916 -0.42333,-0.635 -0.28222,-0.0705 -0.45861,0.17639 -0.45861,0.635 z"
       id="path2504" />
    <path
       style="stroke-width:0.03527778"
       inkscape:connector-curvature="0"
       d="m 272.05435,114.89639 c 0.10584,0.17639 0.28223,0.35278 0.38806,0.35278 0.0705,0 0.14111,-0.17639 0.14111,-0.35278 0,-0.21166 -0.17639,-0.35278 -0.38806,-0.35278 -0.17638,0 -0.24694,0.14112 -0.14111,0.35278 z"
       id="path2506" />
    <path
       style="stroke-width:0.03527778"
       inkscape:connector-curvature="0"
       d="m 341.37519,115.42556 c 0,0.35278 -0.35278,0.52917 -1.19944,0.52917 -1.48167,0 -1.83445,0.42333 -2.25778,2.82222 -0.38806,2.08139 -0.14111,2.82222 0.9525,2.82222 1.83444,0 2.92805,-2.50472 1.19944,-2.75167 -0.84666,-0.14111 -1.19944,-1.48166 -0.35277,-1.48166 0.21166,0 0.84666,-0.24695 1.41111,-0.49389 0.91722,-0.49389 0.98777,-0.49389 1.83444,0.77611 0.49389,0.70555 0.88195,1.55222 0.88195,1.86972 0,0.59972 -2.2225,2.78695 -2.82223,2.78695 -0.21166,0 -0.35277,0.24694 -0.35277,0.52916 0,0.49389 0.14111,0.49389 1.34055,0 3.35139,-1.37583 3.84528,-4.1275 1.19945,-6.985 -0.98778,-1.05833 -1.83445,-1.23472 -1.83445,-0.42333 z"
       id="path2508" />
    <path
       style="stroke-width:0.03527778"
       inkscape:connector-curvature="0"
       d="m 315.69297,115.6725 c -0.21167,0.24695 -0.38806,1.23473 -0.42334,2.2225 -0.10583,3.31611 -0.0353,4.05695 0.52917,4.05695 0.38806,0 0.49389,-0.56445 0.49389,-2.50472 0,-2.50473 0.3175,-3.45723 1.05833,-2.99862 0.56445,0.35278 0.49389,1.09362 -0.14111,1.62278 -0.77611,0.67028 -0.635,1.69334 0.38806,2.71639 0.67028,0.67028 1.02305,0.77611 1.30528,0.49389 0.28222,-0.28222 0.14111,-0.59972 -0.45862,-1.27 l -0.81138,-0.88194 0.74083,-0.81139 c 0.42333,-0.45861 0.77611,-1.05834 0.77611,-1.37584 0,-1.34055 -2.61056,-2.29305 -3.45722,-1.27 z"
       id="path2510" />
    <path
       style="stroke-width:0.03527778"
       inkscape:connector-curvature="0"
       d="m 331.0388,115.88417 c -0.35278,0.35278 -0.59972,1.09361 -0.59972,1.5875 0,0.77611 -0.17639,0.9525 -0.84667,0.9525 -0.56444,0 -1.12889,0.38806 -1.65805,1.09361 l -0.74084,1.05833 -0.42333,-0.81138 c -0.45861,-0.91723 -2.08139,-1.27 -2.89278,-0.59973 -0.28222,0.21167 -0.49389,0.9525 -0.49389,1.5875 0,1.09361 0.10584,1.19945 1.02306,1.19945 0.56444,0 1.44639,-0.14111 1.905,-0.3175 0.70555,-0.28222 1.02305,-0.21167 1.51694,0.35278 0.635,0.70555 2.08139,0.91722 2.43417,0.3175 0.14111,-0.21167 0.74083,-0.28223 1.44639,-0.14112 1.27,0.24695 1.5875,-0.17638 0.67028,-0.91722 -0.42334,-0.35278 -0.49389,-0.98778 -0.3175,-3.21028 0.24694,-2.89277 0.0353,-3.31611 -1.02306,-2.15194 z m -0.59972,4.26861 c 0,0.77611 -0.88195,1.5875 -1.41111,1.27 -0.45861,-0.28222 -0.45861,-0.98778 0.0705,-1.51694 0.635,-0.635 1.34056,-0.49389 1.34056,0.24694 z m -5.00945,0.10583 c -0.0705,0.21167 -0.35277,0.49389 -0.56444,0.56445 -0.24694,0.0705 -0.35278,-0.0706 -0.21167,-0.42333 0.24695,-0.635 0.98778,-0.77612 0.77611,-0.14112 z"
       id="path2512" />
    <path
       style="stroke-width:0.03527778"
       inkscape:connector-curvature="0"
       d="m 335.27214,115.88417 c -0.81139,0.88194 -1.30528,2.36361 -1.37584,4.1275 -0.0705,1.83444 0.56445,2.71639 1.76389,2.57528 1.16417,-0.14111 1.41111,-0.88195 0.35278,-1.05834 -0.635,-0.0705 -0.84667,-0.35277 -0.91722,-1.19944 -0.14111,-1.34056 0.74083,-3.59833 1.51694,-3.88056 0.74083,-0.3175 0.67028,-1.19944 -0.10583,-1.19944 -0.38806,0 -0.91722,0.28222 -1.23472,0.635 z"
       id="path2514" />
    <path
       style="stroke-width:0.03527778"
       inkscape:connector-curvature="0"
       d="m 291.45713,117.01306 c -0.21166,0.98778 -0.3175,1.05833 -1.41111,0.84667 -1.12889,-0.21167 -1.23472,-0.14112 -1.72861,1.09361 -0.77611,1.83444 -0.70556,2.61055 0.28222,3.03389 0.635,0.28222 1.05834,0.24694 1.905,-0.17639 0.91722,-0.49389 1.09361,-0.49389 1.48167,-0.0353 0.24694,0.28222 0.635,0.52916 0.91722,0.52916 0.84667,0 0.91722,-0.74083 0.14111,-1.30528 -0.67028,-0.49388 -0.74083,-0.74083 -0.52916,-2.78694 0.21166,-1.905 0.17638,-2.25778 -0.28223,-2.25778 -0.3175,0 -0.635,0.45861 -0.77611,1.05834 z m -0.17639,2.2225 c 0,0.67028 -1.02305,2.01083 -1.5875,2.01083 -0.9525,0 -0.98777,-0.81139 -0.0353,-1.65805 1.05833,-0.91723 1.62277,-1.02306 1.62277,-0.35278 z"
       id="path2516" />
    <path
       style="stroke-width:0.03527778"
       inkscape:connector-curvature="0"
       d="m 303.69852,117.36584 c -0.38805,0.81139 -0.635,1.72861 -0.59972,2.04611 0.52917,2.64583 0.49389,2.57528 1.65806,2.46944 1.30527,-0.14111 1.72861,-0.88194 0.59972,-1.05833 -1.02306,-0.14111 -1.23472,-0.84667 -0.3175,-1.09361 0.70555,-0.17639 1.02305,-0.9525 0.35278,-0.9525 -0.17639,0 -0.35278,-0.635 -0.35278,-1.41111 0,-1.79917 -0.45861,-1.79917 -1.34056,0 z"
       id="path2518" />
    <path
       style="stroke-width:0.03527778"
       inkscape:connector-curvature="0"
       d="m 311.60074,116.23695 c -0.10583,0.17639 -0.35277,1.34055 -0.59972,2.64583 -0.42333,2.29306 -1.02305,3.175 -1.02305,1.55222 0,-0.42333 -0.24695,-1.05833 -0.52917,-1.44639 -1.09361,-1.41111 -3.38667,0.45862 -2.82222,2.29306 0.17639,0.52917 0.56444,0.67028 2.01083,0.67028 1.27,0 1.905,0.17639 2.2225,0.59972 0.59972,0.81139 1.23472,0.24694 1.02306,-0.88194 -0.10584,-0.52917 0.0353,-1.94028 0.3175,-3.13973 0.28222,-1.19944 0.42333,-2.29305 0.3175,-2.39889 -0.28223,-0.24694 -0.70556,-0.21166 -0.91723,0.10584 z m -3.03388,4.1275 c 0,0.28222 -0.14112,0.52916 -0.35278,0.52916 -0.17639,0 -0.35278,-0.24694 -0.35278,-0.52916 0,-0.28222 0.17639,-0.52917 0.35278,-0.52917 0.21166,0 0.35278,0.24695 0.35278,0.52917 z"
       id="path2520" />
    <path
       style="stroke-width:0.03527778"
       inkscape:connector-curvature="0"
       d="m 301.15852,117.36584 c 0,0.38805 0.24695,0.70555 0.52917,0.70555 0.28222,0 0.52917,-0.3175 0.52917,-0.70555 0,-0.38806 -0.24695,-0.70556 -0.52917,-0.70556 -0.28222,0 -0.52917,0.3175 -0.52917,0.70556 z"
       id="path2522" />
    <path
       style="stroke-width:0.03527778"
       inkscape:connector-curvature="0"
       d="m 294.56158,119.20028 c -0.42334,1.55222 -0.28223,2.50472 0.38805,2.29306 0.21167,-0.0706 0.38806,-0.70556 0.38806,-1.37584 0,-0.70555 0.10583,-1.41111 0.28222,-1.55222 0.38806,-0.38805 0.28222,-0.84667 -0.21167,-0.84667 -0.24694,0 -0.635,0.67028 -0.84666,1.48167 z"
       id="path2526" />
    <path
       style="stroke-width:0.03527778"
       inkscape:connector-curvature="0"
       d="m 320.94936,118.74167 c -1.23473,1.23472 -0.77611,3.21028 0.74083,3.21028 0.74083,0 0.81139,-0.38806 0.21167,-0.98778 -0.45861,-0.45861 -0.14111,-0.81139 0.9525,-1.27 0.42333,-0.14111 -0.17639,-1.34056 -0.81139,-1.55222 -0.21167,-0.0705 -0.70556,0.21166 -1.09361,0.59972 z"
       id="path2528" />
    <path
       style="stroke-width:0.03527778"
       inkscape:connector-curvature="0"
       d="m 296.53713,119.20028 c -0.49389,0.9525 -0.14111,2.29306 0.74084,2.57528 0.38805,0.10583 0.70555,0.45861 0.70555,0.74083 0,0.91722 -1.05833,2.61056 -1.62278,2.61056 -0.3175,0 -0.49389,0.21167 -0.38805,0.42333 0.24694,0.84667 1.44639,0.45861 2.2225,-0.70555 0.45861,-0.635 0.98778,-1.97556 1.19944,-2.99862 0.21167,-0.98777 0.45861,-2.15194 0.56445,-2.54 0.14111,-0.635 0,-0.70555 -1.44639,-0.77611 -1.27,-0.0353 -1.65806,0.10584 -1.97556,0.67028 z m 1.79917,0.77611 c 0,0.28222 -0.14111,0.59972 -0.3175,0.74084 -0.42333,0.24694 -0.84667,-0.42334 -0.56444,-0.88195 0.3175,-0.52917 0.88194,-0.42333 0.88194,0.14111 z"
       id="path2530" />
    <path
       style="stroke-width:0.03527778"
       inkscape:connector-curvature="0"
       d="m 301.05269,119.02389 c -0.42333,0.77611 -0.56445,2.2225 -0.21167,2.39889 0.49389,0.3175 0.56445,0.21167 0.84667,-1.34055 0.17639,-0.84667 0.10583,-1.30528 -0.10583,-1.30528 -0.21167,0 -0.45862,0.10583 -0.52917,0.24694 z"
       id="path2534" />
    <path
       style="stroke-width:0.03527778"
       inkscape:connector-curvature="0"
       d="m 212.50546,131.37112 c -0.3175,0.28222 -0.3175,4.445 -0.0353,5.18583 0.3175,0.81139 1.09361,0.70555 1.30527,-0.17639 0.21167,-0.70556 0.28223,-0.74083 5.78556,-0.42333 4.55083,0.21166 48.01306,0.21166 66.49861,0 l 4.51556,-0.0706 v 0.91722 c 0,0.49389 0.21166,1.19944 0.49389,1.55222 0.45861,0.635 0.49389,0.635 0.88194,-0.10583 0.21167,-0.38806 0.38806,-1.83445 0.38806,-3.21028 0,-1.97555 -0.10584,-2.50472 -0.52917,-2.50472 -0.28222,0 -0.635,0.49389 -0.81139,1.12889 l -0.28222,1.16416 -12.34722,0.14112 c -24.16528,0.24694 -53.69278,0.21166 -59.12556,-0.10584 l -5.57389,-0.28222 v -1.16416 c 0,-1.86973 -0.49389,-2.71639 -1.16417,-2.04611 z"
       id="path2550" />
    <path
       style="stroke-width:0.03527778"
       inkscape:connector-curvature="0"
       d="m 249.61769,142.30723 c -0.42334,1.09361 -0.42334,5.04472 0,5.04472 0.17638,0 0.42333,-0.70556 0.52916,-1.5875 0.14111,-0.88194 0.35278,-1.5875 0.49389,-1.5875 0.14111,0 0.88195,1.37583 1.62278,2.99861 1.41111,3.06917 2.8575,4.7625 3.98639,4.62139 0.91722,-0.14111 0.9525,-0.88194 0.0353,-1.23472 -0.45862,-0.17639 -1.09362,-0.59972 -1.41112,-0.98778 -0.635,-0.67028 -3.45722,-6.52639 -3.28083,-6.73806 0.0706,-0.0706 0.59972,0.14112 1.19945,0.42334 1.19944,0.635 1.79916,0.70555 1.79916,0.21166 0,-0.52916 -1.44639,-1.34055 -3.10444,-1.72861 -1.44639,-0.3175 -1.55222,-0.28222 -1.86972,0.56445 z"
       id="path2584" />
    <path
       style="stroke-width:0.03527778"
       inkscape:connector-curvature="0"
       d="m 282.17908,147.42251 c -0.21167,0.24694 -0.45861,1.72861 -0.52917,3.31611 -0.21167,3.21027 0.17639,4.48027 1.44639,4.65666 0.98778,0.14111 0.98778,-0.3175 0.0353,-0.91722 -0.67028,-0.42333 -0.70556,-0.67028 -0.45861,-3.98639 0.10583,-1.905 0.14111,-3.4925 0.0705,-3.4925 -0.10583,0 -0.35278,0.21167 -0.56444,0.42334 z"
       id="path2598" />
    <path
       style="stroke-width:0.03527778"
       inkscape:connector-curvature="0"
       d="m 261.92963,147.77528 c -0.35278,0.9525 -0.3175,5.57389 0.0353,6.20889 0.3175,0.59972 0.70555,0.70556 2.75167,0.635 1.72861,-0.0706 2.43416,-0.21166 2.71638,-0.635 0.3175,-0.52916 0.38806,-0.52916 0.77612,0 0.42333,0.56445 0.49388,0.56445 1.05833,0 0.45861,-0.45861 0.74083,-0.49389 1.34055,-0.21166 0.38806,0.21166 0.9525,0.49388 1.23473,0.635 0.88194,0.38805 0.77611,0.88194 -0.28223,1.51694 -1.19944,0.70556 -1.62277,1.65806 -1.30527,2.92806 0.28222,1.12888 1.76389,1.48166 2.68111,0.67027 0.84666,-0.74083 1.76389,-3.81 1.76389,-5.78555 0,-1.27 -0.14111,-1.51695 -0.9525,-1.83445 -0.84667,-0.3175 -1.05834,-0.24694 -1.62278,0.42334 l -0.635,0.77611 -0.52917,-0.74084 c -0.38805,-0.59972 -0.74083,-0.70555 -1.72861,-0.52916 -0.81139,0.14111 -1.51694,0 -2.08139,-0.38806 -1.27,-0.81139 -1.55222,-0.70555 -2.2225,0.67028 -0.3175,0.67028 -0.81139,1.30528 -1.09361,1.41111 -1.02305,0.38806 -1.23472,-0.24694 -0.98778,-3.21028 0.17639,-2.39889 0.14111,-2.96333 -0.28222,-2.96333 -0.28222,0 -0.56444,0.21167 -0.635,0.42333 z m 4.79778,5.04473 c -0.24695,0.635 -1.19945,0.98777 -1.19945,0.42333 0,-0.59972 0.74084,-1.34056 1.09362,-1.09361 0.17638,0.0706 0.21166,0.38805 0.10583,0.67028 z m 6.20889,4.26861 c 0,0.74083 -0.67028,1.905 -1.09361,1.905 -0.67028,0 -0.74084,-1.09361 -0.14111,-1.76389 0.77611,-0.84667 1.23472,-0.91722 1.23472,-0.14111 z"
       id="path2600" />
    <path
       style="stroke-width:0.03527778"
       inkscape:connector-curvature="0"
       d="m 291.17491,148.65723 c -0.10583,0.17639 -0.28222,0.81139 -0.42333,1.41111 -0.10584,0.635 -0.38806,1.16417 -0.56445,1.16417 -0.17639,0 -0.3175,0.24694 -0.3175,0.52916 0,0.28222 0.17639,0.52917 0.35278,0.52917 0.21167,0 0.35278,0.56444 0.35278,1.23472 0,1.12889 0.10583,1.23472 0.98778,1.23472 0.52916,0 1.16416,-0.17639 1.41111,-0.42333 0.3175,-0.3175 0.52916,-0.3175 0.84666,0 0.45861,0.45861 2.39889,0.59972 2.39889,0.14111 0,-0.14111 -0.35278,-0.42333 -0.77611,-0.59972 -0.98778,-0.42333 -0.9525,-0.98778 0.14111,-1.23472 0.74084,-0.17639 0.84667,-0.38806 0.70556,-1.37584 -0.10584,-0.67027 -2.71639,0.52917 -2.82222,1.27 -0.10584,0.70556 -1.30528,1.30528 -1.905,0.9525 -0.42334,-0.28222 0.35277,-1.55222 0.9525,-1.55222 0.67027,0 0.67027,-0.56444 0,-0.84667 -0.3175,-0.10583 -0.52917,-0.67027 -0.52917,-1.44638 0,-1.12889 -0.42333,-1.62278 -0.81139,-0.98778 z"
       id="path2606" />
    <path
       style="stroke-width:0.03527778"
       inkscape:connector-curvature="0"
       d="m 285.84797,151.65584 c -1.23473,1.12889 -1.48167,2.43417 -0.59973,3.4925 l 0.67028,0.84667 1.02306,-0.74084 c 0.70555,-0.52916 1.34055,-0.70555 1.97555,-0.59972 0.98778,0.21167 1.34056,-0.38806 0.42334,-0.74083 -0.28223,-0.10584 -0.52917,-0.56445 -0.52917,-1.02306 0,-0.84667 -0.9525,-2.01083 -1.69333,-2.01083 -0.21167,0 -0.77612,0.35278 -1.27,0.77611 z m 1.83444,0.52917 c -0.84667,1.72861 -1.12889,2.2225 -1.41111,2.2225 -0.49389,0 -0.3175,-1.16417 0.3175,-1.83445 0.56444,-0.635 1.34055,-0.88194 1.09361,-0.38805 z"
       id="path2628" />
    <path
       style="stroke-width:0.03527778"
       inkscape:connector-curvature="0"
       d="m 297.31324,151.72639 c -0.17638,0.21167 -0.38805,0.88195 -0.45861,1.44639 -0.10583,1.02306 -0.0705,1.05834 1.55223,1.09361 1.79916,0.0706 1.83444,0 1.16416,-2.18722 -0.17639,-0.56444 -1.86972,-0.81139 -2.25778,-0.35278 z"
       id="path2630" />
    <path
       style="stroke-width:0.03527778"
       inkscape:connector-curvature="0"
       d="m 301.37019,152.60834 c -0.77611,0.84667 -0.45861,2.08139 0.59972,2.46944 0.98778,0.38806 1.44639,-0.28222 0.67028,-0.91722 -0.56445,-0.42333 -0.56445,-0.49389 0.0353,-0.9525 0.3175,-0.24694 0.59972,-0.635 0.59972,-0.88194 0,-0.635 -1.23472,-0.45861 -1.905,0.28222 z"
       id="path2632" />
    <path
       style="stroke-width:0.03527778"
       inkscape:connector-curvature="0"
       d="m 304.93324,152.18501 c -0.14111,0.10583 -0.24694,0.74083 -0.24694,1.41111 0,1.02305 0.14111,1.19944 1.05833,1.37583 0.59973,0.14111 1.05834,0.3175 1.05834,0.45861 0,0.10583 -0.74084,0.59972 -1.65806,1.09361 -2.04611,1.09361 -3.77472,3.175 -3.4925,4.16278 0.14111,0.42333 0.49389,0.67028 0.84667,0.59972 0.3175,-0.0706 0.88194,-0.14111 1.19944,-0.14111 0.88195,-0.0353 3.03389,-2.04611 3.81,-3.52778 0.49389,-1.02305 1.02306,-1.41111 2.46945,-1.905 2.04611,-0.74083 2.04611,-1.55222 0,-0.9525 -1.72861,0.49389 -1.69334,0.52917 -1.48167,-1.23472 0.21167,-1.86972 -0.24694,-2.04611 -1.41111,-0.52917 -0.42333,0.56445 -0.88195,1.05834 -1.05833,1.05834 -0.14112,0 -0.28223,-0.49389 -0.28223,-1.05834 0,-1.02305 -0.3175,-1.34055 -0.81139,-0.81138 z m 1.12889,5.85611 c -0.3175,0.74083 -2.32833,2.36361 -2.89277,2.36361 -0.67028,0 -0.10584,-1.12889 1.05833,-2.08139 1.62278,-1.34056 2.36361,-1.44639 1.83444,-0.28222 z"
       id="path2634" />
  </g>
</svg>
