<?xml version="1.0" encoding="UTF-8" standalone="no"?>
<!-- Created with Inkscape (http://www.inkscape.org/) -->

<svg
   xmlns:dc="http://purl.org/dc/elements/1.1/"
   xmlns:cc="http://creativecommons.org/ns#"
   xmlns:rdf="http://www.w3.org/1999/02/22-rdf-syntax-ns#"
   xmlns:svg="http://www.w3.org/2000/svg"
   xmlns="http://www.w3.org/2000/svg"
   xmlns:sodipodi="http://sodipodi.sourceforge.net/DTD/sodipodi-0.dtd"
   xmlns:inkscape="http://www.inkscape.org/namespaces/inkscape"
   width="183.0311mm"
   height="27.13979mm"
   viewBox="0 0 183.0311 27.13979"
   version="1.1"
   id="svg4640"
   inkscape:version="0.92.5 (2060ec1f9f, 2020-04-08)"
   sodipodi:docname="tracer_call.svg">
  <defs
     id="defs4634" />
  <sodipodi:namedview
     id="base"
     pagecolor="#ffffff"
     bordercolor="#666666"
     borderopacity="1.0"
     inkscape:pageopacity="0.0"
     inkscape:pageshadow="2"
     inkscape:zoom="0.35"
     inkscape:cx="-425.54302"
     inkscape:cy="-40.140752"
     inkscape:document-units="mm"
     inkscape:current-layer="layer1"
     showgrid="false"
     fit-margin-top="0"
     fit-margin-left="0"
     fit-margin-right="0"
     fit-margin-bottom="0"
     inkscape:window-width="1920"
     inkscape:window-height="1080"
     inkscape:window-x="0"
     inkscape:window-y="0"
     inkscape:window-maximized="0" />
  <metadata
     id="metadata4637">
    <rdf:RDF>
      <cc:Work
         rdf:about="">
        <dc:format>image/svg+xml</dc:format>
        <dc:type
           rdf:resource="http://purl.org/dc/dcmitype/StillImage" />
        <dc:title></dc:title>
      </cc:Work>
    </rdf:RDF>
  </metadata>
  <g
     inkscape:label="Layer 1"
     inkscape:groupmode="layer"
     id="layer1"
     transform="translate(-9.7820671,-111.07297)">
    <path
       style="fill:#000000;stroke:none;stroke-width:0.03527778"
       d="m 192.46467,116.99964 c -0.49389,-0.88195 -1.72861,-0.81139 -1.72861,0.0705 0,0.74084 1.19944,1.5875 1.76389,1.23472 0.42333,-0.28222 0.42333,-0.52916 -0.0353,-1.30527 z"
       id="path3247"
       inkscape:connector-curvature="0" />
    <path
       style="fill:#000000;stroke:none;stroke-width:0.03527778"
       d="m 190.91245,128.0063 c -0.635,0 -3.42195,4.16278 -3.13972,4.62139 0.42333,0.70556 1.09361,0.17639 2.36361,-1.79916 1.44639,-2.29306 1.5875,-2.82223 0.77611,-2.82223 z"
       id="path3249"
       inkscape:connector-curvature="0" />
    <path
       style="fill:#000000;stroke:none;stroke-width:0.03527778"
       d="m 183.01023,117.35241 c -0.98778,-2.99861 -3.13973,-5.22111 -5.08001,-5.22111 -1.48166,0 -1.41111,0.52917 0.28223,1.94028 2.75166,2.2225 3.175,3.45722 3.175,8.99583 -0.0353,5.3975 -0.42334,6.70278 -3.03389,10.08945 -1.55222,2.01083 -1.62278,2.25778 -0.74084,2.25778 1.02306,0 3.10445,-2.46945 4.33917,-5.08 1.09361,-2.36361 1.16417,-2.71639 1.27,-7.23195 0.0353,-2.64583 -0.0353,-5.22111 -0.21166,-5.75028 z"
       id="path3251"
       inkscape:connector-curvature="0" />
    <path
       style="fill:#000000;stroke:none;stroke-width:0.03527778"
       d="m 171.6155,125.4663 c -1.09361,-0.10583 -1.16416,-0.21166 -1.27,-1.5875 -0.10583,-1.23472 -0.24694,-1.51694 -0.81139,-1.51694 -0.74083,0 -0.84666,0.17639 -1.19944,2.2225 -0.24695,1.44639 -0.77611,1.83444 -3.38667,2.2225 -0.9525,0.17639 -1.37583,0.10583 -1.37583,-0.21167 0,-0.21166 0.635,-2.01083 1.41111,-3.91583 1.51694,-3.81 1.69333,-4.79778 0.88194,-5.11528 -0.74083,-0.3175 -1.51694,0.42333 -1.76388,1.69333 -0.14112,0.59973 -0.70556,2.18723 -1.27,3.56306 -1.02306,2.43417 -1.30528,4.90361 -0.70556,5.85611 0.3175,0.49389 2.46944,0.59972 4.30389,0.21167 0.88194,-0.21167 1.05833,-0.10584 1.41111,0.77611 0.49389,1.34055 1.34056,2.2225 1.94028,1.97555 0.38805,-0.14111 0.42333,-0.635 0.28222,-2.04611 l -0.24694,-1.86972 1.48166,-0.45861 c 1.83445,-0.56444 2.04611,-1.62278 0.3175,-1.79917 z"
       id="path3255"
       inkscape:connector-curvature="0" />
    <path
       style="fill:#000000;stroke:none;stroke-width:0.03527778"
       d="m 160.64411,111.07297 c -1.05833,0 -3.77472,2.11667 -4.97416,3.81 -2.82223,4.1275 -4.65667,10.08944 -4.23334,13.97 0.24695,2.64583 1.86972,6.27945 3.13972,7.12611 1.30528,0.84667 4.37445,1.02306 5.29167,0.3175 0.59972,-0.49389 0.635,-0.59972 0.17639,-0.88194 -0.28222,-0.17639 -1.05833,-0.35278 -1.69333,-0.35278 -3.28084,0 -4.79778,-2.46945 -4.79778,-7.76111 0.0353,-2.8575 0.17639,-3.77472 1.09361,-6.17361 1.62278,-4.37445 3.70417,-7.40834 5.85611,-8.50195 1.16417,-0.635 1.27,-1.55222 0.14111,-1.55222 z"
       id="path3257"
       inkscape:connector-curvature="0" />
    <path
       style="fill:#000000;stroke:none;stroke-width:0.03527778"
       d="m 139.61856,132.09853 c -0.14112,-0.10584 -0.77612,0.17638 -1.41112,0.635 -1.5875,1.19944 -3.45722,1.48166 -4.30388,0.70555 -0.70556,-0.635 -0.9525,-3.42194 -0.38806,-4.23333 0.14111,-0.21167 1.34056,-0.49389 2.71639,-0.635 2.50472,-0.24695 3.35139,-0.635 3.35139,-1.48167 0,-0.38805 -0.59972,-0.49389 -2.46945,-0.49389 -1.69333,0 -2.54,-0.14111 -2.64583,-0.45861 -0.21167,-0.45861 1.12889,-5.18583 2.08139,-7.37305 0.70555,-1.65806 0.70555,-1.905 -0.0353,-2.2225 -0.42333,-0.14112 -0.84667,0.0353 -1.23472,0.52916 -0.59972,0.70556 -2.15195,5.15056 -2.57528,7.33778 -0.17639,0.91722 -0.52917,1.30528 -1.44639,1.69333 -1.34055,0.56445 -1.55222,1.34056 -0.52916,1.97556 0.59972,0.35278 0.67027,0.70555 0.49388,2.92805 -0.17638,2.29306 -0.10583,2.57528 0.67028,3.49251 0.98778,1.16416 3.03389,1.65805 4.83306,1.12888 2.04611,-0.59972 3.95111,-2.89277 2.89278,-3.52777 z"
       id="path3269"
       inkscape:connector-curvature="0" />
    <path
       style="fill:#000000;stroke:none;stroke-width:0.03527778"
       d="m 126.98911,133.4038 c -0.59972,-0.59972 -0.81139,-1.19944 -0.81139,-2.36361 0,-2.99861 -2.08139,-3.95111 -3.95111,-1.79916 -0.91722,1.05833 -1.34056,1.12888 -1.34056,0.21166 0,-0.35278 -0.24694,-0.84666 -0.52916,-1.09361 -0.67028,-0.56444 -1.5875,0.10583 -1.5875,1.19945 0,0.38805 -0.21167,1.48166 -0.49389,2.36361 -0.56445,1.79916 -0.24695,2.78694 0.84667,2.78694 0.635,0 3.88055,-3.03389 3.88055,-3.59833 0,-0.17639 0.21167,-0.28222 0.45861,-0.28222 0.28222,0 0.59972,0.67027 0.81139,1.65805 0.35278,1.83445 1.69333,3.13972 2.8575,2.78695 0.91722,-0.28223 0.84667,-0.91723 -0.14111,-1.86973 z"
       id="path3275"
       inkscape:connector-curvature="0" />
    <path
       style="fill:#000000;stroke:none;stroke-width:0.03527778"
       d="m 117.04078,125.92491 c -1.19945,-0.635 -3.35139,-0.42333 -5.25639,0.52917 -2.54,1.27 -3.59834,2.61056 -3.59834,4.62139 0,1.37583 0.17639,1.76389 1.27,2.78695 1.09362,1.02305 1.48167,1.19944 3.03389,1.19944 1.83445,0 4.30389,-0.91722 3.95111,-1.44639 -0.10583,-0.17639 -1.09361,-0.3175 -2.18722,-0.3175 -2.43416,0 -3.63361,-0.56444 -4.09222,-1.86972 -0.49389,-1.30528 0.0706,-1.65806 2.78694,-1.65806 2.8575,0 4.55084,-0.84666 4.69195,-2.36361 0.0705,-0.81139 -0.0706,-1.19944 -0.59972,-1.48167 z"
       id="path3289"
       inkscape:connector-curvature="0" />
    <path
       style="fill:#000000;stroke:none;stroke-width:0.03527778"
       d="m 107.93911,124.90186 c -0.88195,0.10583 -1.19945,0.56444 -2.75167,3.73944 -0.9525,1.97556 -1.94028,3.59834 -2.15194,3.59834 -0.24695,0 -0.45862,-1.16417 -0.59973,-3.06917 -0.10583,-1.72861 -0.28222,-3.38667 -0.42333,-3.70417 -0.24694,-0.635 -1.41111,-0.88194 -1.72861,-0.35277 -0.0705,0.14111 -0.0353,2.11666 0.10583,4.40972 0.3175,4.51555 0.84667,5.89139 2.25778,5.89139 0.45861,0 1.16417,-0.35278 1.5875,-0.81139 0.81139,-0.84667 2.89278,-5.18584 2.89278,-6.0325 0,-0.28222 0.38806,-0.98778 0.88194,-1.55222 1.19945,-1.44639 1.16417,-2.25778 -0.0705,-2.11667 z"
       id="path3295"
       inkscape:connector-curvature="0" />
    <path
       style="fill:#000000;stroke:none;stroke-width:0.03527778"
       d="m 96.191613,125.18408 c -1.51695,-1.09361 -4.7625,-1.12889 -6.24417,-0.0706 -3.81,2.71639 -5.00944,7.47889 -2.36361,9.56028 1.905,1.48167 6.31472,1.19944 7.90222,-0.49389 0.74083,-0.77611 0.74083,-0.88194 0.21167,-1.09361 -0.35278,-0.14111 -1.23472,-0.0705 -1.94028,0.17639 -3.59833,1.05833 -5.99722,-0.0706 -5.57389,-2.64583 0.28222,-1.65806 0.35278,-1.72862 1.72861,-1.16417 2.25778,0.91722 5.78556,-0.17639 6.80861,-2.15195 0.67028,-1.30527 0.70556,-1.23472 -0.52916,-2.11666 z m -4.1275,2.46945 c -1.62278,0 -1.97556,-0.45862 -0.84667,-1.05834 0.77611,-0.42333 2.96333,-0.49389 3.35139,-0.10583 0.49389,0.49389 -0.98778,1.16417 -2.50472,1.16417 z"
       id="path3301"
       inkscape:connector-curvature="0" />
    <path
       style="fill:#000000;stroke:none;stroke-width:0.03527778"
       d="m 75.554113,134.14464 c -0.77611,-0.3175 -2.29306,0.14111 -2.29306,0.70555 0,0.91723 0.98778,1.41111 1.94028,0.98778 0.98778,-0.45861 1.16417,-1.41111 0.35278,-1.69333 z"
       id="path3315"
       inkscape:connector-curvature="0" />
    <path
       style="fill:#000000;stroke:none;stroke-width:0.03527778"
       d="m 67.616613,128.18269 c -0.42334,-0.28222 -3.84528,0.17639 -4.69195,0.59972 -0.91722,0.49389 -1.94028,2.96334 -2.08139,5.04473 -0.10583,1.65805 -0.0706,1.76389 0.77611,1.76389 0.9525,0 1.30528,-0.81139 1.37584,-3.03389 0.0353,-1.55223 0.45861,-1.94028 2.32833,-2.25778 0.77611,-0.14111 1.69333,-0.42333 2.04611,-0.59972 0.67028,-0.3175 0.81139,-1.16417 0.24695,-1.51695 z"
       id="path3319"
       inkscape:connector-curvature="0" />
    <path
       style="fill:#000000;stroke:none;stroke-width:0.03527778"
       d="m 57.668273,128.78241 c -1.51694,-1.51694 -4.93889,0.70556 -6.38528,4.19806 -0.38805,0.98778 -0.81138,1.34056 -2.01083,1.69333 -4.05694,1.19945 -5.29167,-2.75166 -1.5875,-5.18583 1.51695,-0.9525 1.69333,-2.18722 0.3175,-2.18722 -0.49389,0 -1.37583,0.3175 -1.94028,0.74083 -1.12889,0.81139 -2.78694,3.73945 -2.78694,4.93889 0,1.05833 1.02305,2.64583 2.01083,3.10445 1.19945,0.56444 3.4925,0.45861 4.72722,-0.17639 1.02306,-0.52917 1.09362,-0.49389 2.29306,0.52916 0.88194,0.81139 1.5875,1.09361 2.54,1.09361 1.69333,0 3.03389,-0.70555 3.175,-1.62277 0.10583,-0.70556 0.0353,-0.70556 -1.69333,-0.35278 -1.62278,0.3175 -1.83445,0.28222 -2.57528,-0.42333 -0.9525,-0.98778 -0.52917,-1.83445 1.05833,-2.25778 1.12889,-0.28223 3.28084,-2.43417 3.28084,-3.21028 0,-0.24695 -0.17639,-0.635 -0.42334,-0.88195 z"
       id="path3323"
       inkscape:connector-curvature="0" />
    <path
       style="fill:#000000;stroke:none;stroke-width:0.03527778"
       d="m 41.264113,133.65075 c -2.15195,0 -2.46945,-0.38806 -1.94028,-2.29306 0.70555,-2.61055 0.56444,-3.13972 -0.74084,-3.63361 -1.69333,-0.59972 -2.64583,-0.52917 -3.84527,0.3175 -2.50473,1.79917 -3.56306,5.50334 -2.01084,7.05556 0.635,0.635 0.98778,0.70555 2.36361,0.49389 0.91723,-0.10584 2.75167,-0.21167 4.05695,-0.17639 2.43417,0.0353 3.42194,-0.35278 3.42194,-1.27 0,-0.3175 -0.42333,-0.49389 -1.30527,-0.49389 z m -5.11528,-0.42333 c -0.81139,0.81138 -1.86973,1.02305 -2.2225,0.38805 -0.635,-0.98778 1.83444,-4.90361 3.10444,-4.90361 0.635,0 -0.10583,3.63361 -0.88194,4.51556 z"
       id="path3337"
       inkscape:connector-curvature="0" />
    <path
       style="fill:#000000;stroke:none;stroke-width:0.03527778"
       d="m 31.386333,126.34825 c -0.74084,0.10583 -2.29306,0.42333 -3.45723,0.70555 -2.68111,0.59973 -2.92805,1.09361 -3.24555,6.0325 -0.21167,3.63362 -0.21167,3.73945 0.52916,3.73945 1.09362,0 1.55223,-1.19945 1.76389,-4.62139 l 0.17639,-3.06917 1.27,-0.21166 c 1.94028,-0.3175 4.26861,-1.51695 4.26861,-2.18723 0,-0.45861 -0.24694,-0.52916 -1.30527,-0.38805 z"
       id="path3341"
       inkscape:connector-curvature="0" />
    <path
       style="fill:#000000;stroke:none;stroke-width:0.03527778"
       d="m 21.684943,133.29797 c -0.24695,0 -0.77611,0.38806 -1.16417,0.84667 -0.88194,1.02305 -2.96333,2.32833 -3.73944,2.32833 -0.98778,0 -2.15195,-1.62278 -2.32834,-3.24555 -0.21166,-1.94028 0.49389,-6.70278 1.05834,-7.05556 0.24694,-0.14111 0.84666,-0.28222 1.34055,-0.28222 1.48167,0 4.55083,-1.12889 4.55083,-1.65806 0,-0.52917 -0.0353,-0.52917 -3.24555,-0.45861 l -2.39889,0.0353 v -1.02305 c 0,-0.56445 0.3175,-3.10445 0.70556,-5.67973 0.74083,-4.69194 0.70555,-5.32694 -0.17639,-5.32694 -0.70556,0 -0.84667,0.3175 -1.23473,3.03389 -0.21166,1.34055 -0.635,4.02166 -0.98777,5.96194 l -0.59973,3.4925 -1.30527,0.38806 c -0.74084,0.21166 -1.62278,0.635 -1.94028,0.98778 -0.5644501,0.52916 -0.5644501,0.67027 -0.10584,0.9525 0.28223,0.21166 1.09362,0.3175 1.76389,0.28222 1.37584,-0.10584 1.34056,-0.45861 0.84667,4.19805 -0.635,6.59695 3.70417,9.34862 8.07861,5.11528 1.27,-1.23472 1.76389,-2.89278 0.88195,-2.89278 z"
       id="path3357"
       inkscape:connector-curvature="0" />
  </g>
</svg>
