<?xml version="1.0" encoding="UTF-8" standalone="no"?>
<!-- Created with Inkscape (http://www.inkscape.org/) -->

<svg
   xmlns:dc="http://purl.org/dc/elements/1.1/"
   xmlns:cc="http://creativecommons.org/ns#"
   xmlns:rdf="http://www.w3.org/1999/02/22-rdf-syntax-ns#"
   xmlns:svg="http://www.w3.org/2000/svg"
   xmlns="http://www.w3.org/2000/svg"
   xmlns:sodipodi="http://sodipodi.sourceforge.net/DTD/sodipodi-0.dtd"
   xmlns:inkscape="http://www.inkscape.org/namespaces/inkscape"
   width="323.80948mm"
   height="145.51111mm"
   viewBox="0 0 323.80948 145.51111"
   version="1.1"
   id="svg10258"
   inkscape:version="0.92.5 (2060ec1f9f, 2020-04-08)"
   sodipodi:docname="when_to_use_polling.svg">
  <defs
     id="defs10252" />
  <sodipodi:namedview
     id="base"
     pagecolor="#ffffff"
     bordercolor="#666666"
     borderopacity="1.0"
     inkscape:pageopacity="0.0"
     inkscape:pageshadow="2"
     inkscape:zoom="0.35"
     inkscape:cx="-428.07662"
     inkscape:cy="22.124458"
     inkscape:document-units="mm"
     inkscape:current-layer="layer1"
     showgrid="false"
     fit-margin-top="0"
     fit-margin-left="0"
     fit-margin-right="0"
     fit-margin-bottom="0"
     inkscape:window-width="1920"
     inkscape:window-height="1080"
     inkscape:window-x="1920"
     inkscape:window-y="0"
     inkscape:window-maximized="0" />
  <metadata
     id="metadata10255">
    <rdf:RDF>
      <cc:Work
         rdf:about="">
        <dc:format>image/svg+xml</dc:format>
        <dc:type
           rdf:resource="http://purl.org/dc/dcmitype/StillImage" />
        <dc:title></dc:title>
      </cc:Work>
    </rdf:RDF>
  </metadata>
  <g
     inkscape:label="Layer 1"
     inkscape:groupmode="layer"
     id="layer1"
     transform="translate(-18.01194,-16.735514)">
    <path
       style="stroke-width:0.03527778"
       inkscape:connector-curvature="0"
       d="m 95.249882,17.050562 c -0.635,0.776111 -1.16416,3.704167 -1.19944,6.808611 -0.0353,2.328334 0.10583,3.175001 0.635,4.092223 0.77611,1.27 1.905,1.799167 1.905,0.881944 0,-0.3175 -0.14111,-0.564444 -0.3175,-0.564444 -0.17639,0 -0.49389,-0.493889 -0.74083,-1.093611 -0.52917,-1.270001 -0.28223,-6.949723 0.42333,-8.678334 0.49389,-1.305278 0,-2.293056 -0.70556,-1.446389 z"
       id="path2034" />
    <path
       style="stroke-width:0.03527778"
       inkscape:connector-curvature="0"
       d="m 76.587942,17.509173 c -0.81139,0.352778 -1.34056,0.987778 -1.97556,2.363611 -0.77611,1.763889 -0.81139,2.116667 -0.59972,6.138334 0.17639,3.351389 0.35278,4.445 0.81139,4.903611 0.49389,0.458612 0.635,0.493889 0.77611,0.07056 0.10583,-0.246945 0.0353,-0.917222 -0.17639,-1.446389 -0.17639,-0.529167 -0.35278,-1.763889 -0.35278,-2.716389 0,-1.728612 0,-1.728612 1.16417,-1.728612 2.78694,0 4.83306,-2.257778 4.83306,-5.362222 0,-1.305278 -0.17639,-1.763889 -0.77611,-2.187222 -0.95251,-0.670278 -2.22251,-0.705556 -3.70417,-0.03528 z m 3.35139,2.187222 c 0.21166,2.2225 -1.72861,4.339167 -3.98639,4.339167 -0.88195,0 -0.88195,-0.03528 -0.67028,-2.046111 0.10583,-1.093611 0.24694,-2.2225 0.35278,-2.469445 0.17639,-0.635 1.55222,-1.128889 2.96333,-1.023055 1.12889,0.07056 1.23472,0.176389 1.34056,1.199444 z"
       id="path2036" />
    <path
       style="stroke-width:0.03527778"
       inkscape:connector-curvature="0"
       d="m 90.663772,17.932506 c -0.67028,1.27 -1.27,4.586111 -1.27,6.985 -0.0353,2.575279 0.59972,4.198057 1.76389,4.656668 0.81139,0.282222 2.25778,-0.211667 2.25778,-0.811389 0,-0.423334 -0.24695,-0.493889 -1.02306,-0.3175 -0.84666,0.176389 -1.12889,0.07056 -1.48166,-0.599722 -0.59973,-1.058334 -0.49389,-4.550834 0.17639,-7.231946 0.3175,-1.199444 0.56444,-2.398889 0.56444,-2.716389 0,-0.740833 -0.59972,-0.705555 -0.98778,0.03528 z"
       id="path2038" />
    <path
       style="stroke-width:0.03527778"
       inkscape:connector-curvature="0"
       d="m 173.24905,18.99084 c -0.67028,1.023055 -0.91722,4.727222 -0.3175,5.044722 0.38806,0.211667 1.5875,-5.609167 1.23472,-5.856111 -0.17638,-0.105834 -0.56444,0.282222 -0.91722,0.811389 z"
       id="path2040" />
    <path
       style="stroke-width:0.03527778"
       inkscape:connector-curvature="0"
       d="m 39.299322,18.920284 c -0.10583,0.3175 -0.21166,3.033889 -0.21166,6.0325 0,2.998612 -0.10584,5.432779 -0.28222,5.432779 -0.14112,0 -0.52917,-0.811389 -0.88195,-1.763889 -0.35278,-0.987778 -0.77611,-1.763889 -0.98778,-1.763889 -0.49389,0 -0.9525,1.446389 -1.30527,3.986389 l -0.28223,2.187222 -1.30527,-2.645833 c -0.70556,-1.446389 -1.79917,-4.021668 -2.39889,-5.750279 -0.77611,-2.046111 -1.27,-2.963333 -1.51695,-2.716389 -0.35278,0.352778 -0.21166,0.917223 1.34056,5.115279 1.30528,3.421944 3.06916,7.161389 3.56305,7.584722 0.81139,0.670278 1.5875,-0.564444 1.5875,-2.469444 0,-0.9525 0.14111,-1.799167 0.3175,-1.905 0.14111,-0.105834 0.74084,0.529166 1.30528,1.375833 1.76389,2.822222 1.83445,2.610556 1.94028,-5.961945 0.0706,-4.797778 -0.0353,-7.090834 -0.28222,-7.161389 -0.21167,-0.07056 -0.45861,0.105833 -0.59973,0.423333 z"
       id="path2042" />
    <path
       style="stroke-width:0.03527778"
       inkscape:connector-curvature="0"
       d="m 165.52322,21.036951 c -0.45861,1.093611 -0.84667,2.187222 -0.84667,2.469444 0,0.352778 -0.35278,0.529167 -0.9525,0.529167 -1.86972,0 -2.54,0.423333 -3.28083,1.905 -0.88195,1.834445 -0.88195,2.151945 0,3.033889 0.91722,0.917223 2.11666,0.881945 3.31611,-0.03528 0.88194,-0.705556 1.02305,-0.705556 2.08139,-0.211667 1.48166,0.740833 1.94028,0.211667 0.81139,-0.917222 -0.9525,-0.9525 -0.9525,-0.9525 0.10583,-4.656668 0.88194,-2.963333 0.9525,-4.056944 0.17639,-4.056944 -0.3175,0 -0.88195,0.776111 -1.41111,1.940278 z m -1.19945,4.938889 c 0,1.093611 -1.55222,2.751667 -2.39889,2.575278 -0.38805,-0.07056 -0.59972,-0.458611 -0.59972,-1.164167 0,-0.846667 0.24695,-1.164167 1.23472,-1.658056 1.62278,-0.811389 1.76389,-0.811389 1.76389,0.246945 z"
       id="path2044" />
    <path
       style="stroke-width:0.03527778"
       inkscape:connector-curvature="0"
       d="m 42.756552,21.777784 c 0.14111,1.340556 0.38805,3.986389 0.56444,5.856112 0.14111,1.869722 0.38806,3.598333 0.52917,3.774722 0.49389,0.846667 0.88194,0.3175 0.88194,-1.199444 0,-3.316112 2.04611,-5.080001 2.78695,-2.398889 0.21166,0.740833 0.38805,1.5875 0.38805,1.905 0,0.599722 0.9525,1.5875 1.23473,1.305278 0.28222,-0.246945 -0.81139,-4.868334 -1.23473,-5.432779 -0.59972,-0.670278 -2.08139,-0.635 -2.89277,0.07056 -0.77612,0.740834 -0.81139,0.599723 -1.23473,-3.175 -0.17639,-1.905 -0.45861,-2.8575 -0.77611,-2.963333 -0.42333,-0.141111 -0.45861,0.246944 -0.24694,2.257777 z"
       id="path2046" />
    <path
       style="stroke-width:0.03527778"
       inkscape:connector-curvature="0"
       d="m 101.07072,20.754729 c -0.14111,0.105833 -0.24695,0.529166 -0.24695,0.881944 0,0.776111 0.91723,0.846667 1.19945,0.07055 0.35278,-0.881944 -0.35278,-1.5875 -0.9525,-0.952499 z"
       id="path2048" />
    <path
       style="stroke-width:0.03527778"
       inkscape:connector-curvature="0"
       d="m 126.57655,21.036951 c 0,0.282222 0.24694,0.529166 0.52917,0.529166 0.28222,0 0.52916,-0.246944 0.52916,-0.529166 0,-0.282222 -0.24694,-0.529167 -0.52916,-0.529167 -0.28223,0 -0.52917,0.246945 -0.52917,0.529167 z"
       id="path2050" />
    <path
       style="stroke-width:0.03527778"
       inkscape:connector-curvature="0"
       d="m 148.44877,21.84834 c 0,1.799166 -1.19944,5.291667 -2.18722,6.35 -0.74083,0.740834 -0.81139,0.776111 -1.23472,0.211667 -0.3175,-0.423333 -0.38806,-1.375833 -0.21167,-3.139723 0.14111,-1.834444 0.0706,-2.610555 -0.24694,-2.822222 -0.74084,-0.458611 -1.05834,0.564444 -1.05834,3.598333 0,2.469445 0.10584,3.03389 0.70556,3.633612 0.38805,0.388056 0.91722,0.705556 1.16417,0.705556 1.44638,0 3.81,-4.445001 4.30388,-8.043334 0.21167,-1.693334 0.17639,-1.834445 -0.49388,-1.834445 -0.635,0 -0.74084,0.211667 -0.74084,1.340556 z"
       id="path2052" />
    <path
       style="stroke-width:0.03527778"
       inkscape:connector-curvature="0"
       d="m 152.08238,22.836117 c -1.55222,1.234723 -1.62277,2.681112 -0.10583,3.316112 0.59972,0.246944 1.05833,0.635 1.05833,0.881945 0,0.599722 -1.16416,1.5875 -1.86972,1.5875 -0.3175,0 -0.59972,0.246944 -0.59972,0.529166 0,0.9525 1.72861,0.599723 2.92806,-0.564444 0.635,-0.635 1.16416,-0.9525 1.23472,-0.705556 0.17639,0.564445 1.97555,1.446389 2.89278,1.446389 0.91722,0 0.74083,-0.811389 -0.21167,-1.023055 -1.86972,-0.352778 -2.11667,-1.799167 -0.28222,-1.799167 1.30527,0 2.25777,-0.635 2.25777,-1.516945 0,-0.705556 -1.16416,-1.658056 -2.01083,-1.658056 -0.74083,0 -2.57528,1.834445 -2.57528,2.504723 0,0.211666 -0.35277,0.105833 -0.77611,-0.176389 -0.42333,-0.3175 -1.09361,-0.564445 -1.44639,-0.564445 -0.52916,0 -0.56444,-0.105833 -0.24694,-0.705555 0.21167,-0.423334 0.77611,-0.917223 1.27,-1.128889 0.45861,-0.211667 0.81139,-0.564445 0.74083,-0.776111 -0.24694,-0.705556 -1.12889,-0.564445 -2.25778,0.352777 z m 5.89139,2.046112 c 0,0.388055 -0.67027,0.529166 -0.88194,0.211666 -0.10583,-0.176389 0.0353,-0.352777 0.3175,-0.352777 0.3175,0 0.56444,0.07056 0.56444,0.141111 z"
       id="path2054" />
    <path
       style="stroke-width:0.03527778"
       inkscape:connector-curvature="0"
       d="m 129.75155,23.75334 c -0.9525,1.023055 -0.88195,2.116667 0.21167,3.210278 l 0.88194,0.917222 -0.88194,0.564445 c -1.16417,0.776111 -1.16417,1.234722 -0.0353,1.234722 0.91722,0 2.29305,-1.234722 2.29305,-2.046111 0,-0.282222 -0.38805,-0.811389 -0.88194,-1.199445 -0.98778,-0.776111 -1.12889,-1.622778 -0.35278,-1.905 0.67028,-0.282222 0.70556,-1.552222 0,-1.552222 -0.28222,0 -0.81139,0.352777 -1.23472,0.776111 z"
       id="path2056" />
    <path
       style="stroke-width:0.03527778"
       inkscape:connector-curvature="0"
       d="m 83.678772,24.000284 c -2.11666,0.9525 -2.64583,3.563056 -1.02305,5.185834 0.84666,0.846667 0.91722,0.846667 1.94027,0.3175 1.72862,-0.881944 2.61056,-3.316111 1.97556,-5.3975 -0.3175,-0.952501 -0.98778,-0.952501 -2.89278,-0.105834 z m 1.97556,1.940278 c 0,1.199445 -1.41111,2.786945 -2.2225,2.504723 -0.70556,-0.282222 -0.77611,-1.164167 -0.17639,-2.469445 0.28222,-0.635 0.67028,-0.881945 1.41111,-0.881945 0.81139,0 0.98778,0.141111 0.98778,0.846667 z"
       id="path2058" />
    <path
       style="stroke-width:0.03527778"
       inkscape:connector-curvature="0"
       d="m 126.47072,23.541673 c -0.38806,0.388056 -0.28223,5.432778 0.0705,5.432778 0.56445,0 0.67028,-0.423333 0.77611,-2.963333 0.14111,-2.293056 -0.17639,-3.139723 -0.84666,-2.469445 z"
       id="path2060" />
    <path
       style="stroke-width:0.03527778"
       inkscape:connector-curvature="0"
       d="m 101.38822,24.247229 c -0.35278,0.881944 -0.24695,5.08 0.10583,5.08 0.52917,0 0.635,-0.352778 0.91722,-3.104445 0.21167,-2.116666 0.17639,-2.54 -0.28222,-2.54 -0.28222,0 -0.635,0.246945 -0.74083,0.564445 z"
       id="path2062" />
    <path
       style="stroke-width:0.03527778"
       inkscape:connector-curvature="0"
       d="m 103.85766,24.529451 c -0.10583,0.388055 -0.21166,1.658056 -0.21166,2.751667 0,1.516945 0.14111,2.046111 0.49388,2.046111 0.59973,0 0.77612,-0.458611 1.09362,-2.610556 0.14111,-0.881944 0.38805,-1.622778 0.56444,-1.622778 0.52917,0 1.02306,1.340556 1.02306,2.786945 0,1.5875 0.56444,1.940278 0.91722,0.564445 0.21166,-0.811389 0.14111,-1.658056 -0.28222,-3.35139 -0.24695,-1.093611 -0.67028,-1.375833 -2.01084,-1.340555 -1.09361,0 -1.41111,0.176389 -1.5875,0.776111 z"
       id="path2064" />
    <path
       style="stroke-width:0.03527778"
       inkscape:connector-curvature="0"
       d="m 109.43155,24.917506 c -0.3175,0.493889 -0.67028,1.587501 -0.74083,2.39889 -0.21167,1.834444 0.45861,2.716389 2.04611,2.716389 1.55222,0 1.23472,0.564444 -1.05833,1.763889 -2.61056,1.411111 -3.24556,2.610556 -2.39889,4.445 0.3175,0.670278 0.84666,1.199445 1.16416,1.199445 0.88195,0 2.71639,-2.151945 3.81,-4.445001 0.56445,-1.164166 1.23473,-2.2225 1.51695,-2.363611 0.42333,-0.282222 0.42333,-0.388055 -0.10584,-0.740833 -0.52916,-0.388056 -0.52916,-0.635 -0.14111,-2.2225 0.24695,-0.952501 0.35278,-2.187223 0.21167,-2.681112 -0.21167,-0.881944 -0.38806,-0.9525 -1.97556,-0.9525 -1.48166,0 -1.83444,0.141111 -2.32833,0.881944 z m 3.03389,1.023056 c 0,0.9525 -0.77611,2.645834 -1.30528,2.822223 -0.635,0.246944 -1.51694,-0.352778 -1.51694,-1.058334 0,-1.234722 0.84666,-2.257778 1.83444,-2.257778 0.59972,0 0.98778,0.176389 0.98778,0.493889 z m -2.15194,8.325556 c -1.09362,1.799167 -1.83445,2.187223 -2.2225,1.199445 -0.24695,-0.670278 0.49388,-1.799167 1.76388,-2.645833 1.48167,-0.952501 1.62278,-0.458612 0.45862,1.446388 z"
       id="path2066" />
    <path
       style="stroke-width:0.03527778"
       inkscape:connector-curvature="0"
       d="m 50.411832,25.834729 c -1.27,1.375833 -0.77612,3.81 0.91722,4.656667 1.48166,0.705556 2.89278,0.211667 2.92805,-1.058333 0,-0.282223 -0.24694,-0.282223 -1.05833,0 -0.81139,0.3175 -1.16417,0.282222 -1.48167,-0.07056 -0.38805,-0.352778 -0.3175,-0.529167 0.24695,-0.917222 1.41111,-0.987778 1.62278,-1.305278 1.51694,-2.222501 -0.14111,-1.305274 -2.01083,-1.51694 -3.06916,-0.388051 z m 1.72861,0.846666 c 0,0.282223 -0.24695,0.529167 -0.52917,0.529167 -0.3175,0 -0.42333,-0.211666 -0.3175,-0.529167 0.14111,-0.282222 0.35278,-0.529166 0.52917,-0.529166 0.17639,0 0.3175,0.246944 0.3175,0.529166 z"
       id="path2068" />
    <path
       style="stroke-width:0.03527778"
       inkscape:connector-curvature="0"
       d="m 55.033212,28.021951 c 0.14112,2.928056 0.81139,3.598334 1.16417,1.128889 0.14111,-0.881944 0.38806,-1.658055 0.52917,-1.763889 0.24694,-0.176389 0.77611,0.881945 1.23472,2.540001 0.10583,0.458611 0.45861,0.811388 0.74083,0.811388 0.67028,0 0.42334,-1.5875 -0.59972,-3.774722 -0.635,-1.305278 -0.84667,-1.446389 -1.94028,-1.446389 h -1.23472 z"
       id="path2070" />
    <path
       style="stroke-width:0.03527778"
       inkscape:connector-curvature="0"
       d="m 171.37933,28.621674 c 0,0.458611 0.17639,0.705555 0.45861,0.599722 0.21167,-0.07056 0.42333,-0.352778 0.42333,-0.599722 0,-0.246945 -0.21166,-0.529167 -0.42333,-0.635 -0.28222,-0.07056 -0.45861,0.176389 -0.45861,0.635 z"
       id="path2072" />
    <path
       style="stroke-width:0.03527778"
       inkscape:connector-curvature="0"
       d="m 141.92238,33.807507 c -14.18166,0.564445 -23.24805,1.164167 -23.60083,1.552223 -0.42333,0.458611 5.3975,0.3175 15.83972,-0.388056 2.92806,-0.211667 11.21834,-0.458611 18.415,-0.564444 7.23195,-0.105834 13.15861,-0.282223 13.15861,-0.423334 0,-0.246944 -18.59139,-0.388055 -23.8125,-0.176389 z"
       id="path2074" />
    <path
       style="stroke-width:0.03527778"
       inkscape:connector-curvature="0"
       d="m 82.832112,35.571396 c -8.60778,0.458611 -31.85584,2.786945 -38.45279,3.845278 -5.57388,0.917222 -9.525,2.010834 -9.525,2.610556 0,0.529166 1.23473,0.564444 2.25778,0.03528 4.1275,-2.010834 36.12445,-5.573889 52.77556,-5.856112 3.98639,-0.07055 7.3025,-0.246944 7.40833,-0.423333 0.17639,-0.282222 -10.05416,-0.423333 -14.46388,-0.211667 z"
       id="path2076" />
    <path
       style="stroke-width:0.03527778"
       inkscape:connector-curvature="0"
       d="m 133.63211,70.496393 c -1.83445,0.70556 -3.24556,2.57528 -1.94028,2.57528 0.28222,0 0.52916,-0.14111 0.52916,-0.28222 0,-0.42333 2.36362,-1.48167 3.31612,-1.48167 0.45861,0 1.09361,0.3175 1.44638,0.70556 0.74084,0.81139 1.23473,0.91722 1.23473,0.21167 0,-1.34056 -2.82223,-2.36362 -4.58611,-1.72862 z"
       id="path2108" />
    <path
       style="stroke-width:0.03527778"
       inkscape:connector-curvature="0"
       d="m 114.7585,70.849173 c -1.94028,0.35278 -2.43417,0.56445 -3.21028,1.41111 -1.44639,1.55223 -0.74084,2.2225 0.81139,0.74084 1.05833,-0.98778 4.30389,-1.34056 5.00944,-0.49389 0.67028,0.81139 1.16417,0.70555 1.02305,-0.21167 -0.0705,-0.56444 -0.49388,-0.88194 -1.51694,-1.16417 -0.77611,-0.21166 -1.72861,-0.35277 -2.11666,-0.28222 z"
       id="path2110" />
    <path
       style="stroke-width:0.03527778"
       inkscape:connector-curvature="0"
       d="m 123.93072,71.025563 c -1.19945,0.67028 -1.65806,1.69333 -0.74084,1.69333 0.24695,0 0.67028,-0.24694 0.91722,-0.52916 0.59973,-0.74084 1.83445,-0.67028 2.75167,0.17639 0.91722,0.88194 1.12889,0.88194 1.12889,0.0353 0,-1.44639 -2.46944,-2.25778 -4.05694,-1.37584 z"
       id="path2112" />
    <path
       style="stroke-width:0.03527778"
       inkscape:connector-curvature="0"
       d="m 141.67544,71.166673 c -0.88195,0.45861 -2.01083,1.905 -1.51695,1.905 0.10584,0 0.81139,-0.3175 1.5875,-0.70555 0.77612,-0.38806 1.76389,-0.70556 2.25778,-0.70556 0.52917,0 1.05834,0.28222 1.27,0.70556 0.42334,0.77611 1.41111,0.9525 1.41111,0.24694 0,-0.28222 -0.35277,-0.81139 -0.81139,-1.23472 -0.9525,-0.91722 -2.78694,-0.98778 -4.19805,-0.21167 z"
       id="path2114" />
    <path
       style="stroke-width:0.03527778"
       inkscape:connector-curvature="0"
       d="m 103.92822,72.225013 c -1.19945,0.635 -1.34056,1.37583 -0.17639,1.02305 1.76389,-0.56444 3.28083,-0.59972 3.73944,-0.0353 0.49389,0.59972 1.44639,0.77611 1.44639,0.28222 0,-0.17639 -0.35278,-0.635 -0.81139,-1.05833 -0.9525,-0.91722 -2.78694,-0.98778 -4.19805,-0.21167 z"
       id="path2116" />
    <path
       style="stroke-width:0.03527778"
       inkscape:connector-curvature="0"
       d="m 94.897112,72.930563 c -0.42334,0.28222 -0.77612,0.77611 -0.77612,1.05833 0,0.635 0.35278,0.59973 1.19945,-0.0353 1.02305,-0.77611 2.2225,-0.67027 2.71639,0.24695 0.35278,0.67028 0.42333,0.67028 0.74083,0.17639 0.17639,-0.38806 0.17639,-0.84667 -0.0706,-1.30528 -0.45861,-0.88195 -2.64583,-0.9525 -3.81,-0.14111 z"
       id="path2118" />
    <path
       style="stroke-width:0.03527778"
       inkscape:connector-curvature="0"
       d="m 77.258222,73.671393 c -0.81139,0.52917 -1.48167,1.16417 -1.48167,1.41112 0,0.67027 0.42333,0.56444 1.76389,-0.42334 1.34055,-0.98778 2.11666,-1.12889 2.11666,-0.38805 0,0.24694 0.24695,0.67027 0.52917,0.91722 0.74084,0.59972 1.12889,-0.45861 0.59972,-1.62278 -0.52916,-1.12889 -1.65805,-1.09361 -3.52777,0.10583 z"
       id="path2120" />
    <path
       style="stroke-width:0.03527778"
       inkscape:connector-curvature="0"
       d="m 85.795442,73.600843 c -1.19945,1.19944 -0.84667,1.51694 0.635,0.59972 l 1.16417,-0.74083 0.9525,0.91722 c 1.16416,1.12889 1.72861,0.81139 0.9525,-0.52917 -0.74084,-1.37583 -2.46945,-1.48166 -3.70417,-0.24694 z"
       id="path2122" />
    <path
       style="stroke-width:0.03527778"
       inkscape:connector-curvature="0"
       d="m 119.16822,74.341673 c -17.95639,0.98778 -23.459728,1.34056 -31.573608,1.905 -5.22112,0.38806 -11.74751,0.77611 -14.46389,0.88195 -5.60917,0.24694 -6.06778,0.35277 -5.53862,0.98777 0.42334,0.49389 2.36362,0.42334 18.59139,-0.81138 20.743338,-1.51695 27.622508,-1.86973 39.687498,-1.83445 20.74334,0 29.49223,0.45861 30.65639,1.65806 0.49389,0.45861 0.56445,1.5875 0.56445,7.86694 -0.0353,4.02167 -0.28222,11.18306 -0.635,15.945557 -0.3175,4.7625 -0.67028,13.08805 -0.74083,18.52083 -0.28223,15.27528 -1.23473,28.46917 -2.32834,32.34973 -0.38805,1.30527 -0.42333,1.34055 -2.04611,1.34055 -0.91722,0 -2.61056,-0.24694 -3.77472,-0.49389 -3.38667,-0.81139 -14.07584,-2.25777 -23.63611,-3.21027 -9.34861,-0.91723 -14.74611,-1.27 -33.513888,-2.11667 -6.38528,-0.28222 -13.61723,-0.67028 -16.05139,-0.88195 -2.43417,-0.17638 -5.08,-0.35277 -5.89139,-0.35277 -1.5875,0 -2.08139,0.56444 -0.70556,0.84666 1.44639,0.35278 15.31056,1.12889 27.58723,1.62278 22.295548,0.88195 37.464998,2.39889 53.445828,5.32695 2.92806,0.52916 4.86833,0.38805 5.25639,-0.35278 1.37583,-2.57528 2.75167,-21.34306 2.89278,-39.37 0.0353,-4.26862 0.28222,-10.16 0.52916,-13.05278 0.59973,-7.126107 1.02306,-20.073057 0.70556,-22.189727 -0.17639,-1.19944 -0.56444,-2.04611 -1.23472,-2.68111 -1.41111,-1.41111 -3.38667,-1.55222 -25.43528,-1.86972 -5.53861,-0.10583 -11.07722,-0.10583 -12.34722,-0.0353 z"
       id="path2126" />
    <path
       style="stroke-width:0.03527778"
       inkscape:connector-curvature="0"
       d="m 66.110442,78.222233 c -0.17639,0.635 -0.38806,3.81 -1.30528,20.03778 -0.59972,10.759717 0,38.981937 0.9525,45.719997 0.52917,3.56306 0.67028,-0.3175 0.28222,-8.04333 -1.05833,-20.70806 -0.98778,-27.44612 0.59972,-51.505557 0.28223,-4.16278 0.28223,-6.24417 0.0353,-6.49111 -0.24694,-0.24695 -0.42333,-0.14112 -0.56444,0.28222 z"
       id="path2132" />
    <path
       style="stroke-width:0.03527778"
       inkscape:connector-curvature="0"
       d="m 61.912382,79.809733 c -0.3175,0.17639 -0.84667,0.84666 -1.16417,1.41111 -0.49388,0.98778 -0.49388,1.16417 0.0353,1.94028 0.77611,1.19944 1.23472,1.05833 1.12889,-0.45861 -0.0705,-1.09362 0.10583,-1.41112 1.05834,-2.04612 1.51694,-1.05833 0.59972,-1.79916 -1.05834,-0.84666 z"
       id="path2140" />
    <path
       style="stroke-width:0.03527778"
       inkscape:connector-curvature="0"
       d="m 162.3835,80.832783 c -0.14112,0.21167 -0.17639,0.42334 -0.14112,0.45861 0.0706,0.0353 0.91723,0.45862 1.86973,0.9525 0.98777,0.49389 1.79916,1.05834 1.905,1.30528 0.0705,0.21167 -0.52917,0.84667 -1.30528,1.37584 -1.69333,1.09361 -2.01083,2.11666 -0.52917,1.55222 0.52917,-0.21167 1.41111,-0.70556 1.94028,-1.09361 1.79917,-1.27 1.09361,-3.91584 -1.19944,-4.37445 -0.59973,-0.14111 -1.37584,-0.3175 -1.72862,-0.38805 -0.3175,-0.10584 -0.67027,0 -0.81138,0.21166 z"
       id="path2146" />
    <path
       style="stroke-width:0.03527778"
       inkscape:connector-curvature="0"
       d="m 81.420992,81.573623 c -2.2225,0.17639 -4.16277,0.45861 -4.30389,0.59972 -0.67027,0.67028 -0.49388,16.86278 0.17639,17.74472 0.35278,0.458607 2.15195,0.670277 10.65389,1.128887 5.60917,0.3175 10.23056,0.52917 10.26584,0.49389 0.28222,-0.28222 0.84666,-9.630827 0.84666,-13.758327 0,-6.70278 0.49389,-6.27945 -7.47889,-6.42056 -3.35138,-0.0706 -7.9375,0.0353 -10.16,0.21167 z m 15.98084,1.55222 c 0.45861,0.42333 0.52917,1.55222 0.35278,6.94972 -0.21167,7.76111 -0.49389,10.371667 -1.09362,10.230557 -0.70555,-0.14111 -14.85194,-0.917217 -16.86277,-0.952497 h -1.79917 l 0.0353,-8.11389 0.0353,-8.11389 2.11667,-0.21167 c 1.16417,-0.10583 5.3975,-0.21166 9.41917,-0.24694 6.0325,-0.0705 7.37305,0.0353 7.79639,0.45861 z"
       id="path2148" />
    <path
       style="stroke-width:0.03527778"
       inkscape:connector-curvature="0"
       d="m 92.110162,83.866673 c -1.30528,0.74084 -1.97555,1.55223 -1.34055,1.55223 0.38805,0 2.99861,-1.86973 2.99861,-2.15195 0,-0.42333 0.0353,-0.42333 -1.65806,0.59972 z"
       id="path2150" />
    <path
       style="stroke-width:0.03527778"
       inkscape:connector-curvature="0"
       d="m 88.123772,83.584453 c 0,0.17639 -0.56444,0.56445 -1.23472,0.88195 -0.67028,0.3175 -1.23472,0.74083 -1.23472,0.9525 0,0.59972 0.77611,0.38805 2.01083,-0.56445 1.12889,-0.88194 1.51695,-1.55222 0.81139,-1.55222 -0.17639,0 -0.35278,0.14111 -0.35278,0.28222 z"
       id="path2152" />
    <path
       style="stroke-width:0.03527778"
       inkscape:connector-curvature="0"
       d="m 80.785992,85.489453 c -1.09361,1.83445 -1.23472,2.68111 -0.635,3.63361 0.59973,0.91722 1.5875,1.12889 2.2225,0.49389 0.28223,-0.28222 0.59973,-0.28222 1.12889,0 0.52917,0.3175 0.9525,0.3175 1.44639,0.0353 0.38806,-0.21167 0.88195,-0.28222 1.05834,-0.17639 0.21166,0.10583 0.49388,-0.17639 0.70555,-0.67028 0.35278,-0.91722 1.12889,-1.27 1.02306,-0.49389 -0.17639,1.37584 0.74083,2.15195 2.08139,1.79917 1.12888,-0.28222 0.98777,-1.16417 -0.17639,-1.19944 h -0.98778 l 0.81139,-0.56445 c 1.37583,-0.9525 0.98778,-1.48167 -1.05834,-1.44639 -1.02305,0 -2.08138,0.17639 -2.32833,0.38806 -0.3175,0.24694 -0.56444,0.17639 -0.88194,-0.28222 -0.70556,-0.91723 -1.79917,-0.52917 -2.18723,0.81138 -0.24694,0.84667 -0.52916,1.12889 -1.12888,1.12889 -0.45862,0 -0.91723,-0.24694 -1.02306,-0.52916 -0.28222,-0.70556 0.49389,-2.54 1.12889,-2.78695 0.28222,-0.10583 0.49389,-0.42333 0.49389,-0.74083 0,-0.91722 -0.98778,-0.56445 -1.69334,0.59972 z m 3.66889,2.96333 c -0.14111,0.3175 -0.3175,0.52917 -0.38805,0.42334 -0.10584,-0.10584 -0.10584,-0.45861 0.0353,-0.77611 0.14111,-0.3175 0.3175,-0.52917 0.38805,-0.42334 0.10583,0.10584 0.10583,0.45861 -0.0353,0.77611 z"
       id="path2154" />
    <path
       style="stroke-width:0.03527778"
       inkscape:connector-curvature="0"
       d="m 92.921552,85.313063 c -0.10583,0.10584 -0.21167,1.23472 -0.21167,2.46945 0,1.72861 0.10584,2.2225 0.52917,2.2225 0.42333,0 0.52917,-0.49389 0.52917,-2.25778 0,-2.11667 -0.28223,-2.96333 -0.84667,-2.43417 z"
       id="path2156" />
    <path
       style="stroke-width:0.03527778"
       inkscape:connector-curvature="0"
       d="m 95.849612,88.100013 c -0.42334,0.49389 -0.38806,0.56444 0.17638,0.45861 0.38806,-0.0705 0.74084,-0.35278 0.84667,-0.59972 0.17639,-0.59973 -0.45861,-0.52917 -1.02305,0.14111 z"
       id="path2158" />
    <path
       style="stroke-width:0.03527778"
       inkscape:connector-curvature="0"
       d="m 87.312382,93.038903 c -2.46944,1.48166 -4.48027,2.92805 -4.48027,3.175 0,0.35277 0.67027,0.10583 2.04611,-0.81139 1.09361,-0.70556 3.24555,-2.01084 4.7625,-2.8575 2.39889,-1.37584 3.31611,-2.18723 2.43416,-2.18723 -0.14111,0 -2.29305,1.19945 -4.7625,2.68112 z"
       id="path2160" />
    <path
       style="stroke-width:0.03527778"
       inkscape:connector-curvature="0"
       d="m 82.585162,92.227513 c -2.11667,1.30527 -2.78694,1.905 -2.46944,2.2225 0.10583,0.10583 0.74083,-0.17639 1.37583,-0.67028 0.635,-0.45861 1.69333,-1.12889 2.32833,-1.44639 0.59973,-0.3175 1.12889,-0.74083 1.12889,-0.91722 0,-0.52917 -0.35278,-0.38806 -2.36361,0.81139 z"
       id="path2162" />
    <path
       style="stroke-width:0.03527778"
       inkscape:connector-curvature="0"
       d="m 93.697662,92.580283 c -5.11528,3.4925 -6.24417,4.30389 -6.27944,4.55084 0,0.56444 1.02305,0.24694 2.01083,-0.52917 0.52917,-0.45861 2.29306,-1.72861 3.91583,-2.8575 1.5875,-1.09361 2.89278,-2.18722 2.89278,-2.36361 0,-0.49389 -0.14111,-0.42333 -2.54,1.19944 z"
       id="path2164" />
    <path
       style="stroke-width:0.03527778"
       inkscape:connector-curvature="0"
       d="m 94.438492,95.896403 c -1.44638,1.16416 -1.72861,1.51694 -1.72861,2.2225 0,0.28222 0.70556,-0.17639 1.65806,-1.12889 1.86972,-1.86973 1.905,-2.61056 0.0705,-1.09361 z"
       id="path2166" />
    <path
       style="stroke-width:0.03527778"
       inkscape:connector-curvature="0"
       d="m 111.68933,81.644173 c -0.49389,0.38806 -0.59972,1.5875 -0.70556,9.77195 l -0.10583,9.313327 1.27,0.28222 c 0.70556,0.14112 4.58611,0.28223 8.64305,0.35278 l 7.37306,0.10584 0.42333,-2.116667 c 0.56445,-2.96334 0.70556,-17.00389 0.14111,-17.56834 -0.635,-0.635 -16.22777,-0.74083 -17.03916,-0.14111 z m 14.46389,0.81139 1.83444,0.24695 v 1.51694 c 0,1.51695 0,1.51695 -1.05833,1.30528 -0.81139,-0.14111 -1.05834,-0.0706 -1.05834,0.38805 0,0.3175 0.24695,0.56445 0.52917,0.56445 0.74083,0 0.67028,0.56444 -0.21167,1.72861 -0.84666,1.16417 -0.77611,2.25778 0.17639,2.43417 0.52917,0.10583 0.635,-0.0353 0.49389,-0.56445 -0.21167,-0.74083 0.28222,-1.83444 0.77611,-1.83444 0.49389,0 0.38806,7.54944 -0.10583,10.05416 l -0.45861,2.116667 h -3.84528 c -2.15194,-0.0353 -5.60916,-0.17639 -7.72583,-0.3175 l -3.84528,-0.282217 0.28222,-7.12611 c 0.17639,-3.88056 0.35278,-7.58472 0.38806,-8.14917 0.0353,-0.59972 0.10583,-1.23472 0.10583,-1.48167 0.0353,-0.3175 1.12889,-0.45861 3.66889,-0.56444 1.97555,-0.0353 4.62139,-0.14111 5.89139,-0.17639 1.27,-0.0353 3.13972,0.0353 4.16278,0.14111 z"
       id="path2168" />
    <path
       style="stroke-width:0.03527778"
       inkscape:connector-curvature="0"
       d="m 114.22933,85.842233 c -1.48167,2.43417 -0.81139,3.06917 3.45722,3.21028 3.03389,0.10583 3.21028,0.0706 3.56305,-0.70556 0.49389,-1.05833 1.02306,-1.02305 1.30528,0.0706 0.3175,1.30528 2.25778,2.2225 2.25778,1.05833 0,-0.28222 -0.17639,-0.52916 -0.42333,-0.52916 -0.21167,0 -0.14111,-0.28223 0.24694,-0.70556 0.35278,-0.38805 0.52917,-0.91722 0.38806,-1.27 -0.17639,-0.49389 -0.635,-0.56444 -2.89278,-0.42333 -1.44639,0.10583 -2.71639,0.0353 -2.82222,-0.10584 -0.38806,-0.67027 -1.905,-0.3175 -2.46944,0.56445 -0.67028,1.05833 -1.90501,1.19944 -1.90501,0.21167 0,-0.35278 0.24695,-0.84667 0.52917,-1.09362 0.28222,-0.24694 0.52917,-0.67027 0.52917,-0.91722 0,-0.91722 -1.05834,-0.49389 -1.76389,0.635 z m 4.58611,1.86972 c 0,0.28222 -0.14111,0.52917 -0.3175,0.52917 -0.45861,0 -0.77611,-0.56445 -0.49389,-0.84667 0.38805,-0.38805 0.81139,-0.21167 0.81139,0.3175 z"
       id="path2170" />
    <path
       style="stroke-width:0.03527778"
       inkscape:connector-curvature="0"
       d="m 60.854052,87.500283 c -0.70556,1.19945 -0.77611,3.24556 -0.17639,3.84528 0.24694,0.24695 0.74083,0.42334 1.12889,0.42334 0.635,0 0.635,-0.0353 0.10583,-0.635 -0.77611,-0.84667 -0.74083,-1.76389 0.10583,-3.06917 0.88195,-1.30528 0.88195,-1.5875 0.0706,-1.5875 -0.35277,0 -0.88194,0.45861 -1.23472,1.02305 z"
       id="path2210" />
    <path
       style="stroke-width:0.03527778"
       inkscape:connector-curvature="0"
       d="m 54.609882,87.535563 c -0.35278,0.635 -0.74083,0.70556 -4.51555,0.70556 -5.75028,0.0353 -17.67417,0.84666 -29.49223,2.04611 -1.34055,0.14111 -2.50472,0.42333 -2.57528,0.635 -0.10583,0.28222 0.35278,0.35278 1.37584,0.28222 15.45166,-1.48167 28.04583,-2.32833 31.96167,-2.18722 2.50472,0.10583 2.71638,0.17639 2.82222,0.88194 0.14111,1.02306 0.59972,1.02306 2.32833,0 1.76389,-0.98777 2.25778,-1.76389 1.65806,-2.50472 -0.70556,-0.84667 -3.10445,-0.74083 -3.56306,0.14111 z m 2.57528,0.24695 c 0.3175,0.28222 -0.77611,1.51694 -1.34056,1.51694 -0.28222,0 -0.35277,-0.35278 -0.24694,-0.88194 0.14111,-0.84667 1.05833,-1.19945 1.5875,-0.635 z"
       id="path2212" />
    <path
       style="stroke-width:0.03527778"
       inkscape:connector-curvature="0"
       d="m 160.796,89.370013 c 0,0.24694 0.52916,0.70555 1.16416,0.98777 1.44639,0.67028 1.5875,1.51695 0.45861,2.50473 -0.81139,0.70555 -1.23472,1.72861 -0.70555,1.72861 0.42333,0 1.76389,-0.84667 2.36361,-1.51695 0.9525,-1.09361 0.74083,-2.2225 -0.56445,-3.21027 -1.27,-0.9525 -2.71638,-1.19945 -2.71638,-0.49389 z"
       id="path2214" />
    <path
       style="stroke-width:0.03527778"
       inkscape:connector-curvature="0"
       d="m 60.642382,94.838063 c -1.55222,1.94028 -1.27,4.33917 0.49389,4.33917 0.9525,0 1.19945,-0.52917 0.35278,-0.84667 -0.74084,-0.28222 -0.67028,-1.72861 0.21166,-2.82222 0.67028,-0.84667 0.67028,-1.62278 -0.0353,-1.62278 -0.17639,0 -0.635,0.42334 -1.02305,0.9525 z"
       id="path2236" />
    <path
       style="stroke-width:0.03527778"
       inkscape:connector-curvature="0"
       d="m 160.09044,98.224733 c 0,0.24694 0.3175,0.635 0.70556,0.88194 0.38805,0.24695 0.70555,0.70556 0.70555,1.093607 0,0.35278 -0.3175,0.91723 -0.70555,1.27001 -0.67028,0.59972 -0.98778,1.94027 -0.45862,1.94027 0.14112,0 0.70556,-0.42333 1.23473,-0.9525 1.19944,-1.16416 1.34055,-2.928047 0.28222,-3.986387 -0.77611,-0.77611 -1.76389,-0.9525 -1.76389,-0.24694 z"
       id="path2246" />
    <path
       style="stroke-width:0.03527778"
       inkscape:connector-curvature="0"
       d="m 60.254332,103.12834 c -1.23473,2.04611 -0.70556,4.40972 0.91722,4.09222 0.77611,-0.14111 1.09361,-0.98777 0.35278,-0.98777 -0.91723,0 -0.98778,-0.635 -0.24695,-2.32834 0.88195,-1.97555 0.88195,-1.905 0.21167,-1.905 -0.28222,0 -0.84667,0.52917 -1.23472,1.12889 z"
       id="path2248" />
    <path
       style="stroke-width:0.03527778"
       inkscape:connector-curvature="0"
       d="m 159.2085,105.88001 c -0.28223,0.49389 0.10583,1.05833 0.74083,1.05833 0.70555,0 0.59972,1.05833 -0.21167,2.29306 -0.84666,1.27 -0.88194,1.5875 -0.21166,1.5875 1.44638,0 2.64583,-3.77473 1.55222,-4.86834 -0.52917,-0.52916 -1.5875,-0.56444 -1.86972,-0.0706 z"
       id="path2250" />
    <path
       style="stroke-width:0.03527778"
       inkscape:connector-curvature="0"
       d="m 77.575722,109.37251 c -0.42334,0.24694 -0.52917,1.37583 -0.56445,5.04472 -0.0353,2.57528 -0.17639,6.84389 -0.3175,9.45445 -0.21167,3.21027 -0.17639,5.08 0.10583,5.715 l 0.38806,0.98777 h 9.66611 c 5.96195,0 9.77195,-0.14111 9.91306,-0.35277 0.10583,-0.17639 0.21166,-2.75167 0.24694,-5.715 0,-2.96334 0.21167,-7.54945 0.45861,-10.16001 0.24695,-2.61055 0.42334,-4.79777 0.38806,-4.83305 -0.28222,-0.3175 -19.86139,-0.45861 -20.28472,-0.14111 z m 18.7325,1.41111 c 0.14111,0.10583 0.10583,1.65805 -0.0706,3.38667 -0.17639,1.76388 -0.35278,4.93889 -0.35278,7.09083 0,2.15194 -0.10583,4.86833 -0.21167,5.99722 l -0.21166,2.08139 h -8.67834 -8.67833 l -0.28222,-1.5875 c -0.14111,-0.88194 -0.10584,-2.8575 0.0706,-4.40972 0.21166,-1.55222 0.35277,-5.08 0.35277,-7.83167 v -5.00944 l 2.75167,-0.10584 c 4.02167,-0.14111 15.02833,0.10584 15.31056,0.38806 z"
       id="path2252" />
    <path
       style="stroke-width:0.03527778"
       inkscape:connector-curvature="0"
       d="m 80.292112,113.18251 c -0.84667,0.98778 -1.05834,2.04611 -0.56445,3.10444 0.35278,0.81139 0.56445,0.91722 1.48167,0.74084 2.32833,-0.45862 3.24555,-0.59973 4.02166,-0.67028 0.45862,-0.0353 0.98778,-0.35278 1.16417,-0.70556 0.49389,-0.84666 0.81139,-0.74083 1.27,0.45861 0.28222,0.77611 0.635,1.05834 1.23472,1.05834 1.16417,0 1.44639,-0.35278 0.74084,-0.88195 -0.49389,-0.38805 -0.52917,-0.52916 -0.14111,-0.98778 0.24694,-0.3175 0.35277,-0.74083 0.21166,-0.91722 -0.24694,-0.42333 -6.87916,-0.38805 -6.87916,0.0353 0,0.38806 -1.34056,1.69334 -1.76389,1.69334 -0.56445,0 -0.42334,-1.62278 0.17639,-2.11667 0.67027,-0.52917 0.70555,-1.41111 0.0705,-1.41111 -0.28223,0 -0.74084,0.28222 -1.02306,0.59972 z"
       id="path2254" />
    <path
       style="stroke-width:0.03527778"
       inkscape:connector-curvature="0"
       d="m 90.945992,113.11195 c 0,0.28222 0.14112,0.52917 0.3175,0.52917 0.17639,0 0.56445,0.45861 0.84667,1.02305 0.45861,0.9525 0.45861,1.09362 -0.21167,1.76389 -0.67027,0.67028 -0.67027,0.74084 -0.10583,0.9525 0.84667,0.3175 1.97556,-0.81139 1.97556,-1.97555 0,-0.52917 -0.3175,-1.37584 -0.74084,-1.905 -0.77611,-0.98778 -2.08139,-1.23472 -2.08139,-0.38806 z"
       id="path2256" />
    <path
       style="stroke-width:0.03527778"
       inkscape:connector-curvature="0"
       d="m 60.607102,110.53667 c -1.16416,1.94028 -0.77611,3.81 0.77611,3.81 0.67028,0 0.84667,-0.52916 0.28223,-0.88194 -0.635,-0.38806 -0.35278,-1.94028 0.49389,-2.82222 0.88194,-0.88195 0.84666,-1.23472 -0.21167,-1.23472 -0.35278,0 -0.9525,0.52916 -1.34056,1.12888 z"
       id="path2258" />
    <path
       style="stroke-width:0.03527778"
       inkscape:connector-curvature="0"
       d="m 111.30127,111.38334 c -0.14111,0.9525 -0.3175,4.97417 -0.45861,8.96056 -0.17639,5.64444 -0.10583,7.54944 0.24695,8.64305 l 0.49389,1.41111 7.23194,0.10584 c 3.98639,0.0353 7.58472,0 7.97278,-0.10584 0.74083,-0.17638 0.77611,-0.38805 0.9525,-8.71361 0.14111,-4.72722 0.3175,-9.10166 0.45861,-9.70139 0.17639,-1.02305 0.10583,-1.19944 -0.70556,-1.51694 -0.49389,-0.17639 -4.30389,-0.42333 -8.43139,-0.56445 l -7.54944,-0.24694 z m 11.35945,-0.17639 4.37444,0.0353 -0.24694,2.68111 c -0.10584,1.44639 -0.21167,5.46806 -0.21167,8.92528 v 6.24417 l -6.94972,0.14111 c -3.84528,0.0705 -7.12611,0.0353 -7.26722,-0.10584 -0.42334,-0.3175 -0.49389,-9.59555 -0.10584,-14.35805 l 0.3175,-4.02167 2.89278,0.21167 c 1.55222,0.10583 4.79778,0.24695 7.19667,0.24695 z"
       id="path2260" />
    <path
       style="stroke-width:0.03527778"
       inkscape:connector-curvature="0"
       d="m 124.31877,113.88806 c -0.17639,0.52917 -0.56444,0.635 -2.2225,0.56445 -1.09361,-0.0353 -2.18722,0.0706 -2.43417,0.28222 -0.3175,0.24694 -0.67027,0.24694 -1.16416,0 -1.19944,-0.67028 -1.79917,-0.42333 -2.36361,0.84667 -0.28222,0.70555 -0.67028,1.16416 -0.84667,1.05833 -0.38805,-0.24694 -0.10583,-1.16417 0.635,-2.01083 0.45861,-0.56445 0.45861,-0.635 -0.10583,-0.84667 -0.91722,-0.35278 -2.01083,1.09361 -1.86972,2.46944 0.10583,1.09362 0.14111,1.09362 2.04611,1.02306 2.96333,-0.0706 3.66889,-0.21167 4.16277,-0.91722 0.45862,-0.59972 0.52917,-0.56445 1.19945,0.28222 0.38805,0.49389 1.05833,0.88194 1.55222,0.88194 0.74083,0 0.84667,-0.10583 0.635,-0.88194 -0.14111,-0.52917 -0.0705,-0.88194 0.17639,-0.88194 0.21167,0 0.38805,0.14111 0.38805,0.3175 0,0.17638 0.38806,0.56444 0.88195,0.88194 0.77611,0.52917 0.91722,0.52917 1.09361,0.0353 0.21167,-0.52917 -0.91722,-3.70417 -1.34055,-3.70417 -0.14112,0 -0.3175,0.28222 -0.42334,0.59972 z"
       id="path2262" />
    <path
       style="stroke-width:0.03527778"
       inkscape:connector-curvature="0"
       d="m 159.03211,113.28834 c -0.45861,0.28222 -0.38806,0.49389 0.45861,1.23472 1.16416,1.12889 1.19944,1.5875 0.0705,2.92806 -0.98777,1.16417 -1.12889,1.83444 -0.38805,1.83444 0.88194,0 2.32833,-2.08139 2.32833,-3.31611 0,-1.41111 -1.65805,-3.21028 -2.46944,-2.68111 z"
       id="path2274" />
    <path
       style="stroke-width:0.03527778"
       inkscape:connector-curvature="0"
       d="m 60.430712,117.87445 c -1.05833,2.04611 -0.21166,3.98639 1.69334,3.81 1.37583,-0.14111 1.65805,-0.91722 0.35278,-1.05833 -1.19945,-0.14111 -1.51695,-1.30528 -0.67028,-2.54 0.28222,-0.45861 0.42333,-0.91722 0.3175,-1.05833 -0.49389,-0.49389 -1.16417,-0.14112 -1.69334,0.84666 z"
       id="path2298" />
    <path
       style="stroke-width:0.03527778"
       inkscape:connector-curvature="0"
       d="m 158.891,122.42529 c -0.10584,0.17639 0.17638,0.56444 0.67027,0.88194 1.12889,0.74083 1.12889,1.62278 0,2.68111 -1.05833,0.98778 -1.12889,1.41111 -0.21166,1.41111 1.09361,0 2.54,-1.97555 2.29305,-3.10444 -0.35278,-1.48167 -2.2225,-2.75167 -2.75166,-1.86972 z"
       id="path2302" />
    <path
       style="stroke-width:0.03527778"
       inkscape:connector-curvature="0"
       d="m 61.418492,125.00056 c -0.70555,0.91723 -1.23472,2.71639 -0.98778,3.42195 0.28223,0.88194 1.44639,1.62278 1.76389,1.09361 0.10584,-0.17639 0,-0.635 -0.21166,-0.98778 -0.35278,-0.56444 -0.35278,-0.91722 0.0353,-1.79916 0.24694,-0.59973 0.56444,-1.09362 0.74083,-1.09362 0.17639,0 0.3175,-0.24694 0.3175,-0.52916 0,-0.635 -1.19944,-0.70556 -1.65805,-0.10584 z"
       id="path2304" />
    <path
       style="stroke-width:0.03527778"
       inkscape:connector-curvature="0"
       d="m 159.03211,130.39806 c 0,0.28223 0.14111,0.52917 0.3175,0.52917 0.17639,0 0.49389,0.49389 0.77611,1.09361 0.42333,1.05834 0.38805,1.16417 -0.49389,1.94028 -1.69333,1.44639 -0.84667,2.2225 0.9525,0.81139 1.16417,-0.91722 1.23472,-2.64583 0.17639,-3.98639 -0.77611,-1.02306 -1.72861,-1.23472 -1.72861,-0.38806 z"
       id="path2312" />
    <path
       style="stroke-width:0.03527778"
       inkscape:connector-curvature="0"
       d="m 61.312662,132.69112 c -0.84667,2.04611 -0.35278,3.88056 1.09361,3.88056 0.81139,0 0.84667,-0.28223 0.0706,-1.12889 -0.59972,-0.67028 -0.59972,-0.74084 0.42333,-3.21028 0.17639,-0.45861 0.0706,-0.59972 -0.45861,-0.59972 -0.42333,0 -0.84667,0.38805 -1.12889,1.05833 z"
       id="path2320" />
    <path
       style="stroke-width:0.03527778"
       inkscape:connector-curvature="0"
       d="m 158.67933,138.65307 c 0,0.17638 0.24694,0.49388 0.52917,0.74083 0.74083,0.59972 0.67027,1.905 -0.17639,2.64583 -0.88195,0.81139 -0.88195,1.23472 -0.0353,1.23472 0.38805,0 0.9525,-0.35277 1.23472,-0.77611 0.67028,-0.9525 0.74083,-3.13972 0.14111,-3.73944 -0.49389,-0.49389 -1.69333,-0.56445 -1.69333,-0.10583 z"
       id="path2336" />
    <path
       style="stroke-width:0.03527778"
       inkscape:connector-curvature="0"
       d="m 61.312662,139.74668 c -0.77611,1.83444 0.24694,3.88055 1.97556,3.88055 1.05833,0 1.09361,-0.77611 0.0705,-1.23472 -1.02306,-0.42333 -1.23472,-1.72861 -0.49389,-2.8575 0.56444,-0.81139 0.56444,-0.84667 -0.28222,-0.84667 -0.59973,0 -0.9525,0.28223 -1.27,1.05834 z"
       id="path2342" />
    <path
       style="stroke-width:0.03527778"
       inkscape:connector-curvature="0"
       d="m 157.97377,146.02612 c 0,0.17639 0.24695,0.59972 0.52917,0.98778 0.70556,0.9525 0.635,2.01083 -0.17639,2.54 -0.77611,0.45861 -0.67028,1.12889 0.21167,1.12889 0.77611,0 1.905,-1.30528 1.905,-2.25778 0,-0.98778 -1.23472,-2.68111 -1.97556,-2.68111 -0.28222,0 -0.49389,0.14111 -0.49389,0.28222 z"
       id="path2370" />
    <path
       style="stroke-width:0.03527778"
       inkscape:connector-curvature="0"
       d="m 70.837662,150.15362 c 0,0.84667 1.62278,2.29306 2.61056,2.29306 1.09361,0 2.18722,-0.98778 1.65805,-1.51695 -0.24694,-0.24694 -0.52917,-0.21166 -0.88194,0.0706 -0.56445,0.49389 -1.51695,0.14111 -2.32834,-0.81139 -0.56444,-0.70556 -1.05833,-0.70556 -1.05833,-0.0353 z"
       id="path2382" />
    <path
       style="stroke-width:0.03527778"
       inkscape:connector-curvature="0"
       d="m 79.657102,150.33001 c 0,0.88194 1.19945,2.11667 2.04612,2.11667 0.70555,0 2.18722,-1.37584 2.18722,-2.04611 0,-0.59973 -0.52917,-0.52917 -1.05833,0.10583 -0.635,0.74083 -1.65806,0.67028 -2.11667,-0.17639 -0.21167,-0.38806 -0.52917,-0.70556 -0.70556,-0.70556 -0.21166,0 -0.35278,0.3175 -0.35278,0.70556 z"
       id="path2384" />
    <path
       style="stroke-width:0.03527778"
       inkscape:connector-curvature="0"
       d="m 87.770992,150.5064 c 0,1.34055 0.56445,1.94028 1.76389,1.94028 0.9525,0 2.46945,-1.27 2.46945,-2.04611 0,-0.67028 -0.84667,-0.49389 -1.34056,0.28222 -0.59972,0.9525 -1.12889,0.88194 -2.08139,-0.28222 l -0.77611,-0.9525 z"
       id="path2386" />
    <path
       style="stroke-width:0.03527778"
       inkscape:connector-curvature="0"
       d="m 94.826552,150.61223 c 0,0.91722 1.48167,2.18722 2.57528,2.18722 0.52917,0 1.12889,-0.3175 1.48167,-0.77611 0.635,-0.91722 0.21166,-1.23472 -0.88195,-0.635 -0.67028,0.35278 -0.91722,0.28223 -1.72861,-0.49389 -1.12889,-1.09361 -1.44639,-1.12888 -1.44639,-0.28222 z"
       id="path2390" />
    <path
       style="stroke-width:0.03527778"
       inkscape:connector-curvature="0"
       d="m 104.52794,150.78862 c -0.42333,0.98778 0.74083,2.36361 1.97556,2.36361 1.51694,0 3.45722,-2.01083 2.46944,-2.61055 -0.14111,-0.10584 -0.67028,0.21166 -1.09361,0.67027 -1.05833,1.12889 -1.37583,1.09362 -2.32833,-0.10583 -0.70556,-0.84667 -0.81139,-0.88194 -1.02306,-0.3175 z"
       id="path2392" />
    <path
       style="stroke-width:0.03527778"
       inkscape:connector-curvature="0"
       d="m 112.81822,151.52945 c 0,0.59973 1.97555,2.32834 2.68111,2.32834 0.70556,0 2.25778,-1.5875 2.25778,-2.29306 0,-0.74083 -0.45861,-0.67028 -1.23472,0.17639 -0.35278,0.38806 -0.88195,0.70556 -1.19945,0.70556 -0.3175,0 -0.77611,-0.3175 -1.02306,-0.70556 -0.49388,-0.81139 -1.48166,-0.9525 -1.48166,-0.21167 z"
       id="path2394" />
    <path
       style="stroke-width:0.03527778"
       inkscape:connector-curvature="0"
       d="m 123.04877,152.55251 c 0,1.94028 2.68111,3.13972 4.02167,1.79917 0.81139,-0.81139 0.74083,-0.88195 -0.91722,-0.77611 -1.30528,0.10583 -1.55223,0 -1.97556,-0.88195 -0.56444,-1.16417 -1.12889,-1.23472 -1.12889,-0.14111 z"
       id="path2398" />
    <path
       style="stroke-width:0.03527778"
       inkscape:connector-curvature="0"
       d="m 131.16266,153.43446 c 0,0.38805 0.28222,0.91722 0.635,1.23472 0.84667,0.74083 3.35139,0.77611 3.95111,0.0705 0.49389,-0.56444 0.35278,-0.635 -1.23472,-0.52916 -0.635,0 -1.48167,-0.24695 -2.01083,-0.67028 -1.12889,-0.91722 -1.34056,-0.91722 -1.34056,-0.10583 z"
       id="path2408" />
    <path
       style="stroke-width:0.03527778"
       inkscape:connector-curvature="0"
       d="m 139.98211,154.52807 c 0,1.76389 2.39888,2.78694 4.26861,1.79916 1.16416,-0.635 0.74083,-1.05833 -1.09361,-1.05833 -1.5875,0 -1.76389,-0.10583 -1.97556,-0.88194 -0.3175,-1.23473 -1.19944,-1.12889 -1.19944,0.14111 z"
       id="path2410" />
    <path
       style="stroke-width:0.03527778"
       inkscape:connector-curvature="0"
       d="m 146.86127,155.30418 c -0.14111,0.17639 0.0353,0.67028 0.38806,1.05833 0.49389,0.52917 0.98778,0.67028 2.2225,0.59972 1.86972,-0.14111 2.46944,-0.98777 0.67028,-0.98777 -0.67028,0 -1.51695,-0.24695 -1.905,-0.52917 -0.81139,-0.59972 -1.09362,-0.635 -1.37584,-0.14111 z"
       id="path2416" />
    <g
       id="g11122"
       transform="translate(164.79762,-109.6131)">
      <path
         id="path2500"
         d="m 47.554332,173.08418 c 0,0.56444 0.21166,0.88194 0.52916,0.88194 0.56445,0 0.67028,-0.3175 0.3175,-1.19944 -0.3175,-0.88195 -0.84666,-0.67028 -0.84666,0.3175 z"
         inkscape:connector-curvature="0"
         style="stroke-width:0.03527778" />
      <path
         id="path2502"
         d="m 173.496,172.90779 c 0,0.38805 0.24694,0.81139 0.52916,0.9525 0.74084,0.28222 0.98778,-0.0353 0.70556,-0.91722 -0.28222,-0.9525 -1.23472,-0.9525 -1.23472,-0.0353 z"
         inkscape:connector-curvature="0"
         style="stroke-width:0.03527778" />
      <path
         id="path2524"
         d="m 47.624882,176.8589 c -0.28222,0.28222 -0.28222,0.59972 -0.0353,1.05833 0.49389,0.91723 1.02306,0.77611 1.02306,-0.21166 0,-1.02306 -0.42334,-1.41111 -0.98778,-0.84667 z"
         inkscape:connector-curvature="0"
         style="stroke-width:0.03527778" />
      <path
         id="path2532"
         d="m 174.09572,178.05834 c -0.14111,0.14112 -0.24695,0.70556 -0.24695,1.27 0,0.81139 0.14112,1.02306 0.635,0.91723 0.38806,-0.0706 0.59973,-0.45861 0.59973,-1.12889 0,-1.02306 -0.49389,-1.51695 -0.98778,-1.05834 z"
         inkscape:connector-curvature="0"
         style="stroke-width:0.03527778" />
      <path
         id="path2536"
         d="m 47.907102,181.69196 c 0,0.74083 0.17639,1.09361 0.56445,1.09361 0.38805,0 0.49389,-0.28223 0.42333,-0.9525 -0.14111,-1.37584 -0.98778,-1.48167 -0.98778,-0.14111 z"
         inkscape:connector-curvature="0"
         style="stroke-width:0.03527778" />
      <path
         id="path2538"
         d="m 79.833492,182.78557 c -4.83305,0.14111 -13.86416,0.28222 -20.03778,0.3175 -10.51277,0.0353 -12.94694,0.24694 -12.45305,1.02305 0.14111,0.24695 14.85194,0 35.48945,-0.59972 18.344438,-0.56444 39.087768,-0.17639 64.205548,1.19944 16.33361,0.88195 23.63611,1.37584 25.85861,1.79917 0.9525,0.21167 0.98778,0.14111 0.88195,-0.9525 -0.10583,-1.30528 -0.98778,-1.86972 -0.98778,-0.67028 0,0.635 -0.14111,0.74084 -0.9525,0.56445 -1.905,-0.35278 -5.32694,-0.56445 -14.9225,-0.91722 -5.32694,-0.21167 -12.48833,-0.52917 -15.875,-0.70556 -18.80306,-1.05833 -45.296668,-1.51694 -61.206948,-1.05833 z"
         inkscape:connector-curvature="0"
         style="stroke-width:0.03527778" />
      <path
         id="path2540"
         d="m 48.048212,185.39612 c -0.28222,0.74084 0.38806,2.32834 0.9525,2.32834 0.28223,0 0.3175,-0.38806 0.17639,-1.12889 -0.28222,-1.44639 -0.81139,-2.01084 -1.12889,-1.19945 z"
         inkscape:connector-curvature="0"
         style="stroke-width:0.03527778" />
      <path
         id="path2542"
         d="m 123.04877,186.73668 c -0.0353,0.0353 -0.10583,2.04611 -0.17639,4.40972 -0.10583,3.59833 -0.0353,4.33917 0.38806,4.33917 0.28222,0 0.49389,-0.35278 0.49389,-0.81139 0,-0.42334 0.10583,-1.12889 0.24694,-1.5875 0.21167,-0.81139 0.28222,-0.77611 1.905,0.84666 1.30528,1.30528 1.83445,1.5875 2.15195,1.27 0.3175,-0.3175 0,-0.81138 -1.23473,-2.15194 -0.91722,-0.98778 -1.65805,-1.905 -1.65805,-2.04611 0,-0.14111 0.59972,-0.77611 1.30528,-1.37583 0.9525,-0.81139 1.23472,-1.23473 1.02305,-1.72862 -0.21167,-0.59972 -0.35278,-0.52916 -1.37583,0.45862 -1.51695,1.44638 -1.94028,1.41111 -2.08139,-0.17639 -0.0706,-0.70556 -0.3175,-1.34056 -0.52917,-1.44639 -0.24694,-0.0706 -0.45861,-0.0706 -0.45861,0 z"
         inkscape:connector-curvature="0"
         style="stroke-width:0.03527778" />
      <path
         id="path2544"
         d="m 149.04849,189.62946 c -0.91722,1.37583 -1.41111,3.81 -0.98777,4.86833 0.45861,1.27 1.72861,1.94028 2.04611,1.12889 0.14111,-0.35278 0,-0.70556 -0.35278,-0.91722 -0.74083,-0.38806 -0.77611,-2.01084 -0.0706,-3.70417 0.91723,-2.15195 0.45862,-3.10445 -0.635,-1.37583 z"
         inkscape:connector-curvature="0"
         style="stroke-width:0.03527778" />
      <path
         id="path2546"
         d="m 154.79877,189.80584 c -0.9525,0.9525 -1.02305,1.16417 -0.635,1.79917 0.24695,0.38806 0.635,0.70556 0.88195,0.70556 0.21166,0 0.84666,0.17639 1.37583,0.35277 1.23472,0.49389 0.70556,1.05834 -1.16417,1.37584 -1.79916,0.28222 -1.905,1.30528 -0.10583,1.16416 2.04611,-0.21166 2.99861,-0.81138 2.99861,-1.97555 0,-0.91722 -0.17639,-1.09361 -1.51694,-1.55222 -1.44639,-0.45861 -1.48167,-0.52917 -0.91722,-1.16417 0.3175,-0.35278 0.91722,-0.59972 1.34055,-0.56444 0.45861,0.0353 0.74083,-0.14112 0.74083,-0.45862 0,-1.02305 -1.86972,-0.84666 -2.99861,0.3175 z"
         inkscape:connector-curvature="0"
         style="stroke-width:0.03527778" />
      <path
         id="path2548"
         d="m 172.93155,190.68779 c -0.3175,0.77611 0.24695,2.50472 0.74084,2.29305 0.45861,-0.17638 0.35277,-2.04611 -0.14112,-2.54 -0.24694,-0.24694 -0.42333,-0.17638 -0.59972,0.24695 z"
         inkscape:connector-curvature="0"
         style="stroke-width:0.03527778" />
      <path
         id="path2552"
         d="m 128.90488,191.32279 c -1.12889,1.5875 -0.52916,3.45722 1.05834,3.45722 1.19944,0 1.37583,-0.67028 0.3175,-1.05833 -1.05834,-0.42334 -0.88195,-1.05834 0.3175,-1.05834 0.98777,0 1.76388,-0.84666 1.48166,-1.5875 -0.3175,-0.84666 -2.54,-0.67027 -3.175,0.24695 z"
         inkscape:connector-curvature="0"
         style="stroke-width:0.03527778" />
      <path
         id="path2554"
         d="m 134.33766,191.1464 c -1.48167,0.17639 -1.76389,0.56444 -1.76389,2.32833 0,1.48167 0.77611,1.69334 0.98778,0.28223 0.0706,-0.45862 0.49389,-0.91723 1.05833,-1.12889 0.52917,-0.17639 1.23473,-0.49389 1.5875,-0.67028 0.52917,-0.3175 0.59973,-0.17639 0.59973,1.62278 0,2.32833 0.70555,2.50472 1.19944,0.28222 0.42333,-1.69333 0.52917,-1.83445 0.9525,-1.19945 0.17639,0.28223 0.21167,0.9525 0.10583,1.48167 -0.21166,1.02306 0.45861,1.72861 0.9525,0.9525 0.74084,-1.16417 0,-4.19805 -0.98777,-4.19805 -0.28223,0 -0.84667,0.17638 -1.23473,0.38805 -0.49389,0.28222 -0.81139,0.28222 -1.09361,0 -0.21166,-0.21167 -0.56444,-0.35278 -0.74083,-0.3175 -0.21167,0 -0.9525,0.10583 -1.62278,0.17639 z"
         inkscape:connector-curvature="0"
         style="stroke-width:0.03527778" />
      <path
         id="path2556"
         d="m 142.66322,192.34584 c -1.83445,1.44639 -0.77611,4.02167 1.5875,3.77473 1.37583,-0.14111 1.86972,-0.98778 0.52916,-0.98778 -1.19944,0 -1.48166,-0.635 -0.38805,-0.91722 0.98778,-0.24695 1.76389,-1.34056 1.44639,-2.11667 -0.28223,-0.74083 -2.08139,-0.59972 -3.175,0.24694 z"
         inkscape:connector-curvature="0"
         style="stroke-width:0.03527778" />
      <path
         id="path2558"
         d="m 159.66711,192.02834 c -0.49389,0.42334 -1.34056,3.73945 -1.34056,5.29167 0,1.05833 0.635,0.74083 1.02306,-0.52917 0.21166,-0.67027 0.88194,-1.51694 1.44639,-1.97555 1.23472,-0.88195 1.41111,-2.29306 0.38805,-2.8575 -0.84667,-0.45861 -0.84667,-0.45861 -1.51694,0.0705 z"
         inkscape:connector-curvature="0"
         style="stroke-width:0.03527778" />
      <path
         id="path2560"
         d="m 163.23016,192.4164 c -1.27,0.98778 -1.02305,3.06917 0.42334,3.06917 1.44638,0 4.19805,0.81139 4.93889,1.44639 0.81138,0.70555 1.72861,0.88194 1.72861,0.35277 0,-0.21166 -0.14111,-0.45861 -0.35278,-0.56444 -0.59972,-0.38806 -0.38806,-1.05833 0.45861,-1.41111 0.42333,-0.21167 0.77611,-0.67028 0.77611,-1.05834 0,-0.56444 -0.21167,-0.70555 -1.12889,-0.67027 -0.635,0.0353 -1.16416,-0.0706 -1.16416,-0.24695 0,-0.77611 -1.44639,-0.24694 -1.94028,0.74084 -0.635,1.19944 -1.34056,1.09361 -1.16417,-0.17639 0.21167,-1.55223 -1.34056,-2.43417 -2.57528,-1.48167 z m 1.09361,1.48167 c -0.24694,0.3175 -0.52916,0.45861 -0.59972,0.38805 -0.24694,-0.24694 0.24695,-0.91722 0.67028,-0.91722 0.21167,0 0.21167,0.21167 -0.0706,0.52917 z m 4.23334,0.67027 c 0,0.10584 -0.14111,0.28223 -0.35278,0.38806 -0.17639,0.10583 -0.35278,0.0353 -0.35278,-0.14111 0,-0.21167 0.17639,-0.38806 0.35278,-0.38806 0.21167,0 0.35278,0.0706 0.35278,0.14111 z"
         inkscape:connector-curvature="0"
         style="stroke-width:0.03527778" />
      <path
         id="path2562"
         d="m 48.471552,192.55751 c -0.28222,0.28222 -0.28222,1.97556 0,2.71639 0.42333,1.05833 0.84666,0.56444 0.84666,-0.98778 0,-1.51694 -0.35277,-2.2225 -0.84666,-1.72861 z"
         inkscape:connector-curvature="0"
         style="stroke-width:0.03527778" />
      <path
         id="path2564"
         d="m 96.061272,197.1789 c -0.98778,0.67028 -1.94028,2.57528 -1.86972,3.59833 0.10583,1.23473 1.44639,2.46945 2.68111,2.46945 1.23472,0 1.19945,-0.67028 -0.0353,-1.19945 -0.67028,-0.28222 -1.30528,-0.635 -1.41111,-0.84666 -0.35278,-0.56445 0.38805,-2.61056 1.16417,-3.13973 0.38805,-0.28222 0.70555,-0.635 0.70555,-0.84666 0,-0.38806 -0.74083,-0.42334 -1.23472,-0.0353 z"
         inkscape:connector-curvature="0"
         style="stroke-width:0.03527778" />
      <path
         id="path2566"
         d="m 80.362662,197.56696 c -1.51694,0.28222 -1.97556,1.44638 -0.56444,1.44638 0.81139,0 0.91722,0.14112 0.91722,1.23473 0,0.81139 -0.24695,1.44639 -0.70556,1.83444 -0.38805,0.35278 -0.70555,0.70556 -0.70555,0.84667 0,0.38805 2.36361,0.635 3.38666,0.35278 1.34056,-0.35278 1.44639,-1.02306 0.24695,-1.16417 -0.91722,-0.10583 -0.98778,-0.21167 -0.98778,-1.65806 0,-1.48166 0.0706,-1.5875 1.23472,-1.97555 0.67028,-0.21167 1.23473,-0.56445 1.23473,-0.74084 0,-0.38805 -2.36362,-0.49388 -4.05695,-0.17638 z"
         inkscape:connector-curvature="0"
         style="stroke-width:0.03527778" />
      <path
         id="path2568"
         d="m 89.887662,198.69584 c -0.45861,1.62278 -0.35278,4.16278 0.17639,4.30389 0.21167,0.0353 0.38806,-0.52916 0.45861,-1.27 0.14111,-1.62277 0.52917,-1.65805 1.27,-0.0706 0.3175,0.67028 0.81139,1.23472 1.09361,1.23472 0.67028,0 0.67028,-0.3175 0.0353,-1.79917 -0.35277,-0.81139 -0.38805,-1.37583 -0.17639,-1.83444 0.635,-1.12889 0.0353,-2.01083 -1.27,-2.01083 -1.12888,0 -1.23472,0.10583 -1.5875,1.44638 z m 2.11667,-0.0705 c 0,0.17639 -0.24695,0.38805 -0.52917,0.52917 -0.3175,0.10583 -0.52917,0 -0.52917,-0.3175 0,-0.28223 0.24695,-0.52917 0.52917,-0.52917 0.28222,0 0.52917,0.14111 0.52917,0.3175 z"
         inkscape:connector-curvature="0"
         style="stroke-width:0.03527778" />
      <path
         id="path2570"
         d="m 98.883502,197.63751 c -0.14112,0.21167 0.0705,0.59972 0.49388,0.88195 0.846668,0.59972 0.917228,1.69333 0.21167,2.96333 -1.09361,1.905 -0.24694,2.50472 0.881948,0.59972 0.88194,-1.44639 0.91722,-3.45722 0.0706,-4.23333 -0.740838,-0.70556 -1.340558,-0.77611 -1.658058,-0.21167 z"
         inkscape:connector-curvature="0"
         style="stroke-width:0.03527778" />
      <path
         id="path2572"
         d="m 103.36377,197.8139 c 0.14111,0.74083 0.77611,0.81139 0.91723,0.0353 0.0706,-0.35278 -0.10584,-0.59972 -0.45862,-0.59972 -0.35277,0 -0.52916,0.21166 -0.45861,0.56444 z"
         inkscape:connector-curvature="0"
         style="stroke-width:0.03527778" />
      <path
         id="path2574"
         d="m 85.372112,198.41362 c -1.05834,1.12889 -0.98778,1.94028 0.28222,2.64584 1.37583,0.77611 1.37583,1.48166 0,1.48166 -1.09361,0 -1.5875,1.02306 -0.52917,1.09361 0.28222,0.0353 0.74083,0.0706 0.98778,0.10584 0.635,0.10583 2.01083,-1.23473 2.01083,-1.97556 0,-0.38805 -0.45861,-0.9525 -1.05833,-1.27 -1.30528,-0.74083 -1.34056,-1.41111 -0.17639,-1.69333 0.49389,-0.14111 0.84667,-0.38806 0.77611,-0.635 -0.24694,-0.74084 -1.51694,-0.59972 -2.29305,0.24694 z"
         inkscape:connector-curvature="0"
         style="stroke-width:0.03527778" />
      <path
         id="path2576"
         d="m 174.20155,200.21279 c 0,1.55222 0.3175,2.32833 0.91722,2.32833 0.52917,0 0.59973,-0.70555 0.28223,-2.43416 -0.3175,-1.51695 -1.19945,-1.44639 -1.19945,0.10583 z"
         inkscape:connector-curvature="0"
         style="stroke-width:0.03527778" />
      <path
         id="path2578"
         d="m 48.789052,200.17751 c -0.3175,1.19945 -0.10584,2.46945 0.45861,2.64583 0.28222,0.0706 0.45861,-0.28222 0.49389,-1.12888 0,-0.70556 0.0353,-1.44639 0.0706,-1.69334 0.0706,-0.81139 -0.81139,-0.67028 -1.02306,0.17639 z"
         inkscape:connector-curvature="0"
         style="stroke-width:0.03527778" />
      <path
         id="path2580"
         d="m 75.564882,200.56557 c -0.10583,0.24694 -0.77611,0.56444 -1.51694,0.70555 -2.08139,0.3175 -4.30389,2.25778 -5.75028,5.04472 -1.37583,2.57528 -1.83444,4.69195 -1.05833,4.93889 0.24694,0.10584 0.42333,-0.14111 0.42333,-0.59972 0,-0.91722 1.83444,-4.7625 2.71639,-5.82083 1.27,-1.44639 2.68111,-2.29306 3.84528,-2.29306 1.05833,0 1.19944,0.10584 1.19944,0.88195 0,0.88194 0,0.88194 1.19945,0.28222 1.55222,-0.74083 2.11666,-1.86972 1.41111,-2.89278 -0.59973,-0.84667 -2.18723,-0.98778 -2.46945,-0.24694 z m 1.62278,1.05833 c 0,0.28222 -0.14111,0.635 -0.35278,0.74083 -0.17639,0.10584 -0.35278,-0.10583 -0.35278,-0.49389 0,-0.42333 0.17639,-0.74083 0.35278,-0.74083 0.21167,0 0.35278,0.21167 0.35278,0.49389 z"
         inkscape:connector-curvature="0"
         style="stroke-width:0.03527778" />
      <path
         id="path2582"
         d="m 107.52655,200.60084 c 0,0.3175 0.3175,0.52917 0.88195,0.52917 1.905,0 5.04472,3.95111 5.60916,7.12611 0.24695,1.37584 0.77611,1.97556 1.30528,1.44639 0.35278,-0.35278 -0.35278,-3.28083 -1.23472,-4.93889 -0.81139,-1.5875 -2.61056,-3.56305 -3.77472,-4.19805 -1.30528,-0.67028 -2.78695,-0.635 -2.78695,0.0353 z"
         inkscape:connector-curvature="0"
         style="stroke-width:0.03527778" />
      <path
         id="path2586"
         d="m 103.39905,202.2589 c -1.16417,0.84667 -1.51694,1.69333 -0.70555,1.69333 0.24694,0 0.88194,-0.45861 1.41111,-0.98777 1.55222,-1.62278 1.16416,-2.01084 -0.70556,-0.70556 z"
         inkscape:connector-curvature="0"
         style="stroke-width:0.03527778" />
      <path
         id="path2604"
         d="m 49.459332,207.9739 c -0.3175,0.81139 0.24694,2.39889 0.88194,2.61056 0.38806,0.14111 0.45861,-0.10584 0.28222,-1.16417 -0.28222,-1.65806 -0.81139,-2.32833 -1.16416,-1.44639 z"
         inkscape:connector-curvature="0"
         style="stroke-width:0.03527778" />
      <path
         id="path2612"
         d="m 173.84877,210.47862 c 0,1.16417 0.14112,1.5875 0.52917,1.5875 0.38806,0 0.52917,-0.42333 0.52917,-1.5875 0,-1.16416 -0.14111,-1.5875 -0.52917,-1.5875 -0.38805,0 -0.52917,0.42334 -0.52917,1.5875 z"
         inkscape:connector-curvature="0"
         style="stroke-width:0.03527778" />
      <path
         id="path2636"
         d="m 90.769612,212.27779 c -13.08806,0.21167 -32.38501,0.84667 -35.27778,1.19944 -5.15056,0.59973 -5.3975,0.67028 -5.64445,1.65806 -0.28222,1.16417 0.0706,2.2225 0.77611,2.2225 0.42334,0 0.49389,-0.24695 0.35278,-1.05833 -0.14111,-0.56445 -0.0706,-1.12889 0.0706,-1.23473 0.84667,-0.49389 11.07722,-1.23472 22.61306,-1.62277 23.31861,-0.77612 62.229988,-0.45862 86.254158,0.74083 16.96861,0.84667 17.10972,0.84667 17.10972,0.21167 0,-0.49389 -0.56444,-0.56445 -3.95111,-0.59973 -2.18722,-0.0353 -4.37444,-0.10583 -4.86833,-0.14111 -5.99722,-0.67028 -60.11333,-1.62278 -77.434718,-1.37583 z"
         inkscape:connector-curvature="0"
         style="stroke-width:0.03527778" />
      <path
         id="path2640"
         d="m 115.3935,217.95751 c 0.21166,2.96333 1.23472,7.9375 2.39889,11.92389 1.83444,6.06778 4.44499,8.64306 8.88999,8.64306 1.09361,0 1.37584,0.14111 1.65806,0.88194 0.42333,1.09361 0.9525,1.09361 2.15194,0.0706 1.34056,-1.12889 1.51695,-2.2225 0.42334,-3.06917 -1.27,-0.98778 -2.15195,-0.91722 -2.43417,0.21167 -0.21167,0.84666 -0.3175,0.88194 -2.04611,0.67027 -2.04611,-0.28222 -4.445,-1.51694 -5.25639,-2.75166 -1.27,-1.97556 -2.50472,-5.715 -3.63361,-11.00667 -0.67028,-3.10444 -1.19944,-6.24417 -1.19944,-6.985 0,-0.98778 -0.14111,-1.30528 -0.56445,-1.30528 -0.52916,0 -0.56444,0.35278 -0.38805,2.71639 z m 15.0636,19.64972 c 0,0.56445 -0.635,1.09362 -0.9525,0.77612 -0.28222,-0.28223 0.17639,-1.27 0.59973,-1.27 0.17639,0 0.35277,0.21166 0.35277,0.49388 z"
         inkscape:connector-curvature="0"
         style="stroke-width:0.03527778" />
      <path
         id="path2642"
         d="m 66.815992,218.4514 c -0.74083,8.92528 -3.38666,14.04056 -8.5725,16.65111 -2.71639,1.37584 -5.08,1.72861 -13.68778,2.01084 -4.445,0.14111 -8.14916,0.28222 -8.21972,0.3175 -0.0705,0 -0.0705,0.21166 0,0.42333 0.0706,0.24694 2.29306,0.35278 6.84389,0.3175 11.78278,-0.0706 14.88722,-0.77611 18.97945,-4.30389 3.06916,-2.64583 5.29166,-8.39611 5.75027,-15.02833 0.17639,-2.75167 0.14112,-3.24556 -0.3175,-3.24556 -0.42333,0 -0.59972,0.635 -0.77611,2.8575 z"
         inkscape:connector-curvature="0"
         style="stroke-width:0.03527778" />
      <path
         id="path2644"
         d="m 174.37794,216.40529 c -0.35278,0.88194 -0.0353,2.18722 0.52917,2.18722 0.38805,0 0.49389,-0.3175 0.42333,-1.05833 -0.14111,-1.30528 -0.67028,-1.94028 -0.9525,-1.12889 z"
         inkscape:connector-curvature="0"
         style="stroke-width:0.03527778" />
      <path
         id="path2646"
         d="m 130.98627,218.09862 c -1.55222,2.92806 -0.0353,5.75028 2.46945,4.62139 1.76389,-0.81139 3.28083,-5.96194 1.69333,-5.64444 -0.38806,0.0705 -0.59972,0.42333 -0.56444,0.81139 0.21166,1.94027 -1.34056,4.05694 -2.61056,3.56305 -0.52917,-0.21167 -0.52917,-1.05833 0.0706,-3.4925 0.35278,-1.30528 -0.35277,-1.23472 -1.05833,0.14111 z"
         inkscape:connector-curvature="0"
         style="stroke-width:0.03527778" />
      <path
         id="path2648"
         d="m 150.98877,218.62779 c -1.05833,0.74083 -0.98778,1.37583 0.28223,2.25778 1.48166,1.05833 1.34055,1.51694 -0.38806,1.23472 -1.27,-0.21167 -1.41111,-0.17639 -1.30528,0.38805 0.24695,1.41112 4.51556,0.77612 4.51556,-0.67027 0,-0.24695 -0.3175,-0.67028 -0.74084,-0.9525 -2.01083,-1.41111 -1.905,-1.27 -1.09361,-1.72861 0.42334,-0.21167 0.77611,-0.56445 0.77611,-0.74084 0,-0.52916 -1.16416,-0.42333 -2.04611,0.21167 z"
         inkscape:connector-curvature="0"
         style="stroke-width:0.03527778" />
      <path
         id="path2650"
         d="m 136.41905,219.79196 c -0.74083,0.56444 -0.77611,0.74083 -0.3175,1.27 0.42333,0.52916 0.42333,0.635 -0.10583,0.91722 -0.70556,0.42333 -0.38806,1.37583 0.45861,1.37583 0.3175,0 0.88194,-0.3175 1.27,-0.74083 0.52916,-0.56445 0.56444,-0.84667 0.21166,-1.37584 -0.24694,-0.42333 -0.28222,-0.74083 -0.0705,-0.88194 0.52917,-0.3175 0.42333,-1.23472 -0.14111,-1.23472 -0.28222,0 -0.84667,0.28222 -1.30528,0.67028 z"
         inkscape:connector-curvature="0"
         style="stroke-width:0.03527778" />
      <path
         id="path2652"
         d="m 139.73516,220.49751 c -0.77611,1.23472 -0.56444,2.68111 0.38806,3.21028 0.49389,0.24694 1.12889,0.35278 1.41111,0.24694 0.77611,-0.3175 0.74083,-1.37583 -0.0353,-1.23472 -1.12889,0.17639 -0.88194,-0.9525 0.28222,-1.37583 1.37584,-0.52917 1.16417,-1.30528 -0.42333,-1.44639 -0.88195,-0.0706 -1.30528,0.0705 -1.62278,0.59972 z"
         inkscape:connector-curvature="0"
         style="stroke-width:0.03527778" />
      <path
         id="path2654"
         d="m 143.86266,220.53279 c -0.21167,0.35278 -0.35278,1.05833 -0.35278,1.55222 0,1.19945 0.98778,1.19945 1.27,0.0353 0.17639,-0.67028 0.45861,-0.88195 1.19945,-0.88195 1.34055,0 2.11666,-0.3175 2.11666,-0.88194 0,-0.35278 -0.56444,-0.49389 -1.94027,-0.49389 -1.51695,0 -2.01084,0.14111 -2.29306,0.67028 z"
         inkscape:connector-curvature="0"
         style="stroke-width:0.03527778" />
      <path
         id="path2656"
         d="m 156.986,220.77973 c -0.88195,0.17639 -1.65806,1.44639 -2.01084,3.38667 -0.21166,1.02306 -0.14111,1.30528 0.28222,1.30528 0.28223,0 0.635,-0.35278 0.74084,-0.81139 0.14111,-0.45861 0.81139,-1.05833 1.72861,-1.48167 1.51694,-0.74083 2.11667,-1.79916 1.23472,-2.32833 -0.49389,-0.3175 -0.635,-0.3175 -1.97555,-0.0706 z"
         inkscape:connector-curvature="0"
         style="stroke-width:0.03527778" />
      <path
         id="path2658"
         d="m 161.04294,220.95612 c -0.56444,0.21167 -1.05833,0.70556 -1.16417,1.19945 -0.35277,1.44639 0.0353,1.905 1.69334,1.905 0.84666,0 2.08139,0.28222 2.75166,0.635 0.74084,0.38805 1.5875,0.56444 2.08139,0.45861 0.635,-0.17639 1.09361,0 1.65806,0.56444 0.45861,0.45861 1.05833,0.81139 1.37583,0.81139 0.59972,0 0.74084,-0.91722 0.14111,-1.12889 -0.28222,-0.10583 -0.28222,-0.35277 0.0706,-0.91722 0.67028,-1.05833 0.0353,-2.01083 -1.30528,-1.97556 -0.56444,0 -1.16417,-0.17638 -1.30528,-0.45861 -0.45861,-0.74083 -1.34055,-0.52916 -2.46944,0.49389 l -1.05834,0.98778 0.24695,-1.02306 c 0.17639,-0.74083 0.0705,-1.12888 -0.38806,-1.48166 -0.74083,-0.56445 -0.98777,-0.56445 -2.32833,-0.0706 z m 0.9525,1.51695 c -0.14111,0.28222 -0.38806,0.52916 -0.56444,0.52916 -0.21167,0 -0.17639,-0.21166 0.0705,-0.52916 0.24695,-0.28223 0.49389,-0.52917 0.56445,-0.52917 0.0705,0 0.0353,0.24694 -0.0706,0.52917 z m 5.08,0.9525 c -0.10583,0.88194 -0.59972,1.12889 -1.30528,0.67028 -0.67028,-0.42334 -0.21166,-1.44639 0.67028,-1.44639 0.56444,0 0.74083,0.17638 0.635,0.77611 z"
         inkscape:connector-curvature="0"
         style="stroke-width:0.03527778" />
      <path
         id="path2660"
         d="m 50.023772,222.68473 c 0,1.83445 0.84667,1.69334 0.98778,-0.14111 0.0706,-0.98778 -0.0353,-1.30528 -0.42334,-1.30528 -0.42333,0 -0.56444,0.38806 -0.56444,1.44639 z"
         inkscape:connector-curvature="0"
         style="stroke-width:0.03527778" />
      <path
         id="path2662"
         d="m 173.39016,222.19084 c -0.3175,0.28223 -0.3175,1.97556 -0.0353,2.71639 0.10583,0.3175 0.45861,0.56445 0.74083,0.56445 0.42333,0 0.49389,-0.24695 0.3175,-1.09361 -0.10583,-0.59973 -0.21167,-1.41111 -0.21167,-1.76389 0,-0.67028 -0.38805,-0.88195 -0.81139,-0.42334 z"
         inkscape:connector-curvature="0"
         style="stroke-width:0.03527778" />
      <path
         id="path2674"
         d="m 49.741552,229.91668 c -0.17639,0.3175 -0.28222,0.84667 -0.21167,1.16417 0.38806,2.01083 0.52917,2.50472 0.84667,2.50472 0.45861,0 0.45861,-3.77472 0.0353,-4.05695 -0.21167,-0.10583 -0.49389,0.0706 -0.67028,0.38806 z"
         inkscape:connector-curvature="0"
         style="stroke-width:0.03527778" />
      <path
         id="path2678"
         d="m 173.39016,230.65751 c -0.14111,0.10584 -0.24694,0.91722 -0.24694,1.76389 0,1.12889 0.14111,1.51695 0.52917,1.51695 0.38805,0 0.52916,-0.42334 0.52916,-1.76389 0,-1.62278 -0.24694,-2.11667 -0.81139,-1.51695 z"
         inkscape:connector-curvature="0"
         style="stroke-width:0.03527778" />
      <path
         id="path2692"
         d="m 172.79044,240.95862 c 0,0.74084 0.17639,1.09362 0.56445,1.09362 0.38805,0 0.49388,-0.28223 0.42333,-0.95251 -0.14111,-1.37583 -0.98778,-1.48166 -0.98778,-0.14111 z"
         inkscape:connector-curvature="0"
         style="stroke-width:0.03527778" />
      <path
         id="path2694"
         d="m 49.459332,240.78223 c -0.3175,0.77612 0,3.56306 0.38805,3.49251 0.49389,-0.14112 0.67028,-3.98639 0.17639,-3.98639 -0.21167,0 -0.45861,0.21166 -0.56444,0.49388 z"
         inkscape:connector-curvature="0"
         style="stroke-width:0.03527778" />
      <path
         id="path2712"
         d="m 172.08489,247.6614 c 0,1.41111 0.3175,2.15195 0.9525,2.15195 0.38805,0 0.49388,-0.21167 0.3175,-0.81139 -0.10584,-0.42334 -0.21167,-1.12889 -0.21167,-1.5875 0,-0.45861 -0.21167,-0.77611 -0.52917,-0.77611 -0.35278,0 -0.52916,0.35277 -0.52916,1.02305 z"
         inkscape:connector-curvature="0"
         style="stroke-width:0.03527778" />
      <path
         id="path2718"
         d="m 49.494602,250.16612 c -0.35277,1.12889 0.14111,3.52778 0.74084,3.52778 0.35277,0 0.49389,-0.52916 0.49389,-2.11666 0,-1.5875 -0.10584,-2.11667 -0.49389,-2.11667 -0.28223,0 -0.635,0.3175 -0.74084,0.70555 z"
         inkscape:connector-curvature="0"
         style="stroke-width:0.03527778" />
      <path
         id="path2726"
         d="m 172.15544,255.52835 c 0.14111,2.61055 0.98778,2.71639 0.98778,0.14111 0,-1.55222 -0.10583,-1.97556 -0.56445,-1.97556 -0.42333,0 -0.49388,0.35278 -0.42333,1.83445 z"
         inkscape:connector-curvature="0"
         style="stroke-width:0.03527778" />
      <path
         id="path2770"
         d="m 49.565162,260.29085 c -0.42333,0.42333 -0.24695,1.76389 0.28222,2.2225 0.45861,0.38805 0.52917,0.24694 0.52917,-1.02306 0,-1.34055 -0.28222,-1.76389 -0.81139,-1.19944 z"
         inkscape:connector-curvature="0"
         style="stroke-width:0.03527778" />
      <path
         id="path2778"
         d="m 171.37933,263.36001 c -0.35278,0.98778 0.0706,2.68112 0.70556,2.68112 0.45861,0 0.45861,-3.06917 0,-3.35139 -0.21167,-0.10584 -0.49389,0.17639 -0.70556,0.67027 z"
         inkscape:connector-curvature="0"
         style="stroke-width:0.03527778" />
      <path
         id="path2790"
         d="m 171.2735,269.11029 c -0.42334,0.38806 -0.28223,1.34056 0.3175,2.18722 0.81139,1.12889 1.23472,0.45862 0.74083,-1.12888 -0.42333,-1.30528 -0.635,-1.51695 -1.05833,-1.05834 z"
         inkscape:connector-curvature="0"
         style="stroke-width:0.03527778" />
    </g>
  </g>
</svg>
